<?xml version="1.0" encoding="utf-8"?>
<!-- Generator: Adobe Illustrator 15.0.2, SVG Export Plug-In . SVG Version: 6.00 Build 0)  -->
<!DOCTYPE svg PUBLIC "-//W3C//DTD SVG 1.1//EN" "http://www.w3.org/Graphics/SVG/1.1/DTD/svg11.dtd">
<svg version="1.1" id="Calque_1" xmlns="http://www.w3.org/2000/svg" xmlns:xlink="http://www.w3.org/1999/xlink" x="0px" y="0px"
	 width="347px" height="200px" viewBox="0 0 347 200" enable-background="new 0 0 347 200" xml:space="preserve">
<path fill="#FFFBFF" d="M173.5,38.648c33.829,0,61.352,27.522,61.352,61.352s-27.521,61.352-61.352,61.352
	S112.148,133.829,112.148,100S139.671,38.648,173.5,38.648 M173.5,34.834c-35.991,0-65.166,29.175-65.166,65.166
	c0,35.99,29.175,65.166,65.166,65.166c35.99,0,65.166-29.176,65.166-65.166C238.666,64.009,209.49,34.834,173.5,34.834L173.5,34.834
	z"/>
<g>
	<path fill="#FFFBFF" d="M149.149,129.184l2.679-3.494c6.993,10.836,22.954,10.836,22.954,10.836
		c11.303,0,18.875-8.039,18.875-18.875c0-17.477-20.738-17.358-24.699-18.291c-7.457-1.168-20.157-5.012-20.157-19.11
		c0-11.418,9.436-21.086,22.369-21.086c6.989,0,14.215,2.677,18.641,6.871l-2.33,3.961c-4.775-4.307-9.787-6.173-16.194-6.523
		c-10.601,0-18.058,7.689-18.058,16.777c0,8.272,7.34,13.865,16.194,14.797c12.583,1.283,28.777,6.061,28.777,23.186
		c0,12.467-10.137,22.252-23.418,22.604C174.781,140.836,156.956,140.719,149.149,129.184z"/>
</g>
</svg>
