<?xml version="1.0" encoding="utf-8"?>
<!-- Generator: Adobe Illustrator 15.0.2, SVG Export Plug-In . SVG Version: 6.00 Build 0)  -->
<!DOCTYPE svg PUBLIC "-//W3C//DTD SVG 1.1//EN" "http://www.w3.org/Graphics/SVG/1.1/DTD/svg11.dtd">
<svg version="1.1" id="Calque_1" xmlns="http://www.w3.org/2000/svg" xmlns:xlink="http://www.w3.org/1999/xlink" x="0px" y="0px"
	 width="369px" height="384px" viewBox="0 0 369 384" enable-background="new 0 0 369 384" xml:space="preserve">
<path fill="#FFFBFF" d="M184.5,88.282c57.189,0,103.718,46.527,103.718,103.718S241.692,295.718,184.5,295.718
	S80.782,249.189,80.782,192S127.311,88.282,184.5,88.282 M184.5,81.834c-60.845,0-110.166,49.321-110.166,110.166
	c0,60.843,49.321,110.166,110.166,110.166c60.843,0,110.166-49.323,110.166-110.166C294.666,131.155,245.343,81.834,184.5,81.834
	L184.5,81.834z"/>
<g>
	<path fill="#FFFBFF" d="M143.333,241.336l4.53-5.907c11.821,18.319,38.805,18.319,38.805,18.319
		c19.107,0,31.909-13.591,31.909-31.909c0-29.545-35.059-29.345-41.755-30.921c-12.606-1.975-34.077-8.473-34.077-32.306
		c0-19.303,15.952-35.647,37.816-35.647c11.816,0,24.031,4.525,31.514,11.616l-3.938,6.696
		c-8.073-7.281-16.546-10.435-27.377-11.027c-17.921,0-30.528,12.999-30.528,28.362c0,13.984,12.408,23.44,27.376,25.015
		c21.272,2.169,48.649,10.246,48.649,39.196c0,21.076-17.137,37.618-39.589,38.213C186.667,261.035,156.531,260.837,143.333,241.336
		z"/>
</g>
</svg>
