<?xml version="1.0" encoding="utf-8"?>
<!-- Generator: Adobe Illustrator 15.0.2, SVG Export Plug-In . SVG Version: 6.00 Build 0)  -->
<!DOCTYPE svg PUBLIC "-//W3C//DTD SVG 1.1//EN" "http://www.w3.org/Graphics/SVG/1.1/DTD/svg11.dtd">
<svg version="1.1" id="Calque_1" xmlns="http://www.w3.org/2000/svg" xmlns:xlink="http://www.w3.org/1999/xlink" x="0px" y="0px"
	 width="280px" height="365px" viewBox="0 0 280 365" enable-background="new 0 0 280 365" xml:space="preserve">
<rect x="-5.769" y="-117.25" fill="#FFF5F5" width="295.536" height="605.499"/>
<g>
	<g opacity="0.15">
		<path fill="#006E12" d="M-792.889,638.129l13.003-13.002l41.991,41.991l-13.002,13.002L-792.889,638.129z"/>
		<path fill="#006E12" d="M-770.72,615.96l17.064-17.063l32.127,18.974l-19.015-32.088l17.053-17.053l41.99,41.987l-10.628,10.634
			l-32.021-32.026l23.834,40.212l-9.621,9.622l-40.192-23.852l32.02,32.022l-10.626,10.626L-770.72,615.96z"/>
		<path fill="#006E12" d="M-654.336,569.694l-14.729,14.731l4.883,8.979l-13.249,13.247l-26.208-57.773l14.152-14.153l57.77,26.217
			l-13.587,13.587L-654.336,569.694z M-666.108,563.307l-19.727-10.46l10.51,19.682L-666.108,563.307z"/>
		<path fill="#006E12" d="M-622.75,521.555l-8.737-8.739l20.049-20.05l17.904,17.901c-1.222,6.452-2.836,11.627-4.84,15.522
			c-2.005,3.896-5.034,7.867-9.081,11.915c-4.985,4.986-9.897,8.199-14.738,9.641c-4.84,1.44-9.806,1.347-14.893-0.286
			c-5.091-1.635-9.809-4.628-14.165-8.979c-4.584-4.581-7.625-9.514-9.125-14.796c-1.5-5.277-1.304-10.619,0.587-16.023
			c1.488-4.201,4.643-8.709,9.451-13.521c4.642-4.642,8.533-7.69,11.674-9.151c3.143-1.458,6.352-2.064,9.637-1.815
			c3.283,0.245,6.666,1.343,10.139,3.289l-10.282,14.751c-2.1-1.068-4.185-1.406-6.257-1.017c-2.073,0.391-4.064,1.542-5.971,3.452
			c-2.845,2.842-4.124,6.102-3.838,9.767c0.287,3.665,2.568,7.64,6.846,11.915c4.544,4.544,8.644,6.938,12.3,7.174
			c3.657,0.238,7.014-1.168,10.07-4.224c1.454-1.452,2.627-3.042,3.521-4.782c0.896-1.739,1.691-3.963,2.379-6.675l-3.953-3.953
			L-622.75,521.555z"/>
		<path fill="#006E12" d="M-621.804,467.044l34.771-34.773l8.966,8.967l-21.768,21.771l6.673,6.672l20.191-20.19l8.563,8.561
			l-20.192,20.194l8.278,8.277l22.399-22.395l9.509,9.51l-35.403,35.402L-621.804,467.044z"/>
		<path fill="#006E12" d="M-559.335,404.577l13.003-13.002l41.994,41.987l-13.004,13.002L-559.335,404.577z"/>
		<path fill="#006E12" d="M-537.165,382.405l17.063-17.062l32.13,18.972l-19.015-32.084l17.054-17.055l41.99,41.989l-10.628,10.63
			l-32.02-32.026l23.836,40.212l-9.622,9.622l-40.193-23.852l32.022,32.022l-10.628,10.626L-537.165,382.405z"/>
		<path fill="#006E12" d="M-420.78,336.138l-14.729,14.731l4.884,8.979l-13.25,13.251l-26.208-57.773l14.154-14.153l57.77,26.211
			l-13.586,13.589L-420.78,336.138z M-432.554,329.751l-19.728-10.46l10.508,19.682L-432.554,329.751z"/>
		<path fill="#006E12" d="M-389.195,287.998l-8.736-8.734l20.048-20.053l17.904,17.901c-1.222,6.453-2.834,11.629-4.84,15.523
			c-2.004,3.894-5.031,7.867-9.08,11.913c-4.986,4.986-9.898,8.201-14.738,9.644c-4.842,1.441-9.807,1.342-14.895-0.288
			c-5.089-1.633-9.811-4.627-14.165-8.979c-4.583-4.582-7.625-9.513-9.125-14.793c-1.498-5.279-1.302-10.622,0.587-16.027
			c1.489-4.199,4.642-8.705,9.452-13.521c4.644-4.638,8.536-7.69,11.674-9.152c3.143-1.459,6.352-2.065,9.637-1.814
			c3.284,0.245,6.667,1.345,10.141,3.289l-10.282,14.749c-2.101-1.068-4.188-1.408-6.258-1.015
			c-2.074,0.391-4.064,1.542-5.971,3.452c-2.847,2.842-4.126,6.099-3.839,9.765c0.286,3.663,2.569,7.639,6.845,11.917
			c4.544,4.542,8.646,6.938,12.301,7.171c3.655,0.24,7.014-1.166,10.069-4.219c1.452-1.454,2.627-3.046,3.522-4.784
			c0.896-1.738,1.691-3.967,2.378-6.675l-3.954-3.953L-389.195,287.998z"/>
		<path fill="#006E12" d="M-388.25,233.492l34.773-34.773l8.966,8.967l-21.77,21.767l6.672,6.672l20.192-20.192l8.563,8.566
			l-20.192,20.19l8.276,8.279l22.402-22.396l9.508,9.51l-35.405,35.402L-388.25,233.492z"/>
		<path fill="#006E12" d="M-325.781,171.022l13.003-13.003l41.991,41.99l-13.003,13.001L-325.781,171.022z"/>
		<path fill="#006E12" d="M-303.61,148.853l17.063-17.065l32.129,18.971l-19.015-32.085l17.054-17.054l41.988,41.991l-10.626,10.628
			l-32.02-32.023l23.834,40.21l-9.621,9.62l-40.193-23.854l32.021,32.024l-10.627,10.627L-303.61,148.853z"/>
		<path fill="#006E12" d="M-187.226,102.585l-14.732,14.732l4.886,8.979l-13.25,13.251l-26.208-57.773l14.154-14.155l57.77,26.212
			l-13.587,13.587L-187.226,102.585z M-199,96.198l-19.727-10.459l10.507,19.68L-199,96.198z"/>
		<path fill="#006E12" d="M-155.64,54.445l-8.737-8.737l20.046-20.049l17.906,17.9c-1.221,6.455-2.835,11.629-4.841,15.524
			c-2.005,3.894-5.034,7.868-9.081,11.917c-4.986,4.985-9.897,8.201-14.738,9.639c-4.84,1.442-9.806,1.346-14.895-0.286
			c-5.089-1.633-9.808-4.627-14.164-8.979c-4.583-4.583-7.625-9.515-9.125-14.794c-1.5-5.281-1.306-10.623,0.585-16.024
			c1.489-4.203,4.642-8.71,9.45-13.524c4.642-4.638,8.535-7.689,11.674-9.15c3.143-1.46,6.354-2.067,9.638-1.817
			c3.285,0.247,6.666,1.345,10.139,3.29l-10.282,14.754c-2.099-1.067-4.186-1.406-6.255-1.017c-2.073,0.392-4.066,1.542-5.972,3.453
			c-2.846,2.843-4.124,6.101-3.839,9.767c0.286,3.664,2.569,7.638,6.848,11.914c4.544,4.544,8.644,6.938,12.298,7.175
			c3.657,0.238,7.016-1.169,10.069-4.223c1.453-1.453,2.629-3.044,3.522-4.784c0.898-1.738,1.691-3.964,2.381-6.673l-3.953-3.953
			L-155.64,54.445z"/>
		<path fill="#006E12" d="M-154.696-0.063l34.775-34.772l8.964,8.966l-21.767,21.769l6.671,6.673l20.192-20.192l8.563,8.563
			l-20.191,20.195l8.276,8.275l22.4-22.396l9.51,9.509l-35.403,35.401L-154.696-0.063z"/>
		<path fill="#006E12" d="M-92.228-62.53l13.004-13.004l41.991,41.988l-13.002,13.003L-92.228-62.53z"/>
		<path fill="#006E12" d="M-70.055-84.703l17.063-17.063l32.129,18.971l-19.014-32.085l17.053-17.054l41.99,41.991L8.54-79.316
			l-32.022-32.025L0.354-71.132l-9.621,9.622l-40.192-23.853l32.02,32.024l-10.626,10.628L-70.055-84.703z"/>
		<path fill="#006E12" d="M46.33-130.969l-14.732,14.731l4.886,8.979L23.234-94.009l-26.211-57.774l14.154-14.153l57.77,26.211
			L55.36-126.138L46.33-130.969z M34.556-137.355l-19.727-10.462l10.508,19.685L34.556-137.355z"/>
		<path fill="#006E12" d="M77.914-179.109l-8.737-8.737l20.049-20.052l17.904,17.902c-1.222,6.454-2.836,11.631-4.842,15.526
			c-2.004,3.896-5.034,7.864-9.081,11.914c-4.985,4.985-9.897,8.198-14.739,9.64c-4.841,1.44-9.805,1.344-14.892-0.287
			c-5.091-1.632-9.811-4.627-14.166-8.979c-4.583-4.584-7.626-9.515-9.125-14.794c-1.5-5.28-1.304-10.625,0.586-16.024
			c1.49-4.204,4.642-8.709,9.452-13.523c4.642-4.638,8.533-7.688,11.672-9.151c3.144-1.46,6.354-2.066,9.637-1.817
			c3.285,0.248,6.666,1.344,10.141,3.291l-10.282,14.75c-2.102-1.067-4.187-1.407-6.259-1.015c-2.072,0.391-4.063,1.542-5.971,3.452
			c-2.845,2.843-4.125,6.098-3.838,9.766c0.286,3.667,2.57,7.639,6.846,11.917c4.544,4.544,8.646,6.938,12.3,7.178
			c3.657,0.236,7.014-1.172,10.07-4.228c1.451-1.451,2.626-3.043,3.52-4.782c0.898-1.739,1.691-3.962,2.379-6.673l-3.953-3.955
			L77.914-179.109z"/>
		<path fill="#006E12" d="M78.86-233.618l34.772-34.771l8.966,8.965l-21.771,21.769l6.675,6.673l20.193-20.192l8.564,8.563
			l-20.194,20.194l8.276,8.278l22.395-22.397l9.514,9.509l-35.401,35.405L78.86-233.618z"/>
		<path fill="#006E12" d="M141.328-296.087l13.004-13.002l41.987,41.988l-13,13.005L141.328-296.087z"/>
		<path fill="#006E12" d="M163.495-318.257l17.065-17.063l32.131,18.968l-19.017-32.084l17.053-17.054l41.991,41.994l-10.626,10.626
			l-32.019-32.024l23.832,40.209l-9.617,9.621l-40.193-23.851l32.021,32.023l-10.624,10.628L163.495-318.257z"/>
		<path fill="#006E12" d="M279.88-364.522l-14.731,14.731l4.891,8.979l-13.251,13.25l-26.209-57.773l14.153-14.153l57.77,26.211
			l-13.59,13.587L279.88-364.522z M268.109-370.909l-19.73-10.462l10.511,19.682L268.109-370.909z"/>
		<path fill="#006E12" d="M311.469-412.662l-8.735-8.737l20.048-20.052l17.902,17.902c-1.224,6.458-2.838,11.631-4.842,15.526
			c-2.007,3.895-5.029,7.864-9.08,11.913c-4.982,4.986-9.898,8.199-14.738,9.639c-4.842,1.442-9.805,1.348-14.895-0.287
			c-5.087-1.634-9.81-4.627-14.164-8.979c-4.582-4.583-7.622-9.513-9.12-14.794c-1.5-5.28-1.304-10.623,0.585-16.024
			c1.491-4.202,4.64-8.708,9.452-13.521c4.638-4.639,8.534-7.69,11.673-9.153c3.138-1.458,6.354-2.067,9.634-1.817
			c3.285,0.248,6.667,1.346,10.142,3.29l-10.284,14.753c-2.1-1.067-4.187-1.409-6.259-1.017c-2.069,0.39-4.061,1.543-5.969,3.454
			c-2.849,2.842-4.123,6.1-3.842,9.766c0.291,3.667,2.571,7.639,6.844,11.917c4.546,4.544,8.649,6.938,12.3,7.176
			c3.659,0.237,7.018-1.17,10.073-4.226c1.452-1.452,2.625-3.044,3.521-4.782c0.899-1.738,1.691-3.963,2.381-6.673l-3.955-3.953
			L311.469-412.662z"/>
		<path fill="#006E12" d="M312.417-467.172l34.768-34.774l8.966,8.966l-21.764,21.77l6.668,6.674l20.195-20.193l8.564,8.565
			l-20.19,20.192l8.275,8.278l22.4-22.396l9.507,9.509l-35.402,35.404L312.417-467.172z"/>
		<path fill="#006E12" d="M374.884-529.64l13.002-13.002l41.991,41.988l-13.006,13.004L374.884-529.64z"/>
		<path fill="#006E12" d="M397.053-551.811l17.063-17.062l32.132,18.97l-19.015-32.085l17.055-17.054l41.987,41.992l-10.626,10.626
			l-32.022-32.023l23.837,40.209l-9.618,9.621l-40.197-23.851l32.022,32.023l-10.626,10.626L397.053-551.811z"/>
		<path fill="#006E12" d="M513.438-598.078l-14.731,14.732l4.881,8.979l-13.243,13.25l-26.209-57.773l14.149-14.155l57.77,26.212
			l-13.587,13.587L513.438-598.078z M501.666-604.466l-19.728-10.461l10.503,19.683L501.666-604.466z"/>
		<path fill="#006E12" d="M545.021-646.219l-8.735-8.737l20.05-20.051l17.904,17.904c-1.22,6.453-2.834,11.629-4.838,15.525
			c-2.008,3.895-5.037,7.865-9.082,11.912c-4.985,4.985-9.898,8.201-14.737,9.641c-4.842,1.44-9.808,1.348-14.896-0.288
			c-5.089-1.632-9.812-4.627-14.162-8.979c-4.586-4.583-7.628-9.515-9.126-14.794c-1.5-5.277-1.302-10.622,0.587-16.024
			c1.487-4.201,4.643-8.709,9.45-13.519c4.642-4.642,8.53-7.694,11.672-9.154c3.145-1.459,6.354-2.067,9.64-1.815
			c3.282,0.246,6.662,1.342,10.139,3.29l-10.281,14.75c-2.103-1.066-4.187-1.406-6.259-1.015c-2.072,0.39-4.063,1.542-5.974,3.453
			c-2.842,2.842-4.125,6.099-3.833,9.765c0.282,3.664,2.563,7.639,6.844,11.915c4.543,4.544,8.643,6.938,12.3,7.178
			c3.657,0.234,7.016-1.17,10.066-4.226c1.451-1.452,2.625-3.045,3.522-4.783c0.897-1.737,1.688-3.963,2.376-6.673l-3.948-3.953
			L545.021-646.219z"/>
		<path fill="#006E12" d="M545.965-700.725l34.777-34.774l8.965,8.966l-21.771,21.768l6.676,6.673l20.194-20.192l8.563,8.563
			l-20.196,20.193l8.279,8.278l22.396-22.398l9.515,9.511l-35.402,35.401L545.965-700.725z"/>
	</g>
	<g opacity="0.15">
		<path fill="#006E12" d="M-829.553,821.447l13.003-13.005l41.993,41.991l-13.006,13.005L-829.553,821.447z"/>
		<path fill="#006E12" d="M-807.382,799.278l17.063-17.063l32.129,18.97l-19.015-32.084l17.054-17.053l41.989,41.988l-10.628,10.626
			l-32.022-32.02l23.833,40.208l-9.619,9.619l-40.192-23.849l32.02,32.022l-10.626,10.626L-807.382,799.278z"/>
		<path fill="#006E12" d="M-690.998,753.011l-14.729,14.728l4.883,8.98l-13.249,13.247l-26.208-57.77l14.152-14.154l57.77,26.214
			l-13.59,13.586L-690.998,753.011z M-702.772,746.62l-19.727-10.456l10.508,19.678L-702.772,746.62z"/>
		<path fill="#006E12" d="M-659.413,704.867l-8.737-8.734l20.049-20.053l17.904,17.901c-1.226,6.456-2.84,11.63-4.842,15.521
			c-2.004,3.896-5.034,7.871-9.081,11.915c-4.985,4.99-9.897,8.2-14.738,9.641c-4.842,1.44-9.806,1.347-14.893-0.285
			c-5.089-1.632-9.813-4.629-14.167-8.979c-4.583-4.582-7.625-9.514-9.125-14.793c-1.499-5.278-1.303-10.622,0.586-16.027
			c1.49-4.199,4.643-8.705,9.453-13.521c4.642-4.636,8.529-7.688,11.672-9.149c3.143-1.466,6.354-2.065,9.637-1.819
			c3.283,0.249,6.666,1.347,10.139,3.292l-10.282,14.75c-2.099-1.069-4.185-1.404-6.257-1.015c-2.073,0.39-4.064,1.542-5.971,3.448
			c-2.845,2.849-4.124,6.105-3.838,9.77c0.283,3.665,2.566,7.637,6.846,11.915c4.544,4.543,8.644,6.937,12.3,7.175
			s7.01-1.17,10.07-4.221c1.451-1.455,2.622-3.051,3.521-4.788c0.896-1.736,1.691-3.964,2.379-6.672l-3.953-3.95L-659.413,704.867z"
			/>
		<path fill="#006E12" d="M-658.466,650.362l34.773-34.773l8.965,8.969l-21.77,21.765l6.673,6.673l20.193-20.19l8.564,8.563
			l-20.192,20.191l8.278,8.278l22.399-22.396l9.51,9.511l-35.403,35.401L-658.466,650.362z"/>
		<path fill="#006E12" d="M-595.997,587.891l13.002-13.005L-541,616.877l-13.007,13.005L-595.997,587.891z"/>
		<path fill="#006E12" d="M-573.827,565.722l17.063-17.063l32.13,18.967l-19.015-32.081l17.054-17.053l41.99,41.988l-10.628,10.629
			l-32.02-32.022l23.833,40.212l-9.617,9.615l-40.197-23.849l32.026,32.022l-10.628,10.63L-573.827,565.722z"/>
		<path fill="#006E12" d="M-457.442,519.456l-14.731,14.73l4.884,8.979l-13.249,13.244l-26.21-57.77l14.154-14.153l57.77,26.213
			l-13.589,13.586L-457.442,519.456z M-469.216,513.069l-19.728-10.462l10.51,19.68L-469.216,513.069z"/>
		<path fill="#006E12" d="M-425.856,471.316l-8.737-8.737l20.048-20.052l17.904,17.903c-1.226,6.452-2.838,11.626-4.84,15.52
			c-2.006,3.895-5.033,7.87-9.08,11.917c-4.986,4.984-9.897,8.196-14.738,9.637c-4.842,1.444-9.807,1.347-14.895-0.283
			c-5.089-1.634-9.813-4.627-14.164-8.981c-4.583-4.582-7.625-9.512-9.123-14.793c-1.5-5.278-1.305-10.622,0.586-16.029
			c1.489-4.197,4.641-8.705,9.452-13.52c4.642-4.636,8.53-7.687,11.672-9.149c3.143-1.462,6.354-2.067,9.637-1.819
			c3.284,0.249,6.664,1.347,10.141,3.293l-10.282,14.753c-2.101-1.072-4.186-1.41-6.258-1.019c-2.075,0.39-4.065,1.542-5.973,3.448
			c-2.845,2.847-4.124,6.105-3.837,9.771c0.282,3.664,2.565,7.638,6.845,11.915c4.544,4.542,8.645,6.936,12.301,7.174
			c3.657,0.24,7.01-1.17,10.069-4.223c1.448-1.451,2.622-3.046,3.522-4.782c0.896-1.74,1.691-3.965,2.381-6.674l-3.954-3.954
			L-425.856,471.316z"/>
		<path fill="#006E12" d="M-424.912,416.806l34.773-34.773l8.964,8.967l-21.769,21.771l6.674,6.671l20.192-20.194l8.563,8.564
			l-20.192,20.195l8.276,8.277l22.4-22.398l9.511,9.511l-35.404,35.402L-424.912,416.806z"/>
		<path fill="#006E12" d="M-362.443,354.339l13.003-13.009l41.991,41.995l-13.007,13.002L-362.443,354.339z"/>
		<path fill="#006E12" d="M-340.272,332.166l17.063-17.063l32.129,18.969l-19.015-32.082l17.054-17.052l41.99,41.988l-10.628,10.628
			l-32.02-32.022l23.833,40.211l-9.617,9.617l-40.197-23.847l32.024,32.022l-10.628,10.626L-340.272,332.166z"/>
		<path fill="#006E12" d="M-223.888,285.901l-14.732,14.73l4.886,8.98l-13.25,13.247l-26.21-57.77l14.155-14.154l57.77,26.214
			l-13.591,13.586L-223.888,285.901z M-235.662,279.513l-19.727-10.463l10.508,19.681L-235.662,279.513z"/>
		<path fill="#006E12" d="M-192.302,237.764l-8.735-8.738l20.047-20.053l17.899,17.901c-1.221,6.454-2.835,11.63-4.841,15.525
			c-2.002,3.893-5.031,7.866-9.077,11.915c-4.986,4.982-9.897,8.196-14.738,9.637c-4.843,1.444-9.806,1.347-14.894-0.283
			c-5.09-1.634-9.813-4.627-14.165-8.983c-4.584-4.584-7.625-9.512-9.123-14.791c-1.501-5.278-1.305-10.622,0.586-16.027
			c1.488-4.199,4.644-8.705,9.452-13.518c4.641-4.64,8.53-7.691,11.673-9.151c3.138-1.464,6.354-2.067,9.636-1.82
			c3.283,0.251,6.663,1.349,10.142,3.295l-10.282,14.753c-2.1-1.068-4.186-1.41-6.257-1.018c-2.072,0.394-4.065,1.545-5.971,3.449
			c-2.845,2.846-4.125,6.104-3.838,9.769c0.283,3.665,2.566,7.639,6.846,11.915c4.544,4.546,8.644,6.939,12.301,7.175
			c3.656,0.239,7.01-1.167,10.07-4.223c1.449-1.452,2.623-3.05,3.521-4.782c0.898-1.739,1.692-3.965,2.379-6.675l-3.953-3.953
			L-192.302,237.764z"/>
		<path fill="#006E12" d="M-191.358,183.254l34.775-34.772l8.964,8.966l-21.77,21.768l6.673,6.673l20.192-20.192l8.565,8.563
			l-20.193,20.193l8.278,8.278l22.4-22.396l9.511,9.511l-35.406,35.401L-191.358,183.254z"/>
		<path fill="#006E12" d="M-128.889,120.784l13.003-13.005l41.991,41.991l-13.006,13.002L-128.889,120.784z"/>
		<path fill="#006E12" d="M-106.718,98.613l17.064-17.063l32.129,18.968l-19.014-32.08l17.053-17.054l41.989,41.989l-10.626,10.628
			l-32.022-32.026l23.833,40.211l-9.619,9.617l-40.196-23.849l32.023,32.025l-10.626,10.626L-106.718,98.613z"/>
		<path fill="#006E12" d="M9.666,52.347L-5.066,67.079l4.886,8.98l-13.25,13.246l-26.208-57.77l14.155-14.152l57.77,26.211
			L18.696,57.177L9.666,52.347z M-2.108,45.96l-19.727-10.461l10.51,19.68L-2.108,45.96z"/>
		<path fill="#006E12" d="M41.25,4.209l-8.737-8.737L52.563-24.58l17.902,17.9c-1.224,6.456-2.838,11.63-4.844,15.523
			c-2,3.895-5.029,7.869-9.077,11.917c-4.985,4.985-9.897,8.194-14.738,9.637c-4.841,1.443-9.804,1.346-14.892-0.285
			c-5.091-1.634-9.814-4.627-14.167-8.982C8.167,16.55,5.124,11.616,3.626,6.339C2.127,1.059,2.321-4.284,4.212-9.689
			c1.49-4.2,4.643-8.705,9.453-13.519c4.642-4.639,8.529-7.691,11.672-9.153c3.138-1.462,6.354-2.067,9.637-1.819
			c3.283,0.25,6.662,1.348,10.139,3.294L34.834-16.133c-2.1-1.07-4.187-1.409-6.257-1.017c-2.072,0.392-4.063,1.542-5.973,3.45
			c-2.845,2.845-4.123,6.102-3.838,9.768c0.286,3.667,2.566,7.639,6.848,11.917c4.544,4.544,8.644,6.936,12.3,7.172
			c3.657,0.238,7.01-1.168,10.07-4.223c1.447-1.452,2.621-3.048,3.519-4.784c0.901-1.737,1.693-3.963,2.381-6.673L49.93-4.478
			L41.25,4.209z"/>
		<path fill="#006E12" d="M42.198-50.302l34.773-34.77l8.963,8.963l-21.77,21.77l6.673,6.671L91.032-67.86l8.564,8.563
			L79.404-39.103l8.276,8.276l22.401-22.396l9.51,9.509L84.186-8.308L42.198-50.302z"/>
		<path fill="#006E12" d="M104.665-112.771l13.003-13.006l41.991,41.993l-13.005,13.003L104.665-112.771z"/>
		<path fill="#006E12" d="M126.837-134.941l17.063-17.063l32.129,18.966l-19.014-32.083l17.055-17.054l41.987,41.989l-10.626,10.626
			l-32.025-32.02l23.837,40.209l-9.615,9.619l-40.197-23.849l32.02,32.023l-10.628,10.628L126.837-134.941z"/>
		<path fill="#006E12" d="M243.222-181.209l-14.731,14.73l4.88,8.98l-13.244,13.246l-26.209-57.77l14.149-14.155l57.77,26.214
			l-13.586,13.586L243.222-181.209z M231.449-187.594l-19.729-10.461l10.503,19.68L231.449-187.594z"/>
		<path fill="#006E12" d="M274.803-229.347l-8.735-8.734l20.05-20.052l17.901,17.902c-1.221,6.453-2.835,11.629-4.838,15.522
			c-2.008,3.895-5.035,7.868-9.077,11.916c-4.986,4.986-9.897,8.197-14.739,9.638c-4.842,1.445-9.808,1.347-14.896-0.283
			c-5.089-1.634-9.812-4.627-14.162-8.981c-4.582-4.583-7.626-9.513-9.128-14.792c-1.502-5.279-1.304-10.624,0.585-16.029
			c1.491-4.198,4.647-8.705,9.454-13.519c4.646-4.639,8.53-7.69,11.672-9.151c3.141-1.462,6.354-2.067,9.64-1.819
			c3.286,0.249,6.662,1.348,10.139,3.293l-10.281,14.75c-2.1-1.068-4.186-1.406-6.259-1.015c-2.072,0.39-4.063,1.542-5.974,3.449
			c-2.843,2.845-4.125,6.103-3.836,9.768c0.285,3.668,2.567,7.639,6.848,11.917c4.542,4.544,8.642,6.936,12.299,7.172
			c3.658,0.24,7.011-1.166,10.066-4.222c1.452-1.452,2.625-3.047,3.522-4.783c0.897-1.739,1.688-3.963,2.376-6.673l-3.948-3.953
			L274.803-229.347z"/>
		<path fill="#006E12" d="M275.747-283.856l34.779-34.773l8.967,8.966l-21.775,21.769l6.68,6.671l20.19-20.19l8.561,8.563
			l-20.19,20.192l8.275,8.278l22.4-22.398l9.513,9.509l-35.404,35.403L275.747-283.856z"/>
		<path fill="#006E12" d="M338.218-346.326l13.006-13.005l41.991,41.992l-13.006,13.003L338.218-346.326z"/>
		<path fill="#006E12" d="M360.387-368.497l17.067-17.064l32.129,18.969l-19.017-32.083l17.055-17.054l41.991,41.989l-10.626,10.626
			l-32.021-32.02l23.832,40.211l-9.615,9.616l-40.197-23.847l32.022,32.024l-10.626,10.626L360.387-368.497z"/>
		<path fill="#006E12" d="M476.773-414.762l-14.731,14.732l4.891,8.979l-13.255,13.248l-26.209-57.77l14.157-14.154l57.77,26.212
			l-13.591,13.586L476.773-414.762z M465.004-421.15l-19.733-10.459l10.513,19.679L465.004-421.15z"/>
		<path fill="#006E12" d="M508.36-462.901l-8.737-8.737l20.052-20.051l17.899,17.899c-1.221,6.456-2.835,11.63-4.839,15.526
			c-2.007,3.895-5.029,7.867-9.08,11.916c-4.982,4.985-9.896,8.197-14.738,9.641c-4.842,1.442-9.804,1.344-14.896-0.286
			c-5.09-1.635-9.809-4.629-14.163-8.979c-4.584-4.583-7.622-9.515-9.122-14.796c-1.5-5.279-1.302-10.621,0.587-16.027
			c1.489-4.198,4.64-8.705,9.45-13.519c4.638-4.638,8.53-7.689,11.672-9.15c3.141-1.459,6.354-2.067,9.639-1.82
			c3.283,0.25,6.663,1.349,10.137,3.294l-10.283,14.75c-2.102-1.071-4.188-1.409-6.258-1.017c-2.072,0.392-4.062,1.542-5.97,3.451
			c-2.849,2.843-4.121,6.103-3.84,9.768c0.285,3.666,2.567,7.639,6.846,11.916c4.542,4.544,8.647,6.936,12.3,7.173
			c3.659,0.238,7.015-1.169,10.068-4.222c1.451-1.454,2.624-3.048,3.523-4.784c0.894-1.739,1.693-3.962,2.376-6.674l-3.954-3.952
			L508.36-462.901z"/>
		<path fill="#006E12" d="M509.303-517.409l34.772-34.773l8.967,8.966l-21.767,21.769l6.67,6.673l20.194-20.192l8.566,8.563
			l-20.192,20.192l8.277,8.277l22.4-22.396l9.505,9.511l-35.4,35.403L509.303-517.409z"/>
		<path fill="#006E12" d="M571.773-579.88l13.002-13.003l41.995,41.988l-13.006,13.003L571.773-579.88z"/>
		<path fill="#006E12" d="M593.942-602.051l17.064-17.063l32.129,18.97l-19.012-32.084l17.053-17.053l41.991,41.987l-10.628,10.628
			l-32.022-32.021l23.836,40.209l-9.615,9.617l-40.197-23.849l32.019,32.025l-10.626,10.626L593.942-602.051z"/>
		<path fill="#006E12" d="M710.33-648.316l-14.73,14.729l4.881,8.98l-13.243,13.249l-26.21-57.773l14.148-14.154l57.77,26.213
			l-13.585,13.586L710.33-648.316z M698.557-654.702l-19.729-10.461l10.505,19.68L698.557-654.702z"/>
		<path fill="#006E12" d="M741.912-696.455l-8.735-8.737l20.052-20.052l17.9,17.9c-1.22,6.456-2.834,11.63-4.84,15.525
			c-2.004,3.895-5.034,7.868-9.076,11.915c-4.985,4.985-9.899,8.197-14.737,9.64c-4.842,1.44-9.807,1.344-14.894-0.288
			c-5.093-1.633-9.815-4.628-14.164-8.979c-4.584-4.583-7.63-9.515-9.13-14.794c-1.5-5.278-1.302-10.623,0.587-16.026
			c1.494-4.2,4.646-8.707,9.456-13.519c4.64-4.64,8.528-7.69,11.669-9.152c3.142-1.458,6.355-2.065,9.643-1.819
			c3.28,0.25,6.663,1.348,10.137,3.294l-10.281,14.75c-2.104-1.069-4.188-1.409-6.257-1.016c-2.072,0.393-4.063,1.542-5.974,3.45
			c-2.842,2.847-4.125,6.104-3.838,9.771c0.285,3.666,2.568,7.638,6.846,11.916c4.545,4.544,8.644,6.938,12.301,7.173
			c3.657,0.239,7.012-1.168,10.066-4.222c1.451-1.452,2.627-3.045,3.524-4.784c0.896-1.738,1.686-3.964,2.375-6.674l-3.955-3.952
			L741.912-696.455z"/>
		<path fill="#006E12" d="M742.854-750.965l34.779-34.773l8.964,8.966l-21.771,21.768l6.678,6.673l20.192-20.192l8.561,8.563
			l-20.195,20.192l8.28,8.278l22.398-22.397l9.513,9.508l-35.402,35.404L742.854-750.965z"/>
	</g>
	<g opacity="0.15">
		<path fill="#006E12" d="M-646.237,784.784l13.003-13.005l41.991,41.991l-13.007,13.002L-646.237,784.784z"/>
		<path fill="#006E12" d="M-624.068,762.612l17.063-17.063l32.132,18.97l-19.015-32.08l17.054-17.053l41.991,41.988l-10.628,10.626
			l-32.024-32.022l23.836,40.215l-9.617,9.615l-40.196-23.849l32.023,32.019l-10.626,10.63L-624.068,762.612z"/>
		<path fill="#006E12" d="M-507.681,716.346l-14.732,14.734l4.884,8.973l-13.249,13.251l-26.208-57.773l14.151-14.15l57.768,26.214
			l-13.587,13.586L-507.681,716.346z M-519.457,709.958l-19.727-10.456l10.51,19.678L-519.457,709.958z"/>
		<path fill="#006E12" d="M-476.099,668.205l-8.737-8.737l20.051-20.046l17.899,17.897c-1.221,6.456-2.833,11.63-4.839,15.521
			c-2.004,3.896-5.031,7.871-9.081,11.919c-4.981,4.979-9.894,8.196-14.735,9.637c-4.839,1.44-9.805,1.347-14.896-0.285
			c-5.088-1.632-9.811-4.625-14.165-8.979c-4.581-4.582-7.624-9.514-9.122-14.793c-1.499-5.282-1.303-10.622,0.588-16.027
			c1.488-4.199,4.639-8.709,9.451-13.518c4.642-4.644,8.531-7.691,11.674-9.149c3.139-1.463,6.354-2.069,9.637-1.823
			c3.283,0.252,6.663,1.347,10.14,3.296l-10.282,14.75c-2.103-1.069-4.191-1.408-6.257-1.019c-2.073,0.394-4.064,1.542-5.975,3.451
			c-2.843,2.846-4.122,6.103-3.84,9.771c0.288,3.661,2.57,7.633,6.848,11.911c4.546,4.546,8.647,6.937,12.304,7.175
			c3.657,0.242,7.01-1.166,10.066-4.225c1.45-1.447,2.626-3.044,3.523-4.784c0.896-1.732,1.691-3.961,2.375-6.672l-3.953-3.954
			L-476.099,668.205z"/>
		<path fill="#006E12" d="M-475.153,613.699l34.772-34.773l8.966,8.965l-21.766,21.769l6.673,6.673l20.191-20.194l8.564,8.564
			l-20.192,20.194l8.278,8.275l22.397-22.396l9.511,9.51l-35.403,35.402L-475.153,613.699z"/>
		<path fill="#006E12" d="M-412.683,551.233l13.002-13.009l41.99,41.991l-13.003,13.002L-412.683,551.233z"/>
		<path fill="#006E12" d="M-390.515,529.06l17.063-17.063l32.131,18.969l-19.013-32.082l17.054-17.055l41.99,41.987l-10.628,10.628
			l-32.024-32.019l23.834,40.207l-9.616,9.619l-40.199-23.849l32.025,32.02l-10.627,10.626L-390.515,529.06z"/>
		<path fill="#006E12" d="M-274.127,482.794l-14.731,14.73l4.884,8.973l-13.25,13.251l-26.208-57.773l14.153-14.149l57.768,26.213
			l-13.587,13.586L-274.127,482.794z M-285.9,476.406l-19.731-10.462l10.512,19.68L-285.9,476.406z"/>
		<path fill="#006E12" d="M-242.545,434.65l-8.737-8.739l20.053-20.048l17.9,17.901c-1.222,6.454-2.836,11.63-4.84,15.523
			c-2.005,3.895-5.029,7.868-9.081,11.917c-4.981,4.979-9.894,8.194-14.733,9.637c-4.842,1.44-9.808,1.347-14.898-0.287
			c-5.087-1.63-9.809-4.625-14.164-8.978c-4.581-4.582-7.624-9.514-9.122-14.793c-1.499-5.282-1.303-10.622,0.588-16.027
			c1.488-4.199,4.638-8.707,9.45-13.518c4.642-4.644,8.529-7.689,11.672-9.151c3.14-1.462,6.352-2.067,9.637-1.818
			c3.286,0.25,6.665,1.348,10.141,3.293l-10.282,14.75c-2.104-1.069-4.189-1.405-6.258-1.015c-2.073,0.394-4.065,1.541-5.975,3.448
			c-2.843,2.845-4.122,6.102-3.84,9.769c0.287,3.666,2.568,7.636,6.846,11.916c4.548,4.542,8.648,6.933,12.305,7.175
			c3.656,0.238,7.01-1.17,10.065-4.223c1.453-1.453,2.627-3.049,3.525-4.788c0.897-1.734,1.691-3.962,2.377-6.674l-3.955-3.954
			L-242.545,434.65z"/>
		<path fill="#006E12" d="M-241.6,380.144l34.772-34.773l8.965,8.967l-21.766,21.767l6.672,6.675l20.192-20.196l8.563,8.566
			l-20.192,20.192l8.278,8.279l22.396-22.398l9.513,9.512l-35.403,35.4L-241.6,380.144z"/>
		<path fill="#006E12" d="M-179.127,317.675l13.004-13.005l41.987,41.993l-13.003,13.002L-179.127,317.675z"/>
		<path fill="#006E12" d="M-156.961,295.504l17.063-17.063l32.133,18.971l-19.015-32.081l17.054-17.056l41.988,41.989
			l-10.626,10.626l-32.025-32.021l23.836,40.211l-9.619,9.615l-40.197-23.845l32.024,32.019l-10.628,10.626L-156.961,295.504z"/>
		<path fill="#006E12" d="M-40.573,249.239l-14.731,14.731l4.886,8.976l-13.249,13.251l-26.208-57.773l14.154-14.15l57.768,26.212
			l-13.587,13.588L-40.573,249.239z M-52.346,242.851l-19.729-10.46l10.51,19.682L-52.346,242.851z"/>
		<path fill="#006E12" d="M-8.99,201.094l-8.735-8.733l20.05-20.048l17.902,17.899c-1.222,6.452-2.835,11.628-4.842,15.521
			c-2.004,3.896-5.029,7.87-9.08,11.919c-4.982,4.98-9.894,8.196-14.736,9.637c-4.84,1.438-9.807,1.347-14.896-0.289
			c-5.087-1.628-9.81-4.625-14.164-8.979c-4.58-4.578-7.623-9.51-9.121-14.791c-1.498-5.276-1.305-10.62,0.586-16.027
			c1.488-4.197,4.638-8.705,9.452-13.519c4.642-4.642,8.53-7.691,11.672-9.15c3.14-1.464,6.354-2.067,9.638-1.821
			c3.285,0.25,6.663,1.348,10.14,3.294l-10.28,14.752c-2.106-1.07-4.191-1.407-6.26-1.017c-2.072,0.393-4.065,1.54-5.975,3.45
			c-2.84,2.843-4.121,6.104-3.837,9.769c0.286,3.664,2.569,7.636,6.845,11.915c4.547,4.545,8.646,6.936,12.305,7.174
			c3.656,0.242,7.01-1.17,10.065-4.221c1.451-1.451,2.626-3.048,3.524-4.788c0.898-1.734,1.691-3.961,2.376-6.674l-3.952-3.952
			L-8.99,201.094z"/>
		<path fill="#006E12" d="M-8.046,146.591l34.774-34.773l8.966,8.966l-21.768,21.769l6.671,6.673l20.192-20.192l8.564,8.563
			L29.163,157.79l8.276,8.275l22.398-22.399l9.513,9.513l-35.403,35.399L-8.046,146.591z"/>
		<path fill="#006E12" d="M54.426,84.122L67.43,71.115l41.989,41.991L96.416,126.11L54.426,84.122z"/>
		<path fill="#006E12" d="M76.596,61.951L93.66,44.888l32.131,18.967l-19.015-32.081l17.055-17.054l41.988,41.988l-10.626,10.628
			l-32.025-32.022l23.836,40.212l-9.619,9.616L97.187,61.295l32.024,32.02l-10.626,10.628L76.596,61.951z"/>
		<path fill="#006E12" d="M192.978,15.685l-14.73,14.729l4.889,8.979l-13.253,13.247L143.679-5.133l14.15-14.151l57.766,26.211
			L202.01,20.514L192.978,15.685z M181.204,9.298L161.478-1.165l10.512,19.681L181.204,9.298z"/>
		<path fill="#006E12" d="M224.563-32.455l-8.737-8.737l20.049-20.052l17.903,17.902c-1.218,6.454-2.832,11.63-4.84,15.523
			c-2.004,3.895-5.029,7.867-9.077,11.917c-4.982,4.982-9.898,8.196-14.74,9.637c-4.84,1.442-9.803,1.348-14.894-0.287
			c-5.089-1.628-9.812-4.623-14.164-8.979c-4.584-4.581-7.622-9.513-9.122-14.791c-1.499-5.279-1.304-10.624,0.588-16.027
			c1.484-4.198,4.637-8.705,9.451-13.519c4.638-4.642,8.53-7.688,11.671-9.151c3.14-1.462,6.354-2.066,9.633-1.821
			c3.29,0.252,6.667,1.348,10.141,3.295l-10.281,14.753c-2.102-1.068-4.187-1.407-6.257-1.015c-2.072,0.393-4.065,1.542-5.972,3.448
			c-2.846,2.847-4.125,6.104-3.84,9.769c0.287,3.667,2.568,7.638,6.846,11.917c4.544,4.544,8.646,6.932,12.299,7.174
			c3.659,0.238,7.016-1.168,10.07-4.224c1.451-1.452,2.629-3.049,3.521-4.783c0.898-1.737,1.695-3.962,2.381-6.677l-3.955-3.955
			L224.563-32.455z"/>
		<path fill="#006E12" d="M225.51-86.964l34.773-34.772l8.967,8.965l-21.767,21.77l6.667,6.673l20.194-20.192l8.566,8.564
			l-20.192,20.192l8.277,8.278l22.396-22.398l9.512,9.51l-35.403,35.399L225.51-86.964z"/>
		<path fill="#006E12" d="M287.982-149.433l13.003-13.006l41.988,41.991l-13.002,13.004L287.982-149.433z"/>
		<path fill="#006E12" d="M310.149-171.603l17.063-17.063l32.127,18.967l-19.008-32.082l17.051-17.054l41.988,41.991l-10.626,10.626
			l-32.022-32.022l23.837,40.209l-9.618,9.619l-40.193-23.847l32.019,32.02l-10.628,10.628L310.149-171.603z"/>
		<path fill="#006E12" d="M426.533-217.871l-14.728,14.732l4.882,8.979l-13.247,13.247l-26.208-57.77l14.148-14.153l57.77,26.209
			l-13.587,13.587L426.533-217.871z M414.761-224.257l-19.728-10.462l10.508,19.681L414.761-224.257z"/>
		<path fill="#006E12" d="M458.119-266.009l-8.738-8.739l20.054-20.05l17.901,17.9c-1.224,6.455-2.838,11.63-4.842,15.523
			c-2.004,3.895-5.033,7.868-9.081,11.916c-4.984,4.982-9.895,8.195-14.734,9.635c-4.838,1.442-9.811,1.348-14.897-0.286
			c-5.087-1.628-9.81-4.625-14.162-8.98c-4.584-4.581-7.626-9.511-9.126-14.791c-1.501-5.279-1.304-10.622,0.587-16.028
			c1.492-4.199,4.641-8.705,9.452-13.518c4.645-4.639,8.53-7.69,11.671-9.153c3.142-1.462,6.355-2.067,9.641-1.819
			c3.28,0.251,6.661,1.348,10.139,3.294l-10.283,14.752c-2.102-1.07-4.188-1.408-6.257-1.017c-2.072,0.39-4.065,1.542-5.974,3.449
			c-2.848,2.847-4.125,6.103-3.84,9.771c0.287,3.666,2.57,7.634,6.846,11.915c4.547,4.543,8.646,6.934,12.305,7.174
			c3.652,0.24,7.012-1.169,10.063-4.223c1.453-1.451,2.629-3.048,3.525-4.782c0.897-1.737,1.688-3.963,2.376-6.678l-3.951-3.95
			L458.119-266.009z"/>
		<path fill="#006E12" d="M459.064-320.519l34.774-34.773l8.965,8.964l-21.769,21.769l6.677,6.673l20.193-20.192l8.562,8.564
			l-20.194,20.193l8.277,8.277l22.398-22.397l9.512,9.51l-35.4,35.399L459.064-320.519z"/>
		<path fill="#006E12" d="M521.532-382.989l13.003-13.007l41.993,41.994l-13.001,13.003L521.532-382.989z"/>
		<path fill="#006E12" d="M543.703-405.159l17.062-17.063l32.135,18.967l-19.018-32.081l17.054-17.054l41.991,41.989l-10.626,10.626
			l-32.022-32.02l23.837,40.209l-9.622,9.619L564.3-405.813l32.026,32.021l-10.627,10.626L543.703-405.159z"/>
		<path fill="#006E12" d="M660.087-451.425l-14.731,14.732l4.891,8.979l-13.254,13.247l-26.21-57.77l14.157-14.155l57.767,26.212
			l-13.587,13.587L660.087-451.425z M648.313-457.812l-19.727-10.461l10.511,19.681L648.313-457.812z"/>
		<path fill="#006E12" d="M691.673-499.565l-8.736-8.737l20.048-20.052l17.903,17.901c-1.22,6.454-2.834,11.63-4.838,15.526
			c-2.004,3.895-5.029,7.867-9.081,11.916c-4.982,4.982-9.898,8.197-14.738,9.637c-4.842,1.441-9.803,1.348-14.894-0.288
			c-5.091-1.629-9.811-4.624-14.164-8.979c-4.582-4.58-7.624-9.512-9.121-14.791c-1.498-5.279-1.303-10.624,0.585-16.027
			c1.488-4.198,4.64-8.706,9.451-13.519c4.642-4.636,8.53-7.688,11.675-9.15c3.138-1.462,6.351-2.067,9.633-1.82
			c3.286,0.25,6.665,1.346,10.139,3.295l-10.281,14.75c-2.104-1.069-4.187-1.407-6.259-1.014c-2.072,0.392-4.063,1.542-5.971,3.449
			c-2.847,2.845-4.125,6.103-3.84,9.769c0.287,3.666,2.571,7.635,6.846,11.916c4.545,4.544,8.647,6.934,12.302,7.173
			c3.657,0.24,7.014-1.167,10.07-4.223c1.447-1.452,2.625-3.046,3.519-4.782c0.896-1.739,1.695-3.962,2.379-6.678l-3.955-3.948
			L691.673-499.565z"/>
		<path fill="#006E12" d="M692.62-554.072l34.772-34.774l8.967,8.966l-21.771,21.768l6.676,6.675l20.19-20.192l8.567,8.563
			l-20.19,20.192l8.277,8.279l22.396-22.398l9.509,9.509l-35.402,35.399L692.62-554.072z"/>
	</g>
	<g opacity="0.15">
		<path fill="#006E12" d="M-682.899,968.099l13.003-13.006l41.99,41.988l-13.005,13.009L-682.899,968.099z"/>
		<path fill="#006E12" d="M-660.732,945.93l17.065-17.064l32.131,18.971l-19.015-32.084l17.049-17.053l41.994,41.991l-10.628,10.626
			l-32.024-32.026l23.835,40.215l-9.617,9.615l-40.198-23.848l32.023,32.022l-10.626,10.626L-660.732,945.93z"/>
		<path fill="#006E12" d="M-544.348,899.663l-14.732,14.728l4.89,8.976l-13.249,13.251l-26.208-57.773l14.152-14.153l57.768,26.213
			l-13.588,13.591L-544.348,899.663z M-556.119,893.269l-19.73-10.456l10.509,19.682L-556.119,893.269z"/>
		<path fill="#006E12" d="M-512.762,851.52l-8.737-8.738l20.052-20.05l17.9,17.901c-1.222,6.456-2.836,11.63-4.84,15.526
			c-2.006,3.892-5.031,7.867-9.083,11.915c-4.982,4.982-9.894,8.195-14.733,9.637c-4.842,1.44-9.806,1.347-14.898-0.289
			c-5.085-1.629-9.809-4.625-14.165-8.977c-4.581-4.585-7.624-9.514-9.121-14.796c-1.501-5.278-1.304-10.619,0.586-16.023
			c1.49-4.203,4.64-8.709,9.452-13.519c4.638-4.644,8.529-7.687,11.672-9.149c3.139-1.462,6.354-2.072,9.637-1.819
			c3.285,0.249,6.663,1.347,10.14,3.293l-10.284,14.749c-2.1-1.068-4.187-1.404-6.257-1.019c-2.071,0.394-4.062,1.546-5.973,3.452
			c-2.845,2.849-4.122,6.102-3.838,9.767c0.287,3.668,2.568,7.64,6.846,11.915c4.546,4.546,8.644,6.936,12.304,7.178
			c3.657,0.238,7.01-1.173,10.066-4.225c1.451-1.455,2.625-3.043,3.523-4.787c0.896-1.737,1.691-3.961,2.375-6.669l-3.955-3.957
			L-512.762,851.52z"/>
		<path fill="#006E12" d="M-511.815,797.014l34.772-34.773l8.964,8.965l-21.769,21.765l6.673,6.676l20.195-20.194l8.564,8.564
			l-20.192,20.194l8.278,8.279l22.396-22.396l9.51,9.507l-35.399,35.405L-511.815,797.014z"/>
		<path fill="#006E12" d="M-449.345,734.539l13.002-12.998l41.991,41.987l-13.004,13.006L-449.345,734.539z"/>
		<path fill="#006E12" d="M-427.177,712.374l17.063-17.064l32.133,18.971l-19.015-32.084l17.05-17.053l41.993,41.991l-10.628,10.626
			l-32.024-32.022l23.836,40.211l-9.616,9.619l-40.197-23.852l32.026,32.022l-10.628,10.626L-427.177,712.374z"/>
		<path fill="#006E12" d="M-310.792,666.108l-14.731,14.728l4.888,8.979l-13.249,13.251l-26.21-57.776l14.153-14.15l57.765,26.213
			l-13.584,13.591L-310.792,666.108z M-322.564,659.717l-19.731-10.46l10.508,19.682L-322.564,659.717z"/>
		<path fill="#006E12" d="M-279.208,617.964l-8.737-8.734l20.05-20.05l17.902,17.901c-1.222,6.452-2.836,11.626-4.842,15.522
			c-2.004,3.896-5.028,7.867-9.081,11.915c-4.982,4.982-9.894,8.196-14.735,9.637c-4.842,1.44-9.808,1.35-14.898-0.289
			c-5.087-1.629-9.809-4.622-14.164-8.976c-4.581-4.582-7.624-9.515-9.122-14.797c-1.499-5.278-1.305-10.615,0.587-16.021
			c1.487-4.202,4.638-8.712,9.45-13.521c4.638-4.64,8.529-7.69,11.672-9.152c3.138-1.459,6.354-2.065,9.637-1.816
			c3.283,0.249,6.662,1.347,10.139,3.293l-10.284,14.753c-2.1-1.072-4.185-1.412-6.257-1.021c-2.071,0.39-4.062,1.541-5.971,3.455
			c-2.845,2.845-4.124,6.098-3.838,9.763c0.287,3.669,2.57,7.641,6.846,11.915c4.547,4.546,8.646,6.937,12.304,7.178
			c3.657,0.238,7.011-1.173,10.066-4.228c1.451-1.448,2.625-3.044,3.523-4.78c0.899-1.74,1.691-3.965,2.375-6.673l-3.953-3.957
			L-279.208,617.964z"/>
		<path fill="#006E12" d="M-278.262,563.458l34.772-34.771l8.966,8.962l-21.77,21.769l6.674,6.672l20.196-20.193l8.563,8.563
			l-20.192,20.198l8.276,8.279l22.396-22.404l9.511,9.511l-35.401,35.401L-278.262,563.458z"/>
		<path fill="#006E12" d="M-215.79,500.988l13.004-13.002l41.988,41.986l-13.004,13.007L-215.79,500.988z"/>
		<path fill="#006E12" d="M-193.622,478.819l17.063-17.061l32.132,18.969l-19.019-32.088l17.054-17.047l41.991,41.987
			l-10.628,10.626l-32.025-32.024l23.836,40.214l-9.617,9.618l-40.197-23.848l32.024,32.019l-10.628,10.626L-193.622,478.819z"/>
		<path fill="#006E12" d="M-77.239,432.556l-14.731,14.728l4.89,8.978l-13.249,13.249l-26.21-57.772l14.155-14.154l57.768,26.217
			l-13.587,13.587L-77.239,432.556z M-89.008,426.165l-19.73-10.464l10.509,19.686L-89.008,426.165z"/>
		<path fill="#006E12" d="M-45.652,384.412l-8.737-8.738l20.052-20.05l17.902,17.903c-1.224,6.454-2.837,11.63-4.842,15.524
			c-2.004,3.894-5.029,7.867-9.08,11.915c-4.982,4.98-9.894,8.195-14.734,9.637c-4.842,1.44-9.807,1.347-14.898-0.286
			c-5.087-1.632-9.808-4.625-14.164-8.979c-4.581-4.585-7.622-9.514-9.119-14.796c-1.501-5.278-1.305-10.619,0.586-16.023
			c1.488-4.203,4.638-8.709,9.452-13.519c4.637-4.644,8.53-7.69,11.672-9.152c3.14-1.463,6.354-2.069,9.638-1.82
			c3.283,0.253,6.663,1.347,10.14,3.295l-10.286,14.751c-2.1-1.068-4.186-1.408-6.258-1.019c-2.07,0.387-4.061,1.54-5.973,3.45
			c-2.845,2.846-4.123,6.099-3.837,9.765c0.286,3.669,2.569,7.639,6.845,11.915c4.548,4.546,8.645,6.939,12.305,7.178
			c3.656,0.238,7.012-1.173,10.065-4.228c1.451-1.449,2.626-3.042,3.524-4.78c0.898-1.735,1.691-3.967,2.377-6.675l-3.955-3.955
			L-45.652,384.412z"/>
		<path fill="#006E12" d="M-44.708,329.906l34.772-34.773l8.964,8.965l-21.767,21.765l6.673,6.672l20.194-20.19l8.565,8.564
			l-20.193,20.196l8.278,8.277l22.396-22.398l9.511,9.509l-35.399,35.401L-44.708,329.906z"/>
		<path fill="#006E12" d="M17.764,267.432l13.004-13.002l41.988,41.99l-13.004,13.007L17.764,267.432z"/>
		<path fill="#006E12" d="M39.932,245.267l17.064-17.064l32.131,18.971l-19.019-32.088l17.054-17.049l41.993,41.989l-10.627,10.624
			l-32.024-32.024l23.836,40.214l-9.619,9.616L60.525,244.61l32.024,32.021l-10.626,10.624L39.932,245.267z"/>
		<path fill="#006E12" d="M156.315,199l-14.73,14.728l4.885,8.977l-13.247,13.25l-26.208-57.771l14.149-14.153l57.769,26.214
			l-13.589,13.587L156.315,199z M144.545,192.61l-19.73-10.46l10.51,19.682L144.545,192.61z"/>
		<path fill="#006E12" d="M187.901,150.857l-8.737-8.736l20.053-20.049l17.896,17.9c-1.219,6.455-2.836,11.63-4.84,15.524
			c-2.001,3.895-5.03,7.868-9.077,11.916c-4.983,4.983-9.894,8.195-14.733,9.638c-4.844,1.44-9.811,1.348-14.897-0.289
			c-5.087-1.63-9.815-4.623-14.164-8.979c-4.58-4.584-7.626-9.513-9.126-14.792c-1.498-5.28-1.304-10.621,0.587-16.026
			c1.493-4.202,4.642-8.708,9.45-13.519c4.644-4.642,8.536-7.69,11.674-9.153c3.137-1.462,6.353-2.065,9.64-1.819
			c3.28,0.249,6.663,1.348,10.139,3.294l-10.283,14.75c-2.101-1.068-4.187-1.408-6.257-1.016c-2.072,0.388-4.062,1.54-5.972,3.449
			c-2.848,2.845-4.124,6.1-3.839,9.765c0.286,3.669,2.571,7.638,6.846,11.918c4.548,4.546,8.645,6.936,12.302,7.176
			c3.654,0.238,7.008-1.173,10.066-4.228c1.451-1.452,2.625-3.045,3.524-4.782c0.898-1.734,1.688-3.964,2.377-6.673l-3.955-3.955
			L187.901,150.857z"/>
		<path fill="#006E12" d="M188.848,96.35l34.773-34.771l8.965,8.964l-21.768,21.768l6.67,6.671l20.196-20.192l8.561,8.563
			l-20.192,20.196l8.277,8.276l22.4-22.4l9.51,9.509l-35.401,35.406L188.848,96.35z"/>
		<path fill="#006E12" d="M251.316,33.877l13.002-13.001l41.993,41.992L293.31,75.87L251.316,33.877z"/>
		<path fill="#006E12" d="M273.487,11.71l17.06-17.062l32.135,18.966l-19.018-32.079l17.054-17.054l41.995,41.988l-10.63,10.626
			l-32.022-32.02l23.835,40.209l-9.62,9.619l-40.197-23.849l32.028,32.021L315.48,53.704L273.487,11.71z"/>
		<path fill="#006E12" d="M389.871-34.555L375.14-19.823l4.888,8.975L366.776,2.401l-26.21-57.773l14.152-14.152l57.77,26.214
			l-13.587,13.586L389.871-34.555z M378.098-40.946l-19.727-10.455l10.508,19.68L378.098-40.946z"/>
		<path fill="#006E12" d="M421.457-82.697l-8.738-8.737l20.049-20.048l17.906,17.902c-1.224,6.455-2.838,11.63-4.842,15.523
			c-2.004,3.895-5.033,7.868-9.08,11.916c-4.981,4.982-9.897,8.197-14.739,9.637c-4.842,1.442-9.803,1.348-14.894-0.286
			c-5.089-1.63-9.81-4.624-14.164-8.98c-4.582-4.581-7.622-9.513-9.121-14.795c-1.5-5.278-1.303-10.62,0.585-16.024
			c1.488-4.202,4.64-8.708,9.453-13.518c4.638-4.642,8.524-7.69,11.673-9.151c3.138-1.462,6.353-2.067,9.633-1.819
			c3.288,0.249,6.662,1.348,10.141,3.294l-10.285,14.75c-2.098-1.069-4.185-1.406-6.257-1.015c-2.072,0.39-4.062,1.54-5.97,3.449
			c-2.846,2.845-4.125,6.099-3.84,9.77c0.285,3.666,2.566,7.635,6.846,11.913c4.544,4.548,8.646,6.937,12.301,7.177
			c3.658,0.24,7.016-1.171,10.07-4.226c1.446-1.454,2.621-3.045,3.519-4.782c0.899-1.736,1.691-3.96,2.379-6.674l-3.951-3.952
			L421.457-82.697z"/>
		<path fill="#006E12" d="M422.403-137.202l34.773-34.773l8.963,8.966l-21.767,21.766l6.671,6.675l20.196-20.196l8.567,8.563
			l-20.197,20.197l8.279,8.278l22.396-22.402l9.51,9.511l-35.405,35.403L422.403-137.202z"/>
		<path fill="#006E12" d="M484.873-199.677l13.002-13.003l41.991,41.993l-13.005,13.003L484.873-199.677z"/>
		<path fill="#006E12" d="M507.041-221.844l17.062-17.064l32.131,18.969l-19.015-32.083l17.055-17.054l41.987,41.99l-10.626,10.626
			l-32.019-32.021l23.833,40.211l-9.615,9.618l-40.196-23.849l32.022,32.021l-10.626,10.625L507.041-221.844z"/>
		<path fill="#006E12" d="M623.425-268.109l-14.729,14.732l4.886,8.976l-13.248,13.249l-26.209-57.773l14.15-14.151l57.771,26.212
			l-13.593,13.587L623.425-268.109z M611.656-274.5l-19.731-10.457l10.51,19.68L611.656-274.5z"/>
		<path fill="#006E12" d="M655.011-316.251l-8.736-8.737l20.052-20.048l17.899,17.901c-1.224,6.456-2.838,11.628-4.845,15.523
			c-2.001,3.894-5.03,7.87-9.074,11.916c-4.986,4.982-9.893,8.195-14.734,9.637c-4.842,1.44-9.811,1.348-14.897-0.286
			c-5.087-1.631-9.813-4.625-14.164-8.981c-4.582-4.578-7.626-9.512-9.124-14.791c-1.502-5.282-1.304-10.623,0.585-16.028
			c1.491-4.202,4.643-8.708,9.45-13.519c4.646-4.64,8.534-7.689,11.672-9.15c3.141-1.46,6.354-2.067,9.644-1.82
			c3.278,0.25,6.661,1.348,10.139,3.295l-10.285,14.75c-2.1-1.07-4.187-1.409-6.259-1.017c-2.069,0.393-4.061,1.54-5.972,3.452
			c-2.846,2.845-4.124,6.098-3.835,9.77c0.283,3.664,2.567,7.635,6.844,11.911c4.543,4.547,8.646,6.938,12.304,7.176
			c3.653,0.239,7.008-1.17,10.066-4.226c1.451-1.452,2.625-3.044,3.523-4.782c0.896-1.735,1.687-3.96,2.374-6.674l-3.953-3.952
			L655.011-316.251z"/>
		<path fill="#006E12" d="M655.958-370.758l34.772-34.773l8.967,8.966l-21.771,21.766l6.676,6.677l20.19-20.196l8.564,8.563
			l-20.19,20.196l8.275,8.278l22.4-22.401l9.51,9.511l-35.398,35.403L655.958-370.758z"/>
		<path fill="#006E12" d="M718.426-433.23l13.002-13.003l41.994,41.991l-13.005,13.004L718.426-433.23z"/>
		<path fill="#006E12" d="M740.599-455.397l17.06-17.063l32.133,18.969l-19.018-32.082l17.055-17.053l41.993,41.988l-10.628,10.627
			l-32.023-32.021l23.835,40.209l-9.617,9.617l-40.198-23.847l32.029,32.02l-10.627,10.626L740.599-455.397z"/>
		<path fill="#006E12" d="M856.98-501.663l-14.731,14.729l4.886,8.977l-13.251,13.249l-26.208-57.773l14.154-14.149l57.77,26.213
			l-13.587,13.586L856.98-501.663z M845.206-508.053l-19.728-10.458l10.51,19.681L845.206-508.053z"/>
		<path fill="#006E12" d="M888.563-549.804l-8.736-8.737l20.052-20.049l17.905,17.902c-1.223,6.456-2.836,11.629-4.842,15.524
			c-2.004,3.895-5.035,7.869-9.079,11.914c-4.982,4.983-9.898,8.197-14.736,9.638c-4.842,1.441-9.807,1.348-14.897-0.287
			c-5.089-1.63-9.809-4.623-14.163-8.979c-4.583-4.581-7.622-9.513-9.12-14.792c-1.502-5.282-1.305-10.623,0.583-16.026
			c1.487-4.2,4.642-8.71,9.453-13.519c4.638-4.642,8.526-7.69,11.671-9.151c3.143-1.461,6.354-2.066,9.637-1.821
			c3.287,0.25,6.662,1.348,10.139,3.295l-10.281,14.75c-2.102-1.069-4.187-1.407-6.257-1.016c-2.074,0.392-4.065,1.54-5.973,3.45
			c-2.845,2.845-4.123,6.098-3.838,9.769c0.282,3.666,2.565,7.634,6.844,11.912c4.544,4.546,8.646,6.936,12.302,7.176
			c3.657,0.238,7.014-1.168,10.07-4.227c1.445-1.452,2.623-3.044,3.518-4.784c0.897-1.734,1.692-3.96,2.382-6.673l-3.956-3.955
			L888.563-549.804z"/>
		<path fill="#006E12" d="M889.51-604.312l34.772-34.772l8.965,8.966l-21.767,21.766l6.671,6.676l20.194-20.196l8.567,8.567
			l-20.195,20.192l8.279,8.278l22.396-22.399l9.512,9.513l-35.403,35.4L889.51-604.312z"/>
	</g>
	<g opacity="0.15">
		<path fill="#006E12" d="M-499.587,931.433l13.007-13.002l41.988,41.988l-13.004,13.009L-499.587,931.433z"/>
		<path fill="#006E12" d="M-477.417,909.268l17.063-17.067l32.129,18.97l-19.015-32.084l17.054-17.053l41.994,41.991l-10.628,10.626
			l-32.024-32.022l23.836,40.215l-9.617,9.615l-40.196-23.852l32.02,32.022l-10.626,10.63L-477.417,909.268z"/>
		<path fill="#006E12" d="M-361.032,862.994l-14.73,14.734l4.884,8.979l-13.247,13.247l-26.208-57.772l14.149-14.154l57.77,26.213
			L-352,867.832L-361.032,862.994z M-372.803,856.611l-19.73-10.464l10.507,19.686L-372.803,856.611z"/>
		<path fill="#006E12" d="M-329.447,814.858l-8.737-8.738l20.051-20.053l17.901,17.904c-1.221,6.456-2.835,11.63-4.841,15.522
			c-2.004,3.896-5.034,7.867-9.081,11.919c-4.982,4.979-9.898,8.195-14.74,9.637c-4.842,1.44-9.803,1.347-14.893-0.285
			c-5.087-1.636-9.81-4.629-14.164-8.98c-4.584-4.585-7.624-9.518-9.121-14.796c-1.5-5.278-1.307-10.619,0.585-16.023
			c1.49-4.203,4.639-8.709,9.453-13.519c4.638-4.644,8.529-7.694,11.67-9.149c3.142-1.462,6.355-2.068,9.64-1.819
			c3.283,0.245,6.663,1.347,10.136,3.293l-10.282,14.749c-2.102-1.068-4.186-1.412-6.259-1.019
			c-2.073,0.391-4.061,1.542-5.971,3.452c-2.845,2.845-4.125,6.099-3.838,9.767c0.286,3.665,2.568,7.637,6.846,11.911
			c4.544,4.546,8.646,6.939,12.301,7.178c3.658,0.239,7.014-1.173,10.07-4.224c1.451-1.452,2.627-3.044,3.523-4.784
			c0.896-1.74,1.688-3.965,2.376-6.673l-3.953-3.953L-329.447,814.858z"/>
		<path fill="#006E12" d="M-328.502,760.352l34.773-34.777l8.966,8.965l-21.769,21.772l6.671,6.672l20.192-20.194l8.569,8.564
			l-20.197,20.19l8.28,8.279l22.398-22.396l9.509,9.511l-35.403,35.401L-328.502,760.352z"/>
		<path fill="#006E12" d="M-266.034,697.877l13.005-13.002l41.99,41.992l-13.003,13.005L-266.034,697.877z"/>
		<path fill="#006E12" d="M-243.863,675.712l17.063-17.067l32.129,18.97l-19.014-32.084l17.053-17.053l41.994,41.991l-10.626,10.626
			l-32.026-32.022l23.836,40.215l-9.617,9.615l-40.198-23.852l32.021,32.022l-10.628,10.63L-243.863,675.712z"/>
		<path fill="#006E12" d="M-127.477,629.442l-14.732,14.731l4.884,8.979l-13.246,13.248l-26.208-57.773l14.149-14.154l57.77,26.214
			l-13.585,13.59L-127.477,629.442z M-139.249,623.055l-19.73-10.46l10.509,19.682L-139.249,623.055z"/>
		<path fill="#006E12" d="M-95.893,581.302l-8.737-8.738l20.053-20.053l17.9,17.908c-1.222,6.452-2.836,11.63-4.84,15.522
			c-2.005,3.892-5.034,7.863-9.081,11.915c-4.981,4.982-9.897,8.196-14.736,9.637c-4.842,1.44-9.804,1.351-14.893-0.285
			c-5.087-1.636-9.811-4.626-14.165-8.979c-4.583-4.582-7.624-9.515-9.121-14.793c-1.503-5.282-1.309-10.622,0.586-16.027
			c1.488-4.203,4.639-8.709,9.451-13.519c4.638-4.643,8.531-7.694,11.67-9.152c3.145-1.463,6.355-2.069,9.64-1.82
			c3.286,0.249,6.663,1.347,10.136,3.293l-10.28,14.753c-2.1-1.068-4.187-1.408-6.257-1.018c-2.073,0.394-4.061,1.545-5.971,3.451
			c-2.845,2.846-4.124,6.103-3.84,9.767c0.285,3.665,2.57,7.641,6.846,11.915c4.544,4.542,8.644,6.937,12.3,7.178
			c3.659,0.235,7.014-1.173,10.07-4.228c1.452-1.451,2.627-3.044,3.523-4.784c0.899-1.736,1.688-3.961,2.377-6.669l-3.955-3.957
			L-95.893,581.302z"/>
		<path fill="#006E12" d="M-94.946,526.796l34.773-34.777l8.965,8.969l-21.768,21.769l6.671,6.67l20.193-20.191l8.563,8.563
			l-20.192,20.194l8.28,8.279l22.396-22.398l9.509,9.509l-35.403,35.405L-94.946,526.796z"/>
		<path fill="#006E12" d="M-32.477,464.325l13.006-13.004l41.988,41.99L9.514,506.317L-32.477,464.325z"/>
		<path fill="#006E12" d="M-10.307,442.158l17.063-17.063l32.129,18.967l-19.013-32.084l17.054-17.057l41.991,41.993L68.291,447.54
			l-32.023-32.022l23.836,40.215l-9.619,9.614l-40.199-23.852l32.02,32.026L31.68,484.148L-10.307,442.158z"/>
		<path fill="#006E12" d="M106.077,395.89l-14.731,14.731l4.886,8.978l-13.248,13.248l-26.208-57.771l14.15-14.154l57.77,26.213
			l-13.588,13.591L106.077,395.89z M94.306,389.503l-19.729-10.46l10.508,19.682L94.306,389.503z"/>
		<path fill="#006E12" d="M137.661,347.746l-8.734-8.734l20.045-20.053l17.907,17.906c-1.223,6.454-2.836,11.628-4.84,15.521
			c-2.006,3.896-5.035,7.867-9.081,11.919c-4.979,4.98-9.896,8.195-14.738,9.637c-4.842,1.438-9.804,1.347-14.895-0.289
			c-5.087-1.632-9.811-4.622-14.164-8.978c-4.585-4.584-7.622-9.517-9.122-14.795c-1.503-5.278-1.306-10.62,0.583-16.023
			c1.493-4.203,4.644-8.711,9.456-13.519c4.639-4.644,8.53-7.694,11.67-9.152c3.143-1.463,6.355-2.069,9.638-1.818
			c3.286,0.247,6.665,1.349,10.139,3.295l-10.284,14.749c-2.099-1.068-4.186-1.412-6.256-1.02c-2.071,0.392-4.061,1.543-5.971,3.451
			c-2.847,2.847-4.124,6.101-3.84,9.765c0.289,3.669,2.57,7.643,6.848,11.915c4.544,4.55,8.643,6.939,12.299,7.178
			c3.661,0.239,7.015-1.169,10.068-4.224c1.451-1.453,2.626-3.044,3.521-4.784c0.899-1.738,1.693-3.961,2.376-6.673l-3.95-3.953
			L137.661,347.746z"/>
		<path fill="#006E12" d="M138.609,293.24l34.773-34.777l8.966,8.969l-21.771,21.772l6.673,6.672l20.192-20.194l8.563,8.563
			l-20.192,20.192l8.278,8.283l22.394-22.402l9.514,9.509l-35.402,35.405L138.609,293.24z"/>
		<path fill="#006E12" d="M201.076,230.77l13.008-13.003l41.983,41.989l-13.001,13.007L201.076,230.77z"/>
		<path fill="#006E12" d="M223.244,208.603l17.065-17.062l32.131,18.966l-19.014-32.083l17.053-17.054l41.987,41.992l-10.626,10.628
			l-32.019-32.026l23.832,40.213l-9.613,9.616l-40.197-23.85l32.021,32.021l-10.627,10.628L223.244,208.603z"/>
		<path fill="#006E12" d="M339.632,162.334l-14.733,14.731l4.885,8.978l-13.243,13.251l-26.209-57.773l14.149-14.153l57.77,26.211
			l-13.59,13.589L339.632,162.334z M327.861,155.948l-19.734-10.462l10.511,19.683L327.861,155.948z"/>
		<path fill="#006E12" d="M371.217,114.196l-8.735-8.737l20.05-20.053l17.897,17.904c-1.222,6.453-2.834,11.63-4.84,15.525
			c-2.006,3.895-5.029,7.864-9.079,11.914c-4.982,4.982-9.895,8.197-14.734,9.637c-4.842,1.44-9.807,1.348-14.897-0.289
			c-5.088-1.632-9.811-4.624-14.165-8.979c-4.581-4.585-7.622-9.515-9.12-14.795c-1.5-5.277-1.304-10.62,0.585-16.023
			c1.495-4.202,4.638-8.709,9.449-13.519c4.645-4.643,8.535-7.692,11.673-9.151c3.14-1.462,6.354-2.071,9.641-1.82
			c3.282,0.247,6.663,1.348,10.137,3.293l-10.281,14.753c-2.105-1.07-4.192-1.413-6.259-1.019c-2.071,0.39-4.061,1.542-5.971,3.452
			c-2.845,2.844-4.125,6.099-3.842,9.766c0.289,3.666,2.573,7.638,6.846,11.917c4.546,4.546,8.647,6.936,12.302,7.178
			c3.657,0.235,7.012-1.171,10.069-4.228c1.452-1.452,2.627-3.045,3.524-4.782c0.896-1.738,1.688-3.964,2.376-6.673l-3.957-3.955
			L371.217,114.196z"/>
		<path fill="#006E12" d="M372.163,59.688l34.769-34.772l8.967,8.962l-21.763,21.77l6.67,6.674l20.192-20.193l8.564,8.565
			l-20.194,20.192l8.279,8.28l22.4-22.4l9.509,9.51l-35.4,35.403L372.163,59.688z"/>
		<path fill="#006E12" d="M434.632-2.783l13.004-13.002l41.991,41.988l-13.004,13.006L434.632-2.783z"/>
		<path fill="#006E12" d="M456.801-24.951l17.061-17.063l32.135,18.967l-19.018-32.085l17.055-17.054l41.993,41.993L535.4-19.567
			L503.371-51.59l23.839,40.211l-9.621,9.619l-40.192-23.847l32.021,32.02L498.792,17.04L456.801-24.951z"/>
		<path fill="#006E12" d="M573.186-71.221l-14.731,14.732l4.885,8.979L550.09-34.261l-26.207-57.773l14.149-14.155l57.77,26.212
			l-13.585,13.591L573.186-71.221z M561.411-77.608l-19.727-10.461l10.509,19.685L561.411-77.608z"/>
		<path fill="#006E12" d="M604.768-119.361l-8.734-8.737l20.05-20.051l17.905,17.906c-1.221,6.455-2.835,11.63-4.842,15.523
			c-2.004,3.895-5.033,7.866-9.081,11.916c-4.979,4.981-9.896,8.195-14.736,9.637c-4.841,1.44-9.803,1.348-14.895-0.286
			c-5.091-1.634-9.808-4.625-14.164-8.979c-4.584-4.584-7.622-9.515-9.126-14.794c-1.498-5.279-1.303-10.619,0.589-16.024
			c1.487-4.201,4.644-8.709,9.454-13.519c4.638-4.642,8.526-7.694,11.672-9.153c3.139-1.462,6.354-2.071,9.637-1.819
			c3.285,0.248,6.661,1.348,10.138,3.294l-10.282,14.75c-2.102-1.07-4.185-1.411-6.258-1.018c-2.072,0.39-4.065,1.542-5.976,3.451
			c-2.841,2.847-4.119,6.101-3.834,9.767c0.283,3.666,2.567,7.638,6.846,11.916c4.544,4.546,8.644,6.939,12.298,7.177
			c3.661,0.24,7.016-1.171,10.066-4.226c1.451-1.452,2.628-3.045,3.523-4.782c0.899-1.741,1.691-3.964,2.378-6.674l-3.952-3.952
			L604.768-119.361z"/>
		<path fill="#006E12" d="M605.713-173.866l34.777-34.772l8.967,8.962l-21.77,21.77l6.674,6.673l20.192-20.192l8.564,8.564
			l-20.194,20.191l8.279,8.28l22.393-22.4l9.513,9.509l-35.4,35.403L605.713-173.866z"/>
		<path fill="#006E12" d="M668.186-236.337l13.006-13.003l41.985,41.99l-13.002,13.007L668.186-236.337z"/>
		<path fill="#006E12" d="M690.354-258.506l17.066-17.063l32.129,18.968l-19.015-32.085l17.053-17.054l41.991,41.993l-10.626,10.626
			l-32.021-32.023l23.832,40.213l-9.611,9.616l-40.197-23.847l32.019,32.022l-10.626,10.626L690.354-258.506z"/>
		<path fill="#006E12" d="M806.741-304.775l-14.731,14.731l4.885,8.979l-13.251,13.252l-26.209-57.774l14.153-14.154l57.771,26.212
			l-13.592,13.59L806.741-304.775z M794.971-311.164l-19.734-10.459l10.513,19.682L794.971-311.164z"/>
		<path fill="#006E12" d="M838.326-352.913l-8.735-8.739l20.05-20.05l17.897,17.905c-1.221,6.454-2.835,11.628-4.838,15.524
			c-2.008,3.895-5.032,7.865-9.081,11.914c-4.982,4.983-9.895,8.197-14.736,9.637c-4.842,1.439-9.805,1.348-14.897-0.288
			c-5.088-1.633-9.809-4.624-14.163-8.979c-4.582-4.582-7.623-9.515-9.12-14.794c-1.502-5.28-1.304-10.621,0.585-16.024
			c1.495-4.202,4.638-8.709,9.451-13.519c4.643-4.642,8.533-7.691,11.671-9.15c3.14-1.462,6.354-2.071,9.642-1.821
			c3.28,0.248,6.662,1.348,10.136,3.294l-10.281,14.75c-2.105-1.071-4.19-1.411-6.261-1.021c-2.069,0.392-4.059,1.542-5.969,3.454
			c-2.845,2.847-4.125,6.1-3.844,9.767c0.293,3.666,2.573,7.638,6.848,11.916c4.548,4.545,8.647,6.938,12.304,7.176
			c3.655,0.241,7.012-1.169,10.067-4.225c1.452-1.453,2.629-3.045,3.524-4.784c0.894-1.738,1.688-3.964,2.376-6.674l-3.956-3.952
			L838.326-352.913z"/>
		<path fill="#006E12" d="M839.271-407.42l34.772-34.774l8.965,8.962l-21.765,21.769l6.672,6.673l20.192-20.192l8.566,8.564
			l-20.196,20.192l8.281,8.28l22.4-22.401l9.509,9.509l-35.402,35.403L839.271-407.42z"/>
	</g>
	<g opacity="0.15">
		<path fill="#006E12" d="M-536.25,1114.75l13.007-13.002l41.989,41.988l-13.002,13.002L-536.25,1114.75z"/>
		<path fill="#006E12" d="M-514.079,1092.581l17.065-17.067l32.129,18.974l-19.016-32.084l17.054-17.053l41.994,41.991
			l-10.631,10.626l-32.021-32.025l23.834,40.211l-9.621,9.619l-40.192-23.853l32.022,32.026l-10.626,10.626L-514.079,1092.581z"/>
		<path fill="#006E12" d="M-397.694,1046.312l-14.73,14.731l4.884,8.979l-13.249,13.247l-26.208-57.77l14.153-14.157l57.77,26.213
			l-13.588,13.59L-397.694,1046.312z M-409.465,1039.924l-19.73-10.46l10.509,19.682L-409.465,1039.924z"/>
		<path fill="#006E12" d="M-366.109,998.171l-8.737-8.737l20.053-20.054l17.899,17.905c-1.221,6.452-2.835,11.633-4.839,15.525
			c-2.004,3.889-5.034,7.867-9.081,11.911c-4.981,4.986-9.897,8.2-14.739,9.641c-4.841,1.44-9.805,1.347-14.892-0.285
			c-5.092-1.636-9.811-4.629-14.166-8.979c-4.583-4.582-7.625-9.514-9.125-14.793c-1.499-5.282-1.303-10.626,0.586-16.027
			c1.492-4.199,4.642-8.705,9.456-13.521c4.638-4.636,8.529-7.688,11.67-9.153c3.142-1.455,6.355-2.064,9.641-1.813
			c3.283,0.246,6.662,1.344,10.136,3.29l-10.282,14.753c-2.1-1.065-4.185-1.408-6.257-1.019c-2.072,0.394-4.062,1.545-5.973,3.455
			c-2.843,2.842-4.123,6.099-3.838,9.764c0.286,3.664,2.568,7.64,6.846,11.914c4.544,4.543,8.646,6.94,12.3,7.179
			c3.658,0.234,7.014-1.174,10.07-4.225c1.451-1.455,2.625-3.044,3.523-4.784c0.895-1.736,1.688-3.965,2.376-6.673l-3.955-3.953
			L-366.109,998.171z"/>
		<path fill="#006E12" d="M-365.165,943.662l34.773-34.774l8.966,8.969l-21.769,21.769l6.673,6.673l20.192-20.194l8.565,8.564
			l-20.192,20.194l8.277,8.275l22.4-22.396l9.509,9.51l-35.403,35.405L-365.165,943.662z"/>
		<path fill="#006E12" d="M-302.696,881.195l13.007-13.001l41.988,41.987l-13.003,13.002L-302.696,881.195z"/>
		<path fill="#006E12" d="M-280.525,859.026l17.063-17.063l32.127,18.97l-19.012-32.083l17.053-17.057l41.989,41.995l-10.628,10.626
			l-32.021-32.022l23.836,40.211l-9.62,9.618l-40.194-23.852l32.021,32.022l-10.628,10.63L-280.525,859.026z"/>
		<path fill="#006E12" d="M-164.141,812.76l-14.732,14.73l4.884,8.979l-13.25,13.248l-26.209-57.773l14.152-14.153l57.77,26.213
			l-13.585,13.586L-164.141,812.76z M-175.911,806.368l-19.73-10.46l10.508,19.682L-175.911,806.368z"/>
		<path fill="#006E12" d="M-132.555,764.619l-8.737-8.737l20.049-20.054l17.904,17.905c-1.222,6.456-2.836,11.63-4.842,15.525
			c-2.004,3.893-5.032,7.864-9.081,11.911c-4.982,4.986-9.898,8.2-14.737,9.641c-4.842,1.44-9.807,1.347-14.895-0.289
			c-5.089-1.632-9.809-4.625-14.165-8.976c-4.584-4.586-7.625-9.515-9.123-14.797c-1.501-5.278-1.305-10.622,0.586-16.02
			c1.492-4.207,4.642-8.713,9.453-13.525c4.641-4.64,8.533-7.69,11.672-9.153c3.143-1.458,6.355-2.065,9.64-1.813
			c3.284,0.246,6.663,1.344,10.136,3.289l-10.282,14.75c-2.098-1.065-4.185-1.408-6.257-1.015c-2.074,0.39-4.061,1.542-5.971,3.451
			c-2.845,2.842-4.125,6.103-3.838,9.764c0.287,3.668,2.57,7.64,6.846,11.918c4.544,4.543,8.646,6.937,12.301,7.175
			c3.658,0.238,7.014-1.17,10.07-4.225c1.453-1.451,2.625-3.044,3.523-4.784c0.896-1.736,1.688-3.961,2.377-6.669l-3.955-3.957
			L-132.555,764.619z"/>
		<path fill="#006E12" d="M-131.608,710.107l34.772-34.771l8.965,8.966l-21.77,21.768l6.673,6.673l20.193-20.19l8.563,8.561
			l-20.192,20.194l8.278,8.279l22.399-22.4l9.511,9.514l-35.403,35.402L-131.608,710.107z"/>
		<path fill="#006E12" d="M-69.139,647.64l13.006-13.002l41.988,41.987l-13.003,13.002L-69.139,647.64z"/>
		<path fill="#006E12" d="M-46.969,625.467l17.063-17.061l32.13,18.971l-19.016-32.084L0.262,578.24l41.988,41.987l-10.627,10.63
			l-32.02-32.022l23.833,40.211l-9.62,9.619l-40.193-23.853l32.022,32.022l-10.628,10.63L-46.969,625.467z"/>
		<path fill="#006E12" d="M69.413,579.204l-14.731,14.731l4.886,8.979l-13.249,13.251L20.11,558.389l14.155-14.153l57.77,26.213
			l-13.585,13.59L69.413,579.204z M57.644,572.817l-19.731-10.46l10.507,19.682L57.644,572.817z"/>
		<path fill="#006E12" d="M100.999,531.064l-8.736-8.737l20.046-20.05l17.906,17.903c-1.222,6.454-2.838,11.63-4.842,15.523
			c-2.004,3.896-5.033,7.864-9.08,11.911c-4.986,4.986-9.897,8.2-14.739,9.641c-4.84,1.444-9.807,1.347-14.893-0.285
			c-5.091-1.632-9.809-4.629-14.167-8.979c-4.583-4.582-7.624-9.514-9.123-14.796c-1.499-5.279-1.304-10.621,0.587-16.022
			c1.491-4.204,4.641-8.709,9.45-13.52c4.643-4.642,8.536-7.694,11.674-9.153c3.142-1.459,6.356-2.065,9.639-1.816
			c3.282,0.249,6.663,1.347,10.139,3.291l-10.282,14.752c-2.102-1.065-4.188-1.408-6.26-1.019c-2.073,0.392-4.059,1.543-5.971,3.453
			c-2.847,2.842-4.124,6.099-3.84,9.766c0.289,3.664,2.57,7.638,6.848,11.915c4.544,4.542,8.645,6.939,12.299,7.178
			c3.66,0.234,7.016-1.174,10.069-4.229c1.451-1.451,2.626-3.04,3.523-4.78c0.896-1.738,1.688-3.966,2.377-6.674l-3.954-3.956
			L100.999,531.064z"/>
		<path fill="#006E12" d="M101.945,476.555l34.773-34.774l8.96,8.966l-21.766,21.768l6.674,6.675l20.192-20.192l8.563,8.564
			l-20.192,20.192l8.277,8.277l22.4-22.396l9.506,9.51l-35.397,35.404L101.945,476.555z"/>
		<path fill="#006E12" d="M164.414,414.084l13.002-13l41.993,41.987l-13.002,13.004L164.414,414.084z"/>
		<path fill="#006E12" d="M186.585,391.915l17.063-17.061l32.131,18.967l-19.014-32.082l17.055-17.055l41.987,41.993l-10.626,10.624
			l-32.024-32.022l23.838,40.208l-9.621,9.62l-40.196-23.85l32.024,32.022l-10.626,10.626L186.585,391.915z"/>
		<path fill="#006E12" d="M302.97,345.651l-14.733,14.729l4.886,8.979l-13.248,13.249l-26.209-57.771l14.149-14.155l57.771,26.211
			L312,350.482L302.97,345.651z M291.195,339.261l-19.729-10.46l10.505,19.684L291.195,339.261z"/>
		<path fill="#006E12" d="M334.552,297.508l-8.736-8.737l20.05-20.05l17.905,17.905c-1.221,6.452-2.835,11.628-4.839,15.521
			c-2.007,3.896-5.034,7.868-9.08,11.912c-4.986,4.987-9.898,8.203-14.74,9.642c-4.842,1.44-9.807,1.349-14.893-0.287
			c-5.091-1.632-9.81-4.621-14.164-8.979c-4.582-4.582-7.625-9.514-9.124-14.793c-1.5-5.278-1.307-10.624,0.585-16.025
			c1.487-4.201,4.642-8.71,9.449-13.52c4.643-4.642,8.531-7.69,11.673-9.153c3.144-1.458,6.354-2.065,9.637-1.816
			c3.286,0.248,6.663,1.344,10.141,3.29l-10.281,14.751c-2.102-1.067-4.188-1.408-6.259-1.015c-2.071,0.39-4.064,1.542-5.974,3.45
			c-2.842,2.845-4.126,6.1-3.837,9.767c0.283,3.664,2.567,7.64,6.846,11.915c4.544,4.544,8.643,6.936,12.3,7.178
			c3.659,0.234,7.016-1.174,10.066-4.229c1.451-1.451,2.625-3.042,3.523-4.784c0.896-1.736,1.692-3.96,2.376-6.67l-3.95-3.952
			L334.552,297.508z"/>
		<path fill="#006E12" d="M335.496,242.999l34.777-34.773l8.965,8.969l-21.772,21.766l6.678,6.675l20.192-20.194l8.564,8.564
			l-20.192,20.192l8.277,8.281l22.396-22.4l9.515,9.51l-35.402,35.406L335.496,242.999z"/>
		<path fill="#006E12" d="M397.968,180.533l13.004-13.003l41.989,41.988l-13.003,13.002L397.968,180.533z"/>
		<path fill="#006E12" d="M420.136,158.36l17.067-17.063l32.127,18.971l-19.012-32.086l17.049-17.054l41.993,41.993l-10.626,10.626
			l-32.022-32.023l23.832,40.211l-9.617,9.621l-40.192-23.852l32.021,32.025l-10.626,10.627L420.136,158.36z"/>
		<path fill="#006E12" d="M536.521,112.095l-14.733,14.732l4.891,8.98l-13.251,13.249l-26.209-57.773l14.155-14.154l57.77,26.21
			l-13.592,13.587L536.521,112.095z M524.749,105.708l-19.73-10.461l10.513,19.684L524.749,105.708z"/>
		<path fill="#006E12" d="M568.108,63.956l-8.737-8.736l20.05-20.052l17.901,17.903c-1.221,6.456-2.838,11.63-4.842,15.523
			c-2.004,3.895-5.029,7.866-9.081,11.913c-4.979,4.985-9.893,8.199-14.732,9.64c-4.841,1.442-9.807,1.348-14.897-0.286
			c-5.088-1.635-9.809-4.623-14.165-8.981c-4.58-4.582-7.622-9.512-9.122-14.792c-1.498-5.28-1.303-10.62,0.587-16.026
			c1.489-4.202,4.642-8.707,9.452-13.519c4.639-4.642,8.53-7.693,11.672-9.15c3.138-1.462,6.353-2.071,9.637-1.82
			c3.284,0.249,6.665,1.349,10.141,3.295l-10.285,14.75c-2.098-1.067-4.185-1.409-6.257-1.016c-2.069,0.392-4.063,1.542-5.969,3.453
			c-2.849,2.845-4.123,6.099-3.842,9.767c0.291,3.666,2.574,7.638,6.848,11.916c4.546,4.544,8.647,6.936,12.303,7.177
			c3.656,0.235,7.013-1.172,10.066-4.228c1.452-1.452,2.629-3.045,3.522-4.782c0.897-1.739,1.689-3.963,2.38-6.674l-3.959-3.954
			L568.108,63.956z"/>
		<path fill="#006E12" d="M569.053,9.447l34.772-34.771l8.965,8.964L591.025,5.41l6.669,6.672L617.892-8.11l8.564,8.563
			l-20.194,20.192l8.279,8.276l22.4-22.396l9.505,9.51l-35.4,35.403L569.053,9.447z"/>
		<path fill="#006E12" d="M631.525-53.023l13-13.003l41.993,41.989L673.517-11.03L631.525-53.023z"/>
		<path fill="#006E12" d="M653.692-75.194l17.063-17.063l32.132,18.971l-19.015-32.085l17.053-17.053l41.991,41.993L732.29-69.804
			l-32.026-32.024l23.84,40.209l-9.621,9.622L674.289-75.85l32.022,32.023L695.686-33.2L653.692-75.194z"/>
		<path fill="#006E12" d="M770.079-121.459l-14.731,14.731l4.885,8.979L746.985-84.5l-26.211-57.773l14.153-14.154l57.766,26.213
			l-13.584,13.586L770.079-121.459z M758.305-127.846l-19.729-10.462l10.507,19.683L758.305-127.846z"/>
		<path fill="#006E12" d="M801.661-169.599l-8.736-8.737l20.052-20.053l17.903,17.906c-1.221,6.456-2.835,11.63-4.839,15.523
			c-2.004,3.895-5.035,7.867-9.078,11.913c-4.988,4.985-9.898,8.201-14.742,9.64c-4.84,1.441-9.805,1.348-14.893-0.286
			c-5.091-1.635-9.812-4.626-14.164-8.979c-4.584-4.584-7.626-9.517-9.126-14.794c-1.498-5.28-1.302-10.621,0.587-16.024
			c1.489-4.204,4.642-8.71,9.451-13.521c4.643-4.641,8.529-7.692,11.671-9.15c3.145-1.462,6.354-2.069,9.641-1.82
			c3.281,0.247,6.661,1.346,10.137,3.295l-10.281,14.747c-2.102-1.067-4.187-1.407-6.259-1.018
			c-2.071,0.392-4.063,1.544-5.975,3.454c-2.841,2.847-4.125,6.098-3.834,9.767c0.283,3.666,2.565,7.637,6.846,11.916
			c4.542,4.544,8.64,6.936,12.3,7.176c3.655,0.236,7.015-1.17,10.064-4.226c1.451-1.451,2.626-3.045,3.523-4.783
			c0.899-1.737,1.691-3.961,2.378-6.673l-3.95-3.953L801.661-169.599z"/>
		<path fill="#006E12" d="M802.604-224.104l34.779-34.777l8.966,8.966l-21.772,21.771l6.676,6.673l20.192-20.192l8.566,8.563
			l-20.196,20.192l8.279,8.28l22.398-22.401l9.511,9.51l-35.4,35.404L802.604-224.104z"/>
		<path fill="#006E12" d="M865.077-286.579l13.004-13.003l41.989,41.99l-13.002,13.005L865.077-286.579z"/>
		<path fill="#006E12" d="M887.244-308.745l17.068-17.066l32.129,18.97l-19.02-32.085l17.055-17.054l41.995,41.992l-10.628,10.628
			l-32.021-32.026l23.832,40.211l-9.615,9.621l-40.193-23.851l32.019,32.025l-10.626,10.626L887.244-308.745z"/>
		<path fill="#006E12" d="M1003.631-355.015l-14.731,14.732l4.887,8.979l-13.249,13.249l-26.209-57.773l14.153-14.155l57.771,26.212
			l-13.592,13.585L1003.631-355.015z M991.858-361.4l-19.73-10.462l10.515,19.683L991.858-361.4z"/>
		<path fill="#006E12" d="M1035.218-403.154l-8.735-8.736l20.048-20.053l17.903,17.904c-1.225,6.456-2.837,11.63-4.842,15.525
			c-2.004,3.895-5.031,7.866-9.079,11.914c-4.982,4.982-9.896,8.197-14.735,9.637c-4.842,1.442-9.808,1.348-14.898-0.286
			c-5.088-1.634-9.811-4.624-14.165-8.979c-4.58-4.583-7.622-9.515-9.118-14.794c-1.502-5.279-1.306-10.621,0.585-16.024
			c1.489-4.204,4.638-8.71,9.45-13.521c4.639-4.643,8.534-7.692,11.672-9.151c3.139-1.462,6.354-2.07,9.639-1.818
			c3.281,0.245,6.665,1.348,10.139,3.294l-10.283,14.746c-2.1-1.064-4.187-1.406-6.26-1.016c-2.068,0.392-4.06,1.542-5.97,3.454
			c-2.847,2.845-4.123,6.098-3.842,9.766c0.291,3.666,2.574,7.637,6.846,11.917c4.544,4.543,8.649,6.936,12.306,7.176
			c3.653,0.236,7.01-1.172,10.067-4.226c1.452-1.453,2.627-3.045,3.519-4.784c0.899-1.738,1.691-3.963,2.382-6.673l-3.958-3.953
			L1035.218-403.154z"/>
		<path fill="#006E12" d="M1036.164-457.658l34.769-34.776l8.965,8.966l-21.765,21.77l6.669,6.674l20.199-20.193l8.563,8.563
			l-20.192,20.192l8.277,8.28l22.398-22.4l9.507,9.511l-35.398,35.404L1036.164-457.658z"/>
	</g>
</g>
</svg>
