<?xml version="1.0" encoding="utf-8"?>
<!-- Generator: Adobe Illustrator 15.0.2, SVG Export Plug-In . SVG Version: 6.00 Build 0)  -->
<!DOCTYPE svg PUBLIC "-//W3C//DTD SVG 1.1//EN" "http://www.w3.org/Graphics/SVG/1.1/DTD/svg11.dtd">
<svg version="1.1" id="Calque_1" xmlns="http://www.w3.org/2000/svg" xmlns:xlink="http://www.w3.org/1999/xlink" x="0px" y="0px"
	 width="150px" height="220px" viewBox="0 0 150 220" enable-background="new 0 0 150 220" xml:space="preserve">
<rect x="-4.934" y="-53.77" fill="#FFF5F5" width="159.868" height="327.539"/>
<g>
	<g opacity="0.15">
		<path fill="#006E12" d="M-430.72,354.846l7.034-7.033l22.715,22.714l-7.034,7.034L-430.72,354.846z"/>
		<path fill="#006E12" d="M-418.728,342.854l9.231-9.23l17.379,10.262l-10.286-17.356l9.225-9.226l22.714,22.714l-5.749,5.751
			l-17.321-17.324l12.893,21.753l-5.204,5.204l-21.742-12.902l17.321,17.322l-5.748,5.749L-418.728,342.854z"/>
		<path fill="#006E12" d="M-355.771,317.826l-7.968,7.969l2.642,4.857l-7.167,7.167l-14.177-31.252l7.656-7.656l31.25,14.18
			l-7.35,7.35L-355.771,317.826z M-362.139,314.372l-10.671-5.659l5.685,10.646L-362.139,314.372z"/>
		<path fill="#006E12" d="M-338.685,291.786l-4.726-4.727l10.845-10.846l9.685,9.683c-0.661,3.491-1.534,6.29-2.618,8.397
			c-1.085,2.107-2.723,4.256-4.912,6.446c-2.697,2.696-5.354,4.435-7.973,5.214c-2.618,0.78-5.304,0.728-8.056-0.155
			c-2.754-0.883-5.306-2.503-7.662-4.856c-2.48-2.479-4.125-5.147-4.936-8.004c-0.811-2.855-0.705-5.745,0.318-8.669
			c0.805-2.272,2.511-4.711,5.112-7.313c2.511-2.51,4.616-4.16,6.315-4.95c1.7-0.789,3.436-1.118,5.213-0.982
			c1.776,0.132,3.606,0.726,5.485,1.779l-5.562,7.979c-1.136-0.578-2.264-0.761-3.385-0.55c-1.121,0.212-2.198,0.835-3.23,1.868
			c-1.539,1.537-2.231,3.3-2.076,5.282c0.155,1.983,1.389,4.133,3.703,6.446c2.458,2.458,4.676,3.753,6.654,3.88
			c1.978,0.13,3.794-0.631,5.447-2.284c0.786-0.785,1.421-1.646,1.905-2.587c0.485-0.94,0.915-2.144,1.287-3.61l-2.138-2.139
			L-338.685,291.786z"/>
		<path fill="#006E12" d="M-338.173,262.299l18.809-18.81l4.85,4.85l-11.775,11.776l3.61,3.61l10.922-10.923l4.632,4.632
			l-10.923,10.924l4.478,4.477l12.117-12.115l5.144,5.145l-19.151,19.15L-338.173,262.299z"/>
		<path fill="#006E12" d="M-304.381,228.508l7.034-7.034l22.716,22.713l-7.034,7.034L-304.381,228.508z"/>
		<path fill="#006E12" d="M-292.388,216.514l9.23-9.23l17.38,10.263l-10.286-17.356l9.225-9.225l22.714,22.714l-5.749,5.749
			l-17.321-17.323l12.894,21.752l-5.205,5.204l-21.742-12.902l17.322,17.322l-5.749,5.749L-292.388,216.514z"/>
		<path fill="#006E12" d="M-229.431,191.486l-7.968,7.969l2.642,4.857l-7.167,7.168l-14.177-31.252l7.656-7.656l31.25,14.179
			l-7.349,7.35L-229.431,191.486z M-235.8,188.032l-10.671-5.659l5.684,10.646L-235.8,188.032z"/>
		<path fill="#006E12" d="M-212.345,165.446l-4.726-4.726l10.845-10.847l9.685,9.683c-0.661,3.492-1.533,6.292-2.618,8.398
			c-1.084,2.106-2.722,4.256-4.912,6.445c-2.697,2.697-5.354,4.436-7.972,5.216c-2.619,0.779-5.305,0.726-8.057-0.156
			c-2.753-0.883-5.307-2.503-7.662-4.857c-2.479-2.479-4.125-5.146-4.936-8.003c-0.811-2.855-0.705-5.746,0.317-8.67
			c0.806-2.271,2.511-4.709,5.113-7.313c2.512-2.509,4.617-4.16,6.315-4.951c1.7-0.789,3.436-1.117,5.213-0.982
			c1.776,0.134,3.606,0.728,5.485,1.78l-5.562,7.979c-1.136-0.579-2.265-0.762-3.385-0.55c-1.122,0.211-2.199,0.835-3.23,1.868
			c-1.54,1.537-2.232,3.299-2.077,5.282c0.155,1.982,1.39,4.132,3.703,6.446c2.458,2.457,4.677,3.753,6.654,3.879
			c1.977,0.13,3.794-0.631,5.447-2.282c0.785-0.786,1.421-1.648,1.905-2.588c0.485-0.941,0.915-2.145,1.287-3.61l-2.139-2.139
			L-212.345,165.446z"/>
		<path fill="#006E12" d="M-211.834,135.961l18.81-18.811l4.85,4.851l-11.776,11.774l3.609,3.61l10.923-10.923l4.632,4.633
			l-10.923,10.923l4.477,4.478l12.118-12.115l5.144,5.144l-19.152,19.151L-211.834,135.961z"/>
		<path fill="#006E12" d="M-178.042,102.168l7.034-7.034l22.715,22.713l-7.034,7.034L-178.042,102.168z"/>
		<path fill="#006E12" d="M-166.049,90.176l9.23-9.231l17.38,10.262l-10.286-17.356l9.225-9.225l22.713,22.715l-5.748,5.749
			l-17.321-17.323l12.893,21.751l-5.204,5.204l-21.742-12.903l17.321,17.323l-5.749,5.749L-166.049,90.176z"/>
		<path fill="#006E12" d="M-103.092,65.148l-7.969,7.969l2.643,4.857l-7.167,7.168l-14.177-31.252l7.656-7.657l31.25,14.179
			l-7.35,7.35L-103.092,65.148z M-109.461,61.693l-10.671-5.658l5.684,10.646L-109.461,61.693z"/>
		<path fill="#006E12" d="M-86.006,39.107l-4.726-4.726l10.844-10.846l9.686,9.683c-0.661,3.492-1.534,6.291-2.619,8.398
			c-1.085,2.106-2.723,4.256-4.912,6.446c-2.697,2.697-5.354,4.436-7.972,5.214c-2.618,0.78-5.305,0.728-8.057-0.155
			c-2.753-0.883-5.306-2.503-7.662-4.857c-2.479-2.479-4.125-5.147-4.936-8.003c-0.811-2.856-0.706-5.746,0.317-8.668
			c0.805-2.273,2.511-4.711,5.112-7.315c2.511-2.509,4.617-4.16,6.315-4.95c1.7-0.79,3.437-1.118,5.213-0.983
			c1.777,0.134,3.606,0.728,5.485,1.78l-5.562,7.981c-1.135-0.577-2.264-0.761-3.384-0.55c-1.121,0.212-2.199,0.834-3.23,1.868
			c-1.54,1.538-2.231,3.3-2.077,5.283c0.155,1.982,1.39,4.132,3.704,6.445c2.458,2.458,4.676,3.753,6.653,3.881
			c1.978,0.129,3.795-0.632,5.447-2.284c0.786-0.786,1.422-1.647,1.905-2.588c0.486-0.94,0.915-2.144,1.288-3.61l-2.138-2.138
			L-86.006,39.107z"/>
		<path fill="#006E12" d="M-85.495,9.621l18.811-18.81l4.849,4.85L-73.61,7.437l3.609,3.61l10.923-10.923l4.632,4.632L-65.368,15.68
			l4.477,4.477l12.117-12.115l5.144,5.144l-19.151,19.15L-85.495,9.621z"/>
		<path fill="#006E12" d="M-51.703-24.17l7.034-7.034l22.715,22.713l-7.034,7.034L-51.703-24.17z"/>
		<path fill="#006E12" d="M-39.709-36.164l9.23-9.23l17.38,10.262l-10.286-17.356l9.225-9.225L8.554-38.998L2.806-33.25
			l-17.322-17.324l12.894,21.751l-5.204,5.205l-21.742-12.903l17.321,17.323l-5.748,5.749L-39.709-36.164z"/>
		<path fill="#006E12" d="M23.248-61.191l-7.969,7.969l2.643,4.857l-7.167,7.167L-3.424-72.45l7.657-7.656l31.25,14.179l-7.35,7.349
			L23.248-61.191z M16.879-64.646L6.208-70.305l5.684,10.648L16.879-64.646z"/>
		<path fill="#006E12" d="M40.333-87.232l-4.726-4.726l10.845-10.847l9.685,9.684c-0.661,3.491-1.534,6.292-2.619,8.399
			c-1.084,2.107-2.723,4.254-4.912,6.444c-2.697,2.697-5.354,4.435-7.973,5.215c-2.619,0.779-5.304,0.727-8.056-0.155
			c-2.754-0.883-5.307-2.503-7.663-4.857c-2.479-2.48-4.125-5.147-4.936-8.003s-0.705-5.747,0.317-8.668
			c0.806-2.274,2.511-4.711,5.113-7.315c2.511-2.509,4.616-4.159,6.314-4.95c1.701-0.79,3.437-1.118,5.213-0.983
			c1.777,0.134,3.606,0.727,5.486,1.78l-5.562,7.979c-1.137-0.577-2.265-0.761-3.386-0.549c-1.121,0.211-2.198,0.834-3.23,1.867
			c-1.539,1.538-2.231,3.299-2.076,5.283c0.155,1.983,1.39,4.132,3.703,6.446c2.458,2.458,4.677,3.753,6.654,3.883
			c1.978,0.128,3.794-0.634,5.447-2.287c0.785-0.785,1.421-1.647,1.904-2.587c0.486-0.941,0.915-2.144,1.287-3.61l-2.138-2.139
			L40.333-87.232z"/>
		<path fill="#006E12" d="M40.845-116.718l18.81-18.81l4.85,4.85l-11.777,11.775l3.611,3.61l10.923-10.923l4.633,4.632
			L60.971-110.66l4.477,4.478l12.115-12.116l5.146,5.144L63.559-94.002L40.845-116.718z"/>
		<path fill="#006E12" d="M74.637-150.51l7.034-7.034l22.713,22.713l-7.033,7.035L74.637-150.51z"/>
		<path fill="#006E12" d="M86.628-162.503l9.232-9.23l17.38,10.261l-10.287-17.356l9.225-9.225l22.715,22.716l-5.748,5.748
			l-17.321-17.323l12.892,21.751l-5.202,5.204l-21.742-12.902l17.321,17.323l-5.748,5.749L86.628-162.503z"/>
		<path fill="#006E12" d="M149.585-187.53l-7.969,7.969l2.645,4.857l-7.167,7.167l-14.178-31.252l7.656-7.656l31.25,14.179
			l-7.351,7.35L149.585-187.53z M143.218-190.985l-10.673-5.659l5.686,10.647L143.218-190.985z"/>
		<path fill="#006E12" d="M166.673-213.571l-4.726-4.726l10.845-10.847l9.684,9.684c-0.661,3.493-1.534,6.292-2.619,8.399
			c-1.085,2.107-2.721,4.254-4.912,6.444c-2.695,2.697-5.354,4.435-7.972,5.214c-2.619,0.78-5.304,0.729-8.057-0.155
			c-2.752-0.884-5.307-2.503-7.662-4.857c-2.478-2.479-4.123-5.146-4.934-8.003c-0.811-2.856-0.705-5.746,0.317-8.668
			c0.806-2.273,2.51-4.711,5.113-7.314c2.509-2.509,4.616-4.16,6.314-4.951c1.697-0.789,3.437-1.118,5.212-0.983
			c1.777,0.134,3.606,0.728,5.486,1.78l-5.564,7.98c-1.136-0.577-2.264-0.762-3.385-0.55c-1.119,0.211-2.197,0.835-3.229,1.868
			c-1.541,1.538-2.231,3.3-2.078,5.283c0.157,1.983,1.391,4.132,3.702,6.446c2.459,2.458,4.679,3.753,6.654,3.882
			c1.979,0.128,3.795-0.633,5.449-2.286c0.785-0.786,1.419-1.647,1.904-2.587c0.486-0.94,0.915-2.144,1.288-3.61l-2.14-2.138
			L166.673-213.571z"/>
		<path fill="#006E12" d="M167.185-243.057l18.808-18.811l4.85,4.85l-11.773,11.776l3.607,3.61l10.924-10.923l4.634,4.633
			l-10.923,10.923l4.477,4.478l12.117-12.115l5.143,5.144l-19.15,19.151L167.185-243.057z"/>
		<path fill="#006E12" d="M200.977-276.849l7.033-7.034l22.715,22.713l-7.035,7.035L200.977-276.849z"/>
		<path fill="#006E12" d="M212.969-288.842l9.229-9.23l17.382,10.262l-10.286-17.356l9.225-9.225l22.714,22.715l-5.748,5.748
			l-17.323-17.323l12.895,21.751l-5.204,5.204l-21.743-12.902l17.322,17.323l-5.749,5.748L212.969-288.842z"/>
		<path fill="#006E12" d="M275.926-313.87l-7.969,7.969l2.641,4.857l-7.165,7.168l-14.177-31.252l7.654-7.657l31.25,14.179
			l-7.35,7.35L275.926-313.87z M269.558-317.325l-10.672-5.659l5.683,10.647L269.558-317.325z"/>
		<path fill="#006E12" d="M293.011-339.911l-4.726-4.726l10.846-10.847l9.686,9.685c-0.661,3.491-1.534,6.291-2.618,8.398
			c-1.085,2.107-2.725,4.255-4.913,6.444c-2.696,2.697-5.354,4.436-7.972,5.215c-2.618,0.779-5.305,0.729-8.057-0.156
			c-2.753-0.883-5.308-2.503-7.661-4.857c-2.48-2.479-4.126-5.147-4.937-8.003c-0.811-2.855-0.704-5.746,0.317-8.668
			c0.806-2.273,2.512-4.711,5.113-7.313c2.511-2.511,4.614-4.162,6.313-4.952c1.702-0.789,3.438-1.118,5.215-0.982
			c1.776,0.133,3.604,0.726,5.485,1.78l-5.562,7.979c-1.137-0.577-2.264-0.761-3.386-0.549c-1.12,0.211-2.198,0.834-3.231,1.868
			c-1.537,1.537-2.231,3.299-2.074,5.282c0.153,1.982,1.387,4.132,3.703,6.445c2.457,2.458,4.674,3.753,6.653,3.883
			c1.978,0.127,3.795-0.633,5.445-2.286c0.785-0.785,1.421-1.647,1.906-2.587s0.913-2.144,1.285-3.61l-2.136-2.138L293.011-339.911z
			"/>
		<path fill="#006E12" d="M293.521-369.396l18.813-18.811l4.85,4.85l-11.778,11.775l3.612,3.61l10.923-10.923l4.632,4.632
			l-10.925,10.923l4.479,4.478l12.115-12.116l5.146,5.145l-19.15,19.15L293.521-369.396z"/>
	</g>
	<g opacity="0.15">
		<path fill="#006E12" d="M-450.553,454.01l7.034-7.035l22.716,22.714l-7.036,7.035L-450.553,454.01z"/>
		<path fill="#006E12" d="M-438.56,442.017l9.23-9.23l17.38,10.261l-10.286-17.354l9.225-9.225l22.714,22.712l-5.749,5.749
			l-17.322-17.32l12.892,21.75l-5.203,5.203l-21.742-12.901l17.321,17.322l-5.748,5.749L-438.56,442.017z"/>
		<path fill="#006E12" d="M-375.603,416.99l-7.968,7.968l2.642,4.857l-7.167,7.165l-14.177-31.25l7.656-7.656l31.25,14.179
			l-7.352,7.35L-375.603,416.99z M-381.972,413.534l-10.671-5.658l5.684,10.646L-381.972,413.534z"/>
		<path fill="#006E12" d="M-358.517,390.948l-4.726-4.726l10.845-10.847l9.685,9.684c-0.663,3.491-1.536,6.291-2.619,8.397
			c-1.084,2.106-2.723,4.257-4.912,6.445c-2.697,2.698-5.354,4.435-7.973,5.214c-2.619,0.779-5.304,0.729-8.056-0.154
			c-2.753-0.883-5.308-2.503-7.663-4.858c-2.479-2.478-4.125-5.146-4.936-8.002c-0.811-2.855-0.705-5.746,0.317-8.67
			c0.806-2.271,2.511-4.709,5.113-7.313c2.511-2.509,4.614-4.159,6.314-4.95c1.7-0.792,3.437-1.118,5.213-0.985
			c1.776,0.136,3.606,0.729,5.485,1.782l-5.562,7.979c-1.136-0.578-2.264-0.761-3.385-0.55c-1.121,0.212-2.198,0.835-3.23,1.866
			c-1.539,1.54-2.231,3.302-2.076,5.285c0.153,1.982,1.388,4.131,3.703,6.445c2.458,2.457,4.676,3.753,6.654,3.881
			c1.978,0.129,3.792-0.632,5.447-2.284c0.785-0.786,1.418-1.649,1.905-2.588c0.485-0.94,0.915-2.145,1.287-3.61l-2.138-2.138
			L-358.517,390.948z"/>
		<path fill="#006E12" d="M-358.005,361.462l18.81-18.81l4.85,4.851l-11.776,11.774l3.61,3.61l10.923-10.923l4.633,4.633
			l-10.923,10.923l4.478,4.478l12.117-12.115l5.144,5.144l-19.151,19.151L-358.005,361.462z"/>
		<path fill="#006E12" d="M-324.213,327.67l7.034-7.035l22.716,22.715l-7.036,7.034L-324.213,327.67z"/>
		<path fill="#006E12" d="M-312.22,315.678l9.23-9.23l17.38,10.26l-10.286-17.354l9.225-9.225l22.714,22.713l-5.749,5.749
			l-17.321-17.321l12.892,21.752l-5.202,5.201l-21.744-12.9l17.324,17.321l-5.749,5.75L-312.22,315.678z"/>
		<path fill="#006E12" d="M-249.263,290.65l-7.969,7.969l2.642,4.857l-7.167,7.164l-14.178-31.249l7.656-7.656l31.25,14.179
			l-7.351,7.35L-249.263,290.65z M-255.632,287.195l-10.671-5.659l5.685,10.646L-255.632,287.195z"/>
		<path fill="#006E12" d="M-232.177,264.609l-4.726-4.726l10.845-10.847l9.685,9.684c-0.663,3.491-1.535,6.29-2.618,8.396
			c-1.085,2.107-2.723,4.257-4.912,6.447c-2.697,2.696-5.354,4.433-7.972,5.212c-2.619,0.781-5.305,0.729-8.057-0.153
			c-2.753-0.883-5.308-2.503-7.662-4.858c-2.479-2.479-4.125-5.146-4.935-8.002c-0.811-2.855-0.706-5.747,0.317-8.671
			c0.806-2.271,2.511-4.709,5.113-7.313c2.511-2.509,4.614-4.159,6.314-4.95c1.7-0.791,3.437-1.118,5.213-0.984
			c1.776,0.135,3.604,0.729,5.485,1.781l-5.562,7.98c-1.136-0.579-2.264-0.762-3.385-0.55c-1.122,0.211-2.199,0.834-3.231,1.865
			c-1.539,1.54-2.231,3.302-2.076,5.285c0.153,1.983,1.388,4.132,3.703,6.445c2.458,2.458,4.676,3.753,6.654,3.881
			c1.978,0.13,3.792-0.632,5.447-2.284c0.783-0.785,1.418-1.648,1.905-2.587c0.485-0.941,0.915-2.145,1.288-3.61l-2.139-2.139
			L-232.177,264.609z"/>
		<path fill="#006E12" d="M-231.666,235.123l18.81-18.81l4.849,4.85l-11.775,11.776l3.61,3.609l10.923-10.924l4.632,4.633
			l-10.923,10.924l4.477,4.478l12.117-12.116l5.145,5.144l-19.151,19.151L-231.666,235.123z"/>
		<path fill="#006E12" d="M-197.874,201.332l7.034-7.037l22.715,22.716l-7.036,7.034L-197.874,201.332z"/>
		<path fill="#006E12" d="M-185.881,189.338l9.23-9.23l17.38,10.26l-10.286-17.354l9.225-9.224l22.714,22.713l-5.749,5.749
			l-17.321-17.322l12.892,21.752l-5.202,5.202l-21.744-12.9l17.323,17.322l-5.749,5.749L-185.881,189.338z"/>
		<path fill="#006E12" d="M-122.924,164.311l-7.969,7.969l2.643,4.857l-7.167,7.166l-14.178-31.251l7.657-7.656l31.25,14.18
			l-7.352,7.35L-122.924,164.311z M-129.293,160.855l-10.671-5.659l5.684,10.646L-129.293,160.855z"/>
		<path fill="#006E12" d="M-105.838,138.271l-4.725-4.726l10.844-10.848l9.683,9.684c-0.661,3.491-1.534,6.291-2.619,8.398
			c-1.083,2.106-2.721,4.255-4.91,6.445c-2.697,2.696-5.354,4.434-7.972,5.213c-2.62,0.781-5.305,0.729-8.057-0.153
			c-2.753-0.884-5.308-2.503-7.662-4.859c-2.48-2.479-4.125-5.146-4.935-8.001c-0.812-2.856-0.706-5.746,0.317-8.67
			c0.805-2.272,2.512-4.709,5.113-7.313c2.51-2.509,4.614-4.16,6.314-4.95c1.698-0.792,3.437-1.118,5.213-0.984
			c1.776,0.136,3.604,0.729,5.486,1.782l-5.562,7.98c-1.136-0.578-2.264-0.762-3.385-0.55c-1.121,0.212-2.199,0.835-3.23,1.866
			c-1.539,1.539-2.231,3.301-2.076,5.284c0.153,1.983,1.388,4.132,3.703,6.446c2.458,2.458,4.676,3.753,6.654,3.88
			c1.978,0.13,3.792-0.631,5.447-2.284c0.784-0.785,1.419-1.649,1.905-2.587c0.486-0.94,0.915-2.144,1.287-3.61l-2.138-2.139
			L-105.838,138.271z"/>
		<path fill="#006E12" d="M-105.327,108.785l18.811-18.81l4.849,4.85L-93.443,106.6l3.61,3.61l10.923-10.923l4.633,4.632
			l-10.923,10.923l4.478,4.478l12.117-12.115l5.145,5.145L-82.613,131.5L-105.327,108.785z"/>
		<path fill="#006E12" d="M-71.535,74.992l7.034-7.035l22.715,22.715l-7.036,7.033L-71.535,74.992z"/>
		<path fill="#006E12" d="M-59.542,62.999l9.231-9.23l17.38,10.261l-10.286-17.354l9.225-9.225l22.713,22.714l-5.748,5.749
			L-34.349,48.59l12.892,21.752l-5.203,5.202l-21.744-12.901l17.323,17.324l-5.748,5.748L-59.542,62.999z"/>
		<path fill="#006E12" d="M3.415,37.972l-7.969,7.969l2.643,4.858l-7.167,7.165l-14.177-31.25l7.657-7.656l31.25,14.179L8.3,40.585
			L3.415,37.972z M-2.954,34.517l-10.671-5.659l5.685,10.646L-2.954,34.517z"/>
		<path fill="#006E12" d="M20.5,11.932l-4.726-4.726L26.62-3.641l9.684,9.683c-0.662,3.492-1.535,6.291-2.62,8.397
			c-1.082,2.107-2.72,4.257-4.91,6.446c-2.697,2.697-5.354,4.433-7.972,5.213c-2.619,0.781-5.304,0.728-8.056-0.154
			c-2.754-0.884-5.309-2.503-7.663-4.859c-2.479-2.477-4.125-5.146-4.935-8.001c-0.811-2.856-0.706-5.746,0.317-8.67
			c0.806-2.272,2.511-4.709,5.113-7.313c2.511-2.509,4.614-4.16,6.314-4.951c1.698-0.791,3.437-1.118,5.213-0.984
			c1.776,0.135,3.604,0.729,5.485,1.782L17.03,0.928c-1.136-0.579-2.265-0.762-3.385-0.55c-1.121,0.212-2.198,0.834-3.231,1.866
			c-1.539,1.539-2.23,3.301-2.076,5.284c0.154,1.983,1.388,4.132,3.704,6.446c2.458,2.458,4.676,3.752,6.654,3.88
			c1.978,0.129,3.792-0.632,5.447-2.284c0.783-0.786,1.418-1.649,1.904-2.588c0.487-0.94,0.916-2.144,1.288-3.61l-2.139-2.139
			L20.5,11.932z"/>
		<path fill="#006E12" d="M21.013-17.555l18.81-18.809l4.849,4.849L32.896-19.739l3.61,3.609l10.923-10.923l4.633,4.632
			L41.139-11.497l4.477,4.477l12.118-12.115l5.144,5.144L43.726,5.161L21.013-17.555z"/>
		<path fill="#006E12" d="M54.804-51.347l7.034-7.036l22.715,22.716l-7.036,7.034L54.804-51.347z"/>
		<path fill="#006E12" d="M66.798-63.34l9.229-9.23l17.38,10.26L83.122-79.665l9.226-9.225l22.713,22.714l-5.748,5.748
			L91.989-77.749l12.894,21.751l-5.202,5.203L77.937-63.696l17.321,17.323l-5.749,5.749L66.798-63.34z"/>
		<path fill="#006E12" d="M129.755-88.368l-7.969,7.968l2.64,4.858l-7.164,7.165l-14.178-31.25l7.654-7.657l31.25,14.18l-7.35,7.349
			L129.755-88.368z M123.386-91.822l-10.671-5.659l5.682,10.646L123.386-91.822z"/>
		<path fill="#006E12" d="M146.839-114.408l-4.726-4.725l10.846-10.847l9.684,9.684c-0.66,3.491-1.534,6.291-2.618,8.397
			c-1.085,2.107-2.723,4.256-4.91,6.446c-2.697,2.697-5.354,4.434-7.973,5.213c-2.618,0.782-5.305,0.729-8.057-0.153
			c-2.753-0.884-5.308-2.503-7.661-4.858c-2.479-2.479-4.125-5.146-4.938-8.002c-0.812-2.856-0.705-5.747,0.317-8.671
			c0.807-2.271,2.513-4.709,5.114-7.313c2.512-2.509,4.614-4.16,6.313-4.95c1.7-0.791,3.438-1.118,5.215-0.984
			c1.777,0.135,3.604,0.729,5.485,1.782l-5.562,7.979c-1.136-0.578-2.265-0.761-3.385-0.549c-1.121,0.211-2.199,0.834-3.232,1.866
			c-1.538,1.539-2.231,3.301-2.075,5.284c0.154,1.984,1.389,4.132,3.704,6.446c2.457,2.458,4.674,3.752,6.653,3.88
			c1.978,0.13,3.792-0.631,5.445-2.284c0.785-0.785,1.421-1.648,1.906-2.587c0.485-0.941,0.913-2.144,1.285-3.61l-2.136-2.138
			L146.839-114.408z"/>
		<path fill="#006E12" d="M147.35-143.894l18.813-18.81l4.85,4.85l-11.778,11.776l3.612,3.609l10.923-10.922l4.631,4.632
			l-10.923,10.923l4.477,4.478l12.117-12.116l5.146,5.144l-19.151,19.151L147.35-143.894z"/>
		<path fill="#006E12" d="M181.143-177.687l7.035-7.035l22.714,22.715l-7.034,7.034L181.143-177.687z"/>
		<path fill="#006E12" d="M193.135-189.68l9.232-9.231l17.38,10.261l-10.287-17.355l9.225-9.225l22.716,22.714l-5.748,5.748
			l-17.322-17.321l12.892,21.752l-5.202,5.202l-21.744-12.9l17.323,17.323l-5.748,5.748L193.135-189.68z"/>
		<path fill="#006E12" d="M256.093-214.707l-7.969,7.969l2.645,4.857l-7.169,7.166l-14.178-31.25l7.658-7.656l31.25,14.179
			l-7.352,7.35L256.093-214.707z M249.726-218.162l-10.674-5.658l5.687,10.645L249.726-218.162z"/>
		<path fill="#006E12" d="M273.179-240.747l-4.726-4.726L279.3-256.32l9.683,9.683c-0.661,3.492-1.534,6.291-2.618,8.398
			c-1.085,2.107-2.721,4.256-4.912,6.446c-2.695,2.697-5.354,4.434-7.973,5.215c-2.618,0.78-5.302,0.727-8.057-0.155
			c-2.753-0.884-5.306-2.504-7.662-4.857c-2.479-2.479-4.123-5.147-4.934-8.003s-0.704-5.746,0.317-8.67
			c0.806-2.271,2.51-4.709,5.113-7.313c2.509-2.509,4.614-4.16,6.314-4.95c1.698-0.789,3.437-1.118,5.213-0.984
			c1.776,0.135,3.604,0.729,5.483,1.782l-5.562,7.979c-1.136-0.579-2.265-0.762-3.385-0.55c-1.121,0.212-2.197,0.834-3.229,1.867
			c-1.541,1.538-2.23,3.301-2.078,5.284c0.155,1.983,1.39,4.132,3.704,6.446c2.457,2.458,4.678,3.752,6.653,3.88
			c1.979,0.129,3.795-0.632,5.447-2.284c0.785-0.786,1.42-1.649,1.906-2.588c0.483-0.94,0.915-2.143,1.285-3.61l-2.139-2.138
			L273.179-240.747z"/>
		<path fill="#006E12" d="M273.689-270.233l18.81-18.81l4.85,4.85l-11.774,11.776l3.609,3.61l10.923-10.923l4.634,4.632
			l-10.923,10.923l4.478,4.477l12.117-12.115l5.142,5.145l-19.15,19.151L273.689-270.233z"/>
		<path fill="#006E12" d="M307.483-304.026l7.033-7.034l22.716,22.713l-7.035,7.034L307.483-304.026z"/>
		<path fill="#006E12" d="M319.475-316.019l9.23-9.23l17.38,10.261l-10.284-17.355l9.225-9.225l22.714,22.713l-5.749,5.749
			l-17.322-17.321l12.894,21.751l-5.202,5.202l-21.744-12.901l17.321,17.324l-5.748,5.748L319.475-316.019z"/>
		<path fill="#006E12" d="M382.434-341.046l-7.969,7.968l2.641,4.858l-7.165,7.167l-14.178-31.252l7.654-7.657l31.25,14.18
			l-7.349,7.349L382.434-341.046z M376.064-344.5l-10.672-5.659l5.683,10.646L376.064-344.5z"/>
		<path fill="#006E12" d="M399.518-367.086l-4.726-4.726l10.847-10.847l9.684,9.683c-0.661,3.492-1.534,6.291-2.619,8.398
			c-1.084,2.107-2.723,4.256-4.91,6.445c-2.696,2.697-5.354,4.434-7.972,5.215c-2.619,0.779-5.305,0.727-8.057-0.156
			c-2.754-0.883-5.309-2.503-7.662-4.857c-2.479-2.479-4.126-5.147-4.938-8.003c-0.811-2.855-0.704-5.746,0.318-8.669
			c0.808-2.272,2.513-4.71,5.114-7.313c2.511-2.51,4.614-4.16,6.313-4.951c1.7-0.789,3.438-1.117,5.216-0.984
			c1.775,0.135,3.604,0.729,5.484,1.782l-5.562,7.979c-1.138-0.578-2.266-0.762-3.385-0.549c-1.121,0.212-2.198,0.834-3.232,1.866
			c-1.537,1.54-2.231,3.302-2.076,5.285s1.39,4.132,3.703,6.446c2.46,2.458,4.677,3.753,6.655,3.88
			c1.978,0.129,3.793-0.632,5.445-2.284c0.785-0.785,1.421-1.647,1.906-2.588c0.485-0.94,0.913-2.144,1.285-3.61l-2.139-2.138
			L399.518-367.086z"/>
		<path fill="#006E12" d="M400.028-396.573l18.813-18.81l4.848,4.85l-11.776,11.775l3.612,3.61l10.923-10.923l4.631,4.632
			l-10.924,10.923l4.479,4.478l12.116-12.116l5.146,5.144l-19.151,19.151L400.028-396.573z"/>
	</g>
	<g opacity="0.15">
		<path fill="#006E12" d="M-351.39,434.178l7.034-7.036l22.715,22.716l-7.036,7.033L-351.39,434.178z"/>
		<path fill="#006E12" d="M-339.398,422.184l9.23-9.23l17.382,10.261l-10.286-17.354l9.225-9.225l22.714,22.714l-5.749,5.748
			l-17.323-17.322l12.894,21.753l-5.202,5.202l-21.744-12.9l17.323,17.32l-5.748,5.749L-339.398,422.184z"/>
		<path fill="#006E12" d="M-276.439,397.157l-7.969,7.969l2.642,4.855l-7.167,7.167l-14.177-31.252l7.655-7.654l31.249,14.179
			l-7.35,7.351L-276.439,397.157z M-282.809,393.702l-10.671-5.658l5.685,10.646L-282.809,393.702z"/>
		<path fill="#006E12" d="M-259.355,371.115l-4.726-4.726l10.846-10.845l9.683,9.683c-0.661,3.492-1.533,6.29-2.618,8.397
			c-1.084,2.107-2.721,4.257-4.912,6.446c-2.695,2.694-5.352,4.433-7.971,5.213c-2.618,0.779-5.304,0.729-8.058-0.155
			c-2.752-0.882-5.307-2.502-7.662-4.856c-2.478-2.479-4.124-5.147-4.934-8.003c-0.811-2.857-0.705-5.745,0.318-8.669
			c0.805-2.272,2.509-4.711,5.112-7.313c2.511-2.512,4.615-4.16,6.315-4.95c1.698-0.791,3.437-1.118,5.213-0.985
			c1.776,0.136,3.604,0.729,5.485,1.783l-5.562,7.979c-1.138-0.579-2.267-0.762-3.385-0.551c-1.121,0.212-2.198,0.833-3.232,1.867
			c-1.538,1.539-2.23,3.301-2.077,5.284c0.156,1.982,1.39,4.13,3.704,6.445c2.459,2.458,4.678,3.751,6.656,3.88
			c1.978,0.13,3.792-0.631,5.445-2.286c0.785-0.783,1.421-1.646,1.906-2.587c0.485-0.938,0.915-2.142,1.285-3.609l-2.138-2.139
			L-259.355,371.115z"/>
		<path fill="#006E12" d="M-258.844,341.63l18.81-18.81l4.85,4.85l-11.774,11.776l3.61,3.609l10.922-10.924l4.633,4.633
			l-10.923,10.924l4.478,4.477l12.116-12.117l5.145,5.146l-19.151,19.149L-258.844,341.63z"/>
		<path fill="#006E12" d="M-225.051,307.839l7.034-7.036l22.714,22.715l-7.034,7.033L-225.051,307.839z"/>
		<path fill="#006E12" d="M-213.059,295.846l9.23-9.231l17.381,10.261l-10.285-17.354l9.225-9.226l22.714,22.713l-5.749,5.748
			l-17.323-17.32l12.893,21.751l-5.202,5.202l-21.745-12.9l17.324,17.321l-5.749,5.748L-213.059,295.846z"/>
		<path fill="#006E12" d="M-150.1,270.818l-7.969,7.969l2.642,4.854l-7.167,7.167l-14.177-31.252l7.656-7.654l31.249,14.18
			l-7.35,7.35L-150.1,270.818z M-156.469,267.363l-10.673-5.659l5.686,10.646L-156.469,267.363z"/>
		<path fill="#006E12" d="M-133.016,244.775l-4.726-4.727l10.847-10.845l9.683,9.684c-0.661,3.491-1.534,6.291-2.618,8.397
			c-1.085,2.107-2.721,4.256-4.912,6.446c-2.695,2.694-5.352,4.433-7.97,5.213c-2.619,0.78-5.305,0.729-8.059-0.155
			c-2.752-0.882-5.306-2.502-7.662-4.857c-2.478-2.478-4.124-5.146-4.934-8.001c-0.811-2.857-0.705-5.747,0.318-8.67
			c0.805-2.272,2.509-4.71,5.112-7.313c2.511-2.511,4.614-4.159,6.314-4.95c1.698-0.791,3.436-1.118,5.213-0.984
			c1.777,0.135,3.605,0.729,5.485,1.782l-5.562,7.979c-1.138-0.578-2.266-0.761-3.385-0.55c-1.121,0.213-2.199,0.834-3.232,1.866
			c-1.538,1.539-2.23,3.301-2.077,5.284c0.155,1.983,1.389,4.131,3.703,6.446c2.46,2.458,4.678,3.751,6.656,3.881
			c1.978,0.129,3.792-0.632,5.445-2.284c0.786-0.786,1.421-1.649,1.907-2.59c0.485-0.938,0.915-2.143,1.286-3.61l-2.139-2.139
			L-133.016,244.775z"/>
		<path fill="#006E12" d="M-132.505,215.291l18.81-18.811l4.85,4.851l-11.774,11.775l3.609,3.61l10.923-10.925l4.632,4.634
			l-10.923,10.923l4.478,4.478l12.115-12.116l5.146,5.145l-19.151,19.15L-132.505,215.291z"/>
		<path fill="#006E12" d="M-98.711,181.499l7.034-7.035l22.713,22.715l-7.034,7.034L-98.711,181.499z"/>
		<path fill="#006E12" d="M-86.72,169.506l9.23-9.23l17.382,10.261l-10.286-17.354l9.225-9.226l22.713,22.714l-5.748,5.748
			l-17.324-17.321l12.894,21.751l-5.203,5.202l-21.744-12.899l17.323,17.321l-5.749,5.748L-86.72,169.506z"/>
		<path fill="#006E12" d="M-23.761,144.479l-7.969,7.969l2.643,4.854l-7.167,7.168l-14.177-31.251l7.656-7.654l31.249,14.178
			l-7.35,7.35L-23.761,144.479z M-30.13,141.024l-10.672-5.659l5.686,10.646L-30.13,141.024z"/>
		<path fill="#006E12" d="M-6.677,118.436l-4.725-4.725l10.846-10.845l9.684,9.683c-0.661,3.49-1.534,6.29-2.619,8.397
			c-1.084,2.107-2.721,4.256-4.912,6.446c-2.695,2.695-5.352,4.434-7.971,5.213c-2.618,0.779-5.305,0.729-8.058-0.156
			c-2.752-0.881-5.307-2.501-7.662-4.857c-2.478-2.477-4.124-5.145-4.934-8.001c-0.81-2.855-0.706-5.746,0.317-8.67
			c0.805-2.271,2.509-4.709,5.113-7.313c2.511-2.511,4.614-4.16,6.314-4.95c1.698-0.792,3.437-1.118,5.213-0.985
			c1.777,0.135,3.604,0.729,5.485,1.782l-5.561,7.98c-1.139-0.579-2.267-0.761-3.386-0.55c-1.121,0.212-2.199,0.833-3.232,1.866
			c-1.537,1.538-2.229,3.301-2.076,5.284c0.155,1.983,1.39,4.131,3.703,6.446c2.46,2.458,4.677,3.751,6.656,3.881
			c1.978,0.13,3.792-0.633,5.445-2.284c0.785-0.785,1.421-1.649,1.906-2.589c0.486-0.939,0.915-2.143,1.286-3.611l-2.138-2.138
			L-6.677,118.436z"/>
		<path fill="#006E12" d="M-6.166,88.952l18.811-18.81l4.85,4.85L5.72,86.768l3.609,3.61l10.923-10.923l4.633,4.632L13.962,95.01
			l4.477,4.477L30.555,87.37l5.146,5.146L16.55,111.665L-6.166,88.952z"/>
		<path fill="#006E12" d="M27.628,55.16l7.034-7.036l22.714,22.715l-7.034,7.034L27.628,55.16z"/>
		<path fill="#006E12" d="M39.62,43.167l9.231-9.23l17.381,10.26L55.946,26.843l9.226-9.225l22.713,22.713l-5.748,5.749
			L64.813,28.758L77.707,50.51l-5.203,5.202l-21.745-12.9l17.323,17.321l-5.748,5.749L39.62,43.167z"/>
		<path fill="#006E12" d="M102.576,18.14l-7.969,7.968l2.645,4.857l-7.169,7.166L75.908,6.879l7.655-7.655l31.248,14.179
			l-7.349,7.349L102.576,18.14z M96.207,14.685L85.536,9.025l5.687,10.646L96.207,14.685z"/>
		<path fill="#006E12" d="M119.662-7.901l-4.726-4.726l10.845-10.847l9.685,9.684c-0.66,3.491-1.533,6.291-2.618,8.397
			c-1.084,2.107-2.721,4.256-4.911,6.446c-2.695,2.695-5.354,4.434-7.973,5.213c-2.619,0.78-5.303,0.729-8.057-0.155
			c-2.753-0.881-5.307-2.501-7.662-4.857c-2.479-2.478-4.123-5.146-4.934-8.001c-0.811-2.856-0.705-5.747,0.318-8.67
			c0.803-2.271,2.508-4.709,5.112-7.313c2.509-2.511,4.614-4.159,6.314-4.95c1.698-0.791,3.437-1.118,5.211-0.985
			c1.779,0.136,3.606,0.729,5.485,1.782l-5.562,7.981c-1.136-0.578-2.264-0.761-3.385-0.549s-2.199,0.834-3.23,1.865
			c-1.539,1.54-2.231,3.302-2.077,5.285c0.155,1.983,1.39,4.131,3.703,6.446c2.458,2.458,4.677,3.75,6.654,3.881
			c1.979,0.129,3.794-0.632,5.447-2.285c0.785-0.785,1.421-1.649,1.904-2.587c0.486-0.94,0.917-2.144,1.288-3.612l-2.139-2.139
			L119.662-7.901z"/>
		<path fill="#006E12" d="M120.174-37.387l18.81-18.81l4.851,4.85L132.06-39.571l3.607,3.61l10.924-10.923l4.634,4.633
			l-10.923,10.923l4.478,4.478l12.115-12.116l5.145,5.144l-19.152,19.149L120.174-37.387z"/>
		<path fill="#006E12" d="M153.968-71.179l7.034-7.036L183.715-55.5l-7.034,7.034L153.968-71.179z"/>
		<path fill="#006E12" d="M165.959-83.172l9.23-9.23l17.38,10.26l-10.283-17.354l9.224-9.225l22.712,22.714l-5.748,5.748
			l-17.321-17.322l12.894,21.751l-5.203,5.203l-21.743-12.9l17.321,17.321l-5.749,5.749L165.959-83.172z"/>
		<path fill="#006E12" d="M228.916-108.2l-7.967,7.969l2.641,4.857l-7.166,7.166l-14.177-31.25l7.654-7.656l31.25,14.178l-7.35,7.35
			L228.916-108.2z M222.548-111.655l-10.672-5.659l5.685,10.646L222.548-111.655z"/>
		<path fill="#006E12" d="M246.002-134.24l-4.726-4.727l10.847-10.846l9.683,9.683c-0.661,3.492-1.534,6.291-2.618,8.397
			c-1.085,2.107-2.723,4.256-4.912,6.446c-2.697,2.695-5.353,4.433-7.971,5.212c-2.618,0.78-5.307,0.729-8.059-0.155
			c-2.752-0.881-5.306-2.502-7.661-4.858c-2.479-2.478-4.125-5.145-4.936-8.001c-0.812-2.856-0.705-5.746,0.317-8.67
			c0.807-2.272,2.511-4.709,5.113-7.313c2.513-2.509,4.615-4.16,6.314-4.951c1.699-0.791,3.437-1.118,5.214-0.984
			c1.775,0.136,3.604,0.729,5.485,1.782l-5.562,7.98c-1.138-0.579-2.266-0.762-3.386-0.55c-1.12,0.211-2.198,0.834-3.231,1.866
			c-1.54,1.54-2.231,3.301-2.077,5.285c0.155,1.983,1.39,4.13,3.703,6.445c2.46,2.458,4.677,3.751,6.656,3.881
			c1.976,0.13,3.793-0.632,5.444-2.284c0.786-0.785,1.422-1.649,1.907-2.587c0.485-0.94,0.913-2.144,1.285-3.612l-2.138-2.137
			L246.002-134.24z"/>
		<path fill="#006E12" d="M246.514-163.727l18.81-18.81l4.85,4.849l-11.775,11.776l3.611,3.61l10.923-10.923l4.631,4.633
			l-10.924,10.923l4.478,4.477l12.117-12.115l5.145,5.144l-19.149,19.149L246.514-163.727z"/>
		<path fill="#006E12" d="M280.305-197.519l7.034-7.036l22.716,22.716l-7.034,7.034L280.305-197.519z"/>
		<path fill="#006E12" d="M292.298-209.512l9.23-9.23l17.382,10.26l-10.287-17.354l9.225-9.225l22.715,22.714l-5.748,5.748
			l-17.323-17.321l12.894,21.751l-5.204,5.203l-21.742-12.9l17.323,17.322l-5.748,5.748L292.298-209.512z"/>
		<path fill="#006E12" d="M355.255-234.539l-7.969,7.969l2.645,4.857l-7.169,7.166l-14.178-31.25l7.658-7.657l31.248,14.179
			l-7.35,7.35L355.255-234.539z M348.886-237.994l-10.671-5.659l5.685,10.646L348.886-237.994z"/>
		<path fill="#006E12" d="M372.341-260.58l-4.726-4.726l10.845-10.847l9.685,9.684c-0.66,3.491-1.533,6.291-2.618,8.398
			c-1.084,2.107-2.721,4.256-4.912,6.446c-2.695,2.695-5.354,4.434-7.972,5.213c-2.619,0.779-5.303,0.729-8.057-0.156
			c-2.754-0.881-5.307-2.501-7.662-4.857c-2.479-2.478-4.124-5.146-4.934-8.001c-0.811-2.856-0.705-5.747,0.317-8.67
			c0.804-2.271,2.509-4.709,5.112-7.313c2.51-2.508,4.614-4.159,6.315-4.95c1.698-0.791,3.436-1.118,5.211-0.984
			c1.778,0.135,3.606,0.728,5.485,1.782l-5.562,7.979c-1.137-0.578-2.265-0.761-3.386-0.549s-2.198,0.834-3.229,1.866
			c-1.54,1.539-2.231,3.301-2.077,5.284c0.155,1.983,1.39,4.13,3.703,6.446c2.458,2.458,4.677,3.751,6.654,3.88
			c1.979,0.13,3.794-0.631,5.447-2.284c0.784-0.785,1.42-1.648,1.904-2.587c0.485-0.94,0.917-2.143,1.287-3.612l-2.139-2.136
			L372.341-260.58z"/>
		<path fill="#006E12" d="M372.853-290.065l18.81-18.811l4.851,4.85l-11.777,11.775l3.61,3.611l10.923-10.923l4.635,4.632
			l-10.923,10.923l4.478,4.478l12.115-12.116l5.144,5.144l-19.151,19.149L372.853-290.065z"/>
	</g>
	<g opacity="0.15">
		<path fill="#006E12" d="M-371.222,533.339l7.034-7.034l22.714,22.713l-7.035,7.036L-371.222,533.339z"/>
		<path fill="#006E12" d="M-359.231,521.348l9.231-9.231l17.381,10.261l-10.286-17.355l9.223-9.224l22.716,22.714l-5.749,5.748
			l-17.323-17.323l12.893,21.753l-5.202,5.202l-21.745-12.901l17.323,17.322l-5.748,5.748L-359.231,521.348z"/>
		<path fill="#006E12" d="M-296.274,496.32l-7.969,7.967l2.645,4.856l-7.167,7.168l-14.177-31.252l7.656-7.656l31.249,14.18
			l-7.35,7.35L-296.274,496.32z M-302.641,492.862l-10.673-5.657l5.685,10.646L-302.641,492.862z"/>
		<path fill="#006E12" d="M-279.188,470.277l-4.726-4.727l10.847-10.845l9.683,9.684c-0.661,3.491-1.534,6.291-2.618,8.398
			c-1.085,2.106-2.721,4.255-4.913,6.445c-2.695,2.696-5.352,4.434-7.97,5.213c-2.619,0.78-5.304,0.729-8.059-0.155
			c-2.751-0.882-5.306-2.502-7.662-4.857c-2.478-2.479-4.124-5.146-4.934-8.003c-0.812-2.855-0.705-5.745,0.317-8.668
			c0.806-2.273,2.51-4.712,5.113-7.313c2.509-2.511,4.614-4.159,6.314-4.95c1.698-0.79,3.437-1.12,5.213-0.984
			c1.777,0.135,3.604,0.729,5.485,1.782l-5.563,7.979c-1.136-0.578-2.265-0.761-3.385-0.552c-1.12,0.213-2.197,0.836-3.231,1.868
			c-1.539,1.54-2.23,3.301-2.076,5.283c0.155,1.984,1.389,4.132,3.703,6.446c2.459,2.459,4.676,3.752,6.656,3.883
			c1.978,0.128,3.792-0.635,5.445-2.287c0.785-0.786,1.42-1.646,1.906-2.588c0.485-0.94,0.915-2.144,1.285-3.609l-2.139-2.139
			L-279.188,470.277z"/>
		<path fill="#006E12" d="M-278.676,440.793l18.81-18.811l4.849,4.851l-11.776,11.773l3.61,3.61l10.924-10.923l4.633,4.633
			l-10.923,10.924l4.478,4.478l12.115-12.116l5.144,5.144l-19.149,19.151L-278.676,440.793z"/>
		<path fill="#006E12" d="M-244.883,406.999l7.034-7.033l22.714,22.713l-7.034,7.036L-244.883,406.999z"/>
		<path fill="#006E12" d="M-232.891,395.008l9.23-9.23l17.382,10.261l-10.286-17.356l9.223-9.224l22.716,22.714l-5.749,5.749
			l-17.323-17.323l12.894,21.753l-5.202,5.202l-21.744-12.901l17.324,17.322l-5.749,5.748L-232.891,395.008z"/>
		<path fill="#006E12" d="M-169.934,369.98l-7.969,7.967l2.644,4.858l-7.167,7.167l-14.178-31.253l7.656-7.655l31.248,14.18
			l-7.349,7.351L-169.934,369.98z M-176.302,366.524l-10.673-5.659l5.684,10.647L-176.302,366.524z"/>
		<path fill="#006E12" d="M-152.849,343.938l-4.726-4.726l10.846-10.845l9.684,9.683c-0.661,3.492-1.534,6.29-2.619,8.398
			c-1.084,2.106-2.72,4.256-4.912,6.445c-2.695,2.695-5.352,4.434-7.971,5.213c-2.619,0.779-5.305,0.729-8.059-0.156
			c-2.752-0.881-5.306-2.501-7.662-4.856c-2.478-2.479-4.124-5.146-4.934-8.004c-0.811-2.855-0.706-5.743,0.317-8.667
			c0.805-2.273,2.509-4.712,5.112-7.313c2.509-2.511,4.614-4.16,6.314-4.951c1.698-0.79,3.437-1.119,5.213-0.984
			c1.776,0.136,3.604,0.729,5.485,1.782l-5.563,7.98c-1.136-0.58-2.264-0.763-3.385-0.552c-1.12,0.211-2.197,0.834-3.23,1.868
			c-1.539,1.539-2.231,3.299-2.076,5.282c0.155,1.984,1.39,4.132,3.703,6.445c2.46,2.46,4.677,3.753,6.656,3.883
			c1.978,0.129,3.792-0.635,5.445-2.287c0.785-0.784,1.42-1.646,1.906-2.586c0.486-0.942,0.915-2.145,1.285-3.61l-2.138-2.139
			L-152.849,343.938z"/>
		<path fill="#006E12" d="M-152.337,314.453l18.81-18.809l4.85,4.849l-11.776,11.774l3.61,3.61l10.925-10.924l4.632,4.633
			l-10.923,10.926l4.477,4.478l12.115-12.118l5.145,5.144l-19.15,19.151L-152.337,314.453z"/>
		<path fill="#006E12" d="M-118.543,280.66l7.034-7.033l22.713,22.712l-7.034,7.036L-118.543,280.66z"/>
		<path fill="#006E12" d="M-106.552,268.668l9.23-9.229l17.382,10.261l-10.288-17.357l9.225-9.222l22.715,22.713l-5.749,5.748
			l-17.324-17.323l12.894,21.753l-5.202,5.203l-21.744-12.9l17.323,17.32l-5.749,5.748L-106.552,268.668z"/>
		<path fill="#006E12" d="M-43.595,243.642l-7.969,7.967l2.645,4.857l-7.167,7.167l-14.178-31.252l7.657-7.656l31.249,14.181
			l-7.35,7.35L-43.595,243.642z M-49.962,240.185l-10.673-5.659l5.685,10.648L-49.962,240.185z"/>
		<path fill="#006E12" d="M-26.509,217.599l-4.726-4.726l10.847-10.845l9.684,9.684c-0.662,3.491-1.535,6.291-2.619,8.397
			c-1.084,2.107-2.721,4.256-4.912,6.445c-2.695,2.695-5.352,4.434-7.97,5.213c-2.619,0.78-5.305,0.729-8.059-0.154
			c-2.752-0.882-5.306-2.502-7.662-4.857c-2.478-2.48-4.123-5.146-4.933-8.004c-0.812-2.856-0.706-5.744,0.317-8.668
			c0.805-2.273,2.509-4.711,5.113-7.313c2.508-2.511,4.614-4.16,6.314-4.95c1.698-0.792,3.437-1.12,5.213-0.985
			c1.776,0.136,3.604,0.729,5.485,1.782l-5.564,7.979c-1.136-0.578-2.264-0.761-3.385-0.55c-1.12,0.209-2.197,0.833-3.231,1.866
			c-1.539,1.539-2.23,3.299-2.076,5.282c0.155,1.985,1.39,4.132,3.703,6.445c2.46,2.46,4.676,3.754,6.656,3.883
			c1.978,0.13,3.793-0.634,5.445-2.286c0.785-0.785,1.421-1.646,1.906-2.587c0.486-0.938,0.915-2.145,1.286-3.61l-2.139-2.139
			L-26.509,217.599z"/>
		<path fill="#006E12" d="M-25.998,188.115l18.81-18.811l4.849,4.85l-11.775,11.774l3.61,3.609L0.42,178.615l4.633,4.633
			L-5.87,194.173l4.478,4.478l12.115-12.117l5.145,5.144l-19.149,19.15L-25.998,188.115z"/>
		<path fill="#006E12" d="M7.796,154.321l7.034-7.034l22.713,22.714l-7.034,7.036L7.796,154.321z"/>
		<path fill="#006E12" d="M19.787,142.33l9.231-9.23l17.381,10.261l-10.288-17.357l9.225-9.223l22.716,22.714l-5.749,5.747
			L44.98,127.919l12.894,21.753l-5.203,5.202l-21.744-12.9l17.323,17.322l-5.748,5.747L19.787,142.33z"/>
		<path fill="#006E12" d="M82.744,117.302l-7.969,7.967l2.643,4.856l-7.166,7.168l-14.177-31.251l7.654-7.656l31.25,14.18
			l-7.351,7.35L82.744,117.302z M76.377,113.845l-10.673-5.658l5.685,10.647L76.377,113.845z"/>
		<path fill="#006E12" d="M99.83,91.26l-4.726-4.726l10.847-10.845l9.681,9.683c-0.66,3.492-1.534,6.291-2.618,8.398
			c-1.083,2.107-2.721,4.256-4.91,6.446c-2.696,2.695-5.352,4.433-7.97,5.213c-2.62,0.779-5.307,0.729-8.059-0.156
			c-2.752-0.882-5.309-2.501-7.662-4.857c-2.478-2.48-4.125-5.146-4.936-8.002c-0.811-2.856-0.705-5.745,0.317-8.669
			c0.807-2.273,2.511-4.711,5.112-7.313c2.512-2.511,4.617-4.16,6.314-4.951c1.698-0.791,3.437-1.117,5.215-0.984
			c1.775,0.135,3.605,0.729,5.485,1.782l-5.563,7.979c-1.136-0.578-2.264-0.762-3.385-0.55c-1.12,0.21-2.197,0.833-3.23,1.866
			c-1.54,1.539-2.231,3.299-2.076,5.282c0.155,1.985,1.39,4.132,3.703,6.447c2.46,2.459,4.676,3.752,6.655,3.882
			c1.976,0.129,3.791-0.634,5.445-2.287c0.785-0.785,1.42-1.647,1.906-2.587c0.486-0.938,0.913-2.144,1.286-3.61l-2.139-2.139
			L99.83,91.26z"/>
		<path fill="#006E12" d="M100.342,61.775l18.811-18.809l4.849,4.849L112.226,59.59l3.609,3.609l10.925-10.923l4.631,4.632
			l-10.923,10.925l4.478,4.477l12.117-12.117l5.144,5.144L123.057,84.49L100.342,61.775z"/>
		<path fill="#006E12" d="M134.134,27.981l7.033-7.033l22.716,22.715l-7.034,7.034L134.134,27.981z"/>
		<path fill="#006E12" d="M146.127,15.99l9.229-9.23l17.383,10.26L162.451-0.333l9.225-9.225l22.716,22.713l-5.749,5.748
			L171.32,1.582l12.894,21.751l-5.204,5.203l-21.744-12.901l17.325,17.322l-5.748,5.749L146.127,15.99z"/>
		<path fill="#006E12" d="M209.084-9.037l-7.969,7.969l2.644,4.855l-7.168,7.167l-14.178-31.252l7.656-7.655l31.25,14.18
			l-7.35,7.349L209.084-9.037z M202.715-12.494l-10.671-5.656l5.684,10.646L202.715-12.494z"/>
		<path fill="#006E12" d="M226.17-35.079l-4.726-4.726l10.844-10.845l9.686,9.684c-0.661,3.492-1.534,6.291-2.619,8.397
			c-1.084,2.107-2.722,4.256-4.911,6.446c-2.695,2.695-5.354,4.434-7.973,5.213c-2.619,0.78-5.303,0.729-8.057-0.155
			c-2.753-0.882-5.307-2.501-7.662-4.858c-2.479-2.478-4.123-5.146-4.934-8.003c-0.811-2.856-0.705-5.745,0.317-8.668
			c0.804-2.273,2.51-4.711,5.113-7.313c2.509-2.511,4.612-4.16,6.314-4.95c1.698-0.791,3.437-1.118,5.211-0.984
			c1.779,0.135,3.604,0.729,5.486,1.782l-5.563,7.979c-1.136-0.578-2.265-0.761-3.385-0.549c-1.121,0.211-2.198,0.833-3.23,1.866
			c-1.539,1.539-2.231,3.299-2.077,5.285c0.154,1.983,1.389,4.13,3.703,6.444c2.458,2.46,4.677,3.752,6.654,3.882
			c1.979,0.13,3.795-0.633,5.447-2.286c0.783-0.786,1.419-1.647,1.904-2.587c0.486-0.939,0.915-2.142,1.287-3.61l-2.138-2.138
			L226.17-35.079z"/>
		<path fill="#006E12" d="M226.681-64.563l18.811-18.81l4.849,4.85l-11.775,11.774l3.609,3.611l10.924-10.925l4.635,4.632
			l-10.926,10.925l4.479,4.478l12.115-12.118l5.145,5.145L249.395-41.85L226.681-64.563z"/>
		<path fill="#006E12" d="M260.475-98.358l7.033-7.034l22.715,22.716l-7.036,7.034L260.475-98.358z"/>
		<path fill="#006E12" d="M272.466-110.349l9.23-9.231l17.38,10.261l-10.286-17.355l9.226-9.225l22.713,22.714l-5.748,5.748
			l-17.321-17.322l12.892,21.752l-5.2,5.203l-21.744-12.901l17.321,17.321l-5.748,5.748L272.466-110.349z"/>
		<path fill="#006E12" d="M335.423-135.376l-7.968,7.969l2.642,4.856l-7.165,7.167l-14.178-31.252l7.654-7.655l31.251,14.179
			l-7.352,7.35L335.423-135.376z M329.056-138.833l-10.673-5.657l5.685,10.646L329.056-138.833z"/>
		<path fill="#006E12" d="M352.509-161.418l-4.726-4.726l10.847-10.845l9.682,9.684c-0.662,3.492-1.534,6.29-2.62,8.397
			c-1.082,2.107-2.721,4.257-4.909,6.446c-2.697,2.695-5.352,4.433-7.971,5.213c-2.618,0.779-5.306,0.729-8.058-0.155
			c-2.752-0.882-5.309-2.502-7.662-4.858c-2.479-2.477-4.125-5.146-4.936-8.001c-0.812-2.857-0.705-5.746,0.317-8.67
			c0.807-2.273,2.511-4.711,5.112-7.313c2.512-2.51,4.616-4.16,6.314-4.95s3.437-1.118,5.216-0.984
			c1.773,0.135,3.604,0.729,5.484,1.782l-5.563,7.979c-1.136-0.579-2.265-0.762-3.385-0.55c-1.12,0.212-2.197,0.833-3.231,1.867
			c-1.539,1.539-2.23,3.299-2.075,5.285c0.154,1.982,1.389,4.13,3.703,6.443c2.457,2.46,4.676,3.753,6.655,3.882
			c1.976,0.129,3.791-0.633,5.445-2.286c0.785-0.785,1.421-1.647,1.906-2.587c0.485-0.938,0.913-2.142,1.285-3.61l-2.139-2.138
			L352.509-161.418z"/>
		<path fill="#006E12" d="M353.021-190.903l18.81-18.81l4.85,4.85l-11.776,11.774l3.61,3.612l10.923-10.925l4.633,4.632
			l-10.923,10.925l4.477,4.478l12.117-12.118l5.145,5.145l-19.149,19.151L353.021-190.903z"/>
		<path fill="#006E12" d="M386.812-224.697l7.034-7.034l22.716,22.715l-7.034,7.034L386.812-224.697z"/>
		<path fill="#006E12" d="M398.806-236.688l9.229-9.23l17.382,10.261l-10.287-17.354l9.225-9.225l22.716,22.713l-5.749,5.749
			l-17.323-17.321l12.894,21.751l-5.203,5.202l-21.745-12.9l17.326,17.321l-5.749,5.748L398.806-236.688z"/>
		<path fill="#006E12" d="M461.763-261.715l-7.969,7.968l2.643,4.856l-7.168,7.167l-14.177-31.252l7.656-7.654l31.25,14.18
			l-7.35,7.349L461.763-261.715z M455.394-265.172l-10.672-5.657l5.685,10.646L455.394-265.172z"/>
		<path fill="#006E12" d="M478.847-287.757l-4.726-4.726l10.847-10.845l9.685,9.684c-0.661,3.492-1.534,6.291-2.619,8.398
			c-1.084,2.107-2.723,4.256-4.911,6.445c-2.695,2.695-5.354,4.434-7.972,5.213c-2.619,0.78-5.304,0.729-8.058-0.155
			c-2.753-0.882-5.306-2.501-7.661-4.857c-2.48-2.478-4.123-5.146-4.934-8.002c-0.812-2.857-0.706-5.746,0.316-8.669
			c0.804-2.272,2.51-4.712,5.113-7.313c2.509-2.511,4.612-4.16,6.313-4.95c1.7-0.791,3.438-1.118,5.213-0.985
			c1.778,0.135,3.604,0.729,5.485,1.782l-5.562,7.979c-1.137-0.578-2.265-0.761-3.385-0.549c-1.122,0.212-2.199,0.833-3.23,1.866
			c-1.539,1.539-2.231,3.299-2.076,5.284c0.152,1.983,1.387,4.13,3.702,6.444c2.458,2.459,4.677,3.752,6.654,3.882
			c1.979,0.129,3.794-0.632,5.447-2.286c0.783-0.786,1.419-1.647,1.904-2.588c0.485-0.938,0.915-2.142,1.288-3.61l-2.14-2.139
			L478.847-287.757z"/>
		<path fill="#006E12" d="M479.359-317.242l18.81-18.81l4.85,4.85l-11.775,11.774l3.609,3.611l10.923-10.925l4.635,4.634
			l-10.925,10.923l4.479,4.478l12.115-12.117l5.145,5.146l-19.151,19.149L479.359-317.242z"/>
	</g>
	<g opacity="0.15">
		<path fill="#006E12" d="M-272.061,513.506l7.036-7.034l22.713,22.714l-7.034,7.036L-272.061,513.506z"/>
		<path fill="#006E12" d="M-260.068,501.515l9.23-9.232l17.38,10.262l-10.286-17.356l9.225-9.225l22.716,22.716l-5.749,5.748
			l-17.323-17.323l12.894,21.754l-5.202,5.202l-21.744-12.902l17.321,17.322l-5.748,5.749L-260.068,501.515z"/>
		<path fill="#006E12" d="M-197.111,476.485l-7.968,7.97l2.642,4.857l-7.166,7.167l-14.177-31.253l7.654-7.656l31.25,14.18
			l-7.349,7.352L-197.111,476.485z M-203.478,473.031l-10.673-5.659l5.684,10.647L-203.478,473.031z"/>
		<path fill="#006E12" d="M-180.025,450.445l-4.726-4.726l10.846-10.848l9.684,9.686c-0.661,3.492-1.534,6.29-2.619,8.397
			c-1.084,2.107-2.723,4.255-4.912,6.446c-2.695,2.694-5.354,4.433-7.973,5.213c-2.619,0.779-5.303,0.729-8.056-0.155
			c-2.752-0.884-5.307-2.502-7.662-4.856c-2.48-2.48-4.124-5.148-4.934-8.004c-0.811-2.856-0.707-5.744,0.317-8.668
			c0.806-2.274,2.509-4.712,5.113-7.313c2.509-2.512,4.614-4.161,6.313-4.95c1.7-0.791,3.438-1.119,5.215-0.984
			c1.776,0.133,3.604,0.729,5.483,1.782l-5.562,7.979c-1.137-0.579-2.264-0.764-3.386-0.552c-1.121,0.211-2.196,0.834-3.23,1.868
			c-1.539,1.539-2.231,3.299-2.076,5.282c0.155,1.983,1.389,4.132,3.703,6.445c2.458,2.458,4.677,3.753,6.654,3.882
			c1.979,0.129,3.794-0.634,5.447-2.286c0.785-0.784,1.421-1.646,1.906-2.587s0.913-2.144,1.285-3.609l-2.138-2.139
			L-180.025,450.445z"/>
		<path fill="#006E12" d="M-179.514,420.961l18.81-18.812l4.85,4.85l-11.776,11.776l3.609,3.609l10.923-10.923l4.635,4.632
			l-10.925,10.923l4.479,4.479l12.116-12.117l5.144,5.145l-19.151,19.15L-179.514,420.961z"/>
		<path fill="#006E12" d="M-145.722,387.167l7.035-7.034l22.714,22.714l-7.034,7.035L-145.722,387.167z"/>
		<path fill="#006E12" d="M-133.729,375.176l9.23-9.233l17.38,10.263l-10.286-17.356l9.225-9.225l22.716,22.715l-5.748,5.748
			l-17.324-17.323l12.894,21.754l-5.202,5.202l-21.745-12.902l17.322,17.322l-5.749,5.749L-133.729,375.176z"/>
		<path fill="#006E12" d="M-70.771,350.147l-7.969,7.968l2.642,4.857l-7.165,7.167l-14.177-31.253l7.654-7.656l31.25,14.18
			l-7.349,7.352L-70.771,350.147z M-77.139,346.691l-10.673-5.658l5.685,10.647L-77.139,346.691z"/>
		<path fill="#006E12" d="M-53.686,324.105l-4.726-4.726l10.847-10.847l9.683,9.686c-0.661,3.491-1.534,6.291-2.618,8.397
			c-1.085,2.106-2.723,4.255-4.912,6.445c-2.695,2.695-5.354,4.434-7.972,5.214c-2.619,0.779-5.303,0.729-8.056-0.155
			c-2.752-0.884-5.307-2.502-7.662-4.857c-2.479-2.479-4.124-5.147-4.934-8.003c-0.813-2.856-0.708-5.745,0.317-8.669
			c0.805-2.274,2.509-4.711,5.112-7.313c2.509-2.512,4.615-4.161,6.313-4.951c1.701-0.791,3.438-1.119,5.215-0.984
			c1.777,0.134,3.604,0.729,5.483,1.782l-5.561,7.98c-1.136-0.578-2.265-0.763-3.385-0.552c-1.121,0.213-2.197,0.836-3.23,1.868
			c-1.539,1.539-2.231,3.301-2.077,5.283s1.39,4.132,3.703,6.446c2.458,2.457,4.676,3.752,6.654,3.882
			c1.979,0.127,3.794-0.634,5.447-2.286c0.785-0.786,1.421-1.647,1.906-2.588c0.486-0.94,0.913-2.144,1.286-3.609l-2.139-2.139
			L-53.686,324.105z"/>
		<path fill="#006E12" d="M-53.174,294.621l18.81-18.812l4.85,4.851l-11.775,11.775l3.609,3.609l10.923-10.923l4.632,4.633
			l-10.923,10.923l4.479,4.479l12.115-12.116l5.144,5.144l-19.151,19.151L-53.174,294.621z"/>
		<path fill="#006E12" d="M-19.382,260.828l7.036-7.034l22.713,22.714l-7.034,7.035L-19.382,260.828z"/>
		<path fill="#006E12" d="M-7.389,248.837l9.23-9.23l17.38,10.26L8.936,232.511l9.225-9.226l22.715,22.716l-5.748,5.747
			l-17.323-17.322l12.894,21.753l-5.203,5.202L3.751,248.479l17.321,17.323l-5.749,5.749L-7.389,248.837z"/>
		<path fill="#006E12" d="M55.568,223.808l-7.969,7.969l2.643,4.857l-7.166,7.166l-14.177-31.251l7.654-7.656l31.25,14.179
			l-7.35,7.352L55.568,223.808z M49.2,220.354l-10.672-5.659l5.684,10.647L49.2,220.354z"/>
		<path fill="#006E12" d="M72.653,197.766l-4.725-4.725l10.844-10.847l9.686,9.686c-0.661,3.491-1.534,6.29-2.618,8.396
			c-1.085,2.107-2.724,4.256-4.912,6.447c-2.694,2.694-5.354,4.433-7.973,5.212s-5.303,0.729-8.057-0.155
			c-2.752-0.884-5.307-2.501-7.662-4.857c-2.48-2.479-4.123-5.147-4.934-8.003c-0.813-2.855-0.707-5.745,0.315-8.668
			c0.808-2.273,2.512-4.712,5.115-7.313c2.509-2.511,4.614-4.161,6.313-4.95c1.7-0.791,3.438-1.12,5.214-0.984
			c1.777,0.134,3.605,0.729,5.484,1.782l-5.563,7.979c-1.135-0.579-2.264-0.764-3.384-0.552s-2.197,0.835-3.23,1.867
			c-1.54,1.54-2.231,3.3-2.077,5.283c0.156,1.983,1.39,4.133,3.704,6.445c2.458,2.46,4.675,3.753,6.653,3.883
			c1.98,0.128,3.795-0.634,5.446-2.286c0.785-0.786,1.421-1.646,1.906-2.587c0.485-0.941,0.915-2.144,1.285-3.61l-2.137-2.139
			L72.653,197.766z"/>
		<path fill="#006E12" d="M73.166,168.282l18.81-18.813l4.85,4.851L85.05,166.097l3.609,3.61l10.923-10.924l4.632,4.632
			l-10.923,10.923l4.479,4.48l12.113-12.118l5.146,5.144l-19.15,19.152L73.166,168.282z"/>
		<path fill="#006E12" d="M106.957,134.488l7.036-7.034l22.711,22.714l-7.033,7.036L106.957,134.488z"/>
		<path fill="#006E12" d="M118.948,122.497l9.232-9.23l17.38,10.26l-10.285-17.355l9.225-9.225l22.713,22.715l-5.748,5.749
			l-17.321-17.324l12.892,21.753l-5.2,5.202l-21.744-12.902l17.321,17.322l-5.748,5.749L118.948,122.497z"/>
		<path fill="#006E12" d="M181.907,97.468l-7.969,7.969l2.642,4.857l-7.164,7.168L155.238,86.21l7.654-7.656l31.25,14.179
			l-7.351,7.351L181.907,97.468z M175.54,94.014l-10.675-5.659l5.686,10.647L175.54,94.014z"/>
		<path fill="#006E12" d="M198.993,71.428l-4.726-4.726l10.846-10.847l9.682,9.685c-0.661,3.491-1.533,6.291-2.618,8.398
			c-1.085,2.107-2.721,4.254-4.912,6.445c-2.695,2.695-5.352,4.434-7.97,5.213c-2.619,0.779-5.305,0.729-8.059-0.156
			c-2.751-0.883-5.307-2.501-7.662-4.857c-2.478-2.48-4.123-5.147-4.934-8.003c-0.811-2.855-0.705-5.745,0.317-8.668
			c0.808-2.273,2.509-4.711,5.112-7.313c2.512-2.511,4.617-4.161,6.314-4.95c1.698-0.791,3.437-1.12,5.215-0.985
			c1.775,0.134,3.604,0.729,5.483,1.782l-5.562,7.98c-1.138-0.579-2.267-0.764-3.385-0.551c-1.121,0.211-2.197,0.834-3.23,1.867
			c-1.539,1.539-2.231,3.299-2.078,5.283c0.157,1.983,1.392,4.132,3.703,6.446c2.459,2.459,4.678,3.752,6.655,3.883
			c1.978,0.127,3.793-0.634,5.447-2.287c0.785-0.785,1.421-1.647,1.906-2.587c0.485-0.94,0.913-2.144,1.285-3.61l-2.14-2.139
			L198.993,71.428z"/>
		<path fill="#006E12" d="M199.505,41.943l18.808-18.81l4.85,4.848l-11.773,11.776l3.609,3.61l10.923-10.923l4.633,4.633L219.631,48
			l4.478,4.479l12.117-12.117l5.144,5.144l-19.15,19.151L199.505,41.943z"/>
		<path fill="#006E12" d="M233.297,8.15l7.034-7.034l22.715,22.713l-7.034,7.036L233.297,8.15z"/>
		<path fill="#006E12" d="M245.289-3.842l9.229-9.23L271.9-2.812l-10.286-17.356l9.225-9.225l22.716,22.716l-5.748,5.748
			L270.48-18.252L283.376,3.5l-5.204,5.203l-21.743-12.9l17.323,17.321l-5.748,5.749L245.289-3.842z"/>
		<path fill="#006E12" d="M308.246-28.871l-7.969,7.969l2.643,4.857l-7.167,7.167l-14.177-31.252l7.655-7.657l31.249,14.179
			l-7.348,7.352L308.246-28.871z M301.877-32.326l-10.671-5.659l5.685,10.648L301.877-32.326z"/>
		<path fill="#006E12" d="M325.33-54.912l-4.725-4.726l10.846-10.847l9.686,9.686c-0.661,3.492-1.534,6.291-2.619,8.397
			c-1.085,2.107-2.723,4.255-4.912,6.446c-2.694,2.695-5.354,4.433-7.972,5.213c-2.618,0.779-5.303,0.729-8.057-0.155
			s-5.306-2.502-7.662-4.857c-2.479-2.48-4.123-5.147-4.936-8.003c-0.811-2.856-0.705-5.744,0.318-8.668
			c0.805-2.273,2.511-4.711,5.114-7.313c2.509-2.511,4.612-4.162,6.313-4.951c1.699-0.791,3.438-1.12,5.213-0.984
			c1.778,0.134,3.604,0.729,5.485,1.782l-5.563,7.979c-1.136-0.579-2.264-0.763-3.385-0.551c-1.12,0.211-2.198,0.834-3.232,1.867
			c-1.537,1.54-2.229,3.3-2.074,5.283c0.153,1.983,1.388,4.132,3.703,6.446c2.458,2.459,4.676,3.753,6.653,3.882
			c1.98,0.13,3.795-0.633,5.445-2.286c0.785-0.785,1.422-1.647,1.906-2.587c0.486-0.941,0.915-2.144,1.286-3.61l-2.137-2.138
			L325.33-54.912z"/>
		<path fill="#006E12" d="M325.842-84.396l18.813-18.81l4.85,4.848l-11.776,11.776l3.61,3.61l10.923-10.923l4.633,4.633
			L345.97-78.34l4.479,4.479l12.113-12.117l5.146,5.144l-19.15,19.151L325.842-84.396z"/>
		<path fill="#006E12" d="M359.636-118.189l7.035-7.034l22.712,22.714l-7.034,7.036L359.636-118.189z"/>
		<path fill="#006E12" d="M371.627-130.181l9.232-9.23l17.38,10.26l-10.286-17.356l9.225-9.225l22.715,22.716l-5.749,5.748
			l-17.321-17.323l12.892,21.753l-5.2,5.202l-21.744-12.9l17.321,17.322l-5.748,5.748L371.627-130.181z"/>
		<path fill="#006E12" d="M434.586-155.21l-7.969,7.969l2.643,4.857l-7.168,7.168l-14.178-31.252l7.657-7.657l31.25,14.179
			l-7.352,7.352L434.586-155.21z M428.219-158.666l-10.675-5.658l5.686,10.647L428.219-158.666z"/>
		<path fill="#006E12" d="M451.672-181.25l-4.726-4.727l10.846-10.846l9.682,9.686c-0.661,3.491-1.534,6.29-2.618,8.397
			c-1.085,2.107-2.721,4.255-4.912,6.445c-2.695,2.696-5.352,4.434-7.971,5.213s-5.304,0.729-8.059-0.156
			c-2.752-0.883-5.306-2.501-7.661-4.857c-2.479-2.479-4.124-5.147-4.934-8.003c-0.812-2.856-0.705-5.745,0.317-8.668
			c0.808-2.273,2.509-4.711,5.112-7.313c2.512-2.511,4.616-4.161,6.314-4.95c1.698-0.791,3.437-1.12,5.215-0.985
			c1.775,0.134,3.604,0.729,5.483,1.782l-5.562,7.979c-1.138-0.579-2.266-0.763-3.386-0.552c-1.12,0.212-2.196,0.834-3.229,1.868
			c-1.539,1.54-2.231,3.3-2.079,5.283c0.158,1.983,1.392,4.132,3.704,6.446c2.46,2.459,4.678,3.753,6.655,3.882
			c1.978,0.13,3.793-0.633,5.447-2.286c0.785-0.786,1.421-1.647,1.906-2.588c0.483-0.94,0.913-2.144,1.285-3.61l-2.14-2.138
			L451.672-181.25z"/>
		<path fill="#006E12" d="M452.183-210.735l18.809-18.811l4.85,4.848l-11.774,11.776l3.61,3.61l10.923-10.923l4.633,4.633
			l-10.924,10.923l4.479,4.479l12.117-12.118l5.144,5.144l-19.151,19.151L452.183-210.735z"/>
	</g>
	<g opacity="0.15">
		<path fill="#006E12" d="M-291.893,612.67l7.036-7.034l22.714,22.714l-7.034,7.033L-291.893,612.67z"/>
		<path fill="#006E12" d="M-279.9,600.677l9.231-9.231l17.38,10.263l-10.286-17.356l9.225-9.225l22.716,22.715l-5.751,5.748
			l-17.321-17.323l12.893,21.751l-5.204,5.204l-21.742-12.902l17.322,17.324l-5.748,5.747L-279.9,600.677z"/>
		<path fill="#006E12" d="M-216.943,575.649l-7.968,7.969l2.642,4.856l-7.167,7.167l-14.177-31.251l7.656-7.657l31.25,14.179
			l-7.35,7.351L-216.943,575.649z M-223.31,572.193l-10.673-5.658l5.685,10.647L-223.31,572.193z"/>
		<path fill="#006E12" d="M-199.857,549.607l-4.726-4.726l10.847-10.847l9.683,9.684c-0.661,3.491-1.534,6.293-2.618,8.399
			c-1.084,2.104-2.723,4.256-4.912,6.444c-2.695,2.697-5.354,4.436-7.973,5.215c-2.619,0.779-5.304,0.728-8.056-0.155
			c-2.754-0.884-5.307-2.504-7.663-4.857c-2.479-2.479-4.125-5.146-4.936-8.003s-0.705-5.747,0.317-8.669
			c0.807-2.272,2.511-4.71,5.115-7.314c2.509-2.509,4.614-4.159,6.313-4.951c1.7-0.788,3.438-1.117,5.215-0.982
			c1.776,0.134,3.604,0.728,5.483,1.781l-5.562,7.979c-1.136-0.576-2.264-0.761-3.385-0.55c-1.121,0.213-2.197,0.835-3.231,1.868
			c-1.538,1.538-2.23,3.3-2.076,5.282c0.155,1.983,1.389,4.133,3.703,6.446c2.458,2.457,4.677,3.753,6.654,3.883
			c1.979,0.127,3.794-0.635,5.447-2.286c0.785-0.786,1.42-1.646,1.906-2.588c0.484-0.94,0.913-2.145,1.285-3.61l-2.139-2.138
			L-199.857,549.607z"/>
		<path fill="#006E12" d="M-199.346,520.121l18.81-18.81l4.85,4.851l-11.776,11.775l3.61,3.609l10.923-10.923l4.633,4.633
			l-10.923,10.923l4.478,4.477l12.117-12.114l5.144,5.144l-19.151,19.151L-199.346,520.121z"/>
		<path fill="#006E12" d="M-165.554,486.33l7.036-7.034l22.713,22.714l-7.034,7.033L-165.554,486.33z"/>
		<path fill="#006E12" d="M-153.561,474.337l9.23-9.23l17.379,10.262l-10.285-17.356l9.225-9.225l22.713,22.715l-5.749,5.749
			l-17.321-17.323l12.894,21.752l-5.204,5.203l-21.743-12.902l17.322,17.323l-5.749,5.749L-153.561,474.337z"/>
		<path fill="#006E12" d="M-90.604,449.31l-7.969,7.969l2.642,4.857l-7.167,7.167l-14.178-31.252l7.656-7.656l31.25,14.18
			l-7.349,7.348L-90.604,449.31z M-96.971,445.854l-10.673-5.659l5.684,10.647L-96.971,445.854z"/>
		<path fill="#006E12" d="M-73.518,423.269l-4.726-4.726l10.845-10.847l9.685,9.684c-0.661,3.493-1.534,6.292-2.619,8.399
			c-1.084,2.106-2.722,4.255-4.912,6.444c-2.695,2.697-5.354,4.435-7.972,5.214c-2.619,0.779-5.305,0.729-8.057-0.155
			c-2.753-0.883-5.306-2.503-7.662-4.856c-2.48-2.48-4.125-5.147-4.935-8.004c-0.812-2.855-0.706-5.747,0.317-8.667
			c0.807-2.274,2.511-4.712,5.113-7.316c2.511-2.509,4.616-4.159,6.314-4.95c1.7-0.789,3.438-1.118,5.215-0.982
			c1.776,0.133,3.604,0.727,5.483,1.78l-5.562,7.979c-1.135-0.576-2.264-0.762-3.385-0.549c-1.122,0.211-2.197,0.834-3.23,1.867
			c-1.539,1.537-2.231,3.3-2.076,5.282c0.155,1.983,1.39,4.133,3.703,6.446c2.458,2.458,4.677,3.752,6.654,3.882
			c1.979,0.128,3.794-0.634,5.447-2.286c0.786-0.785,1.42-1.646,1.906-2.587c0.484-0.94,0.913-2.144,1.286-3.609l-2.139-2.139
			L-73.518,423.269z"/>
		<path fill="#006E12" d="M-73.006,393.782l18.81-18.81l4.85,4.85l-11.776,11.776l3.61,3.61l10.923-10.923l4.632,4.632
			l-10.923,10.923l4.478,4.478l12.117-12.116l5.145,5.145l-19.151,19.151L-73.006,393.782z"/>
		<path fill="#006E12" d="M-39.214,359.991l7.036-7.034l22.713,22.713l-7.034,7.034L-39.214,359.991z"/>
		<path fill="#006E12" d="M-27.221,347.997l9.23-9.23l17.38,10.263l-10.286-17.357l9.225-9.224l22.713,22.714l-5.749,5.749
			l-17.321-17.323l12.893,21.752l-5.204,5.204l-21.742-12.902l17.322,17.322l-5.749,5.749L-27.221,347.997z"/>
		<path fill="#006E12" d="M35.735,322.97l-7.969,7.969l2.643,4.857l-7.167,7.168L9.065,311.711l7.657-7.656l31.25,14.179
			l-7.349,7.351L35.735,322.97z M29.368,319.515l-10.673-5.658l5.684,10.647L29.368,319.515z"/>
		<path fill="#006E12" d="M52.821,296.93l-4.726-4.727l10.844-10.846l9.686,9.685c-0.661,3.491-1.535,6.291-2.619,8.398
			c-1.084,2.106-2.723,4.254-4.912,6.443c-2.697,2.697-5.354,4.436-7.973,5.214c-2.618,0.781-5.305,0.729-8.056-0.154
			c-2.754-0.883-5.306-2.504-7.663-4.857c-2.479-2.479-4.124-5.146-4.935-8.003s-0.706-5.746,0.317-8.668
			c0.807-2.274,2.511-4.711,5.112-7.313c2.511-2.511,4.617-4.162,6.315-4.952c1.699-0.789,3.438-1.117,5.214-0.982
			c1.775,0.134,3.604,0.728,5.484,1.78l-5.562,7.979c-1.137-0.576-2.265-0.761-3.386-0.55c-1.121,0.212-2.196,0.835-3.23,1.868
			c-1.54,1.537-2.231,3.299-2.077,5.282c0.156,1.983,1.39,4.132,3.704,6.446c2.458,2.457,4.676,3.753,6.653,3.883
			c1.98,0.127,3.795-0.635,5.447-2.287c0.785-0.785,1.421-1.646,1.906-2.587c0.484-0.94,0.913-2.145,1.286-3.61l-2.139-2.139
			L52.821,296.93z"/>
		<path fill="#006E12" d="M53.333,267.443l18.81-18.81l4.847,4.849l-11.774,11.776l3.61,3.61l10.923-10.923l4.632,4.633
			l-10.923,10.923l4.478,4.478l12.117-12.115l5.142,5.144l-19.148,19.151L53.333,267.443z"/>
		<path fill="#006E12" d="M87.125,233.651l7.033-7.033l22.716,22.713l-7.033,7.034L87.125,233.651z"/>
		<path fill="#006E12" d="M99.118,221.658l9.229-9.229l17.382,10.261l-10.286-17.355l9.226-9.226l22.713,22.716l-5.748,5.748
			l-17.323-17.323L137.205,229l-5.204,5.204l-21.744-12.902l17.323,17.323l-5.748,5.748L99.118,221.658z"/>
		<path fill="#006E12" d="M162.075,196.632l-7.969,7.968l2.642,4.857l-7.166,7.167l-14.178-31.251l7.655-7.657l31.249,14.179
			l-7.348,7.35L162.075,196.632z M155.706,193.176l-10.672-5.658l5.683,10.647L155.706,193.176z"/>
		<path fill="#006E12" d="M179.159,170.59l-4.726-4.726l10.846-10.847l9.686,9.686c-0.661,3.491-1.534,6.29-2.618,8.397
			c-1.085,2.107-2.723,4.256-4.912,6.443c-2.697,2.698-5.354,4.437-7.973,5.216s-5.305,0.729-8.056-0.155
			c-2.754-0.884-5.307-2.501-7.662-4.858c-2.479-2.479-4.125-5.146-4.936-8.002c-0.811-2.856-0.706-5.747,0.317-8.669
			c0.805-2.272,2.511-4.711,5.112-7.313c2.511-2.511,4.614-4.161,6.314-4.952c1.7-0.788,3.438-1.117,5.213-0.982
			c1.777,0.134,3.604,0.727,5.485,1.78l-5.562,7.979c-1.136-0.577-2.265-0.762-3.385-0.549c-1.121,0.211-2.199,0.834-3.232,1.867
			c-1.537,1.539-2.231,3.299-2.075,5.282c0.153,1.983,1.389,4.133,3.703,6.446c2.458,2.458,4.675,3.752,6.654,3.882
			c1.979,0.127,3.794-0.634,5.445-2.286c0.785-0.785,1.42-1.646,1.906-2.588c0.485-0.94,0.915-2.143,1.285-3.609l-2.137-2.138
			L179.159,170.59z"/>
		<path fill="#006E12" d="M179.67,141.104l18.813-18.811l4.849,4.851l-11.777,11.775l3.612,3.61l10.923-10.923l4.633,4.632
			l-10.923,10.923l4.477,4.479l12.116-12.116l5.146,5.144l-19.151,19.152L179.67,141.104z"/>
		<path fill="#006E12" d="M213.464,107.313l7.034-7.034l22.714,22.713l-7.034,7.034L213.464,107.313z"/>
		<path fill="#006E12" d="M225.455,95.319l9.232-9.23l17.38,10.262l-10.285-17.357l9.223-9.225l22.716,22.716l-5.749,5.748
			L250.65,80.91l12.892,21.752l-5.202,5.204l-21.742-12.902l17.321,17.323l-5.748,5.749L225.455,95.319z"/>
		<path fill="#006E12" d="M288.413,70.292l-7.969,7.969l2.645,4.858l-7.168,7.167l-14.178-31.252l7.657-7.656l31.25,14.178
			l-7.352,7.35L288.413,70.292z M282.045,66.837l-10.673-5.659l5.687,10.648L282.045,66.837z"/>
		<path fill="#006E12" d="M305.5,44.252l-4.726-4.726l10.845-10.847l9.684,9.685c-0.661,3.492-1.535,6.291-2.619,8.397
			c-1.085,2.107-2.721,4.255-4.912,6.444c-2.694,2.697-5.352,4.435-7.97,5.215c-2.619,0.78-5.305,0.729-8.059-0.155
			c-2.752-0.884-5.306-2.501-7.662-4.858c-2.478-2.479-4.123-5.146-4.934-8.002s-0.705-5.745,0.317-8.669
			c0.805-2.273,2.51-4.71,5.113-7.313c2.509-2.511,4.615-4.162,6.313-4.95c1.698-0.791,3.437-1.12,5.213-0.984
			c1.777,0.134,3.606,0.729,5.486,1.782l-5.563,7.979c-1.136-0.577-2.265-0.762-3.385-0.55s-2.197,0.834-3.229,1.868
			c-1.541,1.539-2.23,3.299-2.078,5.283c0.157,1.983,1.392,4.132,3.704,6.446c2.459,2.458,4.678,3.752,6.655,3.882
			c1.978,0.127,3.793-0.634,5.446-2.287c0.785-0.785,1.421-1.647,1.905-2.587c0.485-0.94,0.914-2.144,1.287-3.61l-2.141-2.139
			L305.5,44.252z"/>
		<path fill="#006E12" d="M306.011,14.765l18.81-18.809l4.849,4.849l-11.774,11.777l3.608,3.609l10.925-10.923l4.633,4.632
			l-10.923,10.923l4.478,4.477l12.117-12.115l5.142,5.144L328.726,37.48L306.011,14.765z"/>
		<path fill="#006E12" d="M339.804-19.027l7.033-7.034l22.716,22.714l-7.033,7.036L339.804-19.027z"/>
		<path fill="#006E12" d="M351.796-31.02l9.229-9.23l17.382,10.262l-10.286-17.356l9.225-9.225l22.714,22.716l-5.748,5.748
			l-17.323-17.323l12.895,21.751l-5.204,5.205l-21.743-12.903l17.323,17.323l-5.748,5.748L351.796-31.02z"/>
		<path fill="#006E12" d="M414.754-56.047l-7.969,7.969l2.643,4.857l-7.167,7.167l-14.178-31.252l7.656-7.657l31.248,14.18
			l-7.348,7.349L414.754-56.047z M408.385-59.502l-10.672-5.659l5.683,10.647L408.385-59.502z"/>
		<path fill="#006E12" d="M431.838-82.088l-4.726-4.726l10.847-10.847l9.685,9.686c-0.661,3.492-1.534,6.291-2.618,8.397
			c-1.084,2.107-2.723,4.255-4.911,6.444c-2.698,2.697-5.354,4.436-7.974,5.215c-2.618,0.78-5.304,0.729-8.056-0.155
			c-2.754-0.884-5.307-2.502-7.662-4.857c-2.479-2.48-4.125-5.148-4.936-8.003c-0.811-2.856-0.705-5.745,0.317-8.668
			c0.806-2.274,2.511-4.712,5.112-7.314c2.512-2.51,4.614-4.161,6.314-4.95c1.701-0.791,3.437-1.119,5.214-0.984
			c1.776,0.133,3.604,0.728,5.484,1.782l-5.562,7.977c-1.136-0.577-2.264-0.761-3.385-0.55c-1.121,0.212-2.198,0.835-3.232,1.868
			c-1.537,1.54-2.231,3.299-2.074,5.283c0.153,1.983,1.388,4.131,3.703,6.446c2.457,2.458,4.674,3.752,6.653,3.882
			c1.978,0.128,3.795-0.633,5.445-2.286c0.785-0.785,1.421-1.647,1.906-2.587c0.486-0.94,0.915-2.143,1.286-3.61l-2.137-2.138
			L431.838-82.088z"/>
		<path fill="#006E12" d="M432.349-111.572l18.813-18.812l4.85,4.85l-11.778,11.776l3.612,3.61l10.923-10.923l4.633,4.632
			l-10.924,10.923l4.478,4.479l12.116-12.118l5.145,5.145l-19.15,19.151L432.349-111.572z"/>
		<path fill="#006E12" d="M466.143-145.367l7.034-7.034l22.714,22.714l-7.034,7.035L466.143-145.367z"/>
		<path fill="#006E12" d="M478.134-157.358l9.232-9.232l17.38,10.262l-10.288-17.356l9.226-9.225l22.716,22.715l-5.749,5.749
			l-17.321-17.324l12.892,21.752l-5.202,5.204l-21.742-12.902l17.321,17.324l-5.748,5.748L478.134-157.358z"/>
		<path fill="#006E12" d="M541.092-182.387l-7.969,7.969l2.644,4.857l-7.167,7.167l-14.178-31.252l7.656-7.657l31.251,14.179
			l-7.352,7.349L541.092-182.387z M534.724-185.841l-10.673-5.659l5.687,10.647L534.724-185.841z"/>
		<path fill="#006E12" d="M558.179-208.427l-4.726-4.726L564.298-224l9.684,9.685c-0.662,3.492-1.534,6.291-2.619,8.398
			c-1.084,2.107-2.721,4.255-4.911,6.445c-2.695,2.695-5.353,4.434-7.971,5.213c-2.619,0.78-5.305,0.729-8.059-0.155
			c-2.752-0.884-5.307-2.501-7.662-4.857c-2.478-2.479-4.123-5.147-4.933-8.003c-0.812-2.856-0.706-5.745,0.317-8.668
			c0.805-2.274,2.508-4.712,5.112-7.314c2.509-2.511,4.616-4.161,6.313-4.95c1.699-0.791,3.438-1.12,5.214-0.984
			c1.776,0.133,3.606,0.729,5.485,1.782l-5.563,7.977c-1.136-0.576-2.265-0.761-3.386-0.55c-1.119,0.212-2.196,0.834-3.229,1.868
			c-1.54,1.539-2.231,3.299-2.078,5.283c0.157,1.983,1.392,4.131,3.703,6.446c2.458,2.458,4.679,3.752,6.656,3.882
			c1.977,0.128,3.792-0.634,5.446-2.286c0.786-0.786,1.421-1.647,1.904-2.588c0.486-0.94,0.915-2.144,1.288-3.61l-2.141-2.138
			L558.179-208.427z"/>
		<path fill="#006E12" d="M558.69-237.911l18.808-18.812l4.85,4.85l-11.774,11.776l3.608,3.61l10.926-10.923l4.632,4.632
			l-10.923,10.923l4.478,4.479l12.116-12.117l5.143,5.145l-19.149,19.151L558.69-237.911z"/>
	</g>
</g>
</svg>
