<?xml version="1.0" encoding="utf-8"?>
<!-- Generator: Adobe Illustrator 15.0.2, SVG Export Plug-In . SVG Version: 6.00 Build 0)  -->
<!DOCTYPE svg PUBLIC "-//W3C//DTD SVG 1.1//EN" "http://www.w3.org/Graphics/SVG/1.1/DTD/svg11.dtd">
<svg version="1.1" id="Calque_1" xmlns="http://www.w3.org/2000/svg" xmlns:xlink="http://www.w3.org/1999/xlink" x="0px" y="0px"
	 width="140px" height="140px" viewBox="0 0 140 140" enable-background="new 0 0 140 140" xml:space="preserve">
<rect x="-2.225" y="-2.225" fill="#FFF5F5" width="144.449" height="144.449"/>
<g>
	<g opacity="0.15">
		<path fill="#006E12" d="M-294.2,246.328l5.065-5.064l16.358,16.357l-5.065,5.066L-294.2,246.328z"/>
		<path fill="#006E12" d="M-285.563,237.692l6.648-6.647l12.516,7.39l-7.408-12.498l6.644-6.646l16.357,16.359l-4.14,4.141
			l-12.474-12.476l9.284,15.664l-3.747,3.749l-15.657-9.293l12.474,12.476l-4.14,4.14L-285.563,237.692z"/>
		<path fill="#006E12" d="M-240.225,219.669l-5.738,5.738l1.902,3.498l-5.161,5.161l-10.21-22.505l5.514-5.515l22.505,10.211
			l-5.293,5.294L-240.225,219.669z M-244.811,217.181l-7.686-4.074l4.094,7.665L-244.811,217.181z"/>
		<path fill="#006E12" d="M-227.92,200.915l-3.403-3.403l7.811-7.811l6.975,6.974c-0.477,2.514-1.104,4.53-1.887,6.047
			c-0.78,1.519-1.959,3.064-3.537,4.642c-1.941,1.942-3.855,3.194-5.741,3.757c-1.885,0.562-3.819,0.523-5.802-0.112
			s-3.821-1.803-5.518-3.498c-1.786-1.786-2.971-3.708-3.554-5.764c-0.585-2.057-0.509-4.138,0.229-6.243
			c0.579-1.637,1.808-3.393,3.682-5.267c1.809-1.808,3.324-2.996,4.548-3.566c1.224-0.567,2.474-0.805,3.754-0.707
			c1.279,0.096,2.597,0.522,3.95,1.281l-4.006,5.746c-0.817-0.416-1.631-0.547-2.438-0.396c-0.807,0.153-1.583,0.603-2.326,1.347
			c-1.108,1.106-1.606,2.376-1.496,3.803c0.112,1.43,1.001,2.976,2.668,4.644c1.77,1.77,3.367,2.701,4.791,2.793
			c1.424,0.094,2.733-0.455,3.923-1.644c0.565-0.566,1.023-1.187,1.371-1.864c0.351-0.676,0.659-1.543,0.928-2.599l-1.54-1.541
			L-227.92,200.915z"/>
		<path fill="#006E12" d="M-227.552,179.681l13.546-13.546l3.493,3.492l-8.48,8.479l2.6,2.602l7.866-7.867l3.336,3.337l-7.866,7.866
			l3.225,3.224l8.726-8.725l3.705,3.704l-13.792,13.792L-227.552,179.681z"/>
		<path fill="#006E12" d="M-203.216,155.345l5.065-5.066l16.359,16.358l-5.065,5.065L-203.216,155.345z"/>
		<path fill="#006E12" d="M-194.579,146.708l6.647-6.646l12.517,7.39l-7.407-12.501l6.644-6.643l16.357,16.358l-4.141,4.141
			l-12.474-12.477l9.286,15.665l-3.749,3.747l-15.657-9.292l12.475,12.477l-4.14,4.14L-194.579,146.708z"/>
		<path fill="#006E12" d="M-149.24,128.684l-5.738,5.738l1.903,3.499l-5.161,5.161l-10.21-22.507l5.514-5.513l22.505,10.212
			l-5.293,5.293L-149.24,128.684z M-153.826,126.197l-7.685-4.075l4.093,7.666L-153.826,126.197z"/>
		<path fill="#006E12" d="M-136.936,109.931l-3.402-3.403l7.81-7.812l6.975,6.973c-0.476,2.515-1.104,4.531-1.886,6.049
			c-0.78,1.518-1.96,3.065-3.537,4.643c-1.942,1.941-3.855,3.193-5.741,3.755s-3.82,0.523-5.802-0.112
			c-1.983-0.637-3.822-1.802-5.519-3.497c-1.785-1.787-2.97-3.708-3.554-5.765c-0.584-2.056-0.508-4.138,0.229-6.244
			c0.58-1.634,1.809-3.391,3.682-5.267c1.809-1.806,3.324-2.995,4.548-3.563c1.225-0.569,2.475-0.806,3.754-0.708
			c1.279,0.096,2.597,0.523,3.951,1.281l-4.006,5.746c-0.818-0.416-1.631-0.549-2.438-0.395c-0.808,0.151-1.583,0.601-2.326,1.345
			c-1.108,1.107-1.606,2.377-1.495,3.805c0.111,1.429,1.001,2.976,2.667,4.643c1.77,1.769,3.367,2.7,4.792,2.793
			c1.423,0.094,2.732-0.454,3.922-1.645c0.565-0.565,1.023-1.187,1.372-1.863c0.35-0.678,0.658-1.544,0.927-2.601l-1.54-1.538
			L-136.936,109.931z"/>
		<path fill="#006E12" d="M-136.566,88.696l13.546-13.548l3.492,3.494l-8.48,8.479l2.6,2.6l7.866-7.865l3.337,3.336l-7.866,7.867
			l3.224,3.224l8.727-8.725l3.705,3.703l-13.793,13.792L-136.566,88.696z"/>
		<path fill="#006E12" d="M-112.23,64.36l5.065-5.065l16.358,16.357l-5.066,5.065L-112.23,64.36z"/>
		<path fill="#006E12" d="M-103.594,55.724l6.647-6.648l12.517,7.39l-7.408-12.499l6.644-6.644l16.357,16.358l-4.14,4.14
			l-12.475-12.476l9.286,15.665l-3.748,3.748l-15.657-9.292l12.473,12.475l-4.139,4.139L-103.594,55.724z"/>
		<path fill="#006E12" d="M-58.255,37.7l-5.738,5.738l1.903,3.498l-5.163,5.162l-10.209-22.506l5.514-5.514l22.506,10.211
			l-5.294,5.292L-58.255,37.7z M-62.842,35.211l-7.685-4.075l4.094,7.667L-62.842,35.211z"/>
		<path fill="#006E12" d="M-45.949,18.946l-3.404-3.403l7.811-7.812l6.975,6.974c-0.477,2.514-1.105,4.53-1.886,6.047
			c-0.782,1.518-1.961,3.065-3.538,4.642c-1.941,1.942-3.855,3.195-5.741,3.755c-1.886,0.562-3.82,0.524-5.802-0.111
			c-1.983-0.636-3.821-1.803-5.518-3.498c-1.786-1.786-2.97-3.706-3.555-5.764c-0.584-2.057-0.508-4.138,0.229-6.242
			c0.58-1.637,1.809-3.393,3.683-5.268c1.808-1.807,3.324-2.996,4.547-3.565c1.225-0.568,2.476-0.806,3.754-0.708
			c1.28,0.097,2.598,0.524,3.95,1.283l-4.005,5.747c-0.818-0.416-1.631-0.548-2.438-0.396c-0.808,0.153-1.584,0.601-2.327,1.345
			c-1.108,1.107-1.606,2.376-1.495,3.805s1.001,2.976,2.667,4.642c1.771,1.77,3.368,2.702,4.792,2.795
			c1.424,0.094,2.732-0.456,3.922-1.645c0.566-0.566,1.024-1.186,1.372-1.863c0.35-0.677,0.659-1.544,0.928-2.601l-1.541-1.54
			L-45.949,18.946z"/>
		<path fill="#006E12" d="M-45.582-2.289l13.547-13.545l3.492,3.493l-8.48,8.48l2.6,2.6l7.867-7.867l3.336,3.336l-7.866,7.867
			l3.224,3.224l8.727-8.725l3.704,3.704L-29.225,14.07L-45.582-2.289z"/>
		<path fill="#006E12" d="M-21.246-26.625l5.065-5.065L0.178-15.333l-5.065,5.065L-21.246-26.625z"/>
		<path fill="#006E12" d="M-12.608-35.261l6.646-6.647l12.517,7.39l-7.407-12.499l6.643-6.643l16.357,16.359l-4.139,4.14
			L5.533-45.639l9.286,15.665l-3.747,3.748l-15.658-9.292L7.888-23.043l-4.14,4.141L-12.608-35.261z"/>
		<path fill="#006E12" d="M32.73-53.285l-5.739,5.738l1.903,3.498l-5.162,5.161L13.523-61.394l5.513-5.514l22.506,10.211
			l-5.294,5.293L32.73-53.285z M28.144-55.773l-7.686-4.076l4.094,7.668L28.144-55.773z"/>
		<path fill="#006E12" d="M45.035-72.04l-3.403-3.402l7.81-7.812l6.975,6.974c-0.477,2.514-1.104,4.531-1.886,6.048
			c-0.78,1.517-1.961,3.064-3.537,4.641c-1.941,1.942-3.855,3.195-5.741,3.755c-1.887,0.561-3.82,0.524-5.802-0.111
			c-1.983-0.637-3.822-1.803-5.519-3.499c-1.785-1.785-2.971-3.706-3.555-5.763c-0.584-2.057-0.507-4.139,0.229-6.243
			c0.581-1.637,1.809-3.393,3.683-5.268c1.809-1.807,3.324-2.996,4.547-3.565c1.225-0.569,2.475-0.806,3.755-0.708
			c1.279,0.097,2.597,0.523,3.95,1.282l-4.006,5.747c-0.818-0.415-1.631-0.548-2.438-0.396c-0.807,0.152-1.583,0.601-2.326,1.345
			c-1.108,1.107-1.607,2.376-1.495,3.804c0.111,1.429,1,2.976,2.666,4.642c1.771,1.771,3.368,2.703,4.792,2.796
			c1.425,0.093,2.733-0.456,3.923-1.646c0.565-0.566,1.023-1.187,1.372-1.864c0.35-0.677,0.658-1.543,0.927-2.6l-1.539-1.54
			L45.035-72.04z"/>
		<path fill="#006E12" d="M45.402-93.273l13.547-13.546l3.493,3.493l-8.481,8.48l2.6,2.6l7.867-7.866l3.336,3.336l-7.866,7.866
			l3.224,3.225l8.725-8.726l3.705,3.705l-13.79,13.792L45.402-93.273z"/>
		<path fill="#006E12" d="M69.739-117.609l5.065-5.066l16.357,16.357l-5.066,5.067L69.739-117.609z"/>
		<path fill="#006E12" d="M78.375-126.247l6.648-6.647l12.516,7.39l-7.408-12.499l6.643-6.644l16.359,16.36l-4.139,4.139
			l-12.477-12.476l9.285,15.665l-3.748,3.748l-15.656-9.292l12.475,12.476l-4.139,4.139L78.375-126.247z"/>
		<path fill="#006E12" d="M123.713-144.27l-5.738,5.739l1.904,3.498l-5.16,5.162l-10.213-22.506l5.516-5.514l22.506,10.211
			l-5.295,5.293L123.713-144.27z M119.127-146.758l-7.686-4.075l4.096,7.667L119.127-146.758z"/>
		<path fill="#006E12" d="M136.02-163.023l-3.404-3.403l7.813-7.812l6.971,6.974c-0.475,2.516-1.104,4.532-1.885,6.049
			c-0.781,1.517-1.959,3.063-3.539,4.641c-1.939,1.941-3.854,3.193-5.74,3.755c-1.885,0.562-3.818,0.525-5.801-0.112
			c-1.982-0.636-3.822-1.803-5.518-3.498c-1.785-1.786-2.971-3.707-3.555-5.764c-0.582-2.057-0.506-4.139,0.229-6.243
			c0.58-1.637,1.807-3.393,3.684-5.268c1.807-1.807,3.324-2.995,4.547-3.566c1.223-0.568,2.475-0.804,3.754-0.708
			c1.279,0.097,2.596,0.524,3.949,1.282l-4.006,5.747c-0.818-0.417-1.631-0.548-2.438-0.396c-0.807,0.152-1.582,0.601-2.324,1.345
			c-1.111,1.107-1.607,2.376-1.498,3.804c0.113,1.428,1.002,2.976,2.668,4.643c1.77,1.77,3.369,2.702,4.791,2.795
			c1.426,0.092,2.732-0.456,3.924-1.646c0.566-0.565,1.021-1.187,1.371-1.863c0.352-0.677,0.66-1.544,0.928-2.6l-1.541-1.54
			L136.02-163.023z"/>
		<path fill="#006E12" d="M136.387-184.258l13.547-13.547l3.492,3.493l-8.48,8.48l2.6,2.6l7.865-7.867l3.338,3.337l-7.867,7.866
			l3.225,3.224l8.727-8.725l3.703,3.705l-13.793,13.792L136.387-184.258z"/>
		<path fill="#006E12" d="M160.723-208.594l5.066-5.065l16.357,16.357l-5.066,5.066L160.723-208.594z"/>
		<path fill="#006E12" d="M169.359-217.231l6.646-6.647l12.52,7.39l-7.408-12.5l6.643-6.643l16.357,16.358l-4.139,4.14
			l-12.477-12.474l9.285,15.664l-3.746,3.748l-15.658-9.291l12.475,12.475l-4.141,4.14L169.359-217.231z"/>
		<path fill="#006E12" d="M214.701-235.255l-5.74,5.739l1.9,3.497l-5.16,5.163l-10.209-22.507l5.512-5.514l22.506,10.211
			l-5.293,5.293L214.701-235.255z M210.113-237.743l-7.686-4.075l4.092,7.667L210.113-237.743z"/>
		<path fill="#006E12" d="M227.002-254.008l-3.402-3.404l7.811-7.811l6.975,6.975c-0.475,2.515-1.104,4.531-1.887,6.048
			c-0.779,1.517-1.959,3.063-3.535,4.641c-1.943,1.942-3.855,3.194-5.742,3.755s-3.82,0.525-5.801-0.112
			c-1.984-0.636-3.824-1.803-5.52-3.498c-1.785-1.787-2.971-3.708-3.555-5.765c-0.582-2.056-0.506-4.138,0.229-6.242
			c0.58-1.637,1.811-3.393,3.682-5.266c1.811-1.808,3.324-2.998,4.547-3.566c1.227-0.568,2.477-0.805,3.756-0.707
			c1.279,0.096,2.596,0.523,3.951,1.281l-4.006,5.747c-0.818-0.416-1.631-0.548-2.438-0.396c-0.807,0.152-1.584,0.601-2.328,1.346
			c-1.105,1.107-1.605,2.375-1.494,3.804c0.111,1.428,1,2.976,2.668,4.642c1.77,1.77,3.365,2.702,4.791,2.795
			c1.426,0.092,2.732-0.456,3.922-1.646c0.564-0.565,1.023-1.187,1.371-1.864c0.352-0.677,0.66-1.543,0.928-2.599l-1.539-1.54
			L227.002-254.008z"/>
		<path fill="#006E12" d="M227.371-275.242l13.547-13.547l3.492,3.493l-8.48,8.48l2.6,2.6l7.867-7.867l3.336,3.337l-7.867,7.866
			l3.225,3.225l8.725-8.725l3.707,3.705l-13.791,13.792L227.371-275.242z"/>
	</g>
	<g opacity="0.15">
		<path fill="#006E12" d="M-308.482,317.743l5.064-5.067l16.358,16.359l-5.066,5.065L-308.482,317.743z"/>
		<path fill="#006E12" d="M-299.846,309.106l6.647-6.647l12.516,7.39l-7.407-12.499l6.644-6.643l16.357,16.356l-4.14,4.14
			l-12.475-12.474l9.284,15.665l-3.746,3.745l-15.658-9.291l12.475,12.476l-4.14,4.141L-299.846,309.106z"/>
		<path fill="#006E12" d="M-254.507,291.084l-5.738,5.736l1.902,3.499l-5.161,5.159l-10.21-22.506l5.514-5.512l22.505,10.211
			l-5.294,5.293L-254.507,291.084z M-259.094,288.594l-7.685-4.075l4.094,7.666L-259.094,288.594z"/>
		<path fill="#006E12" d="M-242.202,272.328l-3.403-3.402l7.811-7.812l6.975,6.974c-0.479,2.515-1.106,4.53-1.886,6.048
			c-0.781,1.518-1.961,3.065-3.537,4.641c-1.942,1.943-3.856,3.194-5.742,3.755c-1.886,0.563-3.819,0.525-5.802-0.109
			c-1.982-0.637-3.822-1.804-5.518-3.5c-1.786-1.784-2.971-3.706-3.555-5.764c-0.584-2.056-0.508-4.137,0.229-6.243
			c0.58-1.635,1.809-3.391,3.682-5.266c1.809-1.808,3.323-2.996,4.548-3.565s2.475-0.805,3.754-0.709
			c1.279,0.098,2.598,0.525,3.951,1.284l-4.006,5.745c-0.818-0.416-1.631-0.548-2.438-0.395c-0.808,0.152-1.584,0.601-2.327,1.343
			c-1.108,1.109-1.606,2.378-1.495,3.807c0.11,1.428,1,2.976,2.667,4.641c1.771,1.771,3.368,2.703,4.792,2.796
			c1.425,0.093,2.731-0.455,3.922-1.646c0.566-0.564,1.022-1.186,1.373-1.863c0.349-0.678,0.658-1.542,0.927-2.6l-1.54-1.54
			L-242.202,272.328z"/>
		<path fill="#006E12" d="M-241.834,251.093l13.547-13.545l3.492,3.492l-8.48,8.48l2.6,2.601l7.866-7.866l3.336,3.335l-7.866,7.867
			l3.225,3.224l8.727-8.725l3.705,3.704l-13.793,13.792L-241.834,251.093z"/>
		<path fill="#006E12" d="M-217.498,226.759l5.065-5.066l16.358,16.357l-5.067,5.065L-217.498,226.759z"/>
		<path fill="#006E12" d="M-208.861,218.122l6.647-6.649l12.517,7.391l-7.407-12.498l6.644-6.644l16.356,16.356l-4.14,4.142
			l-12.474-12.475l9.284,15.663l-3.747,3.747l-15.659-9.29l12.476,12.475l-4.139,4.141L-208.861,218.122z"/>
		<path fill="#006E12" d="M-163.522,200.098l-5.738,5.739l1.902,3.498l-5.16,5.16l-10.211-22.506l5.514-5.514l22.506,10.211
			l-5.295,5.293L-163.522,200.098z M-168.108,197.61l-7.686-4.076l4.094,7.666L-168.108,197.61z"/>
		<path fill="#006E12" d="M-151.217,181.345l-3.404-3.403l7.81-7.812l6.976,6.974c-0.478,2.514-1.105,4.528-1.886,6.048
			c-0.78,1.516-1.961,3.065-3.537,4.642c-1.942,1.942-3.855,3.191-5.742,3.753c-1.886,0.563-3.819,0.526-5.802-0.109
			c-1.983-0.636-3.822-1.804-5.518-3.5c-1.785-1.785-2.971-3.705-3.555-5.762c-0.584-2.058-0.507-4.14,0.229-6.244
			c0.58-1.635,1.809-3.392,3.683-5.266c1.809-1.808,3.323-2.996,4.548-3.565c1.224-0.57,2.474-0.806,3.754-0.71
			c1.279,0.097,2.596,0.524,3.95,1.284l-4.005,5.747c-0.818-0.417-1.631-0.549-2.438-0.396c-0.808,0.151-1.583,0.6-2.326,1.342
			c-1.109,1.109-1.607,2.378-1.496,3.808c0.111,1.427,1,2.976,2.668,4.641c1.77,1.771,3.367,2.703,4.791,2.795
			c1.425,0.093,2.732-0.455,3.924-1.646c0.563-0.566,1.021-1.187,1.371-1.862c0.35-0.679,0.658-1.546,0.927-2.602l-1.539-1.538
			L-151.217,181.345z"/>
		<path fill="#006E12" d="M-150.849,160.109l13.546-13.547l3.492,3.493l-8.479,8.481l2.599,2.6l7.867-7.867l3.336,3.336
			l-7.866,7.866l3.224,3.225l8.727-8.725l3.704,3.705l-13.791,13.791L-150.849,160.109z"/>
		<path fill="#006E12" d="M-126.513,135.774l5.064-5.067l16.359,16.357l-5.067,5.065L-126.513,135.774z"/>
		<path fill="#006E12" d="M-117.877,127.136l6.647-6.646l12.517,7.389l-7.407-12.498l6.644-6.644l16.357,16.357l-4.14,4.14
			l-12.474-12.474l9.283,15.664l-3.746,3.747l-15.659-9.29l12.476,12.475l-4.141,4.141L-117.877,127.136z"/>
		<path fill="#006E12" d="M-72.537,109.112l-5.739,5.739l1.903,3.498l-5.161,5.16l-10.211-22.505l5.515-5.514l22.505,10.212
			l-5.294,5.293L-72.537,109.112z M-77.124,106.624l-7.686-4.075l4.094,7.667L-77.124,106.624z"/>
		<path fill="#006E12" d="M-60.233,90.359l-3.402-3.402l7.81-7.812l6.974,6.972c-0.476,2.517-1.104,4.531-1.885,6.049
			c-0.781,1.518-1.96,3.064-3.536,4.642c-1.943,1.943-3.856,3.193-5.742,3.755c-1.886,0.563-3.82,0.524-5.802-0.111
			c-1.982-0.635-3.822-1.802-5.518-3.499c-1.786-1.784-2.972-3.706-3.555-5.763c-0.584-2.057-0.508-4.138,0.229-6.242
			c0.58-1.638,1.808-3.392,3.683-5.269c1.808-1.805,3.322-2.995,4.547-3.564c1.223-0.569,2.475-0.805,3.754-0.709
			c1.28,0.098,2.596,0.525,3.951,1.283l-4.006,5.746c-0.818-0.416-1.631-0.547-2.438-0.395c-0.807,0.153-1.583,0.601-2.326,1.343
			c-1.108,1.109-1.607,2.377-1.495,3.805c0.11,1.429,0.999,2.978,2.666,4.644c1.771,1.771,3.368,2.703,4.793,2.794
			c1.424,0.093,2.73-0.454,3.923-1.644c0.563-0.566,1.021-1.189,1.371-1.864c0.35-0.677,0.659-1.544,0.927-2.6l-1.54-1.541
			L-60.233,90.359z"/>
		<path fill="#006E12" d="M-59.864,69.125l13.546-13.546l3.493,3.492l-8.481,8.481l2.601,2.599l7.866-7.867l3.336,3.336
			l-7.866,7.865l3.224,3.226l8.728-8.726l3.704,3.705l-13.792,13.792L-59.864,69.125z"/>
		<path fill="#006E12" d="M-35.528,44.789l5.065-5.067l16.358,16.359l-5.066,5.065L-35.528,44.789z"/>
		<path fill="#006E12" d="M-26.893,36.151l6.648-6.647l12.516,7.389l-7.407-12.498l6.644-6.644L7.865,34.11l-4.14,4.14
			L-8.749,25.775L0.536,41.44l-3.746,3.747l-15.66-9.291l12.476,12.477l-4.14,4.14L-26.893,36.151z"/>
		<path fill="#006E12" d="M18.447,18.128l-5.738,5.738l1.903,3.499l-5.162,5.16L-0.759,10.02l5.514-5.514L27.26,14.717l-5.294,5.292
			L18.447,18.128z M13.86,15.64l-7.685-4.075l4.094,7.667L13.86,15.64z"/>
		<path fill="#006E12" d="M30.751-0.625l-3.403-3.403l7.812-7.812l6.974,6.974c-0.477,2.515-1.105,4.529-1.886,6.047
			c-0.78,1.518-1.96,3.065-3.537,4.643c-1.941,1.942-3.854,3.192-5.741,3.754c-1.886,0.563-3.819,0.524-5.802-0.111
			c-1.982-0.637-3.822-1.803-5.518-3.5c-1.786-1.784-2.971-3.706-3.555-5.762c-0.584-2.057-0.508-4.138,0.229-6.244
			c0.58-1.636,1.808-3.392,3.682-5.267c1.808-1.807,3.323-2.996,4.548-3.565c1.223-0.57,2.475-0.805,3.754-0.708
			c1.278,0.097,2.596,0.524,3.95,1.283l-4.005,5.747c-0.818-0.417-1.631-0.548-2.438-0.396c-0.808,0.153-1.583,0.601-2.326,1.345
			c-1.108,1.108-1.606,2.377-1.495,3.805c0.11,1.428,0.999,2.976,2.667,4.643c1.77,1.769,3.367,2.702,4.791,2.794
			c1.425,0.093,2.731-0.456,3.923-1.645c0.563-0.566,1.021-1.188,1.372-1.864c0.35-0.677,0.659-1.543,0.928-2.599l-1.541-1.541
			L30.751-0.625z"/>
		<path fill="#006E12" d="M31.12-21.86l13.547-13.545l3.492,3.492l-8.48,8.481l2.6,2.6l7.867-7.866l3.335,3.335l-7.866,7.867
			l3.225,3.225l8.727-8.725l3.704,3.704L47.478-5.501L31.12-21.86z"/>
		<path fill="#006E12" d="M55.456-46.196l5.066-5.067l16.358,16.359l-5.066,5.065L55.456-46.196z"/>
		<path fill="#006E12" d="M64.094-54.833l6.646-6.646l12.514,7.389L75.85-66.589l6.643-6.644L98.85-56.875l-4.139,4.139
			L82.234-65.209l9.287,15.664l-3.748,3.747l-15.658-9.291L84.59-42.614l-4.141,4.14L64.094-54.833z"/>
		<path fill="#006E12" d="M109.432-72.857l-5.738,5.739l1.902,3.498l-5.16,5.16L90.225-80.965l5.512-5.513l22.506,10.211
			l-5.293,5.292L109.432-72.857z M104.846-75.345L97.16-79.42l4.094,7.667L104.846-75.345z"/>
		<path fill="#006E12" d="M121.736-91.61l-3.404-3.403l7.811-7.812l6.975,6.974c-0.477,2.515-1.105,4.53-1.887,6.048
			c-0.779,1.517-1.961,3.065-3.535,4.641c-1.941,1.942-3.855,3.193-5.742,3.754c-1.885,0.563-3.82,0.525-5.801-0.11
			c-1.982-0.637-3.824-1.803-5.52-3.499c-1.785-1.786-2.969-3.707-3.555-5.763c-0.584-2.056-0.508-4.138,0.23-6.244
			c0.58-1.636,1.809-3.392,3.682-5.267c1.809-1.807,3.322-2.995,4.545-3.565c1.225-0.569,2.477-0.805,3.756-0.709
			c1.281,0.097,2.596,0.524,3.951,1.284l-4.006,5.746c-0.818-0.416-1.631-0.548-2.438-0.395c-0.809,0.153-1.584,0.601-2.328,1.344
			c-1.107,1.108-1.605,2.377-1.494,3.805c0.111,1.429,1.002,2.977,2.668,4.642c1.77,1.771,3.365,2.703,4.791,2.794
			c1.426,0.093,2.732-0.455,3.922-1.645c0.566-0.565,1.023-1.187,1.371-1.862c0.352-0.678,0.66-1.544,0.928-2.601l-1.539-1.54
			L121.736-91.61z"/>
		<path fill="#006E12" d="M122.105-112.845l13.547-13.546l3.49,3.493l-8.48,8.48l2.602,2.599l7.865-7.866l3.336,3.335l-7.867,7.866
			l3.225,3.225l8.727-8.725l3.705,3.706l-13.791,13.791L122.105-112.845z"/>
		<path fill="#006E12" d="M146.439-137.181l5.066-5.066l16.357,16.358l-5.066,5.065L146.439-137.181z"/>
		<path fill="#006E12" d="M155.076-145.817l6.648-6.648l12.516,7.391l-7.408-12.499l6.645-6.644l16.357,16.357l-4.139,4.14
			l-12.475-12.474l9.285,15.665l-3.748,3.746l-15.658-9.289l12.475,12.474l-4.139,4.14L155.076-145.817z"/>
		<path fill="#006E12" d="M200.416-163.841l-5.738,5.739l1.904,3.498l-5.164,5.161l-10.209-22.506l5.516-5.513l22.504,10.21
			l-5.293,5.293L200.416-163.841z M195.83-166.33l-7.688-4.075l4.096,7.666L195.83-166.33z"/>
		<path fill="#006E12" d="M212.721-182.595l-3.402-3.403l7.811-7.812l6.973,6.974c-0.477,2.514-1.105,4.531-1.885,6.047
			c-0.781,1.518-1.961,3.065-3.537,4.643c-1.941,1.942-3.855,3.193-5.742,3.755c-1.887,0.562-3.818,0.524-5.803-0.112
			c-1.982-0.636-3.82-1.803-5.518-3.499c-1.783-1.785-2.969-3.707-3.553-5.763s-0.508-4.138,0.229-6.244
			c0.58-1.636,1.807-3.392,3.682-5.267c1.807-1.807,3.324-2.996,4.547-3.564c1.225-0.568,2.477-0.805,3.756-0.709
			c1.279,0.098,2.596,0.525,3.947,1.284l-4.004,5.746c-0.818-0.417-1.631-0.548-2.438-0.395c-0.807,0.152-1.582,0.6-2.326,1.343
			c-1.109,1.109-1.607,2.377-1.496,3.806c0.111,1.429,1.002,2.976,2.666,4.643c1.771,1.771,3.369,2.703,4.793,2.794
			c1.426,0.093,2.732-0.455,3.922-1.645c0.566-0.566,1.023-1.188,1.373-1.863c0.348-0.678,0.658-1.544,0.926-2.6l-1.541-1.54
			L212.721-182.595z"/>
		<path fill="#006E12" d="M213.09-203.83l13.545-13.546l3.492,3.493l-8.479,8.48l2.598,2.6l7.867-7.866l3.336,3.336l-7.865,7.866
			l3.225,3.224l8.727-8.725l3.703,3.705l-13.793,13.792L213.09-203.83z"/>
		<path fill="#006E12" d="M237.426-228.166l5.066-5.065l16.357,16.357l-5.066,5.065L237.426-228.166z"/>
		<path fill="#006E12" d="M246.063-236.803l6.646-6.647l12.516,7.389l-7.406-12.498l6.645-6.644l16.357,16.357l-4.141,4.14
			l-12.475-12.474l9.285,15.665l-3.746,3.746l-15.66-9.291l12.475,12.476l-4.141,4.139L246.063-236.803z"/>
		<path fill="#006E12" d="M291.4-254.827l-5.736,5.738l1.9,3.499l-5.16,5.161l-10.209-22.506l5.512-5.514l22.506,10.212
			l-5.293,5.292L291.4-254.827z M286.816-257.314l-7.688-4.075l4.094,7.666L286.816-257.314z"/>
		<path fill="#006E12" d="M303.705-273.58l-3.402-3.403l7.811-7.812l6.975,6.973c-0.477,2.515-1.105,4.531-1.887,6.048
			s-1.961,3.065-3.537,4.642c-1.941,1.941-3.854,3.193-5.74,3.756c-1.887,0.561-3.82,0.522-5.801-0.112
			c-1.984-0.637-3.824-1.803-5.52-3.498c-1.785-1.785-2.971-3.707-3.555-5.764c-0.586-2.057-0.508-4.138,0.229-6.243
			c0.58-1.637,1.809-3.392,3.684-5.267c1.809-1.808,3.322-2.997,4.545-3.566c1.225-0.567,2.477-0.804,3.756-0.708
			c1.279,0.098,2.596,0.524,3.949,1.283l-4.004,5.747c-0.82-0.417-1.633-0.549-2.438-0.396c-0.807,0.152-1.582,0.602-2.328,1.344
			c-1.107,1.108-1.607,2.377-1.496,3.806c0.111,1.428,1.002,2.976,2.668,4.642c1.771,1.771,3.367,2.703,4.793,2.794
			c1.424,0.093,2.73-0.455,3.92-1.645c0.566-0.566,1.023-1.186,1.373-1.864c0.352-0.677,0.658-1.544,0.926-2.6l-1.539-1.54
			L303.705-273.58z"/>
		<path fill="#006E12" d="M304.072-294.814l13.549-13.546l3.49,3.493l-8.48,8.479l2.602,2.6l7.867-7.866l3.334,3.336l-7.867,7.866
			l3.227,3.225l8.725-8.725l3.705,3.705l-13.791,13.792L304.072-294.814z"/>
	</g>
	<g opacity="0.15">
		<path fill="#006E12" d="M-237.069,303.461l5.065-5.068l16.359,16.36l-5.067,5.065L-237.069,303.461z"/>
		<path fill="#006E12" d="M-228.434,294.824l6.647-6.648l12.518,7.389l-7.407-12.497l6.643-6.644l16.358,16.358l-4.141,4.14
			l-12.476-12.476l9.286,15.665l-3.747,3.747l-15.659-9.291l12.476,12.474l-4.14,4.14L-228.434,294.824z"/>
		<path fill="#006E12" d="M-183.093,276.8l-5.739,5.739l1.903,3.497l-5.162,5.161L-202.3,268.69l5.514-5.512l22.503,10.21
			l-5.292,5.293L-183.093,276.8z M-187.68,274.312l-7.686-4.074l4.094,7.666L-187.68,274.312z"/>
		<path fill="#006E12" d="M-170.79,258.045l-3.403-3.402l7.812-7.81l6.974,6.973c-0.477,2.515-1.104,4.53-1.887,6.047
			c-0.78,1.518-1.959,3.066-3.537,4.643c-1.94,1.94-3.854,3.192-5.74,3.755c-1.885,0.561-3.819,0.525-5.803-0.111
			c-1.981-0.636-3.822-1.803-5.518-3.498c-1.784-1.785-2.97-3.707-3.553-5.763c-0.584-2.059-0.509-4.139,0.229-6.244
			c0.58-1.637,1.807-3.393,3.682-5.267c1.809-1.808,3.322-2.996,4.547-3.566c1.224-0.568,2.476-0.804,3.755-0.707
			c1.279,0.096,2.595,0.524,3.95,1.283l-4.005,5.745c-0.82-0.417-1.633-0.548-2.438-0.396c-0.808,0.153-1.583,0.601-2.328,1.345
			c-1.106,1.107-1.605,2.378-1.495,3.806c0.112,1.428,1.001,2.974,2.667,4.641c1.771,1.771,3.369,2.701,4.794,2.795
			c1.423,0.094,2.73-0.455,3.921-1.646c0.565-0.564,1.023-1.186,1.373-1.863c0.35-0.675,0.658-1.542,0.925-2.599l-1.54-1.541
			L-170.79,258.045z"/>
		<path fill="#006E12" d="M-170.422,236.813l13.547-13.547l3.492,3.493l-8.479,8.479l2.6,2.601l7.866-7.868l3.337,3.337
			l-7.867,7.866l3.225,3.226l8.725-8.728l3.706,3.706l-13.792,13.791L-170.422,236.813z"/>
		<path fill="#006E12" d="M-146.085,212.477l5.065-5.068l16.358,16.359l-5.066,5.065L-146.085,212.477z"/>
		<path fill="#006E12" d="M-137.449,203.839l6.647-6.648l12.518,7.39l-7.407-12.498l6.644-6.643l16.357,16.356l-4.14,4.14
			l-12.477-12.474l9.286,15.665l-3.746,3.746l-15.659-9.291l12.476,12.475l-4.14,4.14L-137.449,203.839z"/>
		<path fill="#006E12" d="M-92.108,185.814l-5.738,5.74l1.902,3.496l-5.161,5.161l-10.21-22.507l5.513-5.512l22.505,10.212
			l-5.293,5.293L-92.108,185.814z M-96.695,183.327l-7.687-4.075l4.095,7.666L-96.695,183.327z"/>
		<path fill="#006E12" d="M-79.805,167.061l-3.403-3.403l7.812-7.81l6.973,6.973c-0.477,2.515-1.104,4.53-1.886,6.048
			s-1.96,3.064-3.538,4.642c-1.94,1.941-3.854,3.193-5.739,3.754c-1.886,0.562-3.82,0.525-5.804-0.111
			c-1.981-0.636-3.821-1.801-5.518-3.497c-1.785-1.785-2.969-3.706-3.553-5.763c-0.584-2.058-0.508-4.139,0.229-6.244
			c0.58-1.637,1.807-3.393,3.682-5.267c1.809-1.809,3.324-2.995,4.548-3.565c1.223-0.569,2.475-0.804,3.754-0.708
			c1.279,0.097,2.596,0.525,3.951,1.282l-4.007,5.747c-0.819-0.416-1.631-0.549-2.437-0.396c-0.808,0.152-1.584,0.6-2.328,1.345
			c-1.107,1.108-1.606,2.377-1.496,3.805c0.112,1.429,1.001,2.976,2.668,4.642c1.771,1.771,3.369,2.702,4.793,2.796
			c1.424,0.093,2.731-0.455,3.921-1.646c0.565-0.563,1.024-1.187,1.373-1.863c0.35-0.678,0.658-1.544,0.926-2.601l-1.54-1.54
			L-79.805,167.061z"/>
		<path fill="#006E12" d="M-79.438,145.827l13.547-13.547l3.492,3.493l-8.479,8.48l2.601,2.599l7.866-7.866l3.336,3.336
			l-7.866,7.868l3.225,3.224l8.725-8.727l3.706,3.706l-13.792,13.79L-79.438,145.827z"/>
		<path fill="#006E12" d="M-55.101,121.491l5.066-5.066l16.357,16.358l-5.066,5.066L-55.101,121.491z"/>
		<path fill="#006E12" d="M-46.464,112.854l6.647-6.648l12.518,7.39l-7.408-12.497l6.644-6.644l16.357,16.356l-4.14,4.139
			l-12.476-12.472l9.286,15.663l-3.747,3.747l-15.659-9.29l12.476,12.473l-4.14,4.14L-46.464,112.854z"/>
		<path fill="#006E12" d="M-1.124,94.831l-5.738,5.739l1.902,3.496l-5.161,5.161l-10.21-22.506l5.513-5.514L7.687,91.42
			l-5.293,5.292L-1.124,94.831z M-5.71,92.343l-7.688-4.076l4.096,7.668L-5.71,92.343z"/>
		<path fill="#006E12" d="M11.18,76.076l-3.403-3.403l7.812-7.811l6.974,6.974c-0.477,2.514-1.105,4.53-1.887,6.047
			c-0.78,1.518-1.959,3.064-3.536,4.644c-1.941,1.94-3.854,3.192-5.741,3.753c-1.885,0.562-3.819,0.524-5.803-0.111
			c-1.982-0.636-3.821-1.803-5.519-3.498c-1.784-1.784-2.969-3.705-3.552-5.762c-0.584-2.058-0.509-4.139,0.228-6.245
			c0.58-1.635,1.807-3.391,3.683-5.266c1.808-1.808,3.323-2.995,4.547-3.565c1.223-0.569,2.475-0.805,3.754-0.708
			c1.28,0.098,2.596,0.524,3.95,1.283l-4.005,5.748c-0.819-0.416-1.632-0.547-2.438-0.396c-0.808,0.152-1.584,0.6-2.327,1.344
			c-1.107,1.108-1.606,2.376-1.495,3.806c0.111,1.427,1,2.974,2.665,4.642c1.772,1.771,3.368,2.701,4.794,2.794
			c1.424,0.094,2.731-0.455,3.922-1.645c0.565-0.565,1.022-1.188,1.372-1.865c0.351-0.675,0.659-1.542,0.926-2.6l-1.539-1.539
			L11.18,76.076z"/>
		<path fill="#006E12" d="M11.548,54.842l13.546-13.546l3.493,3.493l-8.479,8.48l2.6,2.6l7.866-7.867l3.337,3.336l-7.866,7.867
			l3.224,3.225l8.726-8.727l3.705,3.707l-13.792,13.79L11.548,54.842z"/>
		<path fill="#006E12" d="M35.885,30.507l5.065-5.067l16.357,16.358l-5.065,5.066L35.885,30.507z"/>
		<path fill="#006E12" d="M44.521,21.869l6.648-6.646l12.517,7.389l-7.407-12.498l6.644-6.644l16.357,16.357l-4.141,4.14
			L62.664,11.493l9.285,15.665l-3.746,3.747l-15.659-9.291l12.475,12.474l-4.14,4.141L44.521,21.869z"/>
		<path fill="#006E12" d="M89.859,3.846l-5.74,5.739l1.906,3.497l-5.162,5.161L70.654-4.264l5.514-5.513L98.67,0.435l-5.291,5.293
			L89.859,3.846z M85.273,1.357l-7.686-4.076l4.096,7.667L85.273,1.357z"/>
		<path fill="#006E12" d="M102.164-14.908l-3.402-3.404l7.809-7.811l6.975,6.974c-0.477,2.514-1.104,4.53-1.885,6.047
			s-1.961,3.064-3.537,4.642c-1.941,1.941-3.857,3.193-5.742,3.754c-1.887,0.562-3.816,0.526-5.801-0.112
			c-1.984-0.634-3.822-1.801-5.518-3.498c-1.787-1.785-2.971-3.706-3.555-5.762c-0.584-2.056-0.508-4.138,0.229-6.244
			c0.58-1.636,1.807-3.391,3.684-5.266c1.805-1.809,3.322-2.996,4.547-3.565c1.223-0.569,2.475-0.805,3.754-0.709
			c1.279,0.098,2.596,0.525,3.949,1.283l-4.006,5.748c-0.818-0.417-1.629-0.547-2.438-0.395c-0.807,0.152-1.584,0.601-2.328,1.343
			c-1.105,1.108-1.605,2.377-1.494,3.805c0.113,1.429,1,2.976,2.668,4.643c1.768,1.77,3.367,2.701,4.793,2.795
			c1.424,0.093,2.73-0.456,3.922-1.646c0.564-0.565,1.023-1.188,1.371-1.863c0.35-0.678,0.66-1.544,0.928-2.601l-1.541-1.54
			L102.164-14.908z"/>
		<path fill="#006E12" d="M102.533-36.143l13.545-13.546l3.494,3.493l-8.48,8.48l2.598,2.6l7.869-7.867l3.336,3.336l-7.865,7.867
			l3.223,3.225l8.725-8.726l3.705,3.705l-13.791,13.791L102.533-36.143z"/>
		<path fill="#006E12" d="M126.869-60.478l5.064-5.067l16.359,16.358l-5.066,5.066L126.869-60.478z"/>
		<path fill="#006E12" d="M135.506-69.115l6.646-6.648l12.516,7.39l-7.406-12.498l6.645-6.645l16.355,16.358l-4.139,4.14
			l-12.475-12.475l9.285,15.665l-3.746,3.747l-15.66-9.29l12.475,12.474l-4.141,4.14L135.506-69.115z"/>
		<path fill="#006E12" d="M180.844-87.139l-5.736,5.739l1.9,3.497l-5.158,5.161l-10.211-22.505l5.512-5.515l22.506,10.211
			l-5.293,5.293L180.844-87.139z M176.258-89.627l-7.686-4.075l4.094,7.666L176.258-89.627z"/>
		<path fill="#006E12" d="M193.148-105.893l-3.404-3.404l7.813-7.811l6.973,6.973c-0.475,2.514-1.104,4.53-1.885,6.047
			c-0.781,1.518-1.963,3.065-3.537,4.643c-1.943,1.941-3.855,3.193-5.74,3.754c-1.885,0.562-3.82,0.525-5.803-0.112
			c-1.982-0.634-3.82-1.802-5.518-3.498c-1.785-1.784-2.973-3.705-3.555-5.762c-0.584-2.058-0.508-4.139,0.229-6.244
			c0.582-1.636,1.807-3.392,3.682-5.267c1.809-1.807,3.324-2.996,4.549-3.565c1.225-0.57,2.473-0.805,3.754-0.709
			c1.279,0.098,2.596,0.525,3.951,1.283l-4.008,5.748c-0.818-0.417-1.629-0.549-2.436-0.396c-0.809,0.152-1.584,0.601-2.328,1.344
			c-1.109,1.109-1.607,2.378-1.496,3.806c0.113,1.428,1,2.974,2.668,4.642c1.77,1.77,3.367,2.701,4.793,2.794
			c1.422,0.094,2.73-0.455,3.922-1.645c0.564-0.565,1.021-1.188,1.373-1.864c0.35-0.677,0.656-1.544,0.924-2.602l-1.539-1.538
			L193.148-105.893z"/>
		<path fill="#006E12" d="M193.518-127.127l13.547-13.546l3.492,3.493l-8.482,8.48l2.602,2.6l7.867-7.867l3.334,3.336l-7.865,7.867
			l3.225,3.224l8.725-8.726l3.705,3.705l-13.789,13.791L193.518-127.127z"/>
		<path fill="#006E12" d="M217.854-151.463l5.064-5.067l16.359,16.359l-5.066,5.066L217.854-151.463z"/>
		<path fill="#006E12" d="M226.49-160.1l6.646-6.647l12.518,7.389l-7.408-12.498l6.645-6.643l16.357,16.357l-4.141,4.139
			l-12.475-12.474l9.285,15.665l-3.748,3.746l-15.658-9.291l12.477,12.475l-4.141,4.139L226.49-160.1z"/>
		<path fill="#006E12" d="M271.828-178.124l-5.738,5.739l1.904,3.498l-5.162,5.16l-10.211-22.505l5.516-5.514l22.504,10.212
			l-5.293,5.293L271.828-178.124z M267.24-180.612l-7.684-4.076l4.094,7.667L267.24-180.612z"/>
		<path fill="#006E12" d="M284.135-196.877l-3.404-3.404l7.811-7.811l6.973,6.974c-0.475,2.514-1.104,4.53-1.885,6.047
			s-1.959,3.064-3.537,4.642c-1.941,1.941-3.857,3.192-5.742,3.754c-1.885,0.561-3.818,0.525-5.801-0.112
			c-1.982-0.636-3.822-1.802-5.518-3.498c-1.787-1.784-2.971-3.706-3.553-5.762c-0.584-2.057-0.508-4.139,0.229-6.244
			c0.578-1.636,1.807-3.392,3.682-5.267c1.807-1.807,3.322-2.995,4.547-3.565c1.223-0.569,2.475-0.805,3.752-0.709
			c1.283,0.098,2.6,0.524,3.951,1.283l-4.006,5.747c-0.816-0.417-1.629-0.548-2.438-0.396c-0.807,0.152-1.582,0.601-2.326,1.344
			c-1.107,1.108-1.605,2.377-1.496,3.805c0.113,1.429,1.002,2.974,2.668,4.643c1.77,1.769,3.367,2.701,4.793,2.794
			c1.424,0.093,2.73-0.455,3.922-1.645c0.564-0.565,1.023-1.188,1.371-1.864c0.35-0.677,0.66-1.543,0.928-2.601l-1.541-1.539
			L284.135-196.877z"/>
		<path fill="#006E12" d="M284.502-218.112l13.545-13.547l3.494,3.493l-8.48,8.48l2.6,2.6l7.867-7.866l3.336,3.336l-7.865,7.866
			l3.223,3.225l8.725-8.725l3.705,3.704l-13.791,13.791L284.502-218.112z"/>
	</g>
	<g opacity="0.15">
		<path fill="#006E12" d="M-251.352,374.873l5.064-5.065l16.358,16.356l-5.066,5.066L-251.352,374.873z"/>
		<path fill="#006E12" d="M-242.717,366.236l6.648-6.646l12.518,7.389l-7.407-12.499l6.642-6.643l16.358,16.357l-4.14,4.14
			l-12.475-12.475l9.285,15.665l-3.747,3.745l-15.659-9.289l12.475,12.475l-4.139,4.14L-242.717,366.236z"/>
		<path fill="#006E12" d="M-197.377,348.213l-5.739,5.738l1.904,3.498l-5.161,5.161l-10.21-22.507l5.514-5.513l22.504,10.212
			l-5.293,5.293L-197.377,348.213z M-201.962,345.724l-7.688-4.074l4.095,7.667L-201.962,345.724z"/>
		<path fill="#006E12" d="M-185.072,329.458l-3.403-3.403l7.811-7.81l6.974,6.973c-0.476,2.517-1.104,4.53-1.885,6.048
			c-0.781,1.519-1.96,3.065-3.538,4.643c-1.94,1.942-3.854,3.192-5.739,3.755c-1.887,0.561-3.82,0.524-5.804-0.112
			c-1.982-0.634-3.821-1.801-5.519-3.498c-1.784-1.786-2.97-3.706-3.553-5.764c-0.584-2.057-0.508-4.137,0.229-6.242
			c0.58-1.638,1.808-3.393,3.683-5.268c1.807-1.808,3.323-2.995,4.547-3.564c1.223-0.57,2.475-0.807,3.754-0.709
			c1.28,0.098,2.596,0.524,3.95,1.283l-4.006,5.746c-0.818-0.416-1.631-0.548-2.438-0.396c-0.806,0.153-1.582,0.601-2.326,1.345
			c-1.108,1.109-1.606,2.377-1.495,3.805c0.111,1.43,1.001,2.977,2.667,4.642c1.771,1.772,3.367,2.703,4.793,2.797
			c1.424,0.093,2.731-0.457,3.922-1.647c0.565-0.565,1.023-1.186,1.372-1.863c0.35-0.678,0.659-1.544,0.926-2.6l-1.54-1.54
			L-185.072,329.458z"/>
		<path fill="#006E12" d="M-184.704,308.226l13.546-13.546l3.492,3.491l-8.479,8.48l2.6,2.601l7.867-7.868l3.336,3.336l-7.866,7.867
			l3.225,3.225l8.726-8.726l3.704,3.704l-13.791,13.792L-184.704,308.226z"/>
		<path fill="#006E12" d="M-160.366,283.89l5.064-5.066l16.357,16.356l-5.065,5.067L-160.366,283.89z"/>
		<path fill="#006E12" d="M-151.732,275.252l6.648-6.647l12.518,7.39l-7.407-12.498l6.642-6.644l16.359,16.357l-4.141,4.141
			l-12.475-12.476l9.285,15.664l-3.746,3.747l-15.66-9.289l12.477,12.473l-4.14,4.141L-151.732,275.252z"/>
		<path fill="#006E12" d="M-106.392,257.228l-5.739,5.738l1.904,3.499l-5.162,5.16l-10.21-22.506l5.515-5.514l22.504,10.212
			l-5.293,5.293L-106.392,257.228z M-110.978,254.739l-7.687-4.076l4.094,7.669L-110.978,254.739z"/>
		<path fill="#006E12" d="M-94.087,238.475l-3.404-3.404l7.812-7.811l6.974,6.974c-0.477,2.514-1.105,4.53-1.886,6.048
			c-0.781,1.518-1.959,3.065-3.537,4.644c-1.941,1.939-3.854,3.191-5.74,3.753s-3.82,0.524-5.804-0.113
			c-1.981-0.634-3.821-1.8-5.518-3.497c-1.784-1.786-2.97-3.705-3.554-5.764c-0.583-2.057-0.508-4.137,0.229-6.241
			c0.58-1.638,1.808-3.394,3.682-5.268c1.807-1.808,3.323-2.996,4.547-3.564c1.224-0.57,2.476-0.808,3.755-0.71
			c1.279,0.099,2.596,0.525,3.95,1.284l-4.007,5.747c-0.818-0.417-1.631-0.55-2.438-0.398c-0.806,0.152-1.581,0.602-2.326,1.346
			c-1.108,1.107-1.606,2.375-1.494,3.804c0.11,1.43,1,2.977,2.665,4.643c1.772,1.771,3.369,2.702,4.794,2.796
			c1.424,0.093,2.731-0.456,3.922-1.646c0.565-0.566,1.023-1.187,1.373-1.862c0.35-0.679,0.659-1.545,0.925-2.602l-1.539-1.539
			L-94.087,238.475z"/>
		<path fill="#006E12" d="M-93.719,217.24l13.546-13.546l3.492,3.492l-8.48,8.479l2.6,2.6l7.868-7.866l3.336,3.336l-7.866,7.868
			l3.224,3.224l8.726-8.726l3.704,3.704l-13.79,13.792L-93.719,217.24z"/>
		<path fill="#006E12" d="M-69.383,192.902l5.066-5.065l16.357,16.357l-5.066,5.067L-69.383,192.902z"/>
		<path fill="#006E12" d="M-60.747,184.268l6.647-6.647l12.518,7.389l-7.408-12.499l6.644-6.643l16.358,16.358l-4.14,4.14
			l-12.476-12.477l9.285,15.666l-3.746,3.747l-15.66-9.29l12.477,12.474l-4.14,4.141L-60.747,184.268z"/>
		<path fill="#006E12" d="M-15.407,166.244l-5.739,5.736l1.904,3.498l-5.161,5.162l-10.211-22.506l5.515-5.514l22.504,10.212
			l-5.293,5.293L-15.407,166.244z M-19.993,163.754l-7.687-4.075l4.094,7.668L-19.993,163.754z"/>
		<path fill="#006E12" d="M-3.103,147.488l-3.403-3.403l7.811-7.81l6.974,6.975c-0.477,2.513-1.104,4.53-1.886,6.047
			c-0.781,1.518-1.959,3.064-3.537,4.643c-1.941,1.94-3.854,3.192-5.74,3.754c-1.886,0.561-3.82,0.525-5.804-0.112
			c-1.981-0.635-3.82-1.801-5.518-3.497c-1.784-1.786-2.969-3.706-3.553-5.766c-0.584-2.056-0.508-4.136,0.229-6.241
			c0.58-1.638,1.807-3.392,3.682-5.268c1.807-1.807,3.323-2.994,4.548-3.563c1.224-0.57,2.475-0.807,3.754-0.71
			c1.28,0.099,2.597,0.524,3.95,1.283l-4.006,5.747c-0.819-0.417-1.631-0.548-2.438-0.396c-0.808,0.151-1.583,0.601-2.327,1.344
			c-1.108,1.108-1.606,2.377-1.496,3.804c0.112,1.431,1.001,2.976,2.668,4.644c1.771,1.772,3.367,2.702,4.793,2.795
			c1.425,0.094,2.73-0.457,3.922-1.645c0.564-0.566,1.022-1.188,1.372-1.865c0.35-0.675,0.658-1.543,0.926-2.599l-1.54-1.541
			L-3.103,147.488z"/>
		<path fill="#006E12" d="M-2.734,126.255l13.546-13.545l3.493,3.492l-8.481,8.479l2.601,2.6l7.867-7.866l3.336,3.337l-7.866,7.867
			l3.225,3.226l8.725-8.728l3.705,3.704l-13.791,13.793L-2.734,126.255z"/>
		<path fill="#006E12" d="M21.603,101.918l5.065-5.065l16.357,16.357l-5.066,5.068L21.603,101.918z"/>
		<path fill="#006E12" d="M30.238,93.283l6.646-6.647l12.519,7.39l-7.409-12.5l6.644-6.643l16.359,16.358l-4.141,4.14L48.381,82.904
			l9.286,15.667l-3.747,3.746l-15.659-9.291l12.476,12.475l-4.14,4.14L30.238,93.283z"/>
		<path fill="#006E12" d="M75.578,75.259l-5.739,5.737l1.901,3.498l-5.159,5.162l-10.21-22.507l5.513-5.513l22.505,10.212
			l-5.293,5.293L75.578,75.259z M70.992,72.771l-7.687-4.077l4.094,7.668L70.992,72.771z"/>
		<path fill="#006E12" d="M87.881,56.504l-3.402-3.403l7.811-7.81l6.973,6.973c-0.477,2.515-1.105,4.53-1.885,6.048
			c-0.781,1.518-1.961,3.065-3.537,4.642c-1.941,1.941-3.854,3.193-5.74,3.754c-1.885,0.562-3.822,0.525-5.803-0.111
			c-1.982-0.636-3.822-1.802-5.518-3.499c-1.785-1.786-2.971-3.706-3.555-5.763s-0.508-4.137,0.229-6.243
			c0.582-1.637,1.809-3.393,3.682-5.267c1.809-1.809,3.326-2.996,4.547-3.565c1.225-0.57,2.477-0.805,3.758-0.708
			c1.275,0.097,2.594,0.524,3.949,1.283l-4.006,5.746c-0.82-0.417-1.631-0.549-2.439-0.396c-0.807,0.152-1.582,0.6-2.326,1.344
			c-1.109,1.109-1.605,2.376-1.494,3.804c0.111,1.43,1,2.976,2.666,4.643c1.771,1.771,3.367,2.702,4.793,2.796
			c1.422,0.093,2.729-0.457,3.922-1.647c0.564-0.565,1.021-1.186,1.373-1.862c0.35-0.677,0.656-1.544,0.926-2.6l-1.541-1.54
			L87.881,56.504z"/>
		<path fill="#006E12" d="M88.25,35.271l13.545-13.545l3.494,3.492l-8.48,8.48l2.6,2.6l7.867-7.867l3.334,3.335l-7.865,7.868
			l3.225,3.224l8.727-8.726l3.705,3.704l-13.791,13.793L88.25,35.271z"/>
		<path fill="#006E12" d="M112.586,10.934l5.064-5.065l16.359,16.358l-5.064,5.065L112.586,10.934z"/>
		<path fill="#006E12" d="M121.223,2.298l6.646-6.647l12.518,7.389L132.98-9.458l6.641-6.644L155.98,0.256l-4.139,4.14
			L139.365-8.079l9.285,15.665l-3.746,3.747l-15.66-9.291l12.477,12.475l-4.139,4.14L121.223,2.298z"/>
		<path fill="#006E12" d="M166.563-15.726l-5.74,5.739l1.904,3.497l-5.162,5.162l-10.211-22.507l5.514-5.513l22.506,10.211
			l-5.293,5.293L166.563-15.726z M161.975-18.215l-7.684-4.074l4.092,7.667L161.975-18.215z"/>
		<path fill="#006E12" d="M178.865-34.48l-3.402-3.403l7.811-7.81l6.975,6.974c-0.477,2.515-1.104,4.53-1.887,6.048
			c-0.781,1.517-1.959,3.065-3.537,4.642c-1.941,1.941-3.855,3.193-5.74,3.754c-1.887,0.562-3.82,0.525-5.803-0.111
			c-1.982-0.635-3.82-1.802-5.518-3.499c-1.787-1.783-2.971-3.705-3.553-5.763c-0.586-2.057-0.508-4.137,0.229-6.243
			c0.578-1.637,1.807-3.393,3.682-5.267c1.807-1.809,3.322-2.995,4.549-3.565c1.221-0.569,2.473-0.804,3.752-0.709
			c1.279,0.098,2.596,0.525,3.949,1.284l-4.004,5.747c-0.818-0.417-1.631-0.549-2.438-0.396c-0.809,0.152-1.584,0.599-2.328,1.344
			c-1.107,1.108-1.605,2.376-1.494,3.806c0.111,1.428,0.998,2.974,2.668,4.641c1.768,1.772,3.367,2.703,4.791,2.795
			c1.424,0.094,2.732-0.456,3.922-1.646c0.566-0.565,1.023-1.186,1.371-1.863c0.35-0.676,0.66-1.542,0.928-2.6l-1.539-1.54
			L178.865-34.48z"/>
		<path fill="#006E12" d="M179.234-55.714l13.547-13.546l3.492,3.493l-8.48,8.479l2.6,2.602l7.865-7.867l3.34,3.335l-7.869,7.867
			l3.227,3.225l8.725-8.726l3.705,3.705l-13.791,13.792L179.234-55.714z"/>
		<path fill="#006E12" d="M203.57-80.051l5.066-5.066l16.357,16.359l-5.066,5.065L203.57-80.051z"/>
		<path fill="#006E12" d="M212.207-88.687l6.646-6.648l12.518,7.39l-7.408-12.499l6.645-6.643l16.357,16.358l-4.141,4.14
			l-12.473-12.475l9.283,15.665l-3.746,3.747l-15.658-9.291l12.475,12.475l-4.141,4.14L212.207-88.687z"/>
		<path fill="#006E12" d="M257.547-106.71l-5.738,5.738l1.902,3.498l-5.16,5.161L238.34-114.82l5.514-5.513l22.506,10.212
			l-5.295,5.292L257.547-106.71z M252.961-109.2l-7.686-4.074l4.092,7.667L252.961-109.2z"/>
		<path fill="#006E12" d="M269.852-125.465l-3.404-3.402l7.813-7.811l6.973,6.974c-0.479,2.515-1.105,4.53-1.887,6.048
			c-0.779,1.517-1.961,3.065-3.535,4.642c-1.943,1.94-3.855,3.192-5.742,3.755c-1.885,0.561-3.82,0.524-5.803-0.113
			c-1.982-0.635-3.822-1.801-5.518-3.498c-1.783-1.784-2.971-3.706-3.555-5.763c-0.582-2.057-0.508-4.137,0.229-6.243
			c0.582-1.637,1.809-3.393,3.682-5.267c1.809-1.808,3.326-2.996,4.549-3.565c1.223-0.57,2.475-0.805,3.756-0.709
			c1.277,0.098,2.596,0.525,3.949,1.284l-4.006,5.747c-0.818-0.417-1.631-0.548-2.438-0.396c-0.807,0.153-1.584,0.6-2.328,1.344
			c-1.109,1.108-1.605,2.375-1.496,3.806c0.113,1.427,1.002,2.974,2.668,4.64c1.771,1.771,3.367,2.703,4.793,2.796
			c1.424,0.093,2.73-0.456,3.924-1.646c0.564-0.566,1.021-1.187,1.371-1.863c0.35-0.676,0.658-1.543,0.926-2.6l-1.541-1.54
			L269.852-125.465z"/>
		<path fill="#006E12" d="M270.219-146.699l13.549-13.546l3.49,3.493l-8.48,8.479l2.6,2.601l7.867-7.868l3.336,3.336l-7.867,7.868
			l3.225,3.224l8.727-8.727l3.705,3.705l-13.791,13.791L270.219-146.699z"/>
		<path fill="#006E12" d="M294.557-171.037l5.064-5.065l16.359,16.358l-5.066,5.065L294.557-171.037z"/>
		<path fill="#006E12" d="M303.191-179.672l6.648-6.647l12.516,7.389l-7.408-12.499l6.645-6.644l16.359,16.358l-4.141,4.139
			l-12.475-12.474l9.285,15.665l-3.748,3.746l-15.658-9.29l12.477,12.474l-4.141,4.14L303.191-179.672z"/>
		<path fill="#006E12" d="M348.531-197.695l-5.738,5.738l1.904,3.497l-5.164,5.162l-10.211-22.507l5.516-5.512l22.506,10.211
			l-5.293,5.292L348.531-197.695z M343.945-200.185l-7.686-4.074l4.094,7.667L343.945-200.185z"/>
		<path fill="#006E12" d="M360.836-216.45l-3.404-3.404l7.813-7.81l6.973,6.974c-0.475,2.515-1.104,4.53-1.885,6.048
			c-0.781,1.517-1.961,3.065-3.537,4.642c-1.941,1.941-3.855,3.193-5.742,3.754c-1.885,0.562-3.818,0.525-5.803-0.112
			c-1.98-0.635-3.82-1.802-5.518-3.498c-1.785-1.785-2.969-3.706-3.551-5.763c-0.586-2.058-0.51-4.138,0.229-6.243
			c0.578-1.636,1.805-3.394,3.68-5.268c1.809-1.808,3.322-2.995,4.547-3.564s2.477-0.805,3.754-0.709
			c1.281,0.097,2.596,0.524,3.951,1.283l-4.006,5.746c-0.818-0.417-1.631-0.548-2.438-0.395c-0.809,0.152-1.584,0.599-2.326,1.343
			c-1.109,1.109-1.607,2.376-1.496,3.806c0.111,1.428,1,2.974,2.668,4.64c1.77,1.772,3.367,2.703,4.791,2.796
			c1.426,0.093,2.732-0.455,3.922-1.646c0.566-0.566,1.023-1.186,1.371-1.864c0.352-0.675,0.66-1.543,0.93-2.6l-1.541-1.54
			L360.836-216.45z"/>
		<path fill="#006E12" d="M361.203-237.684l13.547-13.546l3.492,3.493l-8.48,8.479l2.6,2.601l7.867-7.868l3.338,3.338l-7.869,7.866
			l3.227,3.225l8.725-8.727l3.705,3.706l-13.791,13.791L361.203-237.684z"/>
	</g>
	<g opacity="0.15">
		<path fill="#006E12" d="M-179.939,360.591l5.067-5.066l16.356,16.357l-5.065,5.068L-179.939,360.591z"/>
		<path fill="#006E12" d="M-171.303,351.955l6.647-6.65l12.517,7.391l-7.408-12.498l6.644-6.644l16.358,16.358l-4.14,4.139
			l-12.476-12.475l9.286,15.666l-3.747,3.747l-15.658-9.292l12.474,12.475l-4.14,4.14L-171.303,351.955z"/>
		<path fill="#006E12" d="M-125.964,333.93l-5.738,5.739l1.902,3.497l-5.159,5.162l-10.211-22.506l5.513-5.515l22.505,10.211
			l-5.293,5.294L-125.964,333.93z M-130.549,331.44l-7.687-4.075l4.094,7.669L-130.549,331.44z"/>
		<path fill="#006E12" d="M-113.659,315.176l-3.403-3.402l7.812-7.813l6.974,6.976c-0.476,2.514-1.104,4.53-1.887,6.047
			c-0.78,1.518-1.96,3.064-3.537,4.643c-1.94,1.94-3.855,3.192-5.741,3.754c-1.886,0.563-3.818,0.524-5.802-0.111
			c-1.981-0.637-3.821-1.803-5.518-3.498c-1.786-1.785-2.97-3.707-3.553-5.764c-0.584-2.058-0.51-4.137,0.229-6.242
			c0.58-1.639,1.806-3.394,3.682-5.267c1.807-1.809,3.323-2.997,4.546-3.566c1.225-0.568,2.477-0.805,3.756-0.709
			c1.279,0.097,2.596,0.526,3.949,1.285l-4.006,5.746c-0.818-0.418-1.63-0.55-2.438-0.398c-0.808,0.153-1.582,0.603-2.326,1.346
			c-1.109,1.108-1.607,2.376-1.496,3.804c0.112,1.429,1.001,2.977,2.667,4.643c1.771,1.771,3.368,2.703,4.792,2.797
			c1.426,0.091,2.732-0.458,3.923-1.647c0.565-0.565,1.023-1.186,1.373-1.863s0.657-1.543,0.925-2.6l-1.539-1.541L-113.659,315.176z
			"/>
		<path fill="#006E12" d="M-113.291,293.942l13.546-13.547l3.493,3.493l-8.481,8.479l2.6,2.6l7.867-7.866l3.337,3.336l-7.867,7.865
			l3.226,3.227l8.725-8.727l3.705,3.705L-96.934,310.3L-113.291,293.942z"/>
		<path fill="#006E12" d="M-88.955,269.605l5.066-5.065l16.358,16.357l-5.065,5.066L-88.955,269.605z"/>
		<path fill="#006E12" d="M-80.318,260.97l6.647-6.649l12.517,7.392l-7.407-12.5l6.644-6.644l16.358,16.358l-4.14,4.14
			l-12.476-12.475l9.285,15.666l-3.746,3.746l-15.659-9.292l12.475,12.475l-4.141,4.141L-80.318,260.97z"/>
		<path fill="#006E12" d="M-34.979,242.944l-5.738,5.74l1.903,3.496l-5.16,5.163l-10.21-22.508l5.512-5.515l22.505,10.213
			l-5.291,5.294L-34.979,242.944z M-39.564,240.457l-7.687-4.075l4.095,7.667L-39.564,240.457z"/>
		<path fill="#006E12" d="M-22.675,224.19l-3.403-3.403l7.812-7.811l6.974,6.976c-0.476,2.514-1.104,4.529-1.886,6.047
			c-0.781,1.519-1.961,3.064-3.537,4.643c-1.94,1.941-3.855,3.192-5.741,3.753c-1.886,0.563-3.819,0.525-5.802-0.111
			s-3.822-1.801-5.519-3.497c-1.785-1.786-2.969-3.706-3.553-5.766c-0.585-2.056-0.51-4.137,0.229-6.241
			c0.58-1.638,1.807-3.394,3.683-5.267c1.807-1.81,3.322-2.996,4.546-3.565s2.476-0.805,3.755-0.709
			c1.279,0.097,2.596,0.525,3.949,1.283l-4.005,5.749c-0.818-0.418-1.631-0.55-2.438-0.398c-0.807,0.152-1.582,0.602-2.326,1.346
			c-1.108,1.109-1.606,2.376-1.495,3.805c0.111,1.428,1,2.976,2.667,4.642c1.77,1.77,3.367,2.703,4.791,2.796
			c1.426,0.092,2.733-0.456,3.924-1.646c0.565-0.565,1.022-1.186,1.372-1.864c0.351-0.677,0.658-1.543,0.926-2.6l-1.54-1.54
			L-22.675,224.19z"/>
		<path fill="#006E12" d="M-22.306,202.957l13.546-13.548l3.492,3.492l-8.48,8.482l2.601,2.599l7.865-7.866l3.337,3.337
			l-7.866,7.866l3.226,3.225l8.725-8.725l3.705,3.704l-13.792,13.792L-22.306,202.957z"/>
		<path fill="#006E12" d="M2.029,178.621l5.067-5.065l16.357,16.356l-5.065,5.067L2.029,178.621z"/>
		<path fill="#006E12" d="M10.667,169.984l6.647-6.647l12.516,7.39l-7.407-12.498l6.644-6.645l16.358,16.359l-4.14,4.139
			L28.81,159.607l9.286,15.665l-3.747,3.748l-15.658-9.293l12.474,12.476l-4.14,4.139L10.667,169.984z"/>
		<path fill="#006E12" d="M56.006,151.96l-5.738,5.739l1.903,3.498l-5.161,5.162l-10.209-22.508l5.512-5.514l22.506,10.211
			l-5.294,5.295L56.006,151.96z M51.42,149.473l-7.686-4.076l4.093,7.669L51.42,149.473z"/>
		<path fill="#006E12" d="M68.311,133.206l-3.403-3.402l7.81-7.813l6.975,6.976c-0.477,2.515-1.104,4.53-1.887,6.048
			c-0.779,1.518-1.959,3.063-3.535,4.643c-1.941,1.939-3.856,3.19-5.742,3.754c-1.885,0.562-3.818,0.524-5.802-0.112
			c-1.981-0.637-3.822-1.802-5.518-3.498c-1.786-1.786-2.97-3.707-3.553-5.764c-0.586-2.057-0.51-4.137,0.227-6.242
			c0.581-1.638,1.809-3.394,3.684-5.267c1.807-1.809,3.322-2.996,4.546-3.565c1.225-0.57,2.477-0.807,3.756-0.709
			c1.279,0.096,2.595,0.524,3.949,1.283l-4.007,5.746c-0.816-0.416-1.63-0.548-2.437-0.396c-0.808,0.152-1.582,0.602-2.327,1.346
			c-1.108,1.108-1.606,2.375-1.495,3.804c0.111,1.428,1.001,2.976,2.667,4.643c1.771,1.771,3.368,2.702,4.792,2.794
			c1.426,0.093,2.732-0.455,3.92-1.645c0.566-0.566,1.023-1.187,1.373-1.865c0.352-0.676,0.66-1.543,0.926-2.598l-1.537-1.541
			L68.311,133.206z"/>
		<path fill="#006E12" d="M68.679,111.973l13.546-13.548l3.492,3.493l-8.48,8.48l2.6,2.601l7.867-7.868l3.336,3.338l-7.867,7.865
			l3.227,3.226l8.725-8.726l3.705,3.704l-13.791,13.793L68.679,111.973z"/>
		<path fill="#006E12" d="M93.014,87.636l5.068-5.065l16.355,16.356l-5.064,5.068L93.014,87.636z"/>
		<path fill="#006E12" d="M101.648,79l6.65-6.646l12.516,7.39l-7.406-12.5l6.643-6.644l16.357,16.359l-4.141,4.14l-12.473-12.476
			l9.285,15.666l-3.746,3.745l-15.66-9.291l12.475,12.476l-4.141,4.14L101.648,79z"/>
		<path fill="#006E12" d="M146.99,60.975l-5.738,5.739l1.902,3.498l-5.16,5.162l-10.209-22.506l5.512-5.514l22.504,10.211
			l-5.293,5.294L146.99,60.975z M142.404,58.487l-7.688-4.075l4.096,7.667L142.404,58.487z"/>
		<path fill="#006E12" d="M159.295,42.222l-3.402-3.403l7.811-7.811l6.973,6.975c-0.477,2.514-1.105,4.53-1.887,6.047
			c-0.781,1.517-1.959,3.064-3.537,4.642c-1.941,1.941-3.854,3.193-5.74,3.754c-1.885,0.561-3.82,0.524-5.805-0.112
			c-1.979-0.636-3.82-1.802-5.516-3.499c-1.785-1.785-2.969-3.706-3.553-5.763c-0.586-2.056-0.508-4.137,0.229-6.242
			c0.582-1.637,1.807-3.393,3.682-5.267c1.809-1.808,3.324-2.997,4.545-3.565c1.225-0.57,2.477-0.807,3.758-0.709
			c1.277,0.097,2.596,0.525,3.949,1.283l-4.006,5.747c-0.818-0.417-1.633-0.55-2.438-0.397c-0.809,0.152-1.582,0.601-2.326,1.345
			c-1.107,1.108-1.607,2.376-1.496,3.805c0.111,1.427,1.002,2.976,2.666,4.642c1.771,1.771,3.369,2.703,4.793,2.796
			c1.424,0.092,2.732-0.457,3.922-1.646c0.566-0.566,1.023-1.187,1.373-1.864c0.35-0.677,0.658-1.544,0.926-2.6l-1.541-1.54
			L159.295,42.222z"/>
		<path fill="#006E12" d="M159.664,20.988l13.545-13.547l3.492,3.492l-8.479,8.48l2.598,2.6l7.867-7.866l3.336,3.335l-7.865,7.867
			l3.225,3.226l8.727-8.727l3.703,3.705l-13.791,13.792L159.664,20.988z"/>
		<path fill="#006E12" d="M183.998-3.349l5.066-5.066l16.359,16.357l-5.064,5.068L183.998-3.349z"/>
		<path fill="#006E12" d="M192.637-11.984l6.646-6.647l12.518,7.389l-7.408-12.499l6.643-6.644l16.359,16.36l-4.139,4.139
			l-12.479-12.476l9.287,15.666l-3.748,3.747l-15.658-9.291l12.475,12.475l-4.139,4.139L192.637-11.984z"/>
		<path fill="#006E12" d="M237.975-30.009l-5.738,5.739l1.902,3.498l-5.16,5.162L218.77-38.118l5.512-5.514l22.504,10.212
			l-5.291,5.294L237.975-30.009z M233.389-32.498l-7.686-4.075l4.094,7.668L233.389-32.498z"/>
		<path fill="#006E12" d="M250.279-48.763l-3.404-3.403l7.811-7.812l6.977,6.975c-0.477,2.515-1.105,4.53-1.887,6.048
			s-1.961,3.064-3.537,4.642c-1.941,1.941-3.855,3.192-5.74,3.754c-1.887,0.561-3.82,0.524-5.803-0.112
			c-1.984-0.636-3.822-1.802-5.518-3.498c-1.785-1.787-2.971-3.707-3.555-5.764s-0.51-4.137,0.229-6.243
			c0.58-1.637,1.809-3.393,3.684-5.267c1.807-1.808,3.32-2.996,4.547-3.565c1.223-0.569,2.475-0.806,3.752-0.708
			c1.281,0.096,2.598,0.525,3.951,1.283l-4.006,5.747c-0.818-0.417-1.631-0.549-2.438-0.397c-0.807,0.152-1.582,0.601-2.328,1.345
			c-1.107,1.108-1.605,2.376-1.492,3.804c0.109,1.427,0.998,2.976,2.666,4.642c1.77,1.771,3.367,2.702,4.791,2.796
			c1.426,0.092,2.732-0.457,3.922-1.647c0.566-0.565,1.023-1.186,1.373-1.863c0.35-0.677,0.658-1.544,0.924-2.6l-1.537-1.54
			L250.279-48.763z"/>
		<path fill="#006E12" d="M250.646-69.996l13.547-13.546l3.492,3.491l-8.479,8.48l2.6,2.6l7.867-7.867l3.334,3.337l-7.865,7.866
			l3.227,3.226l8.723-8.726l3.705,3.705l-13.791,13.792L250.646-69.996z"/>
		<path fill="#006E12" d="M274.982-94.333l5.068-5.065l16.357,16.357l-5.066,5.067L274.982-94.333z"/>
		<path fill="#006E12" d="M283.619-102.969l6.648-6.647l12.518,7.389l-7.408-12.499l6.643-6.644l16.359,16.358l-4.141,4.14
			l-12.475-12.475l9.285,15.665l-3.746,3.746l-15.658-9.29l12.473,12.474l-4.139,4.14L283.619-102.969z"/>
		<path fill="#006E12" d="M328.961-120.994l-5.74,5.739l1.904,3.498l-5.162,5.162l-10.209-22.507l5.512-5.514l22.504,10.211
			l-5.293,5.294L328.961-120.994z M324.375-123.482l-7.688-4.075l4.094,7.668L324.375-123.482z"/>
		<path fill="#006E12" d="M341.264-139.747l-3.402-3.405l7.811-7.811l6.973,6.975c-0.477,2.515-1.104,4.53-1.885,6.047
			c-0.781,1.519-1.961,3.064-3.537,4.643c-1.941,1.941-3.855,3.193-5.74,3.754c-1.887,0.562-3.82,0.525-5.805-0.111
			c-1.982-0.636-3.82-1.802-5.518-3.498c-1.785-1.786-2.969-3.708-3.553-5.764s-0.508-4.137,0.229-6.243
			c0.58-1.637,1.807-3.393,3.682-5.267c1.809-1.808,3.324-2.997,4.547-3.564c1.223-0.57,2.475-0.807,3.756-0.708
			c1.279,0.096,2.598,0.525,3.949,1.283l-4.006,5.747c-0.818-0.417-1.631-0.549-2.438-0.397s-1.582,0.601-2.326,1.345
			c-1.107,1.109-1.607,2.376-1.496,3.805c0.113,1.428,1.002,2.975,2.666,4.642c1.771,1.771,3.369,2.703,4.795,2.796
			c1.422,0.094,2.73-0.456,3.922-1.646c0.564-0.565,1.023-1.186,1.373-1.864c0.348-0.677,0.656-1.544,0.924-2.6l-1.539-1.54
			L341.264-139.747z"/>
		<path fill="#006E12" d="M341.633-160.981l13.545-13.547l3.492,3.491l-8.479,8.481l2.6,2.599l7.867-7.867l3.336,3.337l-7.867,7.867
			l3.225,3.226l8.727-8.727l3.705,3.705l-13.793,13.792L341.633-160.981z"/>
	</g>
	<g opacity="0.15">
		<path fill="#006E12" d="M-194.223,432.003l5.067-5.064l16.357,16.356l-5.065,5.065L-194.223,432.003z"/>
		<path fill="#006E12" d="M-185.586,423.366l6.648-6.646l12.517,7.39l-7.408-12.5l6.644-6.644l16.359,16.359l-4.142,4.14
			l-12.475-12.476l9.286,15.664l-3.748,3.748l-15.658-9.292l12.475,12.476l-4.14,4.141L-185.586,423.366z"/>
		<path fill="#006E12" d="M-140.246,405.343l-5.739,5.738l1.903,3.498l-5.161,5.162l-10.21-22.507l5.514-5.513l22.505,10.211
			l-5.293,5.293L-140.246,405.343z M-144.831,402.854l-7.687-4.075l4.094,7.668L-144.831,402.854z"/>
		<path fill="#006E12" d="M-127.941,386.589l-3.403-3.404l7.812-7.811l6.973,6.974c-0.476,2.515-1.104,4.532-1.885,6.05
			c-0.781,1.516-1.961,3.063-3.538,4.641c-1.94,1.942-3.855,3.194-5.741,3.757c-1.886,0.56-3.82,0.522-5.802-0.113
			c-1.983-0.637-3.821-1.803-5.519-3.497c-1.785-1.786-2.97-3.707-3.554-5.766c-0.584-2.056-0.509-4.137,0.229-6.242
			c0.581-1.636,1.809-3.391,3.684-5.268c1.807-1.807,3.322-2.995,4.546-3.564c1.225-0.568,2.476-0.805,3.756-0.708
			c1.279,0.097,2.596,0.524,3.948,1.283l-4.005,5.745c-0.818-0.415-1.631-0.549-2.438-0.396c-0.808,0.153-1.583,0.601-2.327,1.346
			c-1.108,1.106-1.606,2.376-1.495,3.804c0.111,1.429,1,2.976,2.667,4.643c1.771,1.771,3.368,2.702,4.791,2.795
			c1.426,0.093,2.733-0.457,3.924-1.646c0.565-0.565,1.023-1.187,1.373-1.864c0.348-0.677,0.657-1.543,0.926-2.599l-1.541-1.541
			L-127.941,386.589z"/>
		<path fill="#006E12" d="M-127.573,365.354l13.547-13.544l3.492,3.491l-8.48,8.48l2.599,2.6l7.867-7.866l3.336,3.336l-7.866,7.867
			l3.225,3.224l8.726-8.725l3.705,3.704l-13.792,13.791L-127.573,365.354z"/>
		<path fill="#006E12" d="M-103.238,341.019l5.067-5.065l16.357,16.357l-5.065,5.066L-103.238,341.019z"/>
		<path fill="#006E12" d="M-94.601,332.383l6.647-6.648l12.517,7.391l-7.407-12.499l6.644-6.645l16.356,16.359l-4.139,4.141
			l-12.475-12.477l9.285,15.664l-3.748,3.748l-15.657-9.292l12.474,12.477l-4.14,4.139L-94.601,332.383z"/>
		<path fill="#006E12" d="M-49.262,314.358L-55,320.098l1.902,3.498l-5.161,5.161l-10.211-22.506l5.515-5.515l22.506,10.212
			l-5.294,5.291L-49.262,314.358z M-53.847,311.87l-7.687-4.075l4.094,7.668L-53.847,311.87z"/>
		<path fill="#006E12" d="M-36.957,295.604l-3.403-3.403l7.81-7.812l6.976,6.975c-0.477,2.515-1.104,4.531-1.886,6.049
			c-0.78,1.517-1.961,3.063-3.537,4.642c-1.941,1.94-3.856,3.192-5.742,3.755c-1.886,0.561-3.819,0.524-5.802-0.113
			c-1.983-0.636-3.821-1.803-5.518-3.498c-1.786-1.785-2.971-3.706-3.555-5.763s-0.507-4.139,0.229-6.243
			c0.582-1.636,1.809-3.393,3.683-5.268c1.808-1.807,3.324-2.995,4.547-3.564c1.225-0.569,2.477-0.806,3.756-0.708
			c1.279,0.095,2.596,0.522,3.949,1.281l-4.006,5.748c-0.817-0.417-1.631-0.549-2.438-0.396c-0.808,0.151-1.582,0.601-2.327,1.346
			c-1.108,1.105-1.606,2.375-1.494,3.804c0.111,1.427,1,2.976,2.666,4.642c1.771,1.77,3.368,2.703,4.792,2.796
			c1.426,0.093,2.733-0.456,3.923-1.646c0.565-0.565,1.023-1.186,1.373-1.862c0.348-0.678,0.657-1.545,0.926-2.6l-1.54-1.54
			L-36.957,295.604z"/>
		<path fill="#006E12" d="M-36.588,274.37l13.546-13.548l3.492,3.494l-8.48,8.479l2.6,2.601l7.866-7.866l3.336,3.336l-7.866,7.867
			l3.225,3.224l8.727-8.724l3.704,3.704l-13.791,13.791L-36.588,274.37z"/>
		<path fill="#006E12" d="M-12.253,250.033l5.067-5.065l16.357,16.358l-5.065,5.065L-12.253,250.033z"/>
		<path fill="#006E12" d="M-3.616,241.397l6.647-6.647l12.517,7.39l-7.407-12.5l6.644-6.643l16.357,16.358l-4.141,4.14
			L14.528,231.02l9.284,15.665l-3.747,3.749l-15.658-9.293l12.475,12.475l-4.141,4.14L-3.616,241.397z"/>
		<path fill="#006E12" d="M41.724,223.374l-5.739,5.737l1.903,3.498l-5.161,5.162l-10.21-22.506l5.514-5.514l22.505,10.21
			l-5.293,5.293L41.724,223.374z M37.139,220.885l-7.688-4.074l4.094,7.667L37.139,220.885z"/>
		<path fill="#006E12" d="M54.028,204.62l-3.404-3.403l7.811-7.811l6.976,6.975c-0.477,2.514-1.105,4.53-1.887,6.047
			c-0.781,1.519-1.96,3.064-3.536,4.64c-1.943,1.943-3.856,3.195-5.742,3.757c-1.887,0.561-3.82,0.525-5.802-0.111
			c-1.983-0.637-3.821-1.804-5.519-3.498c-1.785-1.786-2.971-3.708-3.554-5.764c-0.584-2.057-0.508-4.138,0.229-6.243
			c0.581-1.637,1.809-3.394,3.682-5.267c1.809-1.809,3.325-2.997,4.548-3.566c1.224-0.567,2.476-0.805,3.755-0.707
			c1.278,0.096,2.596,0.523,3.95,1.281l-4.006,5.746c-0.818-0.415-1.631-0.548-2.438-0.395c-0.807,0.152-1.581,0.601-2.326,1.345
			c-1.108,1.107-1.606,2.377-1.495,3.805s1,2.975,2.667,4.642c1.77,1.77,3.367,2.702,4.791,2.796
			c1.426,0.093,2.733-0.456,3.924-1.646c0.565-0.565,1.022-1.186,1.372-1.863c0.349-0.677,0.658-1.543,0.926-2.599l-1.54-1.541
			L54.028,204.62z"/>
		<path fill="#006E12" d="M54.396,183.385l13.546-13.546l3.491,3.493l-8.479,8.479l2.601,2.601l7.867-7.867l3.334,3.337
			l-7.865,7.867l3.225,3.225l8.725-8.727l3.705,3.705l-13.791,13.793L54.396,183.385z"/>
		<path fill="#006E12" d="M78.73,159.05l5.066-5.065l16.359,16.357l-5.066,5.065L78.73,159.05z"/>
		<path fill="#006E12" d="M87.369,150.413l6.646-6.647l12.518,7.391l-7.408-12.501l6.645-6.643l16.355,16.357l-4.139,4.141
			l-12.475-12.476l9.285,15.665l-3.748,3.747l-15.658-9.292l12.475,12.476l-4.139,4.141L87.369,150.413z"/>
		<path fill="#006E12" d="M132.707,132.39l-5.738,5.737l1.902,3.499l-5.16,5.161L113.5,124.28l5.514-5.514l22.504,10.212
			l-5.291,5.293L132.707,132.39z M128.121,129.9l-7.686-4.075l4.094,7.668L128.121,129.9z"/>
		<path fill="#006E12" d="M145.012,113.635l-3.404-3.403l7.813-7.811l6.973,6.975c-0.477,2.515-1.104,4.529-1.885,6.048
			c-0.781,1.517-1.961,3.064-3.537,4.64c-1.941,1.942-3.855,3.195-5.742,3.756c-1.885,0.562-3.818,0.524-5.801-0.111
			c-1.984-0.637-3.822-1.803-5.518-3.499c-1.785-1.785-2.971-3.705-3.555-5.763s-0.508-4.139,0.229-6.242
			c0.58-1.637,1.807-3.394,3.682-5.268c1.809-1.808,3.324-2.997,4.547-3.564c1.227-0.568,2.477-0.807,3.756-0.708
			c1.279,0.096,2.594,0.523,3.949,1.281l-4.006,5.747c-0.816-0.415-1.629-0.549-2.438-0.396c-0.807,0.151-1.582,0.601-2.328,1.344
			c-1.105,1.109-1.605,2.377-1.494,3.806c0.111,1.427,1,2.976,2.668,4.641c1.77,1.771,3.365,2.703,4.793,2.798
			c1.424,0.092,2.732-0.457,3.92-1.648c0.564-0.565,1.023-1.186,1.373-1.861c0.35-0.68,0.66-1.546,0.926-2.602l-1.539-1.538
			L145.012,113.635z"/>
		<path fill="#006E12" d="M145.379,92.4l13.549-13.547l3.492,3.493l-8.482,8.48l2.602,2.6l7.865-7.865l3.336,3.335l-7.865,7.868
			l3.225,3.223l8.727-8.726l3.705,3.705l-13.793,13.792L145.379,92.4z"/>
		<path fill="#006E12" d="M169.717,68.065l5.064-5.066l16.357,16.358l-5.064,5.065L169.717,68.065z"/>
		<path fill="#006E12" d="M178.352,59.428L185,52.78l12.518,7.39l-7.408-12.5l6.643-6.644l16.359,16.358l-4.141,4.14l-12.475-12.475
			l9.285,15.664l-3.746,3.748l-15.658-9.291l12.473,12.476l-4.139,4.139L178.352,59.428z"/>
		<path fill="#006E12" d="M223.691,41.403l-5.738,5.739l1.904,3.498l-5.16,5.162l-10.211-22.507L210,27.782l22.504,10.21
			l-5.295,5.292L223.691,41.403z M219.105,38.916l-7.686-4.075l4.094,7.668L219.105,38.916z"/>
		<path fill="#006E12" d="M235.998,22.65l-3.404-3.403l7.809-7.812l6.975,6.975c-0.475,2.515-1.104,4.53-1.885,6.048
			c-0.781,1.517-1.959,3.065-3.537,4.641c-1.941,1.942-3.855,3.194-5.74,3.755c-1.885,0.562-3.82,0.525-5.803-0.112
			c-1.982-0.636-3.822-1.802-5.52-3.498c-1.783-1.786-2.969-3.708-3.553-5.764c-0.584-2.056-0.506-4.137,0.229-6.243
			c0.58-1.637,1.809-3.392,3.682-5.267c1.809-1.808,3.324-2.997,4.549-3.564c1.223-0.57,2.473-0.807,3.754-0.709
			c1.279,0.096,2.598,0.525,3.951,1.284l-4.008,5.745c-0.818-0.415-1.631-0.548-2.438-0.395c-0.807,0.153-1.582,0.601-2.324,1.345
			c-1.111,1.108-1.607,2.375-1.498,3.804c0.113,1.428,1.002,2.977,2.668,4.642c1.77,1.771,3.367,2.703,4.793,2.795
			c1.424,0.092,2.73-0.456,3.922-1.646c0.564-0.565,1.023-1.186,1.371-1.863c0.35-0.677,0.658-1.543,0.928-2.6l-1.543-1.54
			L235.998,22.65z"/>
		<path fill="#006E12" d="M236.365,1.416L249.91-12.13l3.492,3.492l-8.479,8.481l2.6,2.599l7.865-7.866l3.338,3.336l-7.867,7.867
			l3.225,3.224l8.727-8.725l3.703,3.705l-13.789,13.791L236.365,1.416z"/>
		<path fill="#006E12" d="M260.701-22.92l5.064-5.065l16.359,16.357l-5.064,5.067L260.701-22.92z"/>
		<path fill="#006E12" d="M269.338-31.557l6.646-6.648l12.518,7.391l-7.406-12.5l6.643-6.644l16.357,16.358l-4.141,4.14
			L287.48-41.934l9.287,15.665l-3.748,3.748l-15.66-9.292l12.477,12.475l-4.141,4.14L269.338-31.557z"/>
		<path fill="#006E12" d="M314.678-49.581l-5.74,5.739l1.904,3.498l-5.162,5.162l-10.209-22.506l5.514-5.514l22.504,10.211
			l-5.291,5.292L314.678-49.581z M310.09-52.068l-7.684-4.076l4.092,7.668L310.09-52.068z"/>
		<path fill="#006E12" d="M326.982-68.334l-3.404-3.403l7.811-7.812l6.977,6.974c-0.477,2.515-1.107,4.531-1.887,6.048
			c-0.781,1.518-1.961,3.065-3.537,4.641c-1.943,1.942-3.855,3.194-5.742,3.756c-1.885,0.561-3.82,0.524-5.801-0.112
			c-1.984-0.636-3.822-1.802-5.518-3.499c-1.787-1.785-2.971-3.707-3.557-5.763c-0.582-2.057-0.508-4.137,0.229-6.242
			c0.582-1.639,1.811-3.394,3.682-5.268c1.811-1.808,3.324-2.997,4.549-3.565c1.225-0.569,2.475-0.806,3.756-0.708
			c1.277,0.096,2.594,0.524,3.949,1.283l-4.006,5.745c-0.818-0.415-1.631-0.548-2.438-0.395c-0.807,0.152-1.584,0.6-2.328,1.344
			c-1.107,1.108-1.605,2.376-1.494,3.805c0.109,1.428,1,2.975,2.666,4.642c1.77,1.77,3.367,2.703,4.793,2.795
			c1.424,0.093,2.732-0.456,3.922-1.646c0.564-0.566,1.023-1.187,1.373-1.863c0.35-0.678,0.656-1.544,0.926-2.6l-1.541-1.54
			L326.982-68.334z"/>
		<path fill="#006E12" d="M327.348-89.568l13.549-13.547l3.492,3.493l-8.482,8.48l2.602,2.6l7.867-7.866l3.336,3.335l-7.867,7.867
			l3.225,3.226l8.727-8.727l3.705,3.705L343.709-73.21L327.348-89.568z"/>
		<path fill="#006E12" d="M351.686-113.906l5.066-5.065l16.357,16.358l-5.066,5.067L351.686-113.906z"/>
		<path fill="#006E12" d="M360.322-122.541l6.648-6.649l12.516,7.391l-7.408-12.5l6.645-6.643l16.357,16.359l-4.139,4.14
			l-12.475-12.476l9.283,15.666l-3.746,3.748l-15.658-9.292l12.475,12.476l-4.139,4.14L360.322-122.541z"/>
		<path fill="#006E12" d="M405.662-140.566l-5.74,5.738l1.904,3.499l-5.16,5.161l-10.211-22.506l5.514-5.514l22.506,10.212
			l-5.293,5.292L405.662-140.566z M401.076-143.054l-7.686-4.075l4.094,7.668L401.076-143.054z"/>
		<path fill="#006E12" d="M417.967-159.319l-3.404-3.403l7.811-7.812l6.975,6.976c-0.477,2.514-1.105,4.53-1.887,6.047
			c-0.781,1.518-1.959,3.064-3.537,4.642c-1.939,1.941-3.854,3.193-5.74,3.755c-1.885,0.561-3.818,0.524-5.803-0.112
			c-1.982-0.637-3.82-1.802-5.518-3.498c-1.785-1.786-2.971-3.707-3.553-5.764c-0.586-2.057-0.508-4.137,0.229-6.243
			c0.58-1.637,1.807-3.393,3.682-5.267c1.807-1.808,3.324-2.997,4.547-3.564c1.223-0.569,2.475-0.807,3.756-0.709
			c1.277,0.096,2.596,0.525,3.949,1.284l-4.006,5.745c-0.818-0.415-1.631-0.548-2.439-0.396c-0.807,0.153-1.582,0.601-2.324,1.345
			c-1.109,1.108-1.607,2.376-1.498,3.805c0.115,1.428,1.002,2.975,2.67,4.642c1.768,1.77,3.367,2.702,4.791,2.795
			c1.424,0.092,2.73-0.456,3.924-1.646c0.566-0.566,1.021-1.187,1.371-1.864c0.35-0.677,0.658-1.543,0.926-2.6l-1.541-1.541
			L417.967-159.319z"/>
		<path fill="#006E12" d="M418.334-180.553l13.545-13.547l3.494,3.492l-8.48,8.48l2.6,2.6l7.867-7.866l3.338,3.336l-7.869,7.866
			l3.227,3.226l8.725-8.726l3.703,3.705l-13.789,13.792L418.334-180.553z"/>
	</g>
</g>
</svg>
