<?xml version="1.0" encoding="utf-8"?>
<!-- Generator: Adobe Illustrator 15.0.2, SVG Export Plug-In . SVG Version: 6.00 Build 0)  -->
<!DOCTYPE svg PUBLIC "-//W3C//DTD SVG 1.1//EN" "http://www.w3.org/Graphics/SVG/1.1/DTD/svg11.dtd">
<svg version="1.1" id="Calque_1" xmlns="http://www.w3.org/2000/svg" xmlns:xlink="http://www.w3.org/1999/xlink" x="0px" y="0px"
	 width="339.957px" height="219.973px" viewBox="0 0 339.957 219.973" enable-background="new 0 0 339.957 219.973"
	 xml:space="preserve">
<rect x="-63.132" y="-3.791" fill="#FFF5F5" width="466.221" height="227.555"/>
<g>
	<g opacity="0.15">
		<path fill="#006E12" d="M-549.866,458.501l10.013-10.012l32.332,32.332l-10.011,10.012L-549.866,458.501z"/>
		<path fill="#006E12" d="M-532.796,441.432l13.14-13.14l24.736,14.609l-14.641-24.707l13.131-13.13l32.332,32.329l-8.184,8.188
			l-24.655-24.658l18.352,30.962l-7.407,7.408l-30.947-18.366l24.654,24.657l-8.182,8.182L-532.796,441.432z"/>
		<path fill="#006E12" d="M-443.184,405.808l-11.341,11.342l3.76,6.914l-10.201,10.2l-20.18-44.484l10.898-10.897l44.48,20.186
			l-10.461,10.462L-443.184,405.808z M-452.248,400.889l-15.188-8.054l8.093,15.154L-452.248,400.889z"/>
		<path fill="#006E12" d="M-418.863,368.741l-6.727-6.729l15.437-15.438l13.786,13.784c-0.94,4.968-2.184,8.952-3.726,11.951
			c-1.545,2.999-3.877,6.058-6.992,9.174c-3.84,3.839-7.622,6.314-11.349,7.423c-3.727,1.109-7.551,1.038-11.468-0.219
			c-3.92-1.26-7.552-3.564-10.906-6.915c-3.529-3.527-5.871-7.324-7.025-11.392c-1.155-4.064-1.004-8.177,0.452-12.339
			c1.146-3.234,3.575-6.706,7.276-10.41c3.574-3.573,6.571-5.921,8.99-7.046c2.42-1.123,4.89-1.59,7.419-1.397
			c2.527,0.188,5.133,1.033,7.807,2.532l-7.916,11.357c-1.616-0.823-3.223-1.082-4.817-0.782c-1.596,0.301-3.129,1.187-4.599,2.657
			c-2.19,2.188-3.175,4.698-2.955,7.521c0.221,2.821,1.978,5.882,5.271,9.174c3.499,3.499,6.655,5.342,9.472,5.525
			c2.815,0.183,5.4-0.899,7.754-3.253c1.119-1.118,2.022-2.343,2.711-3.683c0.69-1.339,1.302-3.051,1.832-5.139l-3.043-3.045
			L-418.863,368.741z"/>
		<path fill="#006E12" d="M-418.134,326.769l26.772-26.774l6.903,6.904l-16.76,16.763l5.138,5.137l15.548-15.546l6.593,6.592
			l-15.548,15.55l6.373,6.372l17.248-17.242l7.321,7.322l-27.259,27.259L-418.134,326.769z"/>
		<path fill="#006E12" d="M-370.034,278.671l10.012-10.012l32.335,32.33L-337.699,311L-370.034,278.671z"/>
		<path fill="#006E12" d="M-352.964,261.599l13.139-13.138l24.738,14.608l-14.642-24.704l13.133-13.133l32.33,32.332l-8.183,8.184
			l-24.655-24.658l18.354,30.962l-7.408,7.408l-30.948-18.365l24.656,24.657l-8.183,8.181L-352.964,261.599z"/>
		<path fill="#006E12" d="M-263.351,225.975l-11.342,11.342l3.762,6.915l-10.201,10.202l-20.182-44.483l10.898-10.898l44.481,20.183
			l-10.46,10.463L-263.351,225.975z M-272.415,221.057l-15.19-8.055l8.091,15.155L-272.415,221.057z"/>
		<path fill="#006E12" d="M-239.03,188.908l-6.727-6.726l15.437-15.441l13.786,13.784c-0.94,4.97-2.183,8.954-3.727,11.953
			c-1.543,2.998-3.874,6.059-6.992,9.172c-3.839,3.84-7.62,6.315-11.347,7.427c-3.729,1.108-7.552,1.032-11.47-0.223
			c-3.918-1.256-7.553-3.563-10.905-6.915c-3.528-3.527-5.872-7.323-7.025-11.39c-1.154-4.063-1.004-8.179,0.451-12.34
			c1.147-3.233,3.574-6.703,7.277-10.41c3.576-3.57,6.571-5.922,8.989-7.048c2.42-1.123,4.89-1.59,7.42-1.396
			c2.528,0.188,5.134,1.036,7.808,2.532l-7.918,11.356c-1.616-0.823-3.223-1.083-4.817-0.781c-1.598,0.301-3.131,1.188-4.599,2.658
			c-2.191,2.188-3.176,4.695-2.955,7.52c0.22,2.819,1.979,5.88,5.271,9.175c3.498,3.497,6.658,5.342,9.471,5.521
			c2.815,0.186,5.4-0.896,7.754-3.248c1.118-1.119,2.022-2.345,2.712-3.684c0.69-1.339,1.303-3.054,1.831-5.139l-3.045-3.045
			L-239.03,188.908z"/>
		<path fill="#006E12" d="M-238.303,146.94l26.774-26.774l6.904,6.904l-16.763,16.759l5.138,5.138l15.548-15.548l6.593,6.596
			l-15.548,15.547l6.372,6.374l17.249-17.244l7.321,7.322l-27.261,27.259L-238.303,146.94z"/>
		<path fill="#006E12" d="M-190.202,98.838l10.012-10.013l32.333,32.331l-10.013,10.011L-190.202,98.838z"/>
		<path fill="#006E12" d="M-173.132,81.769l13.138-13.14l24.738,14.607l-14.641-24.705l13.131-13.131l32.33,32.333l-8.182,8.183
			l-24.655-24.657l18.353,30.961l-7.407,7.407l-30.948-18.366l24.655,24.657l-8.184,8.184L-173.132,81.769z"/>
		<path fill="#006E12" d="M-83.519,46.144l-11.344,11.344l3.763,6.913l-10.201,10.203l-20.181-44.484l10.898-10.899l44.48,20.183
			l-10.461,10.462L-83.519,46.144z M-92.584,41.226l-15.189-8.053l8.091,15.153L-92.584,41.226z"/>
		<path fill="#006E12" d="M-59.198,9.077l-6.728-6.728l15.436-15.438l13.787,13.782c-0.941,4.971-2.184,8.954-3.728,11.953
			c-1.545,2.998-3.876,6.059-6.992,9.176c-3.839,3.839-7.62,6.314-11.347,7.422c-3.727,1.11-7.551,1.036-11.47-0.221
			c-3.918-1.257-7.552-3.563-10.905-6.913c-3.528-3.528-5.871-7.326-7.026-11.392c-1.153-4.066-1.005-8.179,0.452-12.338
			c1.145-3.236,3.573-6.706,7.275-10.413c3.575-3.57,6.572-5.921,8.989-7.046c2.42-1.124,4.892-1.591,7.42-1.398
			c2.53,0.19,5.134,1.036,7.809,2.533l-7.918,11.36c-1.615-0.821-3.223-1.083-4.816-0.782c-1.596,0.302-3.131,1.187-4.599,2.658
			c-2.19,2.188-3.175,4.697-2.955,7.52c0.22,2.821,1.978,5.882,5.272,9.174c3.498,3.499,6.655,5.342,9.469,5.525
			c2.816,0.183,5.402-0.9,7.754-3.252c1.119-1.119,2.023-2.344,2.712-3.684c0.69-1.338,1.303-3.052,1.833-5.139l-3.044-3.043
			L-59.198,9.077z"/>
		<path fill="#006E12" d="M-58.471-32.893l26.774-26.774l6.903,6.903l-16.762,16.763l5.138,5.138l15.548-15.548l6.593,6.593
			l-15.546,15.55l6.372,6.372l17.247-17.244l7.323,7.322L-26.14-0.561L-58.471-32.893z"/>
		<path fill="#006E12" d="M-10.372-80.992l10.013-10.012l32.333,32.329L21.961-48.662L-10.372-80.992z"/>
		<path fill="#006E12" d="M6.701-98.064l13.137-13.138l24.739,14.606L29.938-121.3l13.13-13.131l32.331,32.332l-8.182,8.182
			l-24.656-24.658l18.354,30.96l-7.407,7.409L22.559-98.572l24.655,24.658l-8.182,8.183L6.701-98.064z"/>
		<path fill="#006E12" d="M96.314-133.687L84.97-122.344l3.763,6.914l-10.2,10.201L58.35-149.714l10.897-10.897l44.481,20.183
			l-10.461,10.46L96.314-133.687z M87.249-138.605l-15.189-8.056l8.09,15.157L87.249-138.605z"/>
		<path fill="#006E12" d="M120.633-170.754l-6.728-6.728l15.438-15.439l13.784,13.784c-0.94,4.969-2.184,8.956-3.728,11.955
			c-1.543,2.999-3.875,6.055-6.992,9.173c-3.838,3.838-7.62,6.312-11.349,7.422c-3.728,1.109-7.549,1.035-11.467-0.221
			c-3.919-1.257-7.555-3.563-10.907-6.913c-3.529-3.53-5.872-7.326-7.026-11.392c-1.153-4.064-1.004-8.18,0.452-12.338
			c1.146-3.236,3.573-6.706,7.277-10.412c3.574-3.571,6.569-5.92,8.987-7.046c2.421-1.125,4.893-1.591,7.42-1.399
			c2.53,0.191,5.133,1.035,7.809,2.534l-7.917,11.357c-1.618-0.821-3.224-1.083-4.819-0.782c-1.596,0.302-3.129,1.188-4.597,2.658
			c-2.19,2.189-3.177,4.695-2.955,7.52c0.22,2.822,1.978,5.882,5.271,9.176c3.499,3.499,6.657,5.342,9.471,5.526
			c2.816,0.182,5.4-0.902,7.754-3.255c1.117-1.117,2.021-2.344,2.71-3.683c0.691-1.34,1.303-3.051,1.832-5.139l-3.044-3.045
			L120.633-170.754z"/>
		<path fill="#006E12" d="M121.361-212.725l26.774-26.773l6.904,6.903l-16.765,16.761l5.141,5.138l15.548-15.547l6.594,6.593
			l-15.549,15.549l6.373,6.375l17.245-17.246l7.324,7.322l-27.259,27.261L121.361-212.725z"/>
		<path fill="#006E12" d="M169.461-260.825l10.013-10.012l32.329,32.329l-10.009,10.015L169.461-260.825z"/>
		<path fill="#006E12" d="M186.529-277.895l13.14-13.138l24.741,14.604l-14.644-24.704l13.131-13.131l32.332,32.335l-8.181,8.182
			l-24.655-24.658l18.351,30.96l-7.405,7.408l-30.947-18.365l24.654,24.657l-8.18,8.184L186.529-277.895z"/>
		<path fill="#006E12" d="M276.144-313.518L264.8-302.176l3.767,6.913l-10.203,10.201l-20.181-44.483l10.897-10.897l44.481,20.182
			l-10.464,10.463L276.144-313.518z M267.08-318.436l-15.191-8.056l8.093,15.155L267.08-318.436z"/>
		<path fill="#006E12" d="M300.466-350.586l-6.727-6.728l15.437-15.439l13.785,13.785c-0.942,4.972-2.185,8.956-3.729,11.954
			c-1.545,3-3.872,6.056-6.991,9.173c-3.837,3.839-7.622,6.313-11.349,7.422c-3.729,1.11-7.55,1.038-11.468-0.221
			c-3.917-1.259-7.554-3.563-10.906-6.914c-3.528-3.528-5.869-7.324-7.022-11.392c-1.154-4.064-1.004-8.179,0.451-12.337
			c1.147-3.235,3.571-6.706,7.277-10.411c3.57-3.572,6.571-5.922,8.988-7.048c2.416-1.123,4.891-1.591,7.418-1.399
			c2.529,0.191,5.133,1.037,7.808,2.534l-7.918,11.359c-1.617-0.821-3.224-1.085-4.82-0.783c-1.592,0.3-3.126,1.188-4.595,2.659
			c-2.193,2.188-3.175,4.696-2.958,7.52c0.224,2.823,1.979,5.882,5.27,9.175c3.5,3.499,6.659,5.343,9.47,5.525
			c2.818,0.183,5.404-0.9,7.757-3.254c1.117-1.118,2.021-2.344,2.711-3.682c0.692-1.338,1.302-3.052,1.833-5.139l-3.046-3.043
			L300.466-350.586z"/>
		<path fill="#006E12" d="M301.195-392.556l26.771-26.775l6.902,6.903l-16.757,16.763l5.134,5.139l15.551-15.549l6.594,6.595
			l-15.546,15.548l6.372,6.374l17.247-17.244l7.32,7.321l-27.259,27.26L301.195-392.556z"/>
		<path fill="#006E12" d="M349.294-440.656l10.011-10.012l32.332,32.33l-10.014,10.013L349.294-440.656z"/>
		<path fill="#006E12" d="M366.363-457.727l13.138-13.137l24.741,14.606l-14.641-24.704l13.131-13.132l32.33,32.333l-8.182,8.182
			l-24.657-24.657l18.354,30.96l-7.405,7.407l-30.95-18.364l24.656,24.657l-8.182,8.182L366.363-457.727z"/>
		<path fill="#006E12" d="M455.977-493.351l-11.343,11.343l3.759,6.914l-10.197,10.203l-20.18-44.484l10.895-10.899l44.481,20.183
			l-10.462,10.462L455.977-493.351z M446.914-498.27l-15.19-8.055l8.087,15.155L446.914-498.27z"/>
		<path fill="#006E12" d="M480.296-530.419l-6.727-6.727l15.438-15.439l13.785,13.785c-0.939,4.969-2.182,8.954-3.726,11.954
			c-1.545,2.999-3.877,6.057-6.992,9.173c-3.838,3.838-7.622,6.313-11.347,7.422c-3.729,1.109-7.553,1.038-11.47-0.222
			c-3.918-1.256-7.556-3.563-10.905-6.913c-3.53-3.529-5.873-7.326-7.026-11.392c-1.155-4.063-1.003-8.179,0.452-12.339
			c1.146-3.234,3.575-6.705,7.275-10.408c3.574-3.575,6.569-5.925,8.988-7.049c2.421-1.124,4.893-1.592,7.423-1.397
			c2.527,0.188,5.129,1.033,7.806,2.532l-7.916,11.357c-1.62-0.82-3.224-1.082-4.82-0.781c-1.594,0.301-3.128,1.188-4.599,2.659
			c-2.188,2.188-3.176,4.696-2.951,7.519c0.217,2.821,1.975,5.881,5.27,9.175c3.498,3.498,6.654,5.342,9.471,5.526
			c2.816,0.181,5.401-0.901,7.751-3.254c1.117-1.118,2.021-2.345,2.712-3.683c0.691-1.338,1.3-3.052,1.83-5.138l-3.04-3.044
			L480.296-530.419z"/>
		<path fill="#006E12" d="M481.022-572.387l26.778-26.775l6.902,6.903l-16.764,16.761l5.141,5.138l15.549-15.547l6.593,6.593
			l-15.55,15.548l6.375,6.374l17.244-17.246l7.325,7.323l-27.259,27.259L481.022-572.387z"/>
	</g>
	<g opacity="0.15">
		<path fill="#006E12" d="M-578.097,599.651l10.013-10.014l32.334,32.333l-10.014,10.014L-578.097,599.651z"/>
		<path fill="#006E12" d="M-561.025,582.581l13.139-13.139l24.738,14.606l-14.641-24.704l13.131-13.13l32.331,32.33l-8.183,8.181
			l-24.656-24.653l18.35,30.959l-7.406,7.406l-30.946-18.362l24.653,24.656l-8.182,8.183L-561.025,582.581z"/>
		<path fill="#006E12" d="M-471.412,546.957l-11.342,11.341l3.76,6.913l-10.201,10.2l-20.179-44.481l10.897-10.897l44.481,20.183
			l-10.465,10.462L-471.412,546.957z M-480.478,542.037l-15.189-8.052l8.092,15.151L-480.478,542.037z"/>
		<path fill="#006E12" d="M-447.092,509.888l-6.727-6.726l15.437-15.439l13.786,13.783c-0.943,4.97-2.187,8.954-3.728,11.951
			c-1.543,3-3.877,6.061-6.992,9.175c-3.84,3.842-7.622,6.313-11.349,7.423c-3.729,1.108-7.551,1.037-11.468-0.22
			c-3.918-1.257-7.555-3.564-10.907-6.914c-3.528-3.528-5.872-7.326-7.025-11.39c-1.155-4.065-1.004-8.18,0.45-12.342
			c1.148-3.232,3.575-6.702,7.278-10.411c3.573-3.569,6.567-5.919,8.987-7.044c2.421-1.129,4.892-1.592,7.421-1.401
			c2.527,0.191,5.132,1.037,7.806,2.534l-7.916,11.357c-1.616-0.822-3.222-1.082-4.817-0.78c-1.597,0.3-3.129,1.186-4.599,2.653
			c-2.19,2.194-3.175,4.702-2.955,7.523c0.219,2.821,1.977,5.881,5.271,9.174c3.498,3.498,6.655,5.341,9.471,5.524
			c2.815,0.185,5.398-0.9,7.754-3.25c1.116-1.12,2.019-2.349,2.711-3.687c0.691-1.336,1.303-3.052,1.832-5.138l-3.043-3.041
			L-447.092,509.888z"/>
		<path fill="#006E12" d="M-446.362,467.92l26.773-26.775l6.903,6.905l-16.762,16.759l5.138,5.138l15.549-15.546l6.595,6.594
			l-15.548,15.546l6.374,6.375l17.247-17.245l7.321,7.322l-27.259,27.259L-446.362,467.92z"/>
		<path fill="#006E12" d="M-398.263,419.82l10.012-10.016l32.334,32.333l-10.015,10.014L-398.263,419.82z"/>
		<path fill="#006E12" d="M-381.193,402.748l13.14-13.139l24.738,14.604l-14.642-24.701l13.132-13.13l32.331,32.329l-8.183,8.185
			l-24.656-24.657l18.352,30.962l-7.404,7.403l-30.951-18.361l24.659,24.655l-8.183,8.186L-381.193,402.748z"/>
		<path fill="#006E12" d="M-291.579,367.124l-11.344,11.344l3.762,6.913l-10.202,10.198l-20.182-44.481l10.898-10.897l44.481,20.183
			l-10.463,10.461L-291.579,367.124z M-300.645,362.206l-15.19-8.055l8.093,15.152L-300.645,362.206z"/>
		<path fill="#006E12" d="M-267.258,330.058l-6.729-6.728l15.437-15.439l13.787,13.785c-0.944,4.968-2.186,8.952-3.728,11.951
			c-1.544,2.998-3.875,6.059-6.992,9.175c-3.839,3.838-7.619,6.311-11.347,7.42c-3.728,1.112-7.552,1.037-11.469-0.219
			c-3.919-1.258-7.555-3.562-10.905-6.915c-3.529-3.528-5.871-7.324-7.024-11.39c-1.154-4.064-1.006-8.18,0.451-12.343
			c1.146-3.23,3.574-6.702,7.277-10.41c3.575-3.569,6.567-5.919,8.987-7.044c2.421-1.126,4.892-1.592,7.421-1.401
			c2.528,0.191,5.13,1.037,7.807,2.535l-7.917,11.359c-1.616-0.825-3.222-1.086-4.817-0.783c-1.598,0.3-3.131,1.187-4.6,2.654
			c-2.191,2.191-3.176,4.701-2.954,7.522c0.217,2.822,1.975,5.882,5.27,9.176c3.499,3.496,6.657,5.339,9.472,5.523
			c2.816,0.185,5.397-0.901,7.754-3.252c1.115-1.117,2.018-2.345,2.712-3.682c0.689-1.34,1.302-3.053,1.834-5.14l-3.047-3.044
			L-267.258,330.058z"/>
		<path fill="#006E12" d="M-266.531,288.087l26.773-26.775l6.903,6.904l-16.761,16.763l5.139,5.137l15.548-15.549l6.593,6.594
			l-15.548,15.55l6.372,6.374l17.248-17.246l7.323,7.322l-27.26,27.259L-266.531,288.087z"/>
		<path fill="#006E12" d="M-218.432,239.989l10.013-10.017l32.332,32.335l-10.015,10.012L-218.432,239.989z"/>
		<path fill="#006E12" d="M-201.36,222.917l13.137-13.14l24.739,14.605l-14.642-24.703l13.132-13.129l32.331,32.33l-8.184,8.184
			l-24.655-24.657l18.352,30.962l-7.404,7.404l-30.951-18.36l24.658,24.656l-8.184,8.182L-201.36,222.917z"/>
		<path fill="#006E12" d="M-111.747,187.292l-11.344,11.343l3.763,6.914l-10.202,10.201l-20.182-44.482l10.899-10.897l44.481,20.184
			l-10.465,10.461L-111.747,187.292z M-120.813,182.374l-15.188-8.056l8.09,15.153L-120.813,182.374z"/>
		<path fill="#006E12" d="M-87.427,150.229l-6.727-6.728l15.437-15.441l13.782,13.783c-0.941,4.971-2.185,8.955-3.729,11.955
			c-1.541,2.997-3.872,6.056-6.988,9.175c-3.84,3.835-7.621,6.311-11.348,7.419c-3.729,1.112-7.551,1.037-11.468-0.218
			c-3.92-1.259-7.556-3.563-10.906-6.917c-3.53-3.528-5.871-7.323-7.025-11.389c-1.155-4.064-1.005-8.179,0.452-12.341
			c1.146-3.233,3.575-6.703,7.276-10.408c3.574-3.573,6.568-5.922,8.988-7.047c2.418-1.126,4.894-1.591,7.42-1.401
			c2.528,0.194,5.131,1.04,7.81,2.537l-7.918,11.36c-1.617-0.823-3.223-1.086-4.817-0.785c-1.596,0.304-3.131,1.189-4.597,2.657
			c-2.191,2.19-3.177,4.7-2.956,7.521c0.217,2.821,1.976,5.881,5.271,9.174c3.498,3.5,6.655,5.343,9.471,5.524
			c2.815,0.186,5.397-0.898,7.753-3.251c1.116-1.118,2.021-2.349,2.713-3.683c0.69-1.338,1.302-3.053,1.831-5.139l-3.044-3.044
			L-87.427,150.229z"/>
		<path fill="#006E12" d="M-86.7,108.257l26.775-26.774l6.902,6.904l-16.762,16.76l5.139,5.139l15.548-15.548l6.595,6.593
			l-15.548,15.549l6.373,6.374l17.247-17.245l7.324,7.323l-27.263,27.259L-86.7,108.257z"/>
		<path fill="#006E12" d="M-38.601,60.156l10.013-10.014L3.744,82.474L-6.271,92.486L-38.601,60.156z"/>
		<path fill="#006E12" d="M-21.529,43.085l13.139-13.139l24.738,14.605L1.708,19.851L14.839,6.72l32.329,32.331l-8.182,8.184
			L14.33,22.574l18.351,30.962l-7.405,7.405L-5.676,42.578l24.658,24.659l-8.182,8.182L-21.529,43.085z"/>
		<path fill="#006E12" d="M68.084,7.462L56.739,18.805l3.763,6.915L50.301,35.918L30.122-8.563L41.02-19.461L85.501,0.721
			l-10.464,10.46L68.084,7.462z M59.019,2.543L43.829-5.511L51.92,9.642L59.019,2.543z"/>
		<path fill="#006E12" d="M92.403-29.603l-6.729-6.728l15.439-15.44l13.784,13.783c-0.942,4.971-2.186,8.955-3.73,11.952
			c-1.54,3-3.871,6.06-6.989,9.176c-3.838,3.839-7.62,6.31-11.347,7.42c-3.728,1.112-7.549,1.037-11.466-0.22
			c-3.92-1.258-7.559-3.563-10.908-6.916c-3.529-3.525-5.872-7.324-7.024-11.389c-1.154-4.064-1.006-8.179,0.451-12.34
			c1.146-3.234,3.574-6.703,7.278-10.41c3.573-3.571,6.566-5.922,8.986-7.048c2.417-1.125,4.893-1.591,7.42-1.4
			c2.529,0.193,5.131,1.038,7.808,2.537l-7.914,11.359c-1.617-0.824-3.224-1.085-4.818-0.783c-1.596,0.302-3.129,1.187-4.599,2.656
			c-2.19,2.19-3.174,4.698-2.955,7.521c0.22,2.823,1.976,5.882,5.272,9.176c3.499,3.499,6.656,5.34,9.471,5.522
			c2.816,0.184,5.397-0.899,7.754-3.252c1.114-1.118,2.018-2.347,2.71-3.683c0.693-1.338,1.304-3.053,1.834-5.139l-3.046-3.045
			L92.403-29.603z"/>
		<path fill="#006E12" d="M93.132-71.576l26.775-26.772l6.902,6.901l-16.763,16.763l5.139,5.137l15.548-15.548l6.594,6.594
			l-15.548,15.549l6.374,6.373l17.248-17.245l7.322,7.322l-27.262,27.261L93.132-71.576z"/>
		<path fill="#006E12" d="M141.231-119.676l10.012-10.015l32.332,32.334l-10.013,10.012L141.231-119.676z"/>
		<path fill="#006E12" d="M158.303-136.746l13.138-13.138l24.738,14.604l-14.64-24.703l13.133-13.131l32.329,32.33l-8.183,8.183
			l-24.658-24.654l18.354,30.96l-7.403,7.406l-30.951-18.363l24.655,24.657l-8.184,8.183L158.303-136.746z"/>
		<path fill="#006E12" d="M247.917-172.371l-11.344,11.342l3.759,6.914l-10.198,10.199l-20.181-44.481l10.895-10.899l44.481,20.185
			l-10.46,10.461L247.917-172.371z M238.853-177.287l-15.19-8.056l8.087,15.153L238.853-177.287z"/>
		<path fill="#006E12" d="M272.234-209.437l-6.728-6.725l15.438-15.439l13.784,13.783c-0.939,4.969-2.183,8.955-3.726,11.953
			c-1.546,2.999-3.877,6.058-6.989,9.175c-3.839,3.839-7.621,6.312-11.349,7.421c-3.729,1.112-7.552,1.037-11.469-0.219
			c-3.919-1.258-7.555-3.563-10.904-6.914c-3.529-3.529-5.872-7.325-7.028-11.391c-1.157-4.064-1.004-8.18,0.45-12.342
			c1.147-3.232,3.577-6.703,7.279-10.409c3.577-3.572,6.568-5.922,8.987-7.047c2.418-1.126,4.893-1.591,7.423-1.399
			c2.529,0.191,5.129,1.037,7.806,2.535l-7.916,11.357c-1.617-0.822-3.224-1.082-4.819-0.781c-1.596,0.3-3.129,1.188-4.6,2.656
			c-2.189,2.19-3.176,4.699-2.953,7.521c0.22,2.824,1.977,5.881,5.272,9.176c3.497,3.499,6.653,5.34,9.47,5.522
			c2.816,0.185,5.398-0.898,7.751-3.251c1.117-1.118,2.021-2.347,2.712-3.683c0.69-1.34,1.3-3.052,1.829-5.139l-3.04-3.044
			L272.234-209.437z"/>
		<path fill="#006E12" d="M272.961-251.407l26.779-26.774l6.904,6.903l-16.767,16.762l5.144,5.138l15.546-15.547l6.592,6.594
			l-15.547,15.548l6.373,6.374l17.247-17.247l7.324,7.322l-27.26,27.26L272.961-251.407z"/>
		<path fill="#006E12" d="M321.063-299.508l10.014-10.015l32.332,32.333l-10.014,10.012L321.063-299.508z"/>
		<path fill="#006E12" d="M338.133-316.579l13.141-13.14l24.738,14.605l-14.643-24.703l13.131-13.131l32.334,32.331l-8.183,8.182
			l-24.655-24.654l18.351,30.962l-7.403,7.403l-30.951-18.361l24.657,24.658l-8.183,8.182L338.133-316.579z"/>
		<path fill="#006E12" d="M427.747-352.203l-11.343,11.344l3.765,6.913l-10.206,10.2l-20.18-44.481l10.901-10.897l44.48,20.183
			l-10.464,10.462L427.747-352.203z M418.685-357.121l-15.194-8.053l8.094,15.152L418.685-357.121z"/>
		<path fill="#006E12" d="M452.068-389.268l-6.729-6.727l15.44-15.439l13.782,13.782c-0.94,4.971-2.184,8.955-3.726,11.954
			c-1.546,2.999-3.873,6.058-6.993,9.175c-3.835,3.839-7.619,6.313-11.348,7.423c-3.729,1.111-7.548,1.035-11.47-0.22
			c-3.918-1.259-7.552-3.564-10.904-6.914c-3.529-3.528-5.869-7.325-7.024-11.392c-1.154-4.065-1.002-8.179,0.452-12.341
			c1.146-3.232,3.572-6.703,7.276-10.409c3.572-3.571,6.569-5.921,8.988-7.046c2.417-1.123,4.893-1.591,7.42-1.4
			c2.528,0.192,5.132,1.038,7.806,2.536l-7.918,11.357c-1.617-0.824-3.226-1.085-4.817-0.782c-1.596,0.302-3.127,1.187-4.597,2.657
			c-2.194,2.188-3.174,4.698-2.958,7.521c0.221,2.822,1.978,5.881,5.271,9.175c3.498,3.499,6.658,5.341,9.471,5.523
			c2.817,0.184,5.401-0.9,7.752-3.252c1.118-1.119,2.021-2.347,2.714-3.684c0.688-1.339,1.304-3.05,1.829-5.139l-3.044-3.043
			L452.068-389.268z"/>
		<path fill="#006E12" d="M452.794-431.238l26.773-26.774l6.904,6.903l-16.761,16.763l5.137,5.138l15.549-15.548l6.597,6.593
			l-15.548,15.548l6.374,6.373l17.247-17.244l7.319,7.323l-27.258,27.26L452.794-431.238z"/>
		<path fill="#006E12" d="M500.895-479.34l10.011-10.012l32.336,32.329l-10.014,10.013L500.895-479.34z"/>
		<path fill="#006E12" d="M517.965-496.411l13.139-13.138l24.738,14.605l-14.639-24.703l13.13-13.131l32.333,32.33l-8.184,8.183
			l-24.656-24.655l18.353,30.961l-7.403,7.404l-30.951-18.362l24.654,24.658l-8.182,8.182L517.965-496.411z"/>
		<path fill="#006E12" d="M607.581-532.034l-11.343,11.342l3.759,6.914l-10.198,10.202l-20.181-44.484l10.894-10.898l44.481,20.184
			l-10.46,10.46L607.581-532.034z M598.515-536.951l-15.19-8.055l8.089,15.153L598.515-536.951z"/>
		<path fill="#006E12" d="M631.897-569.099l-6.727-6.727l15.439-15.44l13.783,13.783c-0.938,4.971-2.183,8.954-3.726,11.954
			c-1.543,2.998-3.877,6.059-6.989,9.174c-3.838,3.838-7.622,6.312-11.348,7.422c-3.728,1.109-7.551,1.035-11.467-0.221
			c-3.922-1.258-7.558-3.563-10.906-6.914c-3.53-3.528-5.875-7.327-7.03-11.392c-1.154-4.063-1.002-8.179,0.452-12.339
			c1.15-3.234,3.577-6.705,7.28-10.41c3.573-3.572,6.567-5.921,8.985-7.046c2.419-1.124,4.894-1.591,7.425-1.401
			c2.525,0.192,5.131,1.037,7.805,2.536l-7.916,11.357c-1.619-0.823-3.225-1.085-4.818-0.781c-1.596,0.302-3.128,1.187-4.599,2.655
			c-2.188,2.193-3.177,4.7-2.955,7.523c0.219,2.822,1.978,5.881,5.27,9.175c3.502,3.499,6.656,5.342,9.473,5.523
			c2.815,0.184,5.398-0.899,7.751-3.251c1.117-1.118,2.022-2.345,2.713-3.684c0.689-1.339,1.299-3.053,1.829-5.14l-3.045-3.042
			L631.897-569.099z"/>
		<path fill="#006E12" d="M632.624-611.071l26.778-26.774l6.902,6.904l-16.763,16.76l5.141,5.139l15.548-15.548l6.593,6.594
			l-15.552,15.547l6.377,6.374l17.246-17.245l7.324,7.321l-27.258,27.26L632.624-611.071z"/>
	</g>
	<g opacity="0.15">
		<path fill="#006E12" d="M-436.947,571.422l10.012-10.014l32.333,32.332l-10.016,10.011L-436.947,571.422z"/>
		<path fill="#006E12" d="M-419.878,554.35l13.139-13.139l24.742,14.606l-14.643-24.701l13.131-13.13l32.333,32.329l-8.184,8.182
			l-24.658-24.656l18.353,30.965l-7.404,7.403l-30.949-18.362l24.656,24.653l-8.182,8.186L-419.878,554.35z"/>
		<path fill="#006E12" d="M-330.262,518.726l-11.343,11.346l3.76,6.908l-10.201,10.203l-20.18-44.484l10.897-10.896l44.479,20.184
			l-10.463,10.462L-330.262,518.726z M-339.329,513.808l-15.188-8.051l8.093,15.151L-339.329,513.808z"/>
		<path fill="#006E12" d="M-305.944,481.659l-6.727-6.728l15.438-15.436l13.782,13.781c-0.939,4.97-2.181,8.954-3.725,11.951
			c-1.544,2.999-3.875,6.061-6.992,9.177c-3.836,3.833-7.619,6.311-11.347,7.421c-3.726,1.108-7.55,1.036-11.47-0.22
			c-3.917-1.257-7.554-3.563-10.906-6.914c-3.526-3.529-5.87-7.326-7.022-11.391c-1.155-4.067-1.003-8.18,0.452-12.341
			c1.146-3.233,3.572-6.706,7.276-10.409c3.574-3.575,6.569-5.921,8.989-7.044c2.416-1.127,4.892-1.594,7.421-1.405
			c2.526,0.195,5.129,1.038,7.806,2.539l-7.916,11.357c-1.619-0.823-3.228-1.085-4.818-0.785c-1.596,0.304-3.129,1.188-4.601,2.658
			c-2.189,2.19-3.174,4.699-2.957,7.522c0.224,2.819,1.98,5.877,5.273,9.172c3.499,3.5,6.658,5.341,9.475,5.524
			c2.814,0.187,5.397-0.898,7.75-3.253c1.116-1.115,2.022-2.344,2.713-3.684c0.69-1.334,1.302-3.05,1.829-5.138l-3.043-3.045
			L-305.944,481.659z"/>
		<path fill="#006E12" d="M-305.216,439.691l26.773-26.774l6.903,6.903l-16.759,16.76l5.138,5.138l15.547-15.549l6.595,6.595
			l-15.547,15.549l6.373,6.372l17.246-17.246l7.322,7.324l-27.259,27.259L-305.216,439.691z"/>
		<path fill="#006E12" d="M-257.115,391.593l10.012-10.018l32.33,32.333l-10.011,10.011L-257.115,391.593z"/>
		<path fill="#006E12" d="M-240.047,374.52l13.139-13.139l24.74,14.605l-14.64-24.702l13.132-13.132l32.33,32.33l-8.183,8.182
			l-24.658-24.653l18.352,30.96l-7.403,7.405l-30.952-18.362l24.657,24.654l-8.181,8.181L-240.047,374.52z"/>
		<path fill="#006E12" d="M-150.431,338.896l-11.343,11.343l3.762,6.908l-10.201,10.203l-20.181-44.484l10.897-10.895l44.479,20.183
			l-10.461,10.462L-150.431,338.896z M-159.495,333.978l-15.193-8.056l8.095,15.153L-159.495,333.978z"/>
		<path fill="#006E12" d="M-126.113,301.826l-6.727-6.729l15.439-15.436l13.783,13.783c-0.94,4.969-2.184,8.954-3.727,11.952
			c-1.544,2.998-3.872,6.059-6.991,9.177c-3.837,3.833-7.619,6.309-11.345,7.42c-3.729,1.108-7.552,1.037-11.472-0.221
			c-3.917-1.256-7.552-3.563-10.906-6.913c-3.526-3.528-5.87-7.326-7.022-11.391c-1.155-4.067-1.004-8.179,0.453-12.341
			c1.145-3.233,3.571-6.703,7.275-10.409c3.575-3.575,6.567-5.92,8.988-7.045c2.417-1.126,4.89-1.592,7.419-1.399
			c2.53,0.19,5.132,1.036,7.809,2.534l-7.917,11.357c-1.62-0.823-3.226-1.082-4.818-0.781c-1.596,0.303-3.131,1.188-4.602,2.654
			c-2.188,2.19-3.173,4.699-2.956,7.521c0.221,2.824,1.978,5.881,5.271,9.177c3.502,3.497,6.66,5.337,9.475,5.523
			c2.815,0.184,5.397-0.9,7.751-3.252c1.119-1.117,2.022-2.347,2.713-3.686c0.691-1.336,1.303-3.051,1.831-5.139l-3.044-3.044
			L-126.113,301.826z"/>
		<path fill="#006E12" d="M-125.385,259.859l26.773-26.775l6.903,6.904l-16.759,16.759l5.138,5.141l15.548-15.552l6.593,6.597
			l-15.548,15.547l6.374,6.376l17.244-17.247l7.324,7.324l-27.259,27.257L-125.385,259.859z"/>
		<path fill="#006E12" d="M-77.282,211.759l10.013-10.015l32.329,32.334l-10.013,10.012L-77.282,211.759z"/>
		<path fill="#006E12" d="M-60.216,194.687l13.14-13.138l24.741,14.606l-14.642-24.702l13.132-13.132l32.329,32.33l-8.182,8.183
			l-24.659-24.655l18.354,30.961l-7.405,7.404l-30.951-18.36l24.658,24.654l-8.184,8.182L-60.216,194.687z"/>
		<path fill="#006E12" d="M29.4,159.063l-11.343,11.344l3.763,6.911L11.619,187.52l-20.181-44.483l10.897-10.896l44.48,20.182
			l-10.462,10.464L29.4,159.063z M20.336,154.146l-15.19-8.054l8.093,15.153L20.336,154.146z"/>
		<path fill="#006E12" d="M53.72,121.993l-6.727-6.725l15.438-15.437l13.785,13.782c-0.94,4.968-2.184,8.954-3.729,11.952
			c-1.543,2.999-3.872,6.059-6.992,9.176c-3.836,3.836-7.617,6.311-11.345,7.421c-3.727,1.108-7.552,1.037-11.471-0.223
			c-3.917-1.254-7.554-3.561-10.906-6.913c-3.526-3.525-5.869-7.324-7.022-11.389c-1.152-4.064-1.005-8.178,0.452-12.342
			c1.145-3.232,3.57-6.703,7.276-10.409c3.575-3.574,6.567-5.921,8.987-7.046c2.418-1.127,4.892-1.591,7.421-1.402
			c2.53,0.192,5.13,1.038,7.808,2.537l-7.916,11.358c-1.621-0.824-3.227-1.083-4.819-0.783c-1.596,0.303-3.131,1.186-4.601,2.656
			c-2.187,2.189-3.173,4.7-2.954,7.521c0.22,2.822,1.978,5.881,5.27,9.175c3.501,3.5,6.658,5.341,9.475,5.523
			c2.816,0.187,5.397-0.9,7.751-3.249c1.117-1.118,2.021-2.347,2.713-3.688c0.691-1.335,1.303-3.05,1.829-5.139l-3.043-3.042
			L53.72,121.993z"/>
		<path fill="#006E12" d="M54.446,80.027l26.775-26.774l6.903,6.904L71.364,76.918l5.138,5.138L92.05,66.508l6.595,6.594
			L83.097,88.65l6.371,6.372l17.247-17.247l7.325,7.325l-27.26,27.257L54.446,80.027z"/>
		<path fill="#006E12" d="M102.549,31.927l10.012-10.015l32.332,32.332L134.88,64.257L102.549,31.927z"/>
		<path fill="#006E12" d="M119.618,14.856l13.139-13.138l24.74,14.604l-14.642-24.7l13.133-13.132l32.331,32.33l-8.183,8.184
			L155.478-5.654l18.354,30.963l-7.407,7.404l-30.952-18.362l24.658,24.654l-8.182,8.184L119.618,14.856z"/>
		<path fill="#006E12" d="M209.23-20.767L197.889-9.427l3.764,6.914l-10.205,10.2l-20.177-44.484l10.896-10.896l44.479,20.182
			l-10.46,10.461L209.23-20.767z M200.165-25.685l-15.189-8.057l8.094,15.153L200.165-25.685z"/>
		<path fill="#006E12" d="M233.551-57.835l-6.728-6.727l15.438-15.44l13.785,13.785c-0.938,4.969-2.182,8.954-3.728,11.952
			c-1.542,2.999-3.872,6.058-6.989,9.176c-3.835,3.835-7.62,6.311-11.349,7.42c-3.727,1.11-7.548,1.038-11.469-0.222
			c-3.918-1.253-7.554-3.56-10.905-6.913c-3.53-3.527-5.869-7.324-7.024-11.389c-1.153-4.064-1.003-8.181,0.453-12.34
			c1.143-3.233,3.57-6.703,7.276-10.41c3.572-3.574,6.569-5.92,8.986-7.046c2.418-1.126,4.895-1.591,7.418-1.402
			c2.533,0.194,5.133,1.038,7.808,2.537l-7.916,11.36c-1.617-0.823-3.223-1.084-4.817-0.782c-1.596,0.303-3.131,1.188-4.599,2.655
			c-2.191,2.192-3.177,4.699-2.957,7.522c0.222,2.823,1.979,5.88,5.271,9.176c3.499,3.498,6.657,5.337,9.471,5.523
			c2.817,0.184,5.401-0.899,7.753-3.252c1.118-1.117,2.023-2.348,2.711-3.683c0.692-1.338,1.306-3.052,1.833-5.142l-3.045-3.044
			L233.551-57.835z"/>
		<path fill="#006E12" d="M234.279-99.805l26.774-26.773l6.904,6.903l-16.76,16.762l5.134,5.139l15.549-15.547l6.597,6.594
			L262.93-91.18l6.372,6.374l17.245-17.246l7.325,7.322l-27.261,27.257L234.279-99.805z"/>
		<path fill="#006E12" d="M282.382-147.905l10.013-10.015l32.329,32.333l-10.011,10.012L282.382-147.905z"/>
		<path fill="#006E12" d="M299.449-164.974l13.14-13.139l24.737,14.604l-14.637-24.701l13.129-13.132l32.33,32.332l-8.182,8.182
			l-24.657-24.656l18.355,30.961l-7.406,7.405L315.31-165.48l24.654,24.654l-8.183,8.183L299.449-164.974z"/>
		<path fill="#006E12" d="M389.063-200.6l-11.339,11.344l3.758,6.913l-10.2,10.2l-20.179-44.481l10.894-10.897l44.481,20.181
			l-10.462,10.463L389.063-200.6z M379.999-205.517l-15.19-8.056l8.091,15.153L379.999-205.517z"/>
		<path fill="#006E12" d="M413.383-237.665l-6.728-6.729l15.44-15.438l13.783,13.782c-0.942,4.971-2.185,8.955-3.728,11.952
			c-1.542,2.999-3.875,6.059-6.991,9.176c-3.838,3.836-7.619,6.31-11.346,7.418c-3.726,1.111-7.555,1.038-11.471-0.221
			c-3.917-1.253-7.554-3.561-10.905-6.914c-3.529-3.527-5.871-7.323-7.026-11.389c-1.156-4.065-1.004-8.179,0.452-12.342
			c1.149-3.233,3.574-6.702,7.278-10.408c3.576-3.572,6.567-5.922,8.986-7.048s4.893-1.591,7.422-1.4
			c2.527,0.193,5.13,1.038,7.807,2.536l-7.917,11.358c-1.618-0.823-3.226-1.084-4.817-0.782c-1.597,0.301-3.131,1.188-4.601,2.655
			c-2.191,2.192-3.176,4.699-2.956,7.523c0.221,2.822,1.979,5.879,5.271,9.174c3.501,3.499,6.656,5.339,9.474,5.524
			c2.812,0.185,5.399-0.9,7.749-3.251c1.119-1.118,2.023-2.348,2.714-3.683c0.691-1.338,1.301-3.052,1.829-5.142l-3.042-3.041
			L413.383-237.665z"/>
		<path fill="#006E12" d="M414.111-279.637l26.775-26.774l6.903,6.902l-16.762,16.762l5.14,5.139l15.549-15.548l6.593,6.594
			l-15.549,15.549l6.373,6.372l17.246-17.244l7.325,7.321l-27.258,27.258L414.111-279.637z"/>
		<path fill="#006E12" d="M462.21-327.737l10.013-10.016l32.334,32.335l-10.012,10.012L462.21-327.737z"/>
		<path fill="#006E12" d="M479.28-344.808l13.138-13.138l24.743,14.604l-14.643-24.702l13.13-13.131l32.332,32.331l-8.181,8.182
			l-24.657-24.654l18.354,30.96l-7.409,7.406l-30.947-18.361l24.659,24.655l-8.183,8.183L479.28-344.808z"/>
		<path fill="#006E12" d="M568.895-380.431l-11.344,11.343l3.767,6.913l-10.206,10.201l-20.182-44.481l10.901-10.899l44.479,20.183
			l-10.462,10.462L568.895-380.431z M559.828-385.349l-15.188-8.055l8.093,15.153L559.828-385.349z"/>
		<path fill="#006E12" d="M593.215-417.498l-6.727-6.728l15.437-15.439l13.785,13.783c-0.94,4.97-2.183,8.955-3.727,11.955
			c-1.543,2.999-3.872,6.058-6.991,9.175c-3.837,3.836-7.622,6.312-11.349,7.42c-3.728,1.109-7.547,1.038-11.468-0.222
			c-3.92-1.254-7.553-3.56-10.905-6.914c-3.529-3.526-5.87-7.324-7.022-11.389c-1.154-4.064-1.004-8.18,0.45-12.341
			c1.146-3.232,3.571-6.703,7.276-10.409c3.574-3.569,6.567-5.92,8.989-7.046c2.416-1.125,4.89-1.592,7.418-1.4
			c2.529,0.191,5.131,1.036,7.806,2.537l-7.916,11.356c-1.62-0.822-3.224-1.083-4.819-0.781c-1.597,0.302-3.129,1.188-4.597,2.656
			c-2.192,2.19-3.177,4.699-2.957,7.521c0.222,2.822,1.979,5.878,5.271,9.175c3.499,3.498,6.658,5.339,9.472,5.523
			c2.816,0.185,5.4-0.899,7.754-3.252c1.114-1.117,2.021-2.345,2.709-3.682c0.69-1.339,1.306-3.051,1.832-5.142l-3.046-3.04
			L593.215-417.498z"/>
		<path fill="#006E12" d="M593.944-459.468l26.773-26.775l6.904,6.903l-16.764,16.761l5.141,5.14l15.546-15.548l6.598,6.593
			l-15.547,15.548l6.373,6.375l17.245-17.246l7.321,7.322l-27.259,27.256L593.944-459.468z"/>
	</g>
	<g opacity="0.15">
		<path fill="#006E12" d="M-465.177,712.571l10.013-10.015l32.331,32.33l-10.013,10.017L-465.177,712.571z"/>
		<path fill="#006E12" d="M-448.108,695.5l13.141-13.14l24.74,14.606l-14.643-24.703l13.128-13.13l32.336,32.333l-8.184,8.181
			l-24.658-24.659l18.352,30.965l-7.405,7.402l-30.95-18.361l24.656,24.657l-8.182,8.181L-448.108,695.5z"/>
		<path fill="#006E12" d="M-358.495,659.877l-11.343,11.339l3.765,6.911l-10.202,10.203l-20.179-44.484l10.897-10.897l44.48,20.183
			l-10.463,10.465L-358.495,659.877z M-367.559,654.953l-15.191-8.052l8.093,15.154L-367.559,654.953z"/>
		<path fill="#006E12" d="M-334.175,622.806l-6.727-6.728l15.439-15.438l13.783,13.783c-0.941,4.972-2.184,8.955-3.727,11.955
			c-1.544,2.997-3.874,6.058-6.993,9.174c-3.836,3.837-7.619,6.311-11.344,7.42c-3.729,1.11-7.551,1.037-11.472-0.222
			c-3.917-1.255-7.553-3.563-10.907-6.912c-3.526-3.53-5.869-7.325-7.022-11.393c-1.156-4.064-1.003-8.176,0.45-12.338
			c1.148-3.236,3.574-6.705,7.278-10.408c3.571-3.575,6.568-5.919,8.988-7.045c2.416-1.126,4.892-1.597,7.42-1.401
			c2.528,0.192,5.13,1.037,7.807,2.536l-7.917,11.355c-1.617-0.822-3.225-1.081-4.818-0.783c-1.595,0.302-3.128,1.189-4.6,2.658
			c-2.19,2.192-3.174,4.697-2.955,7.52c0.221,2.824,1.978,5.883,5.271,9.175c3.5,3.5,6.655,5.341,9.475,5.526
			c2.814,0.184,5.397-0.904,7.751-3.254c1.116-1.119,2.021-2.342,2.712-3.686c0.69-1.337,1.303-3.05,1.829-5.134l-3.044-3.048
			L-334.175,622.806z"/>
		<path fill="#006E12" d="M-333.444,580.838l26.772-26.775l6.902,6.903l-16.762,16.758l5.138,5.142l15.551-15.549l6.595,6.594
			l-15.548,15.549l6.373,6.375l17.244-17.245l7.322,7.319l-27.257,27.263L-333.444,580.838z"/>
		<path fill="#006E12" d="M-285.344,532.734l10.011-10.007l32.332,32.329l-10.012,10.014L-285.344,532.734z"/>
		<path fill="#006E12" d="M-268.275,515.668l13.139-13.14l24.741,14.607l-14.642-24.705l13.129-13.13l32.334,32.333l-8.184,8.182
			l-24.657-24.656l18.353,30.962l-7.403,7.406l-30.951-18.366l24.659,24.657L-235.94,548L-268.275,515.668z"/>
		<path fill="#006E12" d="M-178.662,480.044l-11.343,11.34l3.764,6.913l-10.201,10.204l-20.182-44.487l10.897-10.896l44.479,20.184
			l-10.46,10.464L-178.662,480.044z M-187.726,475.122l-15.193-8.053l8.092,15.153L-187.726,475.122z"/>
		<path fill="#006E12" d="M-154.344,442.974l-6.727-6.726l15.438-15.438l13.785,13.784c-0.941,4.969-2.185,8.952-3.729,11.951
			c-1.543,3-3.871,6.058-6.992,9.174c-3.837,3.837-7.619,6.313-11.345,7.421c-3.729,1.109-7.553,1.04-11.473-0.223
			c-3.917-1.254-7.552-3.559-10.906-6.911c-3.526-3.527-5.87-7.326-7.022-11.394c-1.155-4.063-1.005-8.173,0.452-12.334
			c1.146-3.236,3.57-6.709,7.275-10.412c3.57-3.572,6.567-5.921,8.987-7.047c2.416-1.123,4.892-1.59,7.421-1.399
			c2.526,0.192,5.129,1.037,7.806,2.536l-7.918,11.359c-1.616-0.826-3.222-1.088-4.817-0.787c-1.595,0.3-3.128,1.188-4.598,2.66
			c-2.191,2.191-3.176,4.696-2.955,7.518c0.221,2.825,1.979,5.883,5.271,9.175c3.502,3.5,6.658,5.341,9.475,5.527
			c2.814,0.183,5.397-0.904,7.751-3.257c1.117-1.114,2.021-2.343,2.712-3.68c0.692-1.341,1.303-3.054,1.829-5.138l-3.043-3.047
			L-154.344,442.974z"/>
		<path fill="#006E12" d="M-153.614,401.005l26.774-26.771l6.904,6.899l-16.763,16.761l5.139,5.138l15.551-15.549l6.593,6.594
			l-15.548,15.553l6.372,6.374l17.245-17.25l7.323,7.322l-27.258,27.259L-153.614,401.005z"/>
		<path fill="#006E12" d="M-105.512,352.905l10.013-10.011l32.33,32.328l-10.013,10.015L-105.512,352.905z"/>
		<path fill="#006E12" d="M-88.443,335.835l13.138-13.136l24.741,14.605l-14.645-24.708l13.132-13.125l32.333,32.33l-8.184,8.181
			l-24.659-24.658l18.354,30.964l-7.405,7.406l-30.951-18.363l24.659,24.654l-8.184,8.182L-88.443,335.835z"/>
		<path fill="#006E12" d="M1.169,300.214l-11.343,11.339l3.766,6.913l-10.202,10.202l-20.182-44.484l10.899-10.897l44.48,20.186
			L8.126,303.934L1.169,300.214z M-7.893,295.293l-15.192-8.057l8.092,15.157L-7.893,295.293z"/>
		<path fill="#006E12" d="M25.49,263.145l-6.728-6.729l15.438-15.438l13.786,13.785c-0.943,4.969-2.186,8.954-3.729,11.952
			s-3.873,6.059-6.992,9.175c-3.837,3.835-7.617,6.311-11.344,7.421c-3.729,1.108-7.551,1.036-11.473-0.22
			c-3.917-1.257-7.552-3.563-10.904-6.915c-3.528-3.53-5.869-7.325-7.022-11.393c-1.155-4.064-1.005-8.176,0.452-12.338
			c1.145-3.236,3.57-6.706,7.276-10.409c3.57-3.575,6.567-5.921,8.987-7.048c2.418-1.125,4.892-1.592,7.421-1.4
			c2.528,0.194,5.13,1.036,7.808,2.537l-7.921,11.358c-1.616-0.823-3.222-1.085-4.817-0.785c-1.595,0.298-3.128,1.187-4.6,2.657
			c-2.191,2.19-3.174,4.695-2.954,7.518c0.22,2.825,1.978,5.882,5.27,9.176c3.503,3.499,6.657,5.343,9.475,5.526
			c2.816,0.183,5.399-0.904,7.751-3.256c1.118-1.116,2.022-2.343,2.714-3.681c0.69-1.335,1.302-3.054,1.83-5.139l-3.045-3.046
			L25.49,263.145z"/>
		<path fill="#006E12" d="M26.218,221.177l26.772-26.775l6.903,6.901l-16.761,16.76l5.139,5.138l15.549-15.547l6.595,6.595
			l-15.548,15.55l6.373,6.373l17.245-17.245l7.324,7.321l-27.257,27.259L26.218,221.177z"/>
		<path fill="#006E12" d="M74.32,173.073l10.012-10.012l32.33,32.331l-10.013,10.016L74.32,173.073z"/>
		<path fill="#006E12" d="M91.389,156.005l13.138-13.139l24.74,14.606l-14.644-24.706l13.132-13.127l32.333,32.33l-8.184,8.18
			l-24.657-24.656l18.354,30.963l-7.407,7.404l-30.95-18.36l24.658,24.654l-8.183,8.18L91.389,156.005z"/>
		<path fill="#006E12" d="M181.001,120.381l-11.344,11.34l3.763,6.911l-10.2,10.204l-20.179-44.483l10.894-10.897l44.481,20.184
			l-10.463,10.462L181.001,120.381z M171.938,115.461l-15.191-8.056l8.091,15.155L171.938,115.461z"/>
		<path fill="#006E12" d="M205.321,83.313l-6.728-6.728l15.44-15.438l13.78,13.783c-0.939,4.97-2.184,8.955-3.727,11.953
			c-1.541,2.999-3.873,6.059-6.989,9.176c-3.837,3.837-7.617,6.31-11.345,7.421c-3.729,1.108-7.554,1.037-11.471-0.223
			c-3.917-1.255-7.558-3.56-10.906-6.914c-3.525-3.529-5.872-7.324-7.027-11.39c-1.153-4.065-1.003-8.177,0.453-12.34
			c1.149-3.235,3.572-6.705,7.275-10.408c3.577-3.575,6.572-5.922,8.989-7.048c2.415-1.126,4.892-1.591,7.423-1.4
			c2.524,0.191,5.13,1.037,7.806,2.535l-7.917,11.357c-1.619-0.821-3.224-1.084-4.817-0.782c-1.596,0.299-3.129,1.186-4.599,2.655
			c-2.192,2.191-3.176,4.696-2.956,7.52c0.22,2.825,1.979,5.881,5.271,9.177c3.501,3.5,6.656,5.341,9.472,5.525
			c2.813,0.184,5.396-0.903,7.751-3.256c1.118-1.117,2.021-2.344,2.713-3.682c0.692-1.335,1.3-3.052,1.831-5.139l-3.046-3.044
			L205.321,83.313z"/>
		<path fill="#006E12" d="M206.051,41.342l26.774-26.772l6.903,6.902l-16.762,16.761l5.137,5.137l15.55-15.548l6.592,6.594
			l-15.548,15.551l6.374,6.372l17.247-17.247l7.322,7.321l-27.259,27.263L206.051,41.342z"/>
		<path fill="#006E12" d="M254.149-6.76l10.012-10.012l32.333,32.333l-10.01,10.012L254.149-6.76z"/>
		<path fill="#006E12" d="M271.221-23.828l13.136-13.138L309.1-22.361l-14.644-24.701l13.132-13.131l32.334,32.33l-8.184,8.182
			l-24.657-24.655l18.353,30.961l-7.407,7.406l-30.951-18.363l24.661,24.655l-8.182,8.184L271.221-23.828z"/>
		<path fill="#006E12" d="M360.834-59.452l-11.343,11.344l3.763,6.91l-10.202,10.202L322.87-75.48l10.897-10.896l44.481,20.185
			l-10.462,10.46L360.834-59.452z M351.768-64.373l-15.188-8.05l8.092,15.153L351.768-64.373z"/>
		<path fill="#006E12" d="M385.154-96.519l-6.728-6.728l15.436-15.437l13.788,13.785c-0.942,4.97-2.185,8.954-3.728,11.952
			c-1.544,2.998-3.875,6.057-6.992,9.174c-3.835,3.837-7.621,6.313-11.349,7.421c-3.729,1.11-7.548,1.037-11.468-0.221
			c-3.919-1.255-7.554-3.56-10.905-6.914c-3.529-3.527-5.869-7.325-7.022-11.393c-1.155-4.064-1.005-8.177,0.45-12.338
			c1.146-3.235,3.571-6.706,7.278-10.409c3.57-3.574,6.563-5.921,8.987-7.046c2.416-1.126,4.892-1.592,7.418-1.4
			c2.531,0.191,5.129,1.037,7.807,2.536l-7.919,11.357c-1.615-0.823-3.222-1.083-4.817-0.781c-1.596,0.301-3.128,1.186-4.597,2.656
			c-2.19,2.189-3.177,4.696-2.956,7.522c0.22,2.822,1.976,5.879,5.27,9.172c3.499,3.502,6.657,5.341,9.473,5.526
			c2.815,0.185,5.401-0.901,7.754-3.254c1.113-1.119,2.018-2.345,2.709-3.683c0.691-1.336,1.302-3.049,1.832-5.139l-3.043-3.043
			L385.154-96.519z"/>
		<path fill="#006E12" d="M385.883-138.487l26.775-26.774l6.9,6.903l-16.759,16.76l5.136,5.14l15.551-15.551l6.598,6.593
			l-15.553,15.551l6.375,6.375l17.245-17.25l7.322,7.324l-27.261,27.259L385.883-138.487z"/>
		<path fill="#006E12" d="M433.983-186.591l10.012-10.013l32.331,32.334l-10.013,10.013L433.983-186.591z"/>
		<path fill="#006E12" d="M451.052-203.659l13.138-13.14l24.739,14.605l-14.642-24.703l13.133-13.131l32.33,32.331l-8.183,8.182
			l-24.653-24.655l18.351,30.961l-7.403,7.406l-30.95-18.363l24.656,24.655l-8.181,8.181L451.052-203.659z"/>
		<path fill="#006E12" d="M540.665-239.282l-11.342,11.343l3.762,6.911l-10.2,10.202l-20.18-44.484l10.896-10.896l44.482,20.183
			l-10.467,10.461L540.665-239.282z M531.604-244.203l-15.192-8.053l8.093,15.153L531.604-244.203z"/>
		<path fill="#006E12" d="M564.985-276.351l-6.726-6.727l15.438-15.437l13.782,13.784c-0.942,4.971-2.186,8.952-3.731,11.952
			c-1.54,2.999-3.872,6.06-6.985,9.176c-3.841,3.835-7.617,6.31-11.346,7.419c-3.728,1.108-7.554,1.038-11.471-0.22
			c-3.917-1.256-7.557-3.562-10.906-6.915c-3.528-3.525-5.872-7.324-7.025-11.389c-1.156-4.066-1.004-8.18,0.45-12.341
			c1.147-3.235,3.575-6.706,7.276-10.409c3.577-3.573,6.571-5.922,8.986-7.046c2.419-1.125,4.895-1.592,7.427-1.401
			c2.523,0.193,5.129,1.038,7.806,2.537l-7.918,11.357c-1.617-0.824-3.225-1.085-4.82-0.783c-1.593,0.302-3.126,1.186-4.598,2.657
			c-2.19,2.191-3.175,4.696-2.952,7.523c0.218,2.82,1.977,5.878,5.269,9.171c3.498,3.501,6.657,5.342,9.474,5.525
			c2.813,0.184,5.396-0.901,7.751-3.254c1.117-1.117,2.021-2.344,2.713-3.682c0.689-1.336,1.299-3.049,1.829-5.14l-3.045-3.042
			L564.985-276.351z"/>
		<path fill="#006E12" d="M565.716-318.32l26.773-26.774l6.904,6.904l-16.765,16.759l5.141,5.142l15.546-15.551l6.595,6.593
			l-15.547,15.551l6.373,6.374l17.248-17.248l7.322,7.322l-27.257,27.261L565.716-318.32z"/>
		<path fill="#006E12" d="M613.813-366.423l10.012-10.012l32.334,32.332l-10.014,10.013L613.813-366.423z"/>
		<path fill="#006E12" d="M630.886-383.491l13.136-13.138l24.742,14.606l-14.644-24.703l13.133-13.13l32.333,32.33l-8.184,8.183
			l-24.657-24.655l18.353,30.961l-7.405,7.404l-30.952-18.362l24.662,24.655l-8.183,8.182L630.886-383.491z"/>
		<path fill="#006E12" d="M720.498-419.114l-11.343,11.342l3.761,6.912l-10.203,10.201l-20.179-44.484l10.898-10.895l44.481,20.184
			l-10.462,10.461L720.498-419.114z M711.432-424.035l-15.19-8.052l8.093,15.153L711.432-424.035z"/>
		<path fill="#006E12" d="M744.814-456.182l-6.726-6.727l15.438-15.438l13.787,13.784c-0.941,4.971-2.184,8.955-3.728,11.954
			s-3.878,6.059-6.99,9.174c-3.837,3.836-7.623,6.312-11.349,7.421c-3.728,1.109-7.55,1.037-11.47-0.222
			c-3.919-1.255-7.553-3.56-10.905-6.913c-3.529-3.527-5.869-7.324-7.021-11.39c-1.157-4.067-1.006-8.18,0.448-12.34
			c1.146-3.234,3.573-6.707,7.277-10.409c3.572-3.574,6.566-5.922,8.988-7.046c2.42-1.126,4.893-1.592,7.42-1.402
			c2.531,0.192,5.129,1.038,7.806,2.537l-7.916,11.357c-1.618-0.823-3.224-1.084-4.818-0.782c-1.597,0.302-3.13,1.186-4.598,2.657
			c-2.19,2.19-3.175,4.694-2.955,7.521c0.216,2.823,1.975,5.879,5.269,9.172c3.499,3.5,6.657,5.341,9.473,5.526
			c2.815,0.184,5.4-0.899,7.754-3.255c1.113-1.118,2.02-2.344,2.709-3.683c0.69-1.336,1.302-3.05,1.834-5.139l-3.046-3.045
			L744.814-456.182z"/>
		<path fill="#006E12" d="M745.545-498.152l26.773-26.773l6.903,6.903l-16.761,16.759l5.137,5.141l15.549-15.551l6.598,6.596
			l-15.551,15.548l6.376,6.374l17.243-17.247l7.325,7.324l-27.26,27.258L745.545-498.152z"/>
	</g>
	<g opacity="0.15">
		<path fill="#006E12" d="M-324.03,684.338l10.016-10.012l32.329,32.33l-10.013,10.017L-324.03,684.338z"/>
		<path fill="#006E12" d="M-306.959,667.271l13.139-13.141l24.738,14.606l-14.642-24.704l13.131-13.13l32.335,32.332l-8.183,8.181
			l-24.658-24.655l18.353,30.964l-7.404,7.403l-30.949-18.365l24.653,24.657l-8.182,8.185L-306.959,667.271z"/>
		<path fill="#006E12" d="M-217.346,631.642l-11.342,11.346l3.761,6.914l-10.201,10.199l-20.179-44.483l10.896-10.898l44.481,20.184
			l-10.462,10.464L-217.346,631.642z M-226.409,626.727l-15.191-8.058l8.091,15.157L-226.409,626.727z"/>
		<path fill="#006E12" d="M-193.025,594.577l-6.727-6.728l15.438-15.441l13.784,13.787c-0.939,4.971-2.183,8.954-3.728,11.951
			c-1.542,3.001-3.877,6.059-6.991,9.178c-3.837,3.834-7.622,6.311-11.351,7.42c-3.728,1.108-7.547,1.037-11.466-0.22
			c-3.917-1.259-7.554-3.564-10.906-6.914c-3.529-3.53-5.87-7.328-7.022-11.393c-1.155-4.064-1.007-8.177,0.45-12.339
			c1.148-3.235,3.572-6.704,7.278-10.407c3.571-3.575,6.567-5.925,8.986-7.046c2.419-1.126,4.893-1.593,7.423-1.4
			c2.527,0.188,5.129,1.036,7.804,2.535l-7.916,11.356c-1.618-0.823-3.224-1.087-4.819-0.783c-1.596,0.3-3.126,1.186-4.598,2.657
			c-2.191,2.191-3.177,4.694-2.956,7.52c0.222,2.821,1.979,5.881,5.271,9.172c3.498,3.5,6.657,5.343,9.472,5.527
			c2.816,0.184,5.4-0.903,7.754-3.253c1.116-1.118,2.021-2.344,2.712-3.684c0.69-1.341,1.3-3.053,1.829-5.138l-3.043-3.044
			L-193.025,594.577z"/>
		<path fill="#006E12" d="M-192.299,552.61l26.775-26.777l6.902,6.901l-16.761,16.766l5.136,5.138l15.548-15.55l6.599,6.594
			l-15.552,15.547l6.376,6.374l17.247-17.244l7.32,7.322l-27.259,27.259L-192.299,552.61z"/>
		<path fill="#006E12" d="M-144.199,504.505l10.014-10.011l32.331,32.333l-10.011,10.014L-144.199,504.505z"/>
		<path fill="#006E12" d="M-127.128,487.438l13.139-13.141l24.738,14.606l-14.641-24.703l13.13-13.131l32.335,32.332l-8.182,8.183
			l-24.659-24.657l18.353,30.964l-7.405,7.404l-30.95-18.364l24.655,24.655l-8.184,8.185L-127.128,487.438z"/>
		<path fill="#006E12" d="M-37.514,451.812l-11.342,11.343l3.76,6.914l-10.199,10.2l-20.179-44.483l10.896-10.899l44.48,20.184
			l-10.46,10.464L-37.514,451.812z M-46.578,446.894l-15.191-8.055l8.093,15.155L-46.578,446.894z"/>
		<path fill="#006E12" d="M-13.195,414.745l-6.726-6.728l15.439-15.44l13.783,13.788c-0.941,4.968-2.184,8.955-3.727,11.952
			c-1.545,2.997-3.877,6.055-6.992,9.174c-3.836,3.837-7.621,6.311-11.347,7.42c-3.729,1.11-7.549,1.04-11.468-0.22
			c-3.917-1.259-7.554-3.561-10.906-6.913c-3.527-3.529-5.87-7.326-7.022-11.39c-1.158-4.067-1.008-8.181,0.45-12.342
			c1.147-3.236,3.572-6.705,7.276-10.408c3.571-3.575,6.57-5.925,8.987-7.048c2.421-1.126,4.893-1.593,7.423-1.4
			c2.529,0.19,5.129,1.036,7.804,2.534l-7.915,11.36c-1.617-0.823-3.224-1.085-4.818-0.784c-1.596,0.303-3.127,1.189-4.598,2.658
			c-2.191,2.19-3.175,4.698-2.957,7.52c0.22,2.821,1.979,5.883,5.271,9.175c3.498,3.496,6.655,5.34,9.472,5.525
			c2.815,0.182,5.4-0.902,7.753-3.255c1.118-1.118,2.023-2.344,2.713-3.684c0.692-1.337,1.3-3.05,1.83-5.134l-3.044-3.048
			L-13.195,414.745z"/>
		<path fill="#006E12" d="M-12.465,372.777l26.773-26.777l6.903,6.905l-16.76,16.762l5.136,5.136l15.549-15.547l6.594,6.594
			l-15.548,15.549l6.375,6.375l17.244-17.246l7.322,7.321l-27.259,27.261L-12.465,372.777z"/>
		<path fill="#006E12" d="M35.635,324.676l10.014-10.012l32.331,32.33l-10.012,10.014L35.635,324.676z"/>
		<path fill="#006E12" d="M52.705,307.608l13.138-13.137l24.739,14.603l-14.64-24.704l13.132-13.132l32.332,32.333l-8.183,8.181
			l-24.657-24.656l18.354,30.964l-7.407,7.403l-30.951-18.364l24.653,24.658l-8.182,8.183L52.705,307.608z"/>
		<path fill="#006E12" d="M142.318,271.982l-11.344,11.343l3.763,6.913l-10.199,10.199l-20.181-44.482l10.895-10.897l44.481,20.184
			l-10.462,10.465L142.318,271.982z M133.255,267.064l-15.192-8.054l8.092,15.154L133.255,267.064z"/>
		<path fill="#006E12" d="M166.637,234.912l-6.726-6.726l15.436-15.439l13.788,13.788c-0.941,4.969-2.184,8.952-3.727,11.949
			c-1.545,3-3.878,6.058-6.992,9.178c-3.834,3.835-7.62,6.311-11.349,7.419s-7.55,1.037-11.47-0.222
			c-3.916-1.257-7.553-3.559-10.905-6.913c-3.53-3.529-5.869-7.327-7.022-11.391c-1.158-4.064-1.007-8.178,0.448-12.338
			c1.149-3.236,3.575-6.707,7.28-10.409c3.572-3.575,6.567-5.925,8.986-7.048c2.42-1.125,4.893-1.592,7.421-1.399
			c2.53,0.19,5.131,1.039,7.807,2.537l-7.919,11.355c-1.615-0.822-3.222-1.087-4.816-0.784c-1.594,0.301-3.127,1.188-4.598,2.657
			c-2.192,2.192-3.175,4.697-2.957,7.519c0.223,2.825,1.979,5.884,5.272,9.175c3.499,3.503,6.655,5.344,9.47,5.526
			c2.819,0.184,5.402-0.901,7.754-3.253c1.116-1.118,2.021-2.344,2.711-3.683c0.691-1.339,1.304-3.051,1.829-5.138l-3.041-3.045
			L166.637,234.912z"/>
		<path fill="#006E12" d="M167.367,192.945l26.776-26.777l6.901,6.905l-16.761,16.764l5.138,5.138l15.546-15.549l6.594,6.592
			l-15.548,15.548l6.375,6.378l17.242-17.249l7.326,7.321l-27.259,27.261L167.367,192.945z"/>
		<path fill="#006E12" d="M215.467,144.844l10.015-10.013l32.327,32.331l-10.012,10.015L215.467,144.844z"/>
		<path fill="#006E12" d="M232.535,127.776l13.14-13.138l24.739,14.603l-14.64-24.703l13.131-13.131l32.33,32.334l-8.183,8.182
			l-24.653-24.658l18.35,30.963l-7.402,7.404l-30.951-18.363l24.656,24.654l-8.183,8.184L232.535,127.776z"/>
		<path fill="#006E12" d="M322.151,92.149l-11.345,11.343l3.762,6.914l-10.197,10.203l-20.182-44.485l10.896-10.897l44.482,20.183
			l-10.466,10.464L322.151,92.149z M313.087,87.232l-15.194-8.055l8.093,15.154L313.087,87.232z"/>
		<path fill="#006E12" d="M346.472,55.083l-6.727-6.728l15.437-15.439l13.781,13.785c-0.941,4.97-2.183,8.955-3.727,11.954
			s-3.873,6.056-6.991,9.174c-3.836,3.837-7.618,6.312-11.345,7.421c-3.729,1.108-7.551,1.037-11.472-0.223
			c-3.916-1.257-7.553-3.561-10.905-6.914c-3.527-3.529-5.869-7.325-7.022-11.391c-1.155-4.064-1.004-8.178,0.45-12.338
			c1.151-3.235,3.571-6.706,7.275-10.409c3.576-3.575,6.572-5.924,8.988-7.046c2.417-1.127,4.893-1.595,7.422-1.402
			c2.528,0.19,5.132,1.038,7.807,2.536l-7.917,11.359c-1.621-0.824-3.228-1.088-4.819-0.785c-1.595,0.301-3.126,1.188-4.598,2.658
			c-2.189,2.189-3.175,4.695-2.957,7.52c0.222,2.822,1.98,5.881,5.271,9.176c3.499,3.5,6.658,5.34,9.471,5.526
			c2.816,0.181,5.399-0.902,7.754-3.256c1.118-1.117,2.022-2.344,2.714-3.682c0.689-1.338,1.3-3.052,1.829-5.139l-3.047-3.044
			L346.472,55.083z"/>
		<path fill="#006E12" d="M347.198,13.114l26.771-26.774l6.904,6.901l-16.756,16.762l5.136,5.139l15.547-15.549l6.595,6.596
			l-15.549,15.548l6.375,6.375l17.248-17.247l7.321,7.321l-27.258,27.26L347.198,13.114z"/>
		<path fill="#006E12" d="M395.299-34.987l10.013-10.012l32.332,32.329L427.631-2.655L395.299-34.987z"/>
		<path fill="#006E12" d="M412.369-52.056l13.135-13.138l24.743,14.604l-14.643-24.704l13.132-13.132l32.334,32.334l-8.183,8.182
			l-24.662-24.657l18.356,30.962l-7.408,7.406l-30.948-18.361l24.657,24.654l-8.182,8.183L412.369-52.056z"/>
		<path fill="#006E12" d="M501.981-87.683L490.64-76.34l3.761,6.913l-10.202,10.202l-20.179-44.484l10.896-10.899l44.481,20.183
			l-10.461,10.465L501.981-87.683z M492.916-92.601l-15.189-8.055l8.092,15.157L492.916-92.601z"/>
		<path fill="#006E12" d="M526.299-124.75l-6.725-6.728l15.438-15.438l13.787,13.787c-0.94,4.97-2.184,8.954-3.729,11.952
			c-1.542,2.998-3.875,6.056-6.991,9.175c-3.833,3.836-7.62,6.31-11.347,7.42c-3.727,1.108-7.548,1.038-11.468-0.221
			c-3.92-1.258-7.553-3.561-10.906-6.913c-3.529-3.53-5.869-7.326-7.026-11.392c-1.154-4.064-1.004-8.176,0.452-12.339
			c1.146-3.234,3.575-6.705,7.28-10.408c3.571-3.574,6.564-5.925,8.987-7.048c2.416-1.126,4.893-1.595,7.419-1.4
			c2.53,0.19,5.129,1.037,7.808,2.536l-7.919,11.357c-1.617-0.824-3.222-1.087-4.817-0.784c-1.596,0.3-3.131,1.188-4.602,2.657
			c-2.188,2.192-3.171,4.698-2.952,7.521s1.977,5.881,5.271,9.175c3.498,3.5,6.655,5.343,9.469,5.526
			c2.818,0.185,5.401-0.901,7.751-3.254c1.118-1.118,2.023-2.345,2.713-3.683c0.692-1.34,1.303-3.052,1.831-5.14l-3.042-3.043
			L526.299-124.75z"/>
		<path fill="#006E12" d="M527.027-166.718l26.777-26.774l6.904,6.901l-16.762,16.762l5.139,5.139l15.548-15.548l6.595,6.594
			l-15.549,15.547l6.373,6.376l17.243-17.248l7.323,7.322l-27.256,27.259L527.027-166.718z"/>
		<path fill="#006E12" d="M575.13-214.818l10.015-10.013l32.327,32.331l-10.011,10.016L575.13-214.818z"/>
		<path fill="#006E12" d="M592.198-231.888l13.142-13.138l24.738,14.604l-14.641-24.705l13.13-13.131l32.332,32.334l-8.182,8.182
			l-24.654-24.657l18.349,30.963l-7.4,7.404l-30.951-18.361l24.655,24.656l-8.183,8.182L592.198-231.888z"/>
		<path fill="#006E12" d="M681.813-267.514l-11.342,11.343l3.762,6.913l-10.203,10.204L643.85-283.54l10.897-10.898l44.482,20.183
			l-10.465,10.465L681.813-267.514z M672.751-272.433l-15.194-8.054l8.094,15.154L672.751-272.433z"/>
		<path fill="#006E12" d="M706.134-304.58l-6.726-6.729l15.438-15.438l13.781,13.787c-0.94,4.97-2.183,8.953-3.726,11.953
			c-1.546,2.999-3.874,6.057-6.992,9.174c-3.836,3.837-7.618,6.312-11.347,7.42c-3.728,1.108-7.549,1.037-11.471-0.223
			c-3.917-1.257-7.552-3.56-10.904-6.913c-3.528-3.528-5.87-7.326-7.022-11.392c-1.156-4.065-1.004-8.178,0.45-12.338
			c1.15-3.235,3.57-6.706,7.277-10.409c3.574-3.574,6.57-5.923,8.986-7.046c2.417-1.126,4.893-1.594,7.424-1.402
			c2.526,0.191,5.129,1.038,7.804,2.537l-7.916,11.357c-1.621-0.825-3.227-1.087-4.821-0.787c-1.593,0.302-3.125,1.188-4.596,2.66
			c-2.19,2.191-3.176,4.696-2.959,7.52c0.225,2.822,1.98,5.882,5.273,9.176c3.501,3.5,6.658,5.342,9.472,5.524
			c2.815,0.187,5.399-0.9,7.753-3.253c1.118-1.119,2.023-2.344,2.714-3.684c0.688-1.339,1.3-3.053,1.829-5.139l-3.047-3.043
			L706.134-304.58z"/>
		<path fill="#006E12" d="M706.861-346.549l26.774-26.775l6.902,6.9l-16.759,16.762l5.138,5.139l15.548-15.548l6.596,6.595
			l-15.55,15.548l6.375,6.375l17.248-17.248l7.322,7.321l-27.259,27.26L706.861-346.549z"/>
	</g>
	<g opacity="0.15">
		<path fill="#006E12" d="M-352.259,825.489l10.015-10.011l32.331,32.329l-10.011,10.012L-352.259,825.489z"/>
		<path fill="#006E12" d="M-335.188,808.419l13.141-13.143l24.738,14.61l-14.642-24.703l13.131-13.132l32.335,32.333l-8.186,8.182
			l-24.655-24.66l18.351,30.962l-7.407,7.407l-30.946-18.365l24.655,24.659l-8.182,8.182L-335.188,808.419z"/>
		<path fill="#006E12" d="M-245.574,772.791l-11.342,11.344l3.76,6.913l-10.202,10.2l-20.179-44.481l10.898-10.899l44.481,20.184
			l-10.463,10.464L-245.574,772.791z M-254.638,767.873l-15.192-8.053l8.093,15.153L-254.638,767.873z"/>
		<path fill="#006E12" d="M-221.255,735.725l-6.727-6.728l15.439-15.44l13.782,13.786c-0.939,4.968-2.182,8.957-3.726,11.954
			c-1.542,2.995-3.877,6.058-6.992,9.172c-3.836,3.839-7.621,6.314-11.35,7.423c-3.726,1.109-7.549,1.036-11.466-0.22
			c-3.92-1.26-7.554-3.563-10.907-6.914c-3.528-3.527-5.872-7.325-7.026-11.39c-1.154-4.067-1.003-8.183,0.451-12.341
			c1.149-3.233,3.575-6.703,7.281-10.411c3.57-3.57,6.567-5.919,8.986-7.048c2.418-1.12,4.893-1.591,7.423-1.396
			c2.527,0.19,5.129,1.035,7.804,2.534l-7.917,11.358c-1.616-0.819-3.222-1.084-4.817-0.783c-1.596,0.303-3.128,1.189-4.6,2.66
			c-2.189,2.188-3.174,4.695-2.955,7.518c0.221,2.821,1.978,5.882,5.271,9.174c3.498,3.498,6.656,5.344,9.472,5.527
			c2.815,0.181,5.399-0.904,7.753-3.253c1.116-1.12,2.021-2.344,2.712-3.684c0.689-1.338,1.3-3.054,1.829-5.138l-3.044-3.045
			L-221.255,735.725z"/>
		<path fill="#006E12" d="M-220.527,693.754l26.774-26.774l6.903,6.905l-16.762,16.761l5.138,5.138l15.548-15.549l6.596,6.594
			l-15.548,15.551l6.373,6.371l17.249-17.245l7.32,7.322l-27.259,27.263L-220.527,693.754z"/>
		<path fill="#006E12" d="M-172.428,645.656l10.015-10.012l32.33,32.329l-10.012,10.012L-172.428,645.656z"/>
		<path fill="#006E12" d="M-155.356,628.586l13.138-13.138l24.737,14.606l-14.64-24.704l13.131-13.134l32.33,32.336l-8.183,8.181
			l-24.655-24.655l18.353,30.961l-7.407,7.406l-30.948-18.365l24.655,24.657l-8.183,8.185L-155.356,628.586z"/>
		<path fill="#006E12" d="M-65.744,592.962l-11.342,11.344l3.76,6.913l-10.201,10.2l-20.181-44.484l10.897-10.897l44.481,20.184
			l-10.462,10.461L-65.744,592.962z M-74.807,588.041l-15.191-8.054l8.091,15.153L-74.807,588.041z"/>
		<path fill="#006E12" d="M-41.424,555.896l-6.726-6.728l15.436-15.441l13.786,13.787c-0.94,4.97-2.184,8.954-3.728,11.954
			c-1.543,2.996-3.875,6.056-6.991,9.172c-3.837,3.839-7.622,6.313-11.348,7.423c-3.729,1.108-7.552,1.037-11.469-0.224
			c-3.919-1.257-7.553-3.561-10.907-6.91c-3.528-3.531-5.871-7.326-7.023-11.394c-1.156-4.064-1.005-8.179,0.45-12.336
			c1.15-3.238,3.575-6.708,7.278-10.413c3.574-3.573,6.571-5.921,8.988-7.048c2.42-1.123,4.894-1.59,7.423-1.396
			c2.528,0.189,5.129,1.035,7.804,2.533l-7.916,11.355c-1.616-0.819-3.223-1.083-4.818-0.781c-1.597,0.302-3.127,1.188-4.599,2.658
			c-2.19,2.188-3.175,4.699-2.955,7.519c0.222,2.823,1.979,5.882,5.271,9.176c3.499,3.498,6.658,5.341,9.472,5.524
			c2.816,0.183,5.4-0.9,7.754-3.252c1.119-1.118,2.021-2.344,2.712-3.685c0.689-1.336,1.299-3.049,1.83-5.135l-3.044-3.048
			L-41.424,555.896z"/>
		<path fill="#006E12" d="M-40.693,513.922l26.773-26.773l6.902,6.903l-16.761,16.762l5.138,5.138l15.549-15.547l6.593,6.593
			l-15.547,15.549l6.373,6.374l17.247-17.248l7.323,7.326l-27.259,27.259L-40.693,513.922z"/>
		<path fill="#006E12" d="M7.405,465.823l10.015-10.012l32.331,32.33l-10.013,10.011L7.405,465.823z"/>
		<path fill="#006E12" d="M24.476,448.751l13.139-13.136l24.738,14.606l-14.641-24.704l13.132-13.131l32.329,32.331l-8.183,8.184
			l-24.655-24.656l18.351,30.962l-7.405,7.405l-30.948-18.365l24.656,24.657l-8.183,8.185L24.476,448.751z"/>
		<path fill="#006E12" d="M114.088,413.13l-11.344,11.343l3.764,6.914l-10.202,10.202l-20.181-44.486l10.899-10.898l44.481,20.184
			l-10.46,10.464L114.088,413.13z M105.025,408.212l-15.193-8.055l8.092,15.155L105.025,408.212z"/>
		<path fill="#006E12" d="M138.408,376.063l-6.728-6.728l15.436-15.438l13.788,13.784c-0.941,4.97-2.186,8.956-3.729,11.954
			c-1.543,2.999-3.875,6.055-6.992,9.171c-3.839,3.84-7.62,6.313-11.348,7.423c-3.727,1.112-7.552,1.037-11.469-0.22
			c-3.919-1.257-7.552-3.564-10.906-6.914c-3.528-3.528-5.871-7.325-7.024-11.393c-1.155-4.065-1.005-8.178,0.452-12.337
			c1.147-3.237,3.573-6.705,7.274-10.41c3.575-3.573,6.572-5.924,8.989-7.047c2.419-1.124,4.894-1.591,7.422-1.398
			c2.527,0.19,5.129,1.036,7.807,2.533l-7.918,11.358c-1.617-0.82-3.223-1.084-4.819-0.784c-1.596,0.302-3.126,1.188-4.598,2.66
			c-2.192,2.187-3.175,4.695-2.957,7.518c0.223,2.822,1.979,5.882,5.272,9.174c3.499,3.498,6.657,5.345,9.471,5.527
			c2.819,0.181,5.401-0.903,7.754-3.255c1.117-1.118,2.021-2.341,2.712-3.682c0.689-1.338,1.3-3.053,1.83-5.139l-3.044-3.045
			L138.408,376.063z"/>
		<path fill="#006E12" d="M139.137,334.091l26.774-26.774l6.9,6.903l-16.76,16.761l5.139,5.139l15.548-15.548l6.593,6.596
			l-15.548,15.548l6.374,6.372l17.247-17.244l7.32,7.322l-27.256,27.261L139.137,334.091z"/>
		<path fill="#006E12" d="M187.236,285.99l10.012-10.01l32.334,32.331l-10.011,10.012L187.236,285.99z"/>
		<path fill="#006E12" d="M204.309,268.921l13.138-13.136l24.739,14.604l-14.64-24.702l13.131-13.131l32.331,32.333l-8.183,8.18
			l-24.658-24.656l18.354,30.96l-7.408,7.407l-30.95-18.365l24.657,24.657l-8.181,8.182L204.309,268.921z"/>
		<path fill="#006E12" d="M293.921,233.298l-11.343,11.342l3.762,6.914l-10.201,10.201l-20.181-44.482l10.896-10.899l44.481,20.183
			l-10.461,10.462L293.921,233.298z M284.855,228.379l-15.19-8.055l8.09,15.156L284.855,228.379z"/>
		<path fill="#006E12" d="M318.239,196.231l-6.727-6.728l15.438-15.438l13.786,13.786c-0.938,4.968-2.183,8.954-3.725,11.952
			c-1.546,3-3.877,6.058-6.992,9.172c-3.84,3.84-7.621,6.316-11.35,7.424c-3.728,1.109-7.551,1.038-11.466-0.221
			c-3.921-1.257-7.554-3.559-10.907-6.914c-3.527-3.529-5.871-7.326-7.024-11.391c-1.155-4.064-1.008-8.181,0.45-12.34
			c1.146-3.234,3.573-6.706,7.275-10.409c3.575-3.573,6.568-5.922,8.987-7.048c2.42-1.124,4.893-1.591,7.421-1.398
			c2.529,0.19,5.13,1.034,7.807,2.532l-7.916,11.359c-1.617-0.822-3.225-1.085-4.818-0.781c-1.595,0.3-3.13,1.186-4.6,2.656
			c-2.188,2.189-3.177,4.696-2.954,7.52c0.218,2.821,1.977,5.883,5.271,9.174c3.498,3.499,6.653,5.341,9.47,5.527
			c2.817,0.181,5.401-0.903,7.751-3.256c1.117-1.118,2.021-2.342,2.713-3.684c0.69-1.337,1.304-3.05,1.83-5.137l-3.041-3.042
			L318.239,196.231z"/>
		<path fill="#006E12" d="M318.967,154.26l26.777-26.775l6.902,6.906l-16.764,16.759l5.142,5.14l15.548-15.55l6.595,6.595
			l-15.548,15.548l6.373,6.376l17.245-17.247l7.325,7.322l-27.258,27.261L318.967,154.26z"/>
		<path fill="#006E12" d="M367.068,106.161l10.013-10.013l32.33,32.331l-10.013,10.012L367.068,106.161z"/>
		<path fill="#006E12" d="M384.137,89.089l13.142-13.138l24.737,14.606l-14.639-24.705l13.128-13.131l32.333,32.333l-8.182,8.182
			l-24.657-24.657l18.351,30.962l-7.405,7.408l-30.947-18.366l24.655,24.658l-8.182,8.184L384.137,89.089z"/>
		<path fill="#006E12" d="M473.751,53.466l-11.344,11.343l3.766,6.915L455.97,81.925l-20.18-44.483l10.898-10.898l44.481,20.182
			l-10.466,10.462L473.751,53.466z M464.688,48.548l-15.192-8.055l8.095,15.156L464.688,48.548z"/>
		<path fill="#006E12" d="M498.072,16.401l-6.727-6.728l15.438-15.439l13.783,13.785c-0.939,4.972-2.185,8.955-3.728,11.953
			c-1.544,2.999-3.873,6.057-6.992,9.172c-3.834,3.839-7.617,6.313-11.344,7.423c-3.728,1.111-7.551,1.038-11.471-0.22
			c-3.917-1.259-7.552-3.561-10.906-6.915c-3.527-3.528-5.868-7.324-7.024-11.391c-1.153-4.065-1.004-8.177,0.452-12.34
			c1.146-3.235,3.574-6.704,7.278-10.408c3.57-3.574,6.567-5.925,8.986-7.046c2.416-1.126,4.892-1.595,7.42-1.401
			c2.529,0.191,5.132,1.038,7.808,2.537L493.127,0.74c-1.614-0.821-3.223-1.084-4.818-0.782c-1.592,0.302-3.127,1.188-4.595,2.658
			c-2.193,2.191-3.176,4.696-2.958,7.521c0.224,2.822,1.981,5.882,5.272,9.175c3.5,3.499,6.658,5.341,9.473,5.526
			c2.815,0.181,5.399-0.903,7.751-3.256c1.118-1.117,2.023-2.344,2.712-3.682c0.691-1.339,1.302-3.052,1.832-5.139l-3.048-3.044
			L498.072,16.401z"/>
		<path fill="#006E12" d="M498.8-25.571l26.774-26.773l6.903,6.902l-16.76,16.764l5.136,5.137l15.551-15.548L543-32.496
			l-15.55,15.547l6.374,6.373l17.248-17.244l7.318,7.321l-27.258,27.26L498.8-25.571z"/>
		<path fill="#006E12" d="M546.902-73.671l10.01-10.013l32.334,32.331l-10.011,10.016L546.902-73.671z"/>
		<path fill="#006E12" d="M563.971-90.742l13.137-13.138l24.742,14.607l-14.642-24.706l13.131-13.13l32.331,32.334l-8.181,8.182
			l-24.659-24.658l18.354,30.96l-7.407,7.409L579.83-91.247l24.656,24.657l-8.182,8.182L563.971-90.742z"/>
		<path fill="#006E12" d="M653.585-126.365l-11.343,11.342l3.762,6.914l-10.2,10.201l-20.182-44.484l10.897-10.897l44.479,20.183
			l-10.461,10.461L653.585-126.365z M644.52-131.283l-15.19-8.056l8.09,15.155L644.52-131.283z"/>
		<path fill="#006E12" d="M677.903-163.432l-6.727-6.727l15.439-15.44l13.784,13.787c-0.94,4.971-2.183,8.955-3.726,11.952
			c-1.542,3-3.876,6.058-6.99,9.174c-3.841,3.838-7.621,6.313-11.351,7.422c-3.727,1.11-7.549,1.038-11.467-0.22
			c-3.92-1.259-7.555-3.563-10.906-6.914c-3.529-3.53-5.872-7.328-7.027-11.392c-1.152-4.065-1.002-8.178,0.453-12.338
			c1.146-3.236,3.573-6.707,7.276-10.411c3.575-3.572,6.567-5.923,8.986-7.045c2.422-1.126,4.893-1.594,7.423-1.401
			c2.526,0.189,5.129,1.036,7.805,2.537l-7.916,11.354c-1.618-0.821-3.224-1.084-4.819-0.783c-1.594,0.302-3.127,1.188-4.599,2.659
			c-2.188,2.191-3.177,4.695-2.953,7.52c0.219,2.822,1.976,5.88,5.271,9.175c3.497,3.499,6.652,5.341,9.47,5.526
			c2.814,0.182,5.401-0.901,7.75-3.254c1.117-1.117,2.022-2.345,2.713-3.683c0.691-1.338,1.302-3.051,1.831-5.139l-3.042-3.043
			L677.903-163.432z"/>
		<path fill="#006E12" d="M678.629-205.399l26.78-26.778l6.903,6.903l-16.764,16.763l5.14,5.139l15.548-15.548l6.596,6.593
			l-15.551,15.548l6.375,6.375l17.246-17.248l7.322,7.323l-27.258,27.26L678.629-205.399z"/>
		<path fill="#006E12" d="M726.732-253.505l10.012-10.012l32.331,32.331l-10.011,10.014L726.732-253.505z"/>
		<path fill="#006E12" d="M743.801-270.571l13.141-13.142l24.739,14.606l-14.645-24.704l13.132-13.131l32.335,32.333l-8.183,8.183
			l-24.655-24.659l18.35,30.962l-7.403,7.407l-30.947-18.364l24.653,24.658l-8.182,8.183L743.801-270.571z"/>
		<path fill="#006E12" d="M833.415-306.198l-11.343,11.343l3.763,6.914l-10.201,10.201l-20.182-44.484l10.899-10.899l44.482,20.183
			l-10.467,10.461L833.415-306.198z M824.351-311.114l-15.192-8.056l8.097,15.155L824.351-311.114z"/>
		<path fill="#006E12" d="M857.736-343.264l-6.726-6.726l15.436-15.44l13.785,13.785c-0.942,4.972-2.183,8.955-3.728,11.954
			c-1.543,2.999-3.874,6.057-6.99,9.174c-3.837,3.837-7.621,6.312-11.346,7.42c-3.729,1.11-7.553,1.038-11.472-0.22
			c-3.918-1.258-7.555-3.561-10.907-6.914c-3.526-3.528-5.869-7.326-7.021-11.391c-1.157-4.066-1.006-8.178,0.45-12.339
			c1.146-3.236,3.57-6.707,7.276-10.41c3.571-3.575,6.57-5.923,8.987-7.046c2.416-1.126,4.893-1.595,7.422-1.4
			c2.525,0.188,5.131,1.037,7.806,2.536l-7.917,11.354c-1.617-0.819-3.225-1.082-4.82-0.782c-1.592,0.302-3.126,1.188-4.597,2.659
			c-2.191,2.19-3.175,4.695-2.958,7.52c0.225,2.822,1.982,5.881,5.271,9.176c3.498,3.498,6.659,5.341,9.475,5.525
			c2.813,0.182,5.396-0.903,7.752-3.254c1.117-1.118,2.022-2.345,2.709-3.684c0.692-1.338,1.303-3.052,1.834-5.139l-3.047-3.043
			L857.736-343.264z"/>
		<path fill="#006E12" d="M858.466-385.231l26.77-26.777l6.903,6.903l-16.758,16.762l5.134,5.14l15.554-15.549l6.593,6.594
			l-15.548,15.548l6.374,6.375l17.246-17.247l7.32,7.323l-27.257,27.26L858.466-385.231z"/>
	</g>
</g>
</svg>
