<?xml version="1.0" encoding="utf-8"?>
<!-- Generator: Adobe Illustrator 15.0.2, SVG Export Plug-In . SVG Version: 6.00 Build 0)  -->
<!DOCTYPE svg PUBLIC "-//W3C//DTD SVG 1.1//EN" "http://www.w3.org/Graphics/SVG/1.1/DTD/svg11.dtd">
<svg version="1.1" id="Calque_1" xmlns="http://www.w3.org/2000/svg" xmlns:xlink="http://www.w3.org/1999/xlink" x="0px" y="0px"
	 width="280px" height="175px" viewBox="0 0 280 175" enable-background="new 0 0 280 175" xml:space="preserve">
<rect x="-50.577" y="-5.518" fill="#FFF5F5" width="381.154" height="186.036"/>
<g>
	<g opacity="0.15">
		<path fill="#006E12" d="M-448.502,372.425l8.186-8.185l26.433,26.433l-8.184,8.185L-448.502,372.425z"/>
		<path fill="#006E12" d="M-434.547,358.47l10.742-10.742l20.224,11.944l-11.97-20.199l10.735-10.734l26.433,26.431l-6.69,6.693
			l-20.157-20.159l15.003,25.313l-6.056,6.057l-25.3-15.015l20.156,20.158l-6.689,6.688L-434.547,358.47z"/>
		<path fill="#006E12" d="M-361.285,329.346l-9.272,9.272l3.074,5.652l-8.34,8.34l-16.498-36.368l8.91-8.909l36.365,16.503
			l-8.553,8.553L-361.285,329.346z M-368.695,325.324l-12.417-6.584l6.616,12.39L-368.695,325.324z"/>
		<path fill="#006E12" d="M-341.402,299.043l-5.499-5.502l12.62-12.621l11.271,11.27c-0.769,4.062-1.785,7.318-3.046,9.771
			c-1.263,2.452-3.169,4.952-5.716,7.5c-3.139,3.139-6.231,5.162-9.278,6.068c-3.046,0.907-6.173,0.849-9.375-0.179
			c-3.205-1.03-6.174-2.914-8.916-5.653c-2.885-2.884-4.8-5.988-5.744-9.313c-0.944-3.322-0.82-6.685,0.37-10.087
			c0.938-2.645,2.923-5.482,5.949-8.511c2.922-2.922,5.372-4.841,7.35-5.761c1.979-0.918,3.998-1.3,6.066-1.143
			c2.066,0.154,4.196,0.845,6.382,2.07l-6.472,9.285c-1.321-0.673-2.634-0.885-3.938-0.64c-1.305,0.246-2.558,0.971-3.759,2.173
			c-1.791,1.789-2.596,3.841-2.416,6.148c0.181,2.307,1.617,4.809,4.309,7.5c2.86,2.86,5.441,4.367,7.744,4.517
			c2.301,0.149,4.415-0.735,6.339-2.659c0.915-0.914,1.653-1.915,2.216-3.011c0.565-1.095,1.065-2.494,1.498-4.201l-2.488-2.489
			L-341.402,299.043z"/>
		<path fill="#006E12" d="M-340.805,264.729l21.887-21.89l5.644,5.645l-13.702,13.704l4.2,4.2l12.711-12.71l5.39,5.39l-12.71,12.712
			l5.21,5.21l14.101-14.097l5.985,5.986l-22.285,22.285L-340.805,264.729z"/>
		<path fill="#006E12" d="M-301.482,225.406l8.185-8.185l26.436,26.431l-8.186,8.185L-301.482,225.406z"/>
		<path fill="#006E12" d="M-287.526,211.449l10.741-10.74l20.225,11.942l-11.97-20.196l10.736-10.736l26.432,26.433l-6.69,6.69
			l-20.157-20.159l15.005,25.313l-6.057,6.057l-25.301-15.015l20.158,20.158l-6.69,6.688L-287.526,211.449z"/>
		<path fill="#006E12" d="M-214.264,182.325l-9.272,9.272l3.075,5.653l-8.34,8.341l-16.499-36.367l8.91-8.91l36.365,16.5
			l-8.551,8.554L-214.264,182.325z M-221.675,178.305l-12.418-6.585l6.615,12.39L-221.675,178.305z"/>
		<path fill="#006E12" d="M-194.381,152.021l-5.499-5.498l12.62-12.624l11.271,11.27c-0.769,4.063-1.784,7.32-3.046,9.771
			c-1.262,2.451-3.167,4.953-5.716,7.499c-3.139,3.139-6.23,5.163-9.277,6.071c-3.048,0.906-6.174,0.844-9.376-0.182
			c-3.204-1.027-6.175-2.913-8.916-5.653c-2.884-2.884-4.8-5.987-5.744-9.312c-0.943-3.322-0.82-6.687,0.369-10.089
			c0.938-2.644,2.922-5.479,5.949-8.511c2.924-2.919,5.373-4.841,7.349-5.762c1.979-0.918,3.998-1.3,6.066-1.142
			c2.067,0.154,4.197,0.847,6.383,2.07l-6.473,9.284c-1.322-0.673-2.635-0.886-3.939-0.639c-1.306,0.246-2.559,0.971-3.759,2.173
			c-1.792,1.789-2.597,3.839-2.416,6.147c0.18,2.306,1.617,4.808,4.309,7.501c2.86,2.859,5.443,4.367,7.743,4.514
			c2.301,0.151,4.415-0.733,6.339-2.655c0.914-0.915,1.654-1.917,2.217-3.012c0.564-1.095,1.065-2.497,1.497-4.201l-2.489-2.489
			L-194.381,152.021z"/>
		<path fill="#006E12" d="M-193.786,117.711l21.889-21.89l5.645,5.645l-13.704,13.701l4.2,4.2l12.711-12.711l5.39,5.393
			l-12.711,12.71l5.209,5.211l14.102-14.098l5.986,5.986l-22.287,22.285L-193.786,117.711z"/>
		<path fill="#006E12" d="M-154.462,78.386l8.186-8.186l26.433,26.432l-8.186,8.185L-154.462,78.386z"/>
		<path fill="#006E12" d="M-140.506,64.431l10.74-10.742l20.225,11.942l-11.97-20.197l10.735-10.735l26.431,26.433l-6.689,6.69
			l-20.157-20.158l15.004,25.312l-6.056,6.056l-25.301-15.015l20.157,20.159l-6.69,6.69L-140.506,64.431z"/>
		<path fill="#006E12" d="M-67.244,35.306l-9.274,9.274l3.076,5.652l-8.34,8.341L-98.28,22.206l8.91-8.911l36.365,16.5l-8.553,8.553
			L-67.244,35.306z M-74.655,31.286l-12.418-6.584l6.614,12.389L-74.655,31.286z"/>
		<path fill="#006E12" d="M-47.361,5.002l-5.5-5.5l12.619-12.621L-28.97-1.85c-0.77,4.063-1.786,7.32-3.048,9.772
			c-1.263,2.451-3.168,4.953-5.716,7.501c-3.139,3.138-6.23,5.162-9.276,6.067c-3.047,0.908-6.173,0.847-9.377-0.18
			c-3.203-1.028-6.174-2.913-8.915-5.652c-2.885-2.885-4.8-5.99-5.745-9.313c-0.943-3.324-0.821-6.687,0.37-10.087
			c0.936-2.646,2.921-5.482,5.948-8.513c2.923-2.919,5.373-4.841,7.349-5.76c1.979-0.919,3.999-1.301,6.066-1.144
			c2.068,0.156,4.197,0.847,6.383,2.071l-6.473,9.288c-1.32-0.671-2.634-0.885-3.938-0.64c-1.305,0.247-2.56,0.97-3.759,2.173
			c-1.791,1.79-2.596,3.84-2.416,6.148c0.179,2.306,1.617,4.808,4.31,7.5c2.86,2.86,5.441,4.368,7.741,4.517
			c2.303,0.15,4.417-0.736,6.339-2.658c0.915-0.915,1.654-1.917,2.217-3.012c0.565-1.094,1.065-2.495,1.499-4.201l-2.489-2.488
			L-47.361,5.002z"/>
		<path fill="#006E12" d="M-46.767-29.31l21.89-21.889l5.644,5.644l-13.703,13.704l4.2,4.201l12.711-12.711l5.39,5.39l-12.71,12.712
			l5.209,5.209l14.101-14.098l5.987,5.986L-20.334-2.877L-46.767-29.31z"/>
		<path fill="#006E12" d="M-7.443-68.632l8.186-8.186l26.433,26.431l-8.186,8.186L-7.443-68.632z"/>
		<path fill="#006E12" d="M6.514-82.59l10.74-10.741l20.225,11.942l-11.969-20.197l10.734-10.735l26.432,26.433l-6.689,6.689
			L35.831-99.358l15.005,25.311L44.78-67.99L19.479-83.005l20.157,20.159l-6.689,6.69L6.514-82.59z"/>
		<path fill="#006E12" d="M79.777-111.713l-9.274,9.273l3.076,5.652l-8.34,8.34l-16.5-36.368l8.91-8.909l36.365,16.5l-8.553,8.552
			L79.777-111.713z M72.365-115.734l-12.418-6.585l6.614,12.392L72.365-115.734z"/>
		<path fill="#006E12" d="M99.658-142.017l-5.5-5.5l12.621-12.623l11.27,11.269c-0.769,4.063-1.785,7.322-3.048,9.774
			c-1.261,2.452-3.168,4.95-5.716,7.499c-3.138,3.138-6.23,5.161-9.278,6.068c-3.048,0.907-6.172,0.846-9.375-0.181
			c-3.205-1.027-6.176-2.913-8.917-5.652c-2.885-2.886-4.8-5.989-5.745-9.313c-0.943-3.323-0.82-6.688,0.37-10.087
			c0.938-2.646,2.921-5.482,5.95-8.512c2.922-2.919,5.371-4.84,7.347-5.76c1.979-0.919,4-1.301,6.066-1.144
			c2.068,0.156,4.197,0.846,6.384,2.072l-6.473,9.285c-1.323-0.672-2.636-0.886-3.94-0.639c-1.304,0.246-2.558,0.97-3.758,2.173
			c-1.791,1.79-2.597,3.839-2.416,6.147c0.18,2.308,1.617,4.809,4.309,7.501c2.86,2.86,5.442,4.367,7.743,4.518
			c2.302,0.149,4.415-0.737,6.339-2.661c0.914-0.913,1.653-1.916,2.216-3.011c0.565-1.095,1.065-2.494,1.498-4.201l-2.489-2.489
			L99.658-142.017z"/>
		<path fill="#006E12" d="M100.254-176.33l21.889-21.888l5.645,5.644l-13.706,13.703l4.203,4.201l12.711-12.71l5.391,5.39
			l-12.712,12.712l5.21,5.211l14.098-14.099l5.988,5.986l-22.285,22.287L100.254-176.33z"/>
		<path fill="#006E12" d="M139.577-215.653l8.186-8.185l26.431,26.431l-8.183,8.187L139.577-215.653z"/>
		<path fill="#006E12" d="M153.531-229.609l10.742-10.741l20.227,11.94l-11.972-20.197l10.735-10.735l26.433,26.435l-6.688,6.689
			l-20.156-20.159l15.002,25.312l-6.054,6.056l-25.301-15.014l20.156,20.159l-6.688,6.69L153.531-229.609z"/>
		<path fill="#006E12" d="M226.794-258.732l-9.273,9.273l3.079,5.652l-8.342,8.34l-16.498-36.368l8.909-8.909l36.365,16.5
			l-8.555,8.553L226.794-258.732z M219.385-262.753l-12.42-6.586l6.616,12.39L219.385-262.753z"/>
		<path fill="#006E12" d="M246.679-289.036l-5.499-5.5l12.62-12.623l11.27,11.27c-0.771,4.065-1.786,7.322-3.048,9.773
			c-1.264,2.452-3.166,4.95-5.716,7.499c-3.137,3.139-6.231,5.161-9.278,6.068c-3.048,0.907-6.172,0.848-9.375-0.181
			c-3.202-1.029-6.176-2.913-8.916-5.652c-2.885-2.885-4.799-5.988-5.741-9.313c-0.944-3.323-0.821-6.687,0.368-10.086
			c0.938-2.645,2.92-5.482,5.95-8.511c2.919-2.92,5.372-4.841,7.348-5.762c1.976-0.918,3.999-1.301,6.064-1.144
			c2.068,0.156,4.196,0.847,6.384,2.071l-6.474,9.287c-1.322-0.671-2.636-0.887-3.94-0.64c-1.302,0.245-2.556,0.972-3.757,2.174
			c-1.793,1.79-2.596,3.84-2.418,6.147c0.183,2.308,1.618,4.809,4.308,7.501c2.861,2.86,5.444,4.367,7.742,4.517
			c2.304,0.149,4.418-0.736,6.342-2.66c0.913-0.914,1.652-1.917,2.216-3.01c0.566-1.094,1.064-2.495,1.499-4.201l-2.49-2.488
			L246.679-289.036z"/>
		<path fill="#006E12" d="M247.275-323.349l21.887-21.89l5.643,5.644l-13.699,13.704l4.197,4.201l12.713-12.711l5.391,5.392
			l-12.709,12.711l5.209,5.211l14.101-14.098l5.984,5.986l-22.285,22.286L247.275-323.349z"/>
		<path fill="#006E12" d="M286.598-362.672l8.185-8.185l26.433,26.431l-8.187,8.186L286.598-362.672z"/>
		<path fill="#006E12" d="M300.553-376.629l10.74-10.74l20.228,11.941l-11.97-20.197l10.735-10.735l26.431,26.433l-6.688,6.689
			l-20.158-20.158l15.005,25.311l-6.055,6.056l-25.303-15.014l20.157,20.158l-6.688,6.689L300.553-376.629z"/>
		<path fill="#006E12" d="M373.815-405.753l-9.273,9.273l3.073,5.652l-8.337,8.341l-16.498-36.368l8.907-8.911l36.365,16.5
			l-8.553,8.553L373.815-405.753z M366.406-409.774l-12.419-6.585l6.611,12.39L366.406-409.774z"/>
		<path fill="#006E12" d="M393.697-436.057l-5.499-5.5l12.621-12.623l11.271,11.271c-0.769,4.062-1.784,7.32-3.046,9.772
			c-1.264,2.452-3.17,4.952-5.717,7.499c-3.138,3.138-6.231,5.162-9.276,6.068c-3.048,0.907-6.175,0.848-9.377-0.181
			c-3.203-1.027-6.177-2.913-8.915-5.652c-2.887-2.885-4.802-5.989-5.745-9.313c-0.944-3.323-0.819-6.687,0.37-10.088
			c0.937-2.644,2.923-5.482,5.948-8.509c2.922-2.922,5.37-4.843,7.348-5.763c1.979-0.918,4-1.301,6.068-1.143
			c2.066,0.154,4.193,0.845,6.382,2.071l-6.472,9.285c-1.324-0.671-2.636-0.885-3.94-0.639c-1.304,0.246-2.558,0.971-3.76,2.173
			c-1.789,1.789-2.597,3.839-2.413,6.147c0.178,2.307,1.614,4.808,4.309,7.5c2.859,2.86,5.439,4.367,7.742,4.519
			c2.303,0.147,4.416-0.737,6.337-2.661c0.913-0.914,1.652-1.917,2.217-3.01c0.565-1.094,1.063-2.495,1.496-4.201l-2.485-2.488
			L393.697-436.057z"/>
		<path fill="#006E12" d="M394.291-470.368l21.893-21.891l5.643,5.644l-13.705,13.703l4.203,4.201l12.712-12.711l5.39,5.39
			l-12.713,12.711l5.212,5.211l14.098-14.1l5.989,5.987l-22.285,22.285L394.291-470.368z"/>
	</g>
	<g opacity="0.15">
		<path fill="#006E12" d="M-471.582,487.82l8.186-8.187l26.434,26.434l-8.187,8.187L-471.582,487.82z"/>
		<path fill="#006E12" d="M-457.625,473.865l10.742-10.741l20.225,11.941l-11.97-20.196l10.735-10.734l26.432,26.431l-6.69,6.688
			l-20.158-20.155l15.001,25.311l-6.055,6.055l-25.3-15.012l20.155,20.157l-6.689,6.689L-457.625,473.865z"/>
		<path fill="#006E12" d="M-384.363,444.741l-9.272,9.271l3.074,5.652l-8.34,8.339l-16.498-36.365l8.91-8.909l36.365,16.5
			l-8.555,8.553L-384.363,444.741z M-391.774,440.719l-12.418-6.582l6.615,12.387L-391.774,440.719z"/>
		<path fill="#006E12" d="M-364.48,414.436l-5.5-5.498l12.62-12.623l11.271,11.269c-0.771,4.063-1.788,7.32-3.048,9.771
			c-1.261,2.453-3.169,4.955-5.716,7.501c-3.139,3.141-6.231,5.161-9.278,6.068c-3.048,0.906-6.173,0.848-9.375-0.18
			c-3.204-1.027-6.177-2.914-8.917-5.652c-2.884-2.885-4.8-5.989-5.744-9.312c-0.944-3.323-0.82-6.688,0.368-10.09
			c0.939-2.643,2.923-5.479,5.95-8.512c2.922-2.918,5.37-4.839,7.348-5.759c1.979-0.923,3.999-1.301,6.066-1.146
			c2.066,0.156,4.195,0.848,6.382,2.072l-6.472,9.285c-1.322-0.673-2.634-0.885-3.939-0.639c-1.305,0.245-2.558,0.97-3.759,2.17
			c-1.791,1.794-2.596,3.844-2.416,6.15c0.179,2.307,1.616,4.808,4.31,7.5c2.86,2.859,5.441,4.366,7.743,4.517
			c2.301,0.15,4.413-0.736,6.339-2.657c0.913-0.916,1.65-1.92,2.216-3.014c0.565-1.093,1.065-2.495,1.498-4.2l-2.487-2.486
			L-364.48,414.436z"/>
		<path fill="#006E12" d="M-363.883,380.125l21.888-21.89l5.644,5.646l-13.703,13.701l4.2,4.2l12.712-12.71l5.392,5.391
			l-12.711,12.71l5.21,5.212l14.101-14.099l5.985,5.986l-22.285,22.285L-363.883,380.125z"/>
		<path fill="#006E12" d="M-324.56,340.801l8.185-8.188l26.435,26.434l-8.188,8.187L-324.56,340.801z"/>
		<path fill="#006E12" d="M-310.605,326.845l10.742-10.741l20.225,11.939l-11.97-20.194l10.735-10.734l26.432,26.431l-6.69,6.691
			l-20.157-20.158l15.003,25.313l-6.054,6.053l-25.303-15.012l20.16,20.157l-6.69,6.691L-310.605,326.845z"/>
		<path fill="#006E12" d="M-237.342,297.721l-9.273,9.273l3.075,5.652l-8.34,8.337l-16.5-36.365l8.91-8.909l36.365,16.5
			l-8.554,8.553L-237.342,297.721z M-244.753,293.7l-12.419-6.585l6.616,12.388L-244.753,293.7z"/>
		<path fill="#006E12" d="M-217.458,267.417l-5.5-5.5l12.62-12.622l11.271,11.27c-0.771,4.062-1.787,7.319-3.047,9.771
			c-1.263,2.451-3.168,4.953-5.716,7.501c-3.139,3.138-6.229,5.159-9.276,6.066c-3.048,0.909-6.174,0.848-9.376-0.179
			c-3.204-1.028-6.177-2.912-8.916-5.653c-2.885-2.885-4.8-5.988-5.743-9.312s-0.822-6.688,0.369-10.091
			c0.938-2.642,2.922-5.479,5.949-8.511c2.923-2.918,5.37-4.839,7.348-5.759c1.979-0.921,3.999-1.302,6.066-1.146
			c2.067,0.156,4.194,0.848,6.383,2.072l-6.473,9.287c-1.322-0.675-2.634-0.888-3.939-0.641c-1.306,0.245-2.559,0.97-3.76,2.17
			c-1.791,1.792-2.596,3.844-2.415,6.15c0.177,2.307,1.615,4.809,4.308,7.501c2.86,2.858,5.442,4.365,7.744,4.516
			c2.302,0.151,4.413-0.736,6.339-2.658c0.912-0.913,1.65-1.917,2.217-3.01c0.563-1.096,1.064-2.496,1.499-4.202l-2.49-2.488
			L-217.458,267.417z"/>
		<path fill="#006E12" d="M-216.864,233.104l21.889-21.89l5.644,5.645l-13.703,13.704l4.201,4.199l12.711-12.712l5.39,5.391
			l-12.711,12.713l5.209,5.211l14.101-14.1l5.988,5.986l-22.286,22.285L-216.864,233.104z"/>
		<path fill="#006E12" d="M-177.541,193.782l8.186-8.189l26.433,26.436l-8.188,8.185L-177.541,193.782z"/>
		<path fill="#006E12" d="M-163.584,179.825l10.74-10.742l20.225,11.94l-11.97-20.195l10.736-10.733l26.432,26.431l-6.69,6.69
			l-20.157-20.158l15.003,25.313l-6.053,6.054l-25.304-15.011l20.159,20.158l-6.69,6.688L-163.584,179.825z"/>
		<path fill="#006E12" d="M-90.322,150.7l-9.274,9.273l3.076,5.652l-8.34,8.34l-16.5-36.366l8.911-8.909l36.365,16.501l-8.555,8.553
			L-90.322,150.7z M-97.734,146.68l-12.417-6.586l6.614,12.389L-97.734,146.68z"/>
		<path fill="#006E12" d="M-70.439,120.399l-5.499-5.5l12.62-12.624l11.268,11.269c-0.77,4.063-1.786,7.321-3.048,9.773
			c-1.26,2.45-3.166,4.951-5.714,7.501c-3.139,3.136-6.23,5.159-9.277,6.065c-3.049,0.909-6.173,0.848-9.375-0.178
			c-3.205-1.029-6.177-2.913-8.916-5.655c-2.887-2.885-4.8-5.987-5.744-9.311c-0.944-3.323-0.822-6.687,0.37-10.089
			c0.936-2.644,2.923-5.48,5.949-8.51c2.922-2.921,5.37-4.841,7.348-5.761c1.977-0.921,4-1.301,6.066-1.146
			c2.067,0.158,4.194,0.85,6.384,2.074l-6.473,9.287c-1.322-0.673-2.634-0.888-3.938-0.642c-1.305,0.248-2.56,0.973-3.758,2.172
			c-1.791,1.791-2.597,3.843-2.416,6.149c0.177,2.307,1.615,4.808,4.309,7.5c2.86,2.861,5.441,4.368,7.743,4.517
			c2.302,0.151,4.413-0.734,6.339-2.658c0.913-0.914,1.651-1.92,2.217-3.011c0.564-1.094,1.064-2.495,1.498-4.201l-2.489-2.488
			L-70.439,120.399z"/>
		<path fill="#006E12" d="M-69.845,86.086l21.89-21.889l5.643,5.644l-13.704,13.702l4.201,4.201l12.711-12.71l5.391,5.39
			l-12.711,12.711l5.21,5.211l14.101-14.098l5.988,5.987l-22.289,22.285L-69.845,86.086z"/>
		<path fill="#006E12" d="M-30.521,46.762l8.186-8.187L4.097,65.008l-8.188,8.185L-30.521,46.762z"/>
		<path fill="#006E12" d="M-16.565,32.806l10.742-10.741l20.225,11.94L2.432,13.811L13.167,3.076l26.431,26.432l-6.689,6.69
			l-20.158-20.16L27.754,41.35l-6.055,6.054L-3.604,32.391l20.159,20.16L9.866,59.24L-16.565,32.806z"/>
		<path fill="#006E12" d="M56.697,3.682l-9.274,9.273l3.076,5.653l-8.34,8.338L25.662-9.419l8.91-8.909l36.365,16.5l-8.555,8.551
			L56.697,3.682z M49.286-0.339L36.868-6.924l6.615,12.389L49.286-0.339z"/>
		<path fill="#006E12" d="M76.579-26.621l-5.5-5.5l12.622-12.623L94.97-33.475c-0.771,4.064-1.787,7.321-3.049,9.771
			c-1.259,2.452-3.165,4.954-5.714,7.501c-3.138,3.138-6.23,5.158-9.276,6.066c-3.048,0.909-6.172,0.847-9.375-0.18
			c-3.205-1.028-6.179-2.913-8.917-5.654c-2.885-2.882-4.8-5.988-5.743-9.311c-0.943-3.323-0.822-6.687,0.369-10.089
			c0.938-2.644,2.922-5.48,5.95-8.51c2.922-2.92,5.369-4.841,7.347-5.762c1.976-0.92,4-1.301,6.066-1.145
			c2.067,0.158,4.195,0.849,6.383,2.074l-6.471,9.287c-1.322-0.674-2.635-0.887-3.939-0.64c-1.304,0.247-2.558,0.97-3.759,2.171
			c-1.791,1.791-2.595,3.841-2.416,6.148c0.18,2.308,1.615,4.809,4.311,7.502c2.86,2.86,5.441,4.366,7.743,4.515
			c2.302,0.15,4.413-0.735,6.339-2.658c0.911-0.914,1.65-1.918,2.216-3.011c0.567-1.094,1.066-2.495,1.499-4.201l-2.49-2.489
			L76.579-26.621z"/>
		<path fill="#006E12" d="M77.175-60.935l21.89-21.888l5.643,5.643L91.003-63.476l4.201,4.199l12.711-12.711l5.391,5.391
			l-12.711,12.712l5.211,5.21l14.101-14.099l5.986,5.986L103.606-34.5L77.175-60.935z"/>
		<path fill="#006E12" d="M116.498-100.258l8.186-8.187l26.433,26.434l-8.187,8.186L116.498-100.258z"/>
		<path fill="#006E12" d="M130.455-114.214l10.74-10.741l20.225,11.939l-11.969-20.196l10.736-10.735l26.431,26.432l-6.689,6.689
			l-20.159-20.156l15.005,25.311l-6.053,6.055l-25.304-15.013l20.156,20.158l-6.69,6.69L130.455-114.214z"/>
		<path fill="#006E12" d="M203.718-143.339l-9.273,9.272l3.072,5.653l-8.337,8.338l-16.499-36.365l8.907-8.911l36.365,16.501
			l-8.552,8.552L203.718-143.339z M196.308-147.358l-12.419-6.585l6.611,12.389L196.308-147.358z"/>
		<path fill="#006E12" d="M223.599-173.642l-5.5-5.498l12.621-12.623l11.27,11.269c-0.769,4.062-1.784,7.321-3.046,9.771
			c-1.264,2.452-3.17,4.953-5.714,7.501c-3.139,3.139-6.23,5.16-9.278,6.067c-3.048,0.91-6.174,0.848-9.376-0.179
			c-3.204-1.028-6.177-2.913-8.915-5.653c-2.885-2.885-4.801-5.988-5.746-9.312c-0.945-3.323-0.82-6.688,0.368-10.09
			c0.938-2.643,2.925-5.479,5.951-8.51c2.925-2.92,5.37-4.841,7.348-5.761c1.977-0.92,4-1.301,6.068-1.145
			c2.068,0.157,4.193,0.848,6.382,2.073l-6.472,9.285c-1.322-0.672-2.636-0.885-3.94-0.639c-1.305,0.245-2.558,0.97-3.76,2.171
			c-1.79,1.791-2.597,3.842-2.415,6.149c0.18,2.309,1.616,4.808,4.311,7.501c2.859,2.86,5.439,4.366,7.742,4.515
			c2.303,0.151,4.413-0.734,6.337-2.658c0.913-0.914,1.652-1.918,2.217-3.011c0.564-1.095,1.063-2.495,1.495-4.201l-2.485-2.488
			L223.599-173.642z"/>
		<path fill="#006E12" d="M224.192-207.954l21.894-21.889l5.645,5.644l-13.708,13.704l4.205,4.2l12.71-12.71l5.389,5.391
			l-12.71,12.711l5.21,5.211l14.101-14.1l5.987,5.986l-22.286,22.286L224.192-207.954z"/>
		<path fill="#006E12" d="M263.518-247.278l8.187-8.187l26.433,26.434l-8.187,8.185L263.518-247.278z"/>
		<path fill="#006E12" d="M277.473-261.235l10.743-10.742l20.225,11.941l-11.971-20.196l10.735-10.735l26.434,26.432l-6.689,6.689
			l-20.156-20.156l15.002,25.313l-6.053,6.053l-25.304-15.011l20.158,20.159l-6.689,6.689L277.473-261.235z"/>
		<path fill="#006E12" d="M350.736-290.358l-9.273,9.274l3.078,5.652l-8.344,8.339l-16.498-36.365l8.912-8.91l36.365,16.5
			l-8.555,8.553L350.736-290.358z M343.327-294.379l-12.422-6.584l6.617,12.388L343.327-294.379z"/>
		<path fill="#006E12" d="M370.62-320.661l-5.501-5.5l12.623-12.622l11.268,11.268c-0.769,4.064-1.785,7.321-3.046,9.773
			c-1.264,2.452-3.166,4.953-5.717,7.501c-3.136,3.138-6.229,5.16-9.277,6.068s-6.171,0.846-9.377-0.18
			c-3.203-1.029-6.174-2.914-8.915-5.652c-2.885-2.885-4.798-5.989-5.742-9.313c-0.944-3.323-0.819-6.686,0.369-10.089
			c0.938-2.643,2.921-5.48,5.949-8.51c2.92-2.919,5.37-4.84,7.348-5.76c1.977-0.918,4-1.301,6.066-1.146
			c2.067,0.157,4.195,0.849,6.382,2.074l-6.474,9.285c-1.322-0.674-2.637-0.887-3.938-0.64c-1.305,0.247-2.557,0.97-3.758,2.172
			c-1.794,1.79-2.595,3.841-2.418,6.149c0.18,2.308,1.616,4.808,4.31,7.501c2.859,2.86,5.443,4.366,7.742,4.516
			c2.304,0.15,4.416-0.736,6.338-2.658c0.914-0.915,1.652-1.919,2.219-3.012c0.563-1.094,1.065-2.494,1.495-4.201l-2.488-2.487
			L370.62-320.661z"/>
		<path fill="#006E12" d="M371.213-354.973l21.889-21.889l5.645,5.644l-13.702,13.704l4.199,4.201l12.712-12.711l5.393,5.39
			l-12.711,12.71l5.211,5.21l14.101-14.098l5.983,5.987l-22.284,22.286L371.213-354.973z"/>
		<path fill="#006E12" d="M410.537-394.298l8.185-8.186l26.436,26.431l-8.187,8.186L410.537-394.298z"/>
		<path fill="#006E12" d="M424.493-408.254l10.741-10.741l20.225,11.941l-11.968-20.196l10.734-10.735l26.434,26.431l-6.69,6.69
			l-20.157-20.157l15.004,25.312l-6.053,6.054l-25.304-15.013l20.155,20.16l-6.688,6.689L424.493-408.254z"/>
		<path fill="#006E12" d="M497.758-437.378l-9.273,9.272l3.073,5.653l-8.337,8.34l-16.499-36.368l8.906-8.91l36.365,16.501
			l-8.552,8.552L497.758-437.378z M490.346-441.397l-12.419-6.585l6.613,12.389L490.346-441.397z"/>
		<path fill="#006E12" d="M517.638-467.68l-5.499-5.5l12.622-12.623l11.269,11.268c-0.768,4.064-1.784,7.321-3.046,9.773
			c-1.262,2.452-3.17,4.953-5.714,7.5c-3.138,3.138-6.231,5.16-9.277,6.068c-3.048,0.907-6.173,0.846-9.375-0.181
			c-3.206-1.028-6.179-2.913-8.916-5.652c-2.886-2.885-4.803-5.99-5.747-9.313c-0.944-3.322-0.819-6.687,0.369-10.088
			c0.94-2.644,2.925-5.481,5.952-8.51c2.921-2.92,5.369-4.84,7.346-5.761c1.978-0.918,4.001-1.3,6.07-1.146
			c2.064,0.157,4.194,0.848,6.381,2.074l-6.472,9.285c-1.324-0.673-2.637-0.887-3.939-0.639c-1.305,0.247-2.558,0.97-3.76,2.171
			c-1.789,1.792-2.597,3.842-2.416,6.15c0.179,2.308,1.617,4.808,4.309,7.501c2.862,2.86,5.441,4.367,7.744,4.515
			c2.302,0.15,4.413-0.735,6.337-2.658c0.913-0.914,1.653-1.917,2.218-3.011c0.563-1.095,1.062-2.496,1.495-4.202l-2.489-2.487
			L517.638-467.68z"/>
		<path fill="#006E12" d="M518.231-501.994l21.893-21.889l5.643,5.644l-13.704,13.702l4.203,4.201l12.711-12.71l5.39,5.39
			l-12.714,12.71l5.213,5.211l14.1-14.099l5.988,5.985l-22.285,22.286L518.231-501.994z"/>
	</g>
	<g opacity="0.15">
		<path fill="#006E12" d="M-356.187,464.742l8.186-8.187l26.433,26.433l-8.188,8.185L-356.187,464.742z"/>
		<path fill="#006E12" d="M-342.231,450.785l10.742-10.741l20.227,11.941l-11.97-20.194l10.735-10.734l26.433,26.431l-6.69,6.688
			l-20.159-20.157l15.004,25.314l-6.054,6.053l-25.302-15.012l20.158,20.155l-6.689,6.691L-342.231,450.785z"/>
		<path fill="#006E12" d="M-268.967,421.661l-9.273,9.275l3.074,5.647l-8.34,8.342l-16.498-36.368l8.909-8.907l36.364,16.501
			l-8.554,8.553L-268.967,421.661z M-276.379,417.641l-12.417-6.582l6.616,12.387L-276.379,417.641z"/>
		<path fill="#006E12" d="M-249.086,391.357l-5.5-5.5l12.621-12.619l11.268,11.267c-0.768,4.063-1.783,7.32-3.045,9.771
			c-1.262,2.452-3.167,4.955-5.716,7.503c-3.136,3.134-6.229,5.159-9.276,6.066c-3.046,0.906-6.172,0.848-9.377-0.18
			c-3.202-1.027-6.175-2.912-8.916-5.652c-2.883-2.885-4.799-5.989-5.741-9.313c-0.944-3.325-0.82-6.687,0.369-10.089
			c0.938-2.644,2.921-5.482,5.949-8.51c2.922-2.923,5.371-4.841,7.349-5.759c1.975-0.921,3.999-1.303,6.066-1.148
			c2.066,0.159,4.193,0.849,6.382,2.075l-6.472,9.285c-1.324-0.673-2.639-0.887-3.939-0.642c-1.305,0.248-2.558,0.971-3.761,2.173
			c-1.79,1.791-2.595,3.842-2.417,6.15c0.182,2.305,1.619,4.805,4.311,7.498c2.861,2.861,5.443,4.366,7.746,4.517
			c2.301,0.152,4.413-0.734,6.336-2.659c0.913-0.912,1.653-1.916,2.217-3.012c0.564-1.091,1.064-2.493,1.496-4.2l-2.488-2.489
			L-249.086,391.357z"/>
		<path fill="#006E12" d="M-248.491,357.047l21.889-21.89l5.644,5.644l-13.701,13.702l4.2,4.2l12.71-12.712l5.391,5.392
			l-12.71,12.712l5.21,5.209l14.1-14.099l5.986,5.987l-22.285,22.285L-248.491,357.047z"/>
		<path fill="#006E12" d="M-209.166,317.725l8.185-8.189l26.432,26.434l-8.185,8.184L-209.166,317.725z"/>
		<path fill="#006E12" d="M-195.212,303.767l10.741-10.741l20.226,11.94l-11.969-20.195l10.736-10.735l26.432,26.431l-6.69,6.689
			L-165.895,287l15.003,25.311l-6.052,6.055l-25.305-15.012l20.159,20.155l-6.688,6.688L-195.212,303.767z"/>
		<path fill="#006E12" d="M-121.947,274.643l-9.273,9.273l3.075,5.647l-8.34,8.342l-16.499-36.368l8.909-8.906l36.364,16.5
			l-8.553,8.553L-121.947,274.643z M-129.358,270.622l-12.421-6.586l6.617,12.389L-129.358,270.622z"/>
		<path fill="#006E12" d="M-102.067,244.337l-5.499-5.502l12.622-12.619l11.269,11.269c-0.769,4.063-1.785,7.32-3.046,9.771
			c-1.263,2.451-3.166,4.953-5.716,7.502c-3.137,3.134-6.229,5.158-9.274,6.066c-3.048,0.906-6.174,0.848-9.379-0.181
			c-3.202-1.026-6.174-2.912-8.916-5.651c-2.883-2.885-4.799-5.989-5.741-9.313c-0.944-3.325-0.821-6.687,0.371-10.089
			c0.936-2.644,2.919-5.48,5.948-8.51c2.923-2.923,5.37-4.84,7.348-5.76c1.976-0.921,3.998-1.302,6.066-1.145
			c2.068,0.156,4.195,0.848,6.383,2.072l-6.473,9.285c-1.324-0.673-2.637-0.885-3.939-0.639c-1.305,0.247-2.559,0.971-3.762,2.17
			c-1.79,1.791-2.594,3.842-2.417,6.149c0.181,2.309,1.617,4.808,4.309,7.502c2.863,2.859,5.445,4.363,7.746,4.516
			c2.301,0.15,4.413-0.736,6.336-2.658c0.915-0.914,1.654-1.919,2.218-3.014c0.565-1.092,1.065-2.494,1.497-4.201l-2.489-2.488
			L-102.067,244.337z"/>
		<path fill="#006E12" d="M-101.471,210.026l21.888-21.89l5.644,5.645l-13.701,13.701l4.2,4.202l12.711-12.714l5.39,5.393
			l-12.711,12.711l5.21,5.212l14.098-14.1l5.988,5.987l-22.285,22.284L-101.471,210.026z"/>
		<path fill="#006E12" d="M-62.146,170.703l8.186-8.188l26.431,26.435l-8.186,8.185L-62.146,170.703z"/>
		<path fill="#006E12" d="M-48.193,156.746l10.742-10.741l20.227,11.941l-11.97-20.194l10.736-10.736l26.431,26.432l-6.689,6.689
			l-20.16-20.157l15.005,25.313l-6.055,6.053l-25.303-15.01l20.159,20.155l-6.69,6.689L-48.193,156.746z"/>
		<path fill="#006E12" d="M25.072,127.622l-9.273,9.273l3.076,5.65l-8.34,8.341L-5.963,114.52l8.909-8.907l36.364,16.499
			l-8.553,8.555L25.072,127.622z M17.662,123.602l-12.419-6.584l6.616,12.389L17.662,123.602z"/>
		<path fill="#006E12" d="M44.954,97.316l-5.499-5.498l12.621-12.62l11.27,11.268c-0.769,4.062-1.785,7.32-3.048,9.771
			c-1.261,2.452-3.166,4.953-5.716,7.502c-3.136,3.136-6.228,5.159-9.275,6.066c-3.046,0.906-6.174,0.848-9.377-0.182
			c-3.203-1.025-6.175-2.911-8.917-5.652c-2.883-2.882-4.798-5.987-5.741-9.311c-0.942-3.322-0.821-6.686,0.37-10.09
			c0.936-2.643,2.919-5.479,5.949-8.51c2.923-2.922,5.369-4.841,7.348-5.76c1.977-0.922,3.999-1.301,6.066-1.147
			c2.068,0.158,4.194,0.849,6.383,2.074l-6.472,9.286c-1.325-0.674-2.637-0.886-3.94-0.64c-1.304,0.247-2.559,0.969-3.761,2.171
			c-1.788,1.79-2.593,3.842-2.415,6.149c0.18,2.308,1.617,4.808,4.308,7.501c2.863,2.861,5.443,4.366,7.746,4.516
			c2.302,0.152,4.413-0.736,6.336-2.656c0.914-0.914,1.653-1.919,2.218-3.015c0.565-1.092,1.065-2.493,1.496-4.201l-2.488-2.487
			L44.954,97.316z"/>
		<path fill="#006E12" d="M45.548,63.007l21.89-21.889l5.645,5.644L59.379,60.465l4.2,4.201l12.71-12.711l5.392,5.39L68.971,70.057
			l5.209,5.209l14.1-14.1l5.989,5.988L71.982,89.438L45.548,63.007z"/>
		<path fill="#006E12" d="M84.874,23.684l8.186-8.188l26.432,26.433l-8.186,8.186L84.874,23.684z"/>
		<path fill="#006E12" d="M98.829,9.727L109.57-1.014l20.226,11.939l-11.97-20.194l10.737-10.735l26.431,26.431l-6.689,6.69
			l-20.16-20.158l15.005,25.313l-6.055,6.053L111.791,9.314L131.95,29.47l-6.689,6.69L98.829,9.727z"/>
		<path fill="#006E12" d="M172.09-19.396l-9.272,9.272l3.077,5.652l-8.343,8.339l-16.495-36.368l8.907-8.908l36.363,16.5
			l-8.552,8.552L172.09-19.396z M164.679-23.417l-12.418-6.587l6.617,12.389L164.679-23.417z"/>
		<path fill="#006E12" d="M191.973-49.7l-5.5-5.5l12.621-12.623l11.27,11.27c-0.767,4.063-1.783,7.321-3.047,9.771
			c-1.261,2.452-3.166,4.953-5.714,7.501c-3.136,3.136-6.23,5.159-9.278,6.066c-3.047,0.907-6.171,0.848-9.376-0.181
			c-3.203-1.025-6.176-2.91-8.916-5.652c-2.886-2.884-4.798-5.988-5.742-9.311c-0.943-3.323-0.82-6.688,0.37-10.089
			c0.935-2.643,2.919-5.48,5.949-8.51c2.92-2.922,5.37-4.84,7.347-5.761c1.977-0.92,4.001-1.3,6.064-1.146
			c2.07,0.159,4.196,0.849,6.383,2.074l-6.472,9.287c-1.322-0.673-2.635-0.886-3.938-0.639c-1.305,0.247-2.56,0.971-3.76,2.17
			c-1.791,1.792-2.597,3.842-2.417,6.15c0.181,2.308,1.617,4.808,4.31,7.501c2.86,2.86,5.442,4.364,7.742,4.516
			c2.304,0.15,4.416-0.735,6.339-2.659c0.914-0.914,1.654-1.919,2.216-3.011c0.566-1.094,1.067-2.495,1.499-4.203l-2.489-2.489
			L191.973-49.7z"/>
		<path fill="#006E12" d="M192.568-84.013l21.89-21.888l5.645,5.643L206.4-86.554l4.197,4.201l12.712-12.71l5.393,5.391
			l-12.711,12.711l5.21,5.211L235.3-85.85l5.988,5.986l-22.287,22.283L192.568-84.013z"/>
		<path fill="#006E12" d="M231.895-123.336l8.186-8.188l26.431,26.433l-8.185,8.186L231.895-123.336z"/>
		<path fill="#006E12" d="M245.848-137.292l10.742-10.741l20.224,11.939l-11.966-20.195l10.733-10.735l26.431,26.433l-6.688,6.689
			l-20.158-20.158l15.006,25.312l-6.055,6.055l-25.302-15.011l20.155,20.156l-6.689,6.69L245.848-137.292z"/>
		<path fill="#006E12" d="M319.11-166.417l-9.271,9.274l3.072,5.652l-8.339,8.339l-16.497-36.365l8.906-8.909l36.365,16.498
			l-8.553,8.554L319.11-166.417z M311.7-170.438l-12.419-6.585l6.615,12.389L311.7-170.438z"/>
		<path fill="#006E12" d="M338.993-196.719l-5.5-5.501l12.623-12.621l11.269,11.268c-0.771,4.063-1.786,7.321-3.048,9.771
			c-1.261,2.452-3.168,4.953-5.716,7.501c-3.138,3.136-6.229,5.159-9.275,6.065c-3.046,0.908-6.176,0.849-9.378-0.18
			c-3.202-1.025-6.175-2.912-8.915-5.653c-2.886-2.884-4.8-5.987-5.744-9.311c-0.945-3.324-0.821-6.687,0.369-10.09
			c0.939-2.644,2.922-5.48,5.95-8.51c2.924-2.92,5.369-4.841,7.347-5.761c1.978-0.921,4-1.301,6.068-1.145
			c2.065,0.158,4.193,0.848,6.382,2.073l-6.473,9.286c-1.322-0.673-2.637-0.886-3.938-0.64c-1.305,0.246-2.56,0.971-3.761,2.171
			c-1.792,1.792-2.597,3.842-2.417,6.15c0.181,2.308,1.618,4.806,4.31,7.5c2.862,2.86,5.442,4.365,7.745,4.516
			c2.299,0.151,4.414-0.736,6.335-2.658c0.915-0.914,1.654-1.919,2.219-3.01c0.565-1.094,1.063-2.495,1.496-4.204l-2.487-2.486
			L338.993-196.719z"/>
		<path fill="#006E12" d="M339.589-231.034l21.89-21.889l5.644,5.643l-13.703,13.704l4.202,4.201l12.712-12.711l5.39,5.391
			l-12.712,12.711l5.21,5.21l14.1-14.098l5.988,5.986l-22.284,22.284L339.589-231.034z"/>
		<path fill="#006E12" d="M378.911-270.357l8.186-8.188l26.435,26.435l-8.185,8.185L378.911-270.357z"/>
		<path fill="#006E12" d="M392.867-284.313l10.74-10.741l20.229,11.94l-11.971-20.195l10.734-10.735l26.433,26.432l-6.688,6.689
			l-20.158-20.156l15.006,25.311l-6.058,6.055l-25.301-15.012l20.16,20.157l-6.689,6.689L392.867-284.313z"/>
		<path fill="#006E12" d="M466.13-313.437l-9.273,9.273l3.079,5.652l-8.344,8.339l-16.499-36.365l8.912-8.911l36.363,16.5
			l-8.553,8.553L466.13-313.437z M458.718-317.458l-12.417-6.585l6.616,12.389L458.718-317.458z"/>
		<path fill="#006E12" d="M486.013-343.74l-5.499-5.5l12.62-12.622l11.27,11.269c-0.769,4.063-1.784,7.321-3.046,9.773
			c-1.262,2.452-3.166,4.952-5.716,7.501c-3.137,3.136-6.231,5.16-9.278,6.066c-3.047,0.907-6.17,0.849-9.375-0.181
			c-3.205-1.025-6.175-2.91-8.916-5.652c-2.885-2.883-4.799-5.988-5.741-9.311c-0.943-3.323-0.82-6.687,0.368-10.089
			c0.937-2.643,2.92-5.48,5.949-8.51c2.922-2.918,5.369-4.839,7.349-5.76c1.976-0.92,3.998-1.301,6.064-1.146
			c2.068,0.157,4.195,0.847,6.382,2.074l-6.472,9.285c-1.324-0.672-2.636-0.886-3.94-0.639c-1.305,0.247-2.558,0.971-3.758,2.171
			c-1.792,1.791-2.597,3.842-2.417,6.149c0.181,2.308,1.618,4.806,4.31,7.501c2.86,2.86,5.443,4.365,7.743,4.516
			c2.303,0.151,4.415-0.735,6.339-2.658c0.911-0.914,1.652-1.917,2.215-3.01c0.564-1.094,1.067-2.494,1.498-4.204l-2.49-2.485
			L486.013-343.74z"/>
		<path fill="#006E12" d="M486.609-378.052l21.889-21.89l5.645,5.644l-13.705,13.702l4.202,4.202l12.71-12.711l5.394,5.39
			l-12.71,12.711l5.21,5.211l14.099-14.1l5.985,5.986l-22.285,22.283L486.609-378.052z"/>
	</g>
	<g opacity="0.15">
		<path fill="#006E12" d="M-379.265,580.137l8.186-8.188l26.432,26.432l-8.186,8.188L-379.265,580.137z"/>
		<path fill="#006E12" d="M-365.311,566.182l10.743-10.742l20.226,11.941l-11.97-20.196l10.732-10.734l26.436,26.434l-6.69,6.688
			l-20.159-20.16l15.003,25.315l-6.054,6.052l-25.303-15.012l20.158,20.158l-6.689,6.688L-365.311,566.182z"/>
		<path fill="#006E12" d="M-292.048,537.058l-9.273,9.271l3.078,5.65l-8.34,8.341l-16.497-36.367l8.909-8.909l36.364,16.5
			l-8.554,8.556L-292.048,537.058z M-299.458,533.032l-12.42-6.582l6.616,12.389L-299.458,533.032z"/>
		<path fill="#006E12" d="M-272.166,506.751l-5.499-5.5l12.622-12.621l11.269,11.269c-0.77,4.064-1.785,7.321-3.047,9.773
			c-1.262,2.45-3.167,4.952-5.717,7.5c-3.136,3.137-6.229,5.159-9.274,6.066c-3.048,0.907-6.173,0.848-9.379-0.182
			c-3.202-1.025-6.174-2.912-8.917-5.65c-2.883-2.887-4.799-5.989-5.741-9.314c-0.945-3.322-0.82-6.684,0.368-10.087
			c0.939-2.646,2.922-5.481,5.95-8.509c2.919-2.923,5.37-4.839,7.348-5.76c1.975-0.92,3.999-1.305,6.066-1.146
			c2.067,0.157,4.193,0.848,6.382,2.073l-6.473,9.284c-1.322-0.673-2.636-0.884-3.939-0.641c-1.304,0.247-2.557,0.973-3.76,2.173
			c-1.791,1.793-2.595,3.841-2.416,6.147c0.181,2.31,1.617,4.81,4.309,7.501c2.861,2.861,5.441,4.366,7.746,4.519
			c2.301,0.149,4.413-0.739,6.337-2.66c0.913-0.915,1.652-1.915,2.217-3.014c0.564-1.093,1.064-2.493,1.495-4.197l-2.489-2.491
			L-272.166,506.751z"/>
		<path fill="#006E12" d="M-271.569,472.44l21.888-21.89l5.643,5.644l-13.703,13.7l4.2,4.203l12.713-12.712l5.391,5.391
			l-12.711,12.712l5.21,5.212l14.098-14.099l5.986,5.984l-22.283,22.288L-271.569,472.44z"/>
		<path fill="#006E12" d="M-232.245,433.113l8.185-8.182l26.433,26.431l-8.186,8.187L-232.245,433.113z"/>
		<path fill="#006E12" d="M-218.291,419.161l10.742-10.742l20.227,11.942l-11.97-20.197l10.733-10.734l26.435,26.434l-6.69,6.688
			l-20.159-20.157l15.004,25.313l-6.052,6.055l-25.304-15.015l20.16,20.158l-6.69,6.688L-218.291,419.161z"/>
		<path fill="#006E12" d="M-145.028,390.037l-9.273,9.271l3.078,5.652l-8.34,8.342l-16.5-36.37l8.91-8.907l36.363,16.501
			l-8.551,8.555L-145.028,390.037z M-152.438,386.014l-12.421-6.584l6.615,12.389L-152.438,386.014z"/>
		<path fill="#006E12" d="M-125.146,359.73l-5.499-5.498l12.621-12.621l11.27,11.27c-0.77,4.062-1.786,7.318-3.048,9.771
			c-1.262,2.452-3.165,4.952-5.716,7.5c-3.137,3.137-6.229,5.16-9.275,6.066c-3.048,0.907-6.174,0.851-9.379-0.182
			c-3.203-1.025-6.174-2.909-8.917-5.65c-2.883-2.884-4.799-5.989-5.741-9.314c-0.944-3.322-0.821-6.682,0.37-10.084
			c0.937-2.646,2.919-5.484,5.948-8.512c2.919-2.921,5.37-4.841,7.348-5.762c1.975-0.918,3.999-1.3,6.066-1.144
			c2.066,0.157,4.193,0.848,6.382,2.073l-6.473,9.287c-1.321-0.676-2.634-0.89-3.938-0.644c-1.304,0.245-2.557,0.971-3.759,2.175
			c-1.791,1.791-2.596,3.839-2.416,6.146c0.181,2.31,1.618,4.81,4.309,7.501c2.863,2.861,5.443,4.366,7.746,4.519
			c2.301,0.149,4.413-0.739,6.336-2.662c0.914-0.911,1.652-1.916,2.217-3.009c0.566-1.096,1.065-2.496,1.496-4.2l-2.488-2.491
			L-125.146,359.73z"/>
		<path fill="#006E12" d="M-124.55,325.42l21.889-21.887l5.645,5.641l-13.704,13.703l4.201,4.2l12.713-12.712l5.39,5.391
			l-12.711,12.715l5.209,5.211l14.099-14.103l5.987,5.986l-22.284,22.285L-124.55,325.42z"/>
		<path fill="#006E12" d="M-85.224,286.096l8.186-8.185l26.431,26.43l-8.186,8.188L-85.224,286.096z"/>
		<path fill="#006E12" d="M-71.27,272.141l10.74-10.739l20.227,11.94l-11.972-20.199l10.736-10.73l26.433,26.431l-6.69,6.688
			l-20.16-20.159l15.005,25.314l-6.054,6.055l-25.304-15.013l20.159,20.156l-6.69,6.688L-71.27,272.141z"/>
		<path fill="#006E12" d="M1.991,243.019l-9.273,9.271l3.079,5.651l-8.34,8.341l-16.5-36.368l8.911-8.909l36.364,16.503
			l-8.553,8.553L1.991,243.019z M-5.417,238.996l-12.42-6.587l6.615,12.392L-5.417,238.996z"/>
		<path fill="#006E12" d="M21.875,212.713l-5.5-5.501l12.622-12.62l11.27,11.27c-0.771,4.063-1.787,7.32-3.048,9.771
			c-1.262,2.451-3.166,4.953-5.716,7.501c-3.137,3.135-6.228,5.159-9.274,6.066c-3.048,0.906-6.173,0.848-9.379-0.18
			c-3.202-1.027-6.174-2.912-8.915-5.653c-2.884-2.886-4.798-5.988-5.741-9.313c-0.944-3.323-0.821-6.685,0.37-10.087
			c0.936-2.646,2.919-5.482,5.949-8.51c2.919-2.923,5.37-4.841,7.348-5.762c1.977-0.92,3.999-1.302,6.066-1.146
			c2.067,0.159,4.194,0.848,6.383,2.074l-6.476,9.286c-1.321-0.673-2.634-0.887-3.938-0.642c-1.304,0.243-2.557,0.97-3.761,2.172
			c-1.791,1.791-2.594,3.839-2.415,6.146c0.179,2.31,1.617,4.809,4.308,7.501c2.864,2.861,5.442,4.368,7.746,4.519
			c2.302,0.149,4.414-0.739,6.337-2.662c0.914-0.912,1.653-1.915,2.218-3.009c0.564-1.092,1.064-2.497,1.497-4.201l-2.49-2.49
			L21.875,212.713z"/>
		<path fill="#006E12" d="M22.47,178.402l21.888-21.89l5.644,5.643l-13.703,13.701l4.201,4.2l12.712-12.71l5.391,5.392
			l-12.711,12.713l5.21,5.21l14.099-14.099l5.988,5.985l-22.284,22.285L22.47,178.402z"/>
		<path fill="#006E12" d="M61.795,139.075l8.186-8.185l26.431,26.432l-8.186,8.188L61.795,139.075z"/>
		<path fill="#006E12" d="M75.75,125.122l10.741-10.741l20.226,11.941l-11.972-20.198l10.736-10.732l26.434,26.432l-6.69,6.688
			l-20.159-20.158l15.005,25.313l-6.055,6.054l-25.303-15.011l20.159,20.156l-6.689,6.688L75.75,125.122z"/>
		<path fill="#006E12" d="M149.012,95.998l-9.274,9.271l3.076,5.65l-8.339,8.342l-16.497-36.367l8.906-8.909l36.366,16.501
			l-8.554,8.553L149.012,95.998z M141.603,91.976l-12.42-6.585l6.615,12.39L141.603,91.976z"/>
		<path fill="#006E12" d="M168.895,65.693l-5.5-5.5l12.623-12.62l11.266,11.268c-0.768,4.063-1.785,7.321-3.047,9.772
			c-1.26,2.452-3.166,4.953-5.714,7.501c-3.137,3.137-6.228,5.159-9.274,6.067c-3.049,0.906-6.176,0.848-9.378-0.182
			c-3.202-1.026-6.179-2.91-8.916-5.652c-2.883-2.886-4.801-5.988-5.745-9.312c-0.943-3.323-0.82-6.685,0.37-10.088
			c0.939-2.645,2.921-5.482,5.948-8.51c2.924-2.922,5.373-4.841,7.349-5.762c1.975-0.92,3.999-1.3,6.068-1.145
			c2.064,0.157,4.194,0.848,6.382,2.073l-6.473,9.285c-1.323-0.672-2.636-0.886-3.938-0.64c-1.305,0.244-2.558,0.969-3.76,2.171
			c-1.792,1.791-2.596,3.839-2.416,6.147c0.18,2.31,1.618,4.808,4.31,7.503c2.862,2.861,5.441,4.366,7.743,4.517
			c2.3,0.15,4.412-0.738,6.337-2.662c0.914-0.914,1.652-1.917,2.218-3.01c0.566-1.091,1.063-2.495,1.497-4.201l-2.49-2.489
			L168.895,65.693z"/>
		<path fill="#006E12" d="M169.49,31.381l21.89-21.888l5.644,5.643L183.32,28.838l4.199,4.199l12.713-12.71l5.389,5.391
			L192.91,38.431l5.211,5.21l14.101-14.101l5.986,5.986l-22.285,22.288L169.49,31.381z"/>
		<path fill="#006E12" d="M208.813-7.945l8.185-8.185l26.434,26.434l-8.184,8.185L208.813-7.945z"/>
		<path fill="#006E12" d="M222.77-21.899l10.739-10.74L253.737-20.7l-11.972-20.194l10.735-10.735l26.435,26.431l-6.69,6.689
			l-20.158-20.156l15.004,25.312l-6.056,6.055l-25.304-15.013l20.161,20.157l-6.688,6.69L222.77-21.899z"/>
		<path fill="#006E12" d="M296.032-51.022l-9.273,9.274l3.076,5.649l-8.341,8.34l-16.499-36.368l8.909-8.908l36.365,16.501
			l-8.553,8.552L296.032-51.022z M288.62-55.045l-12.417-6.582l6.615,12.389L288.62-55.045z"/>
		<path fill="#006E12" d="M315.915-81.327l-5.5-5.5l12.619-12.62l11.272,11.27c-0.771,4.063-1.786,7.321-3.048,9.771
			c-1.262,2.452-3.168,4.952-5.716,7.5c-3.136,3.136-6.23,5.16-9.278,6.066c-3.048,0.908-6.171,0.848-9.375-0.18
			c-3.204-1.026-6.176-2.91-8.916-5.653c-2.885-2.884-4.798-5.989-5.741-9.313c-0.944-3.323-0.821-6.685,0.368-10.087
			c0.937-2.645,2.92-5.482,5.95-8.51c2.919-2.922,5.366-4.841,7.348-5.76c1.976-0.92,3.999-1.301,6.064-1.145
			c2.069,0.157,4.193,0.848,6.383,2.073l-6.475,9.285c-1.32-0.673-2.634-0.885-3.938-0.639c-1.305,0.246-2.557,0.969-3.758,2.171
			c-1.791,1.791-2.597,3.839-2.417,6.15c0.18,2.308,1.615,4.806,4.309,7.499c2.86,2.863,5.442,4.366,7.744,4.518
			s4.416-0.737,6.339-2.66c0.91-0.915,1.649-1.917,2.215-3.011c0.565-1.092,1.064-2.493,1.498-4.201l-2.488-2.487L315.915-81.327z"
			/>
		<path fill="#006E12" d="M316.511-115.637l21.89-21.889l5.642,5.644l-13.701,13.701l4.199,4.202l12.713-12.713l5.394,5.39
			l-12.715,12.713l5.212,5.211l14.099-14.102l5.986,5.987l-22.287,22.286L316.511-115.637z"/>
		<path fill="#006E12" d="M355.835-154.964l8.185-8.186l26.433,26.434l-8.187,8.186L355.835-154.964z"/>
		<path fill="#006E12" d="M369.789-168.918l10.74-10.742l20.226,11.941l-11.97-20.196l10.736-10.735l26.431,26.432l-6.689,6.689
			l-20.155-20.157l15.003,25.313l-6.053,6.054l-25.303-15.013l20.157,20.157l-6.688,6.688L369.789-168.918z"/>
		<path fill="#006E12" d="M443.052-198.042l-9.272,9.273l3.075,5.65l-8.339,8.34l-16.498-36.368l8.907-8.908l36.366,16.5
			L448.734-195L443.052-198.042z M435.644-202.064l-12.421-6.583l6.616,12.388L435.644-202.064z"/>
		<path fill="#006E12" d="M462.935-228.347l-5.499-5.5l12.622-12.62l11.268,11.269c-0.771,4.064-1.787,7.319-3.051,9.772
			c-1.259,2.451-3.166,4.954-5.711,7.501c-3.14,3.136-6.228,5.159-9.275,6.066c-3.048,0.906-6.176,0.849-9.378-0.18
			c-3.202-1.027-6.178-2.912-8.916-5.654c-2.885-2.882-4.801-5.988-5.744-9.311c-0.945-3.325-0.82-6.687,0.368-10.089
			c0.938-2.645,2.923-5.482,5.949-8.51c2.924-2.921,5.372-4.841,7.347-5.76c1.978-0.919,4.001-1.301,6.071-1.146
			c2.063,0.158,4.193,0.849,6.382,2.074l-6.474,9.285c-1.322-0.674-2.636-0.887-3.94-0.64c-1.303,0.247-2.556,0.969-3.759,2.173
			c-1.791,1.791-2.596,3.839-2.414,6.15c0.179,2.306,1.616,4.806,4.308,7.498c2.859,2.862,5.442,4.367,7.745,4.517
			c2.3,0.15,4.411-0.736,6.337-2.66c0.913-0.914,1.652-1.917,2.218-3.01c0.563-1.092,1.062-2.493,1.495-4.202l-2.489-2.487
			L462.935-228.347z"/>
		<path fill="#006E12" d="M463.531-262.658l21.889-21.889l5.645,5.644l-13.706,13.701l4.203,4.203l12.709-12.713l5.392,5.39
			l-12.71,12.713l5.21,5.211l14.101-14.101l5.986,5.987l-22.283,22.286L463.531-262.658z"/>
		<path fill="#006E12" d="M502.854-301.983l8.185-8.186l26.435,26.433l-8.187,8.186L502.854-301.983z"/>
		<path fill="#006E12" d="M516.811-315.938l10.739-10.741l20.228,11.941l-11.972-20.195l10.736-10.734l26.434,26.431l-6.69,6.69
			l-20.158-20.157l15.004,25.312l-6.054,6.054l-25.305-15.012l20.162,20.156l-6.689,6.689L516.811-315.938z"/>
		<path fill="#006E12" d="M590.072-345.061l-9.273,9.272l3.075,5.651l-8.342,8.34l-16.497-36.368l8.91-8.907l36.365,16.501
			l-8.553,8.552L590.072-345.061z M582.66-349.084l-12.419-6.583l6.616,12.389L582.66-349.084z"/>
		<path fill="#006E12" d="M609.952-375.366l-5.499-5.5l12.622-12.621l11.271,11.269c-0.77,4.064-1.785,7.321-3.048,9.773
			c-1.262,2.452-3.17,4.953-5.715,7.5c-3.137,3.137-6.231,5.16-9.277,6.067c-3.048,0.907-6.173,0.848-9.377-0.181
			c-3.204-1.026-6.175-2.911-8.916-5.652c-2.885-2.884-4.798-5.988-5.74-9.312c-0.946-3.325-0.822-6.687,0.366-10.088
			c0.937-2.644,2.922-5.483,5.95-8.51c2.92-2.922,5.368-4.841,7.348-5.76c1.979-0.92,4-1.301,6.066-1.146
			c2.069,0.157,4.193,0.848,6.382,2.074l-6.472,9.285c-1.323-0.673-2.636-0.886-3.939-0.639c-1.306,0.247-2.559,0.969-3.759,2.172
			c-1.791,1.791-2.596,3.838-2.416,6.149c0.177,2.308,1.614,4.806,4.308,7.499c2.86,2.861,5.442,4.366,7.744,4.518
			c2.302,0.15,4.415-0.735,6.339-2.661c0.91-0.914,1.651-1.917,2.215-3.011c0.564-1.092,1.064-2.493,1.499-4.201l-2.49-2.489
			L609.952-375.366z"/>
		<path fill="#006E12" d="M610.549-409.678l21.889-21.889l5.644,5.644l-13.702,13.701l4.199,4.203l12.712-12.713l5.394,5.393
			l-12.713,12.711l5.212,5.211l14.098-14.1l5.988,5.988l-22.286,22.284L610.549-409.678z"/>
	</g>
	<g opacity="0.15">
		<path fill="#006E12" d="M-263.872,557.056l8.188-8.185l26.431,26.431l-8.186,8.189L-263.872,557.056z"/>
		<path fill="#006E12" d="M-249.916,543.103l10.741-10.743l20.225,11.941l-11.97-20.196l10.734-10.734l26.436,26.433l-6.69,6.688
			l-20.159-20.157l15.004,25.314l-6.054,6.053l-25.302-15.015l20.155,20.158l-6.689,6.691L-249.916,543.103z"/>
		<path fill="#006E12" d="M-176.653,513.975l-9.272,9.275l3.074,5.652l-8.339,8.339l-16.497-36.367l8.907-8.91l36.365,16.501
			l-8.553,8.555L-176.653,513.975z M-184.063,509.956l-12.42-6.587l6.615,12.392L-184.063,509.956z"/>
		<path fill="#006E12" d="M-156.771,483.673l-5.499-5.5l12.621-12.624l11.269,11.271c-0.768,4.063-1.784,7.32-3.047,9.771
			c-1.261,2.453-3.169,4.953-5.716,7.503c-3.137,3.135-6.231,5.159-9.279,6.066c-3.048,0.906-6.17,0.848-9.374-0.18
			c-3.203-1.029-6.175-2.914-8.917-5.652c-2.885-2.887-4.799-5.991-5.741-9.314c-0.944-3.322-0.823-6.685,0.368-10.087
			c0.939-2.646,2.921-5.481,5.951-8.509c2.919-2.923,5.369-4.844,7.347-5.76c1.978-0.921,4-1.303,6.068-1.146
			c2.066,0.154,4.193,0.848,6.38,2.073l-6.472,9.284c-1.323-0.673-2.635-0.889-3.94-0.641c-1.305,0.245-2.556,0.97-3.759,2.173
			c-1.791,1.791-2.597,3.838-2.416,6.147c0.181,2.307,1.617,4.808,4.309,7.498c2.86,2.861,5.442,4.368,7.744,4.519
			c2.302,0.15,4.415-0.738,6.339-2.659c0.913-0.914,1.653-1.916,2.217-3.012c0.565-1.096,1.063-2.495,1.496-4.2l-2.488-2.488
			L-156.771,483.673z"/>
		<path fill="#006E12" d="M-156.176,449.362l21.89-21.892l5.644,5.643l-13.703,13.706l4.199,4.2l12.711-12.712l5.395,5.391
			l-12.714,12.71l5.213,5.211l14.1-14.098l5.985,5.986l-22.285,22.285L-156.176,449.362z"/>
		<path fill="#006E12" d="M-116.853,410.035l8.187-8.185l26.432,26.434l-8.184,8.187L-116.853,410.035z"/>
		<path fill="#006E12" d="M-102.896,396.082l10.741-10.743l20.225,11.941l-11.97-20.196l10.734-10.734l26.435,26.433l-6.688,6.689
			l-20.16-20.158l15.004,25.314l-6.054,6.053l-25.303-15.014l20.157,20.157l-6.69,6.691L-102.896,396.082z"/>
		<path fill="#006E12" d="M-29.633,366.956l-9.273,9.273l3.074,5.652l-8.338,8.339l-16.497-36.367l8.907-8.91l36.365,16.501
			l-8.552,8.555L-29.633,366.956z M-37.043,362.936l-12.42-6.585l6.616,12.39L-37.043,362.936z"/>
		<path fill="#006E12" d="M-9.751,336.652l-5.499-5.5l12.623-12.623l11.269,11.272c-0.77,4.062-1.785,7.321-3.047,9.771
			c-1.263,2.45-3.169,4.95-5.716,7.5c-3.136,3.137-6.231,5.159-9.276,6.066c-3.048,0.907-6.172,0.85-9.375-0.18
			c-3.202-1.029-6.175-2.911-8.917-5.652c-2.884-2.885-4.799-5.989-5.741-9.312c-0.947-3.325-0.824-6.688,0.368-10.09
			c0.938-2.646,2.92-5.481,5.949-8.509c2.919-2.923,5.371-4.844,7.347-5.762c1.979-0.921,4-1.303,6.068-1.146
			c2.068,0.156,4.193,0.848,6.38,2.072l-6.471,9.287c-1.322-0.673-2.635-0.887-3.939-0.641c-1.305,0.247-2.557,0.973-3.759,2.173
			c-1.791,1.791-2.595,3.841-2.417,6.147c0.18,2.307,1.618,4.81,4.309,7.501c2.86,2.858,5.441,4.365,7.744,4.518
			c2.302,0.148,4.415-0.738,6.339-2.661c0.914-0.914,1.654-1.916,2.217-3.012c0.566-1.093,1.063-2.493,1.497-4.197l-2.489-2.491
			L-9.751,336.652z"/>
		<path fill="#006E12" d="M-9.155,302.342l21.889-21.892l5.644,5.646L4.676,299.799l4.199,4.198l12.712-12.71l5.39,5.391
			L14.266,309.39l5.212,5.212l14.098-14.1l5.986,5.985l-22.285,22.287L-9.155,302.342z"/>
		<path fill="#006E12" d="M30.169,263.018l8.187-8.186l26.432,26.432l-8.186,8.187L30.169,263.018z"/>
		<path fill="#006E12" d="M44.124,249.063l10.741-10.74l20.225,11.938l-11.969-20.196l10.736-10.736l26.433,26.434l-6.689,6.688
			l-20.159-20.158l15.005,25.314l-6.055,6.053l-25.304-15.014l20.155,20.159l-6.689,6.689L44.124,249.063z"/>
		<path fill="#006E12" d="M117.387,219.938l-9.273,9.273l3.076,5.651l-8.339,8.339l-16.499-36.366l8.907-8.909l36.365,16.501
			l-8.553,8.555L117.387,219.938z M109.977,215.917l-12.42-6.584l6.615,12.389L109.977,215.917z"/>
		<path fill="#006E12" d="M137.268,189.632l-5.498-5.498l12.619-12.623l11.272,11.272c-0.77,4.063-1.785,7.319-3.047,9.77
			c-1.263,2.452-3.17,4.952-5.716,7.503c-3.135,3.135-6.23,5.159-9.278,6.065s-6.172,0.848-9.376-0.182
			c-3.202-1.027-6.175-2.909-8.916-5.651c-2.886-2.886-4.798-5.99-5.741-9.313c-0.947-3.323-0.823-6.686,0.367-10.087
			c0.94-2.646,2.923-5.483,5.952-8.51c2.92-2.923,5.37-4.844,7.347-5.762c1.978-0.92,4-1.302,6.067-1.145
			c2.068,0.156,4.195,0.85,6.382,2.074l-6.474,9.284c-1.321-0.673-2.634-0.889-3.938-0.642c-1.303,0.246-2.557,0.972-3.759,2.173
			c-1.792,1.792-2.596,3.84-2.417,6.146c0.182,2.31,1.618,4.811,4.311,7.501c2.86,2.863,5.441,4.368,7.742,4.518
			c2.305,0.15,4.417-0.736,6.338-2.659c0.913-0.914,1.653-1.916,2.217-3.011c0.565-1.095,1.065-2.494,1.495-4.2l-2.486-2.489
			L137.268,189.632z"/>
		<path fill="#006E12" d="M137.866,155.321l21.89-21.892l5.643,5.646l-13.703,13.705l4.2,4.2l12.71-12.712l5.391,5.39
			l-12.711,12.711l5.212,5.214l14.096-14.102l5.989,5.985l-22.285,22.287L137.866,155.321z"/>
		<path fill="#006E12" d="M177.188,115.997l8.188-8.186l26.429,26.432l-8.185,8.188L177.188,115.997z"/>
		<path fill="#006E12" d="M191.143,102.043l10.742-10.74l20.226,11.938l-11.969-20.196l10.735-10.735l26.431,26.434l-6.689,6.689
			l-20.155-20.16l15.002,25.314l-6.052,6.053l-25.304-15.013l20.157,20.156l-6.689,6.69L191.143,102.043z"/>
		<path fill="#006E12" d="M264.407,72.917l-9.274,9.273l3.075,5.652l-8.337,8.341l-16.499-36.368l8.907-8.909l36.366,16.5
			l-8.556,8.555L264.407,72.917z M256.997,68.897l-12.422-6.585l6.616,12.39L256.997,68.897z"/>
		<path fill="#006E12" d="M284.29,42.614l-5.499-5.5l12.62-12.623l11.267,11.27c-0.77,4.063-1.784,7.321-3.047,9.773
			c-1.262,2.452-3.166,4.95-5.715,7.5c-3.137,3.137-6.229,5.16-9.275,6.067c-3.048,0.906-6.173,0.848-9.378-0.182
			c-3.202-1.027-6.175-2.911-8.916-5.652c-2.884-2.886-4.798-5.989-5.741-9.313c-0.944-3.322-0.82-6.686,0.368-10.086
			c0.941-2.645,2.92-5.482,5.948-8.51c2.924-2.922,5.373-4.842,7.348-5.76c1.977-0.921,4-1.304,6.068-1.146
			c2.066,0.156,4.195,0.849,6.382,2.074l-6.473,9.287c-1.325-0.674-2.639-0.889-3.939-0.642c-1.304,0.246-2.556,0.971-3.759,2.173
			c-1.79,1.791-2.596,3.839-2.418,6.147c0.182,2.308,1.619,4.808,4.31,7.501c2.861,2.862,5.443,4.366,7.743,4.519
			c2.303,0.147,4.414-0.738,6.339-2.662c0.914-0.914,1.653-1.917,2.219-3.01c0.563-1.094,1.063-2.495,1.495-4.201l-2.49-2.489
			L284.29,42.614z"/>
		<path fill="#006E12" d="M284.885,8.303l21.887-21.889l5.645,5.642L298.717,5.759l4.199,4.201l12.71-12.711l5.392,5.392
			l-12.712,12.71l5.212,5.212l14.101-14.101l5.985,5.986l-22.284,22.286L284.885,8.303z"/>
		<path fill="#006E12" d="M324.209-31.022l8.186-8.185l26.433,26.431l-8.186,8.188L324.209-31.022z"/>
		<path fill="#006E12" d="M338.164-44.977l10.738-10.741l20.229,11.939L357.16-63.975l10.735-10.735l26.435,26.434l-6.689,6.689
			l-20.162-20.158l15.007,25.313l-6.057,6.055L351.128-45.39l20.158,20.156l-6.689,6.69L338.164-44.977z"/>
		<path fill="#006E12" d="M411.426-74.103l-9.272,9.274l3.075,5.652l-8.341,8.34l-16.497-36.368l8.907-8.911l36.365,16.5
			l-8.552,8.556L411.426-74.103z M404.015-78.124l-12.418-6.585l6.615,12.391L404.015-78.124z"/>
		<path fill="#006E12" d="M431.307-104.407l-5.498-5.5l12.621-12.622l11.271,11.271c-0.769,4.063-1.785,7.321-3.049,9.771
			c-1.261,2.452-3.168,4.951-5.716,7.501c-3.134,3.136-6.229,5.159-9.276,6.066c-3.047,0.907-6.171,0.849-9.375-0.18
			c-3.205-1.028-6.175-2.911-8.917-5.652c-2.885-2.886-4.798-5.989-5.744-9.313c-0.943-3.323-0.82-6.684,0.37-10.087
			c0.937-2.645,2.923-5.482,5.951-8.509c2.92-2.922,5.367-4.844,7.348-5.762c1.976-0.92,4-1.304,6.065-1.145
			c2.068,0.156,4.193,0.848,6.383,2.074l-6.474,9.285c-1.322-0.674-2.634-0.888-3.938-0.641c-1.305,0.245-2.56,0.97-3.762,2.172
			c-1.789,1.792-2.593,3.841-2.414,6.148c0.179,2.307,1.616,4.808,4.31,7.5c2.86,2.862,5.441,4.368,7.741,4.518
			c2.305,0.151,4.416-0.737,6.337-2.66c0.914-0.914,1.654-1.917,2.218-3.011c0.566-1.095,1.065-2.495,1.497-4.201l-2.487-2.488
			L431.307-104.407z"/>
		<path fill="#006E12" d="M431.902-138.717l21.892-21.889l5.645,5.642l-13.704,13.703l4.201,4.201l12.711-12.711l5.392,5.391
			l-12.712,12.71l5.211,5.212l14.097-14.101l5.987,5.986l-22.283,22.286L431.902-138.717z"/>
		<path fill="#006E12" d="M471.228-178.041l8.188-8.186l26.429,26.432l-8.184,8.188L471.228-178.041z"/>
		<path fill="#006E12" d="M485.182-191.997l10.744-10.741l20.225,11.94l-11.97-20.197l10.734-10.735l26.433,26.434l-6.688,6.689
			l-20.156-20.158l15.001,25.313l-6.05,6.053L498.15-192.41l20.156,20.158l-6.689,6.689L485.182-191.997z"/>
		<path fill="#006E12" d="M558.446-221.122l-9.272,9.273l3.075,5.652l-8.342,8.342l-16.498-36.368l8.909-8.91l36.366,16.5
			l-8.556,8.555L558.446-221.122z M551.037-225.144l-12.422-6.584l6.617,12.389L551.037-225.144z"/>
		<path fill="#006E12" d="M578.329-251.425l-5.499-5.501l12.621-12.621l11.267,11.271c-0.769,4.063-1.784,7.319-3.046,9.772
			c-1.264,2.452-3.167,4.951-5.716,7.5c-3.137,3.137-6.229,5.16-9.276,6.066s-6.172,0.848-9.378-0.182
			c-3.202-1.028-6.174-2.91-8.915-5.652c-2.885-2.884-4.799-5.989-5.741-9.313c-0.945-3.323-0.82-6.686,0.368-10.087
			c0.94-2.645,2.919-5.482,5.949-8.51c2.923-2.922,5.372-4.842,7.347-5.76c1.977-0.92,4-1.303,6.069-1.146
			c2.065,0.156,4.193,0.849,6.38,2.074l-6.472,9.285c-1.325-0.674-2.638-0.888-3.941-0.643c-1.302,0.247-2.555,0.971-3.757,2.174
			c-1.791,1.792-2.597,3.84-2.419,6.148c0.184,2.307,1.619,4.808,4.311,7.501c2.862,2.861,5.443,4.367,7.744,4.517
			c2.302,0.152,4.414-0.736,6.338-2.66c0.914-0.915,1.654-1.917,2.219-3.012c0.563-1.094,1.063-2.496,1.495-4.201l-2.49-2.488
			L578.329-251.425z"/>
		<path fill="#006E12" d="M578.924-285.736l21.889-21.89l5.644,5.642l-13.701,13.703l4.2,4.201l12.711-12.711l5.393,5.391
			l-12.713,12.711l5.212,5.212l14.101-14.101l5.986,5.986l-22.285,22.286L578.924-285.736z"/>
	</g>
	<g opacity="0.15">
		<path fill="#006E12" d="M-286.95,672.452l8.188-8.185l26.432,26.431l-8.185,8.185L-286.95,672.452z"/>
		<path fill="#006E12" d="M-272.994,658.497l10.743-10.744l20.225,11.944l-11.97-20.196l10.734-10.735l26.436,26.434l-6.692,6.688
			l-20.157-20.16l15.003,25.313l-6.056,6.056l-25.3-15.015l20.157,20.16l-6.689,6.688L-272.994,658.497z"/>
		<path fill="#006E12" d="M-199.731,629.37l-9.272,9.273l3.074,5.652l-8.34,8.339l-16.497-36.365l8.91-8.911l36.365,16.501
			l-8.554,8.555L-199.731,629.37z M-207.141,625.35l-12.42-6.584l6.616,12.389L-207.141,625.35z"/>
		<path fill="#006E12" d="M-179.849,599.066l-5.5-5.5l12.623-12.623l11.268,11.271c-0.769,4.062-1.784,7.323-3.046,9.773
			c-1.261,2.448-3.169,4.952-5.716,7.498c-3.136,3.139-6.231,5.162-9.279,6.068c-3.046,0.907-6.172,0.848-9.374-0.18
			c-3.205-1.029-6.175-2.913-8.917-5.652c-2.884-2.884-4.8-5.988-5.744-9.312c-0.944-3.325-0.82-6.689,0.368-10.089
			c0.94-2.644,2.923-5.48,5.953-8.512c2.919-2.919,5.37-4.839,7.347-5.762c1.977-0.916,4-1.301,6.068-1.142
			c2.066,0.155,4.193,0.846,6.38,2.071l-6.472,9.286c-1.321-0.67-2.634-0.886-3.938-0.641c-1.305,0.248-2.557,0.973-3.761,2.175
			c-1.79,1.789-2.594,3.839-2.416,6.146c0.181,2.307,1.617,4.809,4.31,7.5c2.86,2.859,5.442,4.368,7.744,4.519
			c2.302,0.147,4.415-0.739,6.339-2.659c0.913-0.916,1.652-1.916,2.217-3.012c0.564-1.094,1.063-2.496,1.496-4.2l-2.489-2.489
			L-179.849,599.066z"/>
		<path fill="#006E12" d="M-179.254,564.754l21.89-21.89l5.643,5.646l-13.703,13.703l4.2,4.2l12.711-12.712l5.392,5.391
			l-12.711,12.713l5.21,5.209l14.101-14.099l5.985,5.986l-22.285,22.288L-179.254,564.754z"/>
		<path fill="#006E12" d="M-139.931,525.432l8.188-8.185l26.431,26.431l-8.185,8.185L-139.931,525.432z"/>
		<path fill="#006E12" d="M-125.975,511.477l10.741-10.741l20.224,11.941l-11.969-20.196l10.735-10.737l26.432,26.436l-6.69,6.688
			l-20.157-20.157l15.004,25.313l-6.056,6.055l-25.301-15.015l20.157,20.158l-6.69,6.691L-125.975,511.477z"/>
		<path fill="#006E12" d="M-52.712,482.353l-9.273,9.273l3.074,5.652l-8.34,8.339l-16.499-36.368l8.909-8.909l36.366,16.501
			l-8.553,8.553L-52.712,482.353z M-60.122,478.329l-12.42-6.584l6.615,12.389L-60.122,478.329z"/>
		<path fill="#006E12" d="M-32.83,452.049l-5.499-5.5l12.62-12.624l11.271,11.271c-0.769,4.063-1.785,7.32-3.048,9.773
			c-1.261,2.449-3.168,4.95-5.716,7.498c-3.137,3.139-6.231,5.161-9.277,6.068c-3.048,0.906-6.174,0.848-9.376-0.183
			c-3.204-1.027-6.174-2.911-8.917-5.649c-2.885-2.887-4.8-5.989-5.742-9.314c-0.945-3.323-0.822-6.687,0.368-10.085
			c0.94-2.647,2.923-5.484,5.95-8.514c2.922-2.921,5.372-4.841,7.348-5.762c1.979-0.918,4-1.3,6.068-1.141
			c2.067,0.154,4.193,0.846,6.38,2.07l-6.472,9.284c-1.321-0.67-2.634-0.886-3.939-0.639c-1.306,0.246-2.557,0.971-3.759,2.173
			c-1.791,1.789-2.596,3.842-2.416,6.146c0.181,2.309,1.618,4.809,4.31,7.502c2.86,2.859,5.443,4.366,7.743,4.517
			c2.303,0.149,4.415-0.736,6.339-2.659c0.915-0.914,1.652-1.916,2.217-3.012c0.564-1.093,1.063-2.493,1.497-4.198l-2.489-2.491
			L-32.83,452.049z"/>
		<path fill="#006E12" d="M-32.233,417.733l21.889-21.888l5.643,5.644l-13.703,13.703l4.2,4.2l12.712-12.71l5.39,5.39
			l-12.711,12.712l5.21,5.211l14.101-14.101l5.987,5.989L-5.8,444.169L-32.233,417.733z"/>
		<path fill="#006E12" d="M7.09,378.411l8.187-8.185l26.432,26.431l-8.186,8.185L7.09,378.411z"/>
		<path fill="#006E12" d="M21.046,364.454l10.741-10.739l20.225,11.941l-11.97-20.196l10.736-10.735l26.431,26.432l-6.69,6.69
			l-20.157-20.157l15.003,25.313l-6.055,6.055l-25.301-15.015L54.167,384.2l-6.69,6.691L21.046,364.454z"/>
		<path fill="#006E12" d="M94.307,335.332l-9.273,9.273l3.077,5.652l-8.34,8.341l-16.499-36.369l8.911-8.91l36.365,16.501
			l-8.551,8.555L94.307,335.332z M86.898,331.312l-12.421-6.585l6.615,12.39L86.898,331.312z"/>
		<path fill="#006E12" d="M114.19,305.028l-5.5-5.5l12.619-12.621l11.272,11.27c-0.77,4.063-1.787,7.321-3.048,9.772
			c-1.262,2.452-3.168,4.95-5.716,7.498c-3.139,3.139-6.23,5.161-9.278,6.068c-3.046,0.909-6.174,0.848-9.375-0.18
			c-3.205-1.027-6.174-2.914-8.917-5.652c-2.884-2.885-4.799-5.989-5.743-9.314c-0.944-3.323-0.821-6.686,0.37-10.086
			c0.938-2.646,2.921-5.481,5.948-8.511c2.923-2.921,5.373-4.843,7.349-5.761c1.978-0.919,4-1.301,6.067-1.144
			c2.066,0.156,4.193,0.848,6.382,2.071l-6.473,9.286c-1.323-0.671-2.635-0.887-3.94-0.642c-1.305,0.247-2.556,0.972-3.759,2.175
			c-1.792,1.788-2.596,3.839-2.417,6.146c0.182,2.307,1.618,4.809,4.311,7.5c2.86,2.859,5.442,4.369,7.742,4.519
			c2.305,0.147,4.416-0.738,6.339-2.661c0.914-0.914,1.653-1.914,2.217-3.01c0.563-1.094,1.063-2.496,1.497-4.201l-2.489-2.489
			L114.19,305.028z"/>
		<path fill="#006E12" d="M114.786,270.715l21.889-21.89l5.642,5.644l-13.702,13.703l4.201,4.201l12.711-12.711l5.39,5.392
			l-12.71,12.711l5.21,5.21l14.101-14.098l5.984,5.986l-22.282,22.286L114.786,270.715z"/>
		<path fill="#006E12" d="M154.109,231.391l8.185-8.184l26.435,26.432l-8.185,8.186L154.109,231.391z"/>
		<path fill="#006E12" d="M168.066,217.436l10.74-10.739l20.226,11.939l-11.969-20.195l10.735-10.735l26.432,26.434l-6.689,6.688
			l-20.159-20.157l15.006,25.311l-6.057,6.056l-25.303-15.014l20.158,20.158l-6.688,6.688L168.066,217.436z"/>
		<path fill="#006E12" d="M241.328,188.313l-9.273,9.272l3.075,5.652l-8.34,8.34l-16.498-36.366l8.907-8.911l36.365,16.5
			l-8.552,8.554L241.328,188.313z M233.917,184.291l-12.419-6.585l6.613,12.391L233.917,184.291z"/>
		<path fill="#006E12" d="M261.209,158.008l-5.499-5.5l12.621-12.621l11.271,11.271c-0.768,4.062-1.784,7.32-3.045,9.771
			c-1.264,2.452-3.17,4.952-5.717,7.498c-3.139,3.14-6.23,5.164-9.278,6.069c-3.048,0.907-6.173,0.849-9.374-0.181
			c-3.205-1.027-6.176-2.909-8.917-5.652c-2.884-2.885-4.8-5.989-5.743-9.313c-0.944-3.322-0.823-6.688,0.368-10.088
			c0.937-2.645,2.922-5.482,5.948-8.51c2.923-2.922,5.37-4.842,7.348-5.762c1.979-0.919,4-1.301,6.066-1.144
			c2.068,0.155,4.194,0.846,6.383,2.07l-6.472,9.286c-1.322-0.672-2.637-0.887-3.939-0.639c-1.304,0.245-2.559,0.97-3.761,2.172
			c-1.789,1.79-2.597,3.84-2.415,6.147c0.179,2.307,1.616,4.81,4.31,7.5c2.86,2.86,5.439,4.366,7.742,4.519
			c2.304,0.148,4.416-0.738,6.337-2.661c0.913-0.914,1.652-1.915,2.218-3.012c0.564-1.093,1.065-2.493,1.496-4.199l-2.486-2.487
			L261.209,158.008z"/>
		<path fill="#006E12" d="M261.804,123.695l21.892-21.89l5.644,5.646l-13.705,13.701l4.203,4.202l12.711-12.713l5.392,5.392
			l-12.711,12.711l5.21,5.213l14.099-14.101l5.989,5.986l-22.285,22.287L261.804,123.695z"/>
		<path fill="#006E12" d="M301.129,84.373l8.186-8.186l26.432,26.432l-8.186,8.185L301.129,84.373z"/>
		<path fill="#006E12" d="M315.083,70.416l10.744-10.741l20.224,11.942l-11.968-20.198l10.732-10.735l26.434,26.434l-6.688,6.689
			l-20.158-20.158l15.002,25.313l-6.054,6.056L328.05,70.002l20.156,20.159l-6.688,6.69L315.083,70.416z"/>
		<path fill="#006E12" d="M388.347,41.292l-9.274,9.274l3.079,5.653l-8.342,8.34l-16.498-36.368l8.91-8.909l36.365,16.499
			l-8.556,8.553L388.347,41.292z M380.937,37.271l-12.42-6.585l6.617,12.391L380.937,37.271z"/>
		<path fill="#006E12" d="M408.23,10.99l-5.5-5.5l12.621-12.622l11.269,11.27c-0.769,4.064-1.786,7.321-3.048,9.772
			c-1.262,2.452-3.166,4.951-5.716,7.499c-3.135,3.138-6.228,5.161-9.274,6.068c-3.047,0.908-6.173,0.849-9.378-0.18
			c-3.202-1.029-6.174-2.911-8.916-5.654c-2.884-2.884-4.798-5.988-5.743-9.312c-0.942-3.323-0.82-6.685,0.37-10.088
			c0.938-2.645,2.922-5.481,5.95-8.51c2.919-2.922,5.369-4.843,7.347-5.76c1.976-0.92,3.999-1.303,6.066-1.146
			c2.067,0.156,4.195,0.849,6.383,2.074l-6.474,9.285c-1.32-0.671-2.635-0.887-3.939-0.64c-1.302,0.247-2.557,0.971-3.757,2.173
			c-1.793,1.791-2.596,3.839-2.418,6.148c0.183,2.308,1.62,4.809,4.311,7.501c2.861,2.86,5.443,4.366,7.744,4.518
			c2.302,0.147,4.414-0.738,6.337-2.662c0.914-0.914,1.654-1.917,2.217-3.01c0.565-1.094,1.064-2.495,1.498-4.201l-2.492-2.489
			L408.23,10.99z"/>
		<path fill="#006E12" d="M408.825-23.324l21.889-21.888l5.644,5.643l-13.701,13.705l4.198,4.2l12.714-12.711l5.392,5.39
			l-12.712,12.71l5.211,5.21l14.101-14.098l5.983,5.986L435.259,3.109L408.825-23.324z"/>
		<path fill="#006E12" d="M448.15-62.647l8.184-8.186l26.435,26.432l-8.185,8.188L448.15-62.647z"/>
		<path fill="#006E12" d="M462.104-76.604l10.74-10.741l20.228,11.942L481.103-95.6l10.734-10.734L518.27-79.9l-6.688,6.689
			l-20.16-20.159l15.006,25.311l-6.056,6.057L475.07-77.017l20.157,20.158l-6.688,6.689L462.104-76.604z"/>
		<path fill="#006E12" d="M535.368-105.727l-9.273,9.273l3.075,5.652l-8.339,8.34l-16.499-36.368l8.909-8.91l36.363,16.5
			l-8.552,8.552L535.368-105.727z M527.957-109.748l-12.419-6.586l6.613,12.39L527.957-109.748z"/>
		<path fill="#006E12" d="M555.249-136.031l-5.499-5.5l12.622-12.623l11.27,11.271c-0.769,4.064-1.784,7.321-3.046,9.771
			c-1.261,2.452-3.169,4.952-5.715,7.5c-3.14,3.138-6.23,5.162-9.279,6.068c-3.047,0.907-6.172,0.848-9.375-0.18
			c-3.204-1.029-6.176-2.912-8.916-5.652c-2.886-2.886-4.801-5.991-5.745-9.313c-0.942-3.324-0.819-6.686,0.37-10.087
			c0.938-2.646,2.922-5.483,5.949-8.511c2.923-2.921,5.369-4.842,7.347-5.76c1.979-0.921,4-1.303,6.068-1.146
			c2.065,0.155,4.193,0.847,6.381,2.074l-6.472,9.283c-1.323-0.671-2.636-0.886-3.94-0.64c-1.303,0.247-2.557,0.972-3.76,2.174
			c-1.789,1.792-2.597,3.839-2.414,6.148c0.179,2.308,1.615,4.807,4.31,7.501c2.859,2.86,5.438,4.366,7.742,4.518
			c2.301,0.148,4.416-0.737,6.336-2.66c0.913-0.914,1.653-1.917,2.218-3.011c0.565-1.094,1.064-2.494,1.497-4.201l-2.487-2.488
			L555.249-136.031z"/>
		<path fill="#006E12" d="M555.843-170.341l21.894-21.892l5.644,5.644l-13.705,13.704l4.202,4.201l12.711-12.711l5.393,5.39
			l-12.714,12.711l5.212,5.212l14.1-14.101l5.986,5.987L582.28-143.91L555.843-170.341z"/>
		<path fill="#006E12" d="M595.169-209.668l8.186-8.185l26.432,26.432l-8.185,8.187L595.169-209.668z"/>
		<path fill="#006E12" d="M609.123-223.622l10.743-10.743l20.226,11.941l-11.973-20.197l10.735-10.735l26.436,26.434l-6.689,6.69
			l-20.157-20.16l15.002,25.313l-6.053,6.056l-25.301-15.014l20.155,20.159l-6.688,6.689L609.123-223.622z"/>
		<path fill="#006E12" d="M682.387-252.748l-9.273,9.273l3.076,5.652l-8.34,8.34l-16.499-36.367l8.91-8.911l36.366,16.5
			l-8.557,8.552L682.387-252.748z M674.976-256.767l-12.42-6.585l6.619,12.39L674.976-256.767z"/>
		<path fill="#006E12" d="M702.271-283.051l-5.499-5.499l12.619-12.623l11.271,11.27c-0.771,4.064-1.785,7.321-3.048,9.773
			c-1.262,2.452-3.167,4.951-5.715,7.5c-3.137,3.137-6.23,5.16-9.275,6.066c-3.048,0.908-6.175,0.849-9.379-0.18
			c-3.203-1.028-6.176-2.911-8.917-5.652c-2.883-2.885-4.798-5.99-5.739-9.313c-0.946-3.324-0.822-6.686,0.368-10.087
			c0.938-2.646,2.919-5.483,5.948-8.511c2.92-2.922,5.372-4.842,7.348-5.76c1.976-0.92,4-1.304,6.067-1.145
			c2.065,0.154,4.195,0.848,6.382,2.074l-6.473,9.282c-1.322-0.67-2.636-0.885-3.94-0.64c-1.302,0.247-2.556,0.971-3.758,2.174
			c-1.792,1.791-2.596,3.839-2.419,6.147c0.184,2.308,1.621,4.808,4.31,7.501c2.86,2.86,5.444,4.366,7.746,4.518
			c2.3,0.148,4.412-0.738,6.338-2.661c0.913-0.914,1.653-1.917,2.215-3.011c0.565-1.094,1.064-2.495,1.499-4.201l-2.491-2.488
			L702.271-283.051z"/>
		<path fill="#006E12" d="M702.866-317.361l21.886-21.891l5.644,5.644l-13.7,13.704l4.197,4.202l12.716-12.711l5.39,5.391
			l-12.711,12.71l5.211,5.212l14.1-14.101l5.984,5.987l-22.283,22.286L702.866-317.361z"/>
	</g>
</g>
</svg>
