<?xml version="1.0" encoding="utf-8"?>
<!-- Generator: Adobe Illustrator 15.0.2, SVG Export Plug-In . SVG Version: 6.00 Build 0)  -->
<!DOCTYPE svg PUBLIC "-//W3C//DTD SVG 1.1//EN" "http://www.w3.org/Graphics/SVG/1.1/DTD/svg11.dtd">
<svg version="1.1" id="Calque_1" xmlns="http://www.w3.org/2000/svg" xmlns:xlink="http://www.w3.org/1999/xlink" x="0px" y="0px"
	 width="92px" height="56px" viewBox="0 0 92 56" enable-background="new 0 0 92 56" xml:space="preserve">
<path fill="#FFFBFF" d="M46,7.217c11.46,0,20.783,9.323,20.783,20.783S57.46,48.783,46,48.783S25.217,39.46,25.217,28
	S34.54,7.217,46,7.217 M46,5.924c-12.192,0-22.076,9.884-22.076,22.076S33.808,50.076,46,50.076S68.076,40.192,68.076,28
	S58.192,5.924,46,5.924L46,5.924z"/>
<g>
	<path fill="#FFFBFF" d="M37.751,37.887l0.908-1.185c2.369,3.671,7.775,3.671,7.775,3.671c3.829,0,6.394-2.724,6.394-6.394
		c0-5.92-7.025-5.881-8.367-6.196c-2.526-0.396-6.829-1.698-6.829-6.474c0-3.868,3.197-7.144,7.578-7.144
		c2.368,0,4.816,0.907,6.315,2.328l-0.789,1.342c-1.618-1.459-3.315-2.092-5.486-2.21c-3.591,0-6.118,2.604-6.118,5.684
		c0,2.802,2.486,4.696,5.486,5.013c4.263,0.435,9.749,2.053,9.749,7.854c0,4.224-3.435,7.539-7.933,7.658
		C46.434,41.834,40.396,41.794,37.751,37.887z"/>
</g>
</svg>
