<?xml version="1.0" encoding="utf-8"?>
<!-- Generator: Adobe Illustrator 15.0.2, SVG Export Plug-In . SVG Version: 6.00 Build 0)  -->
<!DOCTYPE svg PUBLIC "-//W3C//DTD SVG 1.1//EN" "http://www.w3.org/Graphics/SVG/1.1/DTD/svg11.dtd">
<svg version="1.1" id="Calque_1" xmlns="http://www.w3.org/2000/svg" xmlns:xlink="http://www.w3.org/1999/xlink" x="0px" y="0px"
	 width="80px" height="80px" viewBox="0 0 80 80" enable-background="new 0 0 80 80" xml:space="preserve">
<path fill="#FFFBFF" d="M40,7.834c17.736,0,32.166,14.43,32.166,32.166S57.736,72.166,40,72.166S7.834,57.736,7.834,40
	S22.264,7.834,40,7.834 M40,5.834C21.13,5.834,5.834,21.13,5.834,40C5.834,58.869,21.13,74.166,40,74.166
	c18.869,0,34.166-15.297,34.166-34.166C74.166,21.13,58.869,5.834,40,5.834L40,5.834z"/>
<g>
	<path fill="#FFFBFF" d="M27.233,55.301l1.405-1.832c3.666,5.681,12.034,5.681,12.034,5.681c5.926,0,9.896-4.215,9.896-9.896
		c0-9.163-10.873-9.101-12.95-9.59c-3.91-0.612-10.568-2.627-10.568-10.019c0-5.986,4.947-11.055,11.728-11.055
		c3.664,0,7.453,1.403,9.773,3.603L47.33,24.27c-2.504-2.258-5.131-3.237-8.49-3.42c-5.558,0-9.468,4.032-9.468,8.796
		c0,4.337,3.848,7.269,8.49,7.758C44.46,38.076,52.95,40.58,52.95,49.559c0,6.536-5.315,11.667-12.278,11.852
		C40.672,61.41,31.326,61.349,27.233,55.301z"/>
</g>
</svg>
