<?xml version="1.0" encoding="utf-8"?>
<!-- Generator: Adobe Illustrator 15.0.2, SVG Export Plug-In . SVG Version: 6.00 Build 0)  -->
<!DOCTYPE svg PUBLIC "-//W3C//DTD SVG 1.1//EN" "http://www.w3.org/Graphics/SVG/1.1/DTD/svg11.dtd">
<svg version="1.1" id="Calque_1" xmlns="http://www.w3.org/2000/svg" xmlns:xlink="http://www.w3.org/1999/xlink" x="0px" y="0px"
	 width="80px" height="80px" viewBox="0 0 80 80" enable-background="new 0 0 80 80" xml:space="preserve">
<path fill="#FFFBFF" d="M40,11.756c15.574,0,28.244,12.67,28.244,28.244c0,15.574-12.67,28.244-28.244,28.244
	c-15.574,0-28.244-12.67-28.244-28.244C11.756,24.426,24.426,11.756,40,11.756 M40,10c-16.569,0-30,13.431-30,30
	c0,16.568,13.431,30,30,30c16.568,0,30-13.432,30-30C70,23.431,56.568,10,40,10L40,10z"/>
<g>
	<path fill="#FFFBFF" d="M28.789,53.435l1.233-1.607c3.219,4.987,10.567,4.987,10.567,4.987c5.203,0,8.689-3.7,8.689-8.688
		c0-8.046-9.547-7.992-11.37-8.421c-3.434-0.537-9.28-2.308-9.28-8.797c0-5.257,4.344-9.708,10.298-9.708
		c3.218,0,6.545,1.232,8.582,3.164l-1.072,1.823c-2.199-1.983-4.506-2.842-7.455-3.004c-4.881,0-8.313,3.54-8.313,7.725
		c0,3.808,3.379,6.383,7.455,6.812c5.793,0.591,13.248,2.79,13.248,10.673c0,5.739-4.668,10.245-10.781,10.407
		C40.59,58.8,32.383,58.746,28.789,53.435z"/>
</g>
</svg>
