<?xml version="1.0" encoding="utf-8"?>
<!-- Generator: Adobe Illustrator 15.0.2, SVG Export Plug-In . SVG Version: 6.00 Build 0)  -->
<!DOCTYPE svg PUBLIC "-//W3C//DTD SVG 1.1//EN" "http://www.w3.org/Graphics/SVG/1.1/DTD/svg11.dtd">
<svg version="1.1" id="Calque_1" xmlns="http://www.w3.org/2000/svg" xmlns:xlink="http://www.w3.org/1999/xlink" x="0px" y="0px"
	 width="205px" height="205px" viewBox="0 0 205 205" enable-background="new 0 0 205 205" xml:space="preserve">
<path fill="#FFFBFF" d="M102.5,41.148c33.829,0,61.352,27.522,61.352,61.352s-27.522,61.352-61.352,61.352
	S41.148,136.329,41.148,102.5S68.671,41.148,102.5,41.148 M102.5,37.334c-35.991,0-65.166,29.175-65.166,65.166
	c0,35.99,29.175,65.166,65.166,65.166c35.99,0,65.166-29.176,65.166-65.166C167.666,66.509,138.49,37.334,102.5,37.334L102.5,37.334
	z"/>
<g>
	<path fill="#FFFBFF" d="M78.148,131.684l2.679-3.494c6.993,10.835,22.954,10.835,22.954,10.835
		c11.303,0,18.875-8.039,18.875-18.874c0-17.477-20.738-17.359-24.699-18.291C90.5,100.692,77.8,96.848,77.8,82.75
		c0-11.418,9.436-21.086,22.369-21.086c6.989,0,14.215,2.677,18.641,6.871l-2.33,3.961c-4.775-4.307-9.787-6.173-16.194-6.523
		c-10.601,0-18.058,7.689-18.058,16.777c0,8.272,7.34,13.865,16.194,14.797c12.583,1.283,28.777,6.06,28.777,23.185
		c0,12.467-10.137,22.253-23.418,22.604C103.781,143.336,85.955,143.219,78.148,131.684z"/>
</g>
</svg>
