<?xml version="1.0" encoding="utf-8"?>
<!-- Generator: Adobe Illustrator 15.0.2, SVG Export Plug-In . SVG Version: 6.00 Build 0)  -->
<!DOCTYPE svg PUBLIC "-//W3C//DTD SVG 1.1//EN" "http://www.w3.org/Graphics/SVG/1.1/DTD/svg11.dtd">
<svg version="1.1" id="Calque_1" xmlns="http://www.w3.org/2000/svg" xmlns:xlink="http://www.w3.org/1999/xlink" x="0px" y="0px"
	 width="80px" height="28px" viewBox="0 0 80 28" enable-background="new 0 0 80 28" xml:space="preserve">
<g>
	<path fill="#2D2D2D" d="M72.235,19.539c0-0.581,0.424-1.021,0.965-1.021c0.536,0,0.958,0.439,0.958,1.021
		c0,0.592-0.422,1.027-0.958,1.027C72.659,20.566,72.235,20.131,72.235,19.539z M73.2,20.771c0.645,0,1.196-0.52,1.196-1.231
		c0-0.705-0.552-1.225-1.196-1.225c-0.651,0-1.202,0.52-1.202,1.225C71.998,20.251,72.549,20.771,73.2,20.771z M72.95,19.637h0.237
		l0.36,0.614h0.231l-0.388-0.624c0.2-0.025,0.354-0.137,0.354-0.39c0-0.279-0.16-0.403-0.482-0.403h-0.52v1.417h0.207V19.637z
		 M72.95,19.455v-0.438h0.281c0.145,0,0.298,0.032,0.298,0.207c0,0.219-0.157,0.231-0.332,0.231H72.95z"/>
	<path fill="#2D2D2D" d="M54.23,9.5c-1.495-2.186-3.65-2.271-6.554-2.271c-0.382,0-3.963,0.085-4.328,0.085v13.456h3.176
		l0.005-11.716c0.521,0,1.112-0.021,1.547-0.021c1.408,0,3.86,0,3.86,4.755c0,4.783-1.975,5.112-4.17,5.135v1.845
		c1.508-0.018,2.82-0.131,3.821-0.57c2.191-0.955,3.755-3.247,3.755-6.558C55.343,12.663,55.187,10.88,54.23,9.5z"/>
	<path fill="#2D2D2D" d="M27.654,18.782v-3.644h4.123v-1.832h-4.123v-3.151h4.626V8.284h-7.33v10.915
		c0.004,0.862,0.698,1.56,1.558,1.571h5.964v-1.988H27.654z"/>
	<path fill="#2D2D2D" d="M21.689,7.314l-2.659,8.999l-2.399-8.999h-1.948l-2.642,8.999L9.917,8.57
		C9.699,7.846,9.414,7.358,8.348,7.314H5.5c0,0,0.767,0.388,1.393,2.31c0.358,1.1,3.341,11.146,3.341,11.146h2.242l2.538-7.853
		l2.19,7.853h2.225l4.78-13.456H21.689z"/>
	<g>
		<polygon fill="#2D2D2D" points="67.274,8.286 67.274,8.286 67.273,8.284 64.2,8.284 67.969,20.771 69.919,20.771 70.314,19.694 		
			"/>
		<polygon fill="#2D2D2D" points="71.059,17.664 74.5,8.284 72.313,8.284 70.295,14.796 		"/>
	</g>
	<g>
		<rect x="60.545" y="13.307" fill="#2D2D2D" width="2.881" height="1.832"/>
		<polygon fill="#2D2D2D" points="59.303,18.782 59.303,10.155 63.928,10.155 63.928,8.284 56.598,8.284 56.598,20.771 
			64.12,20.771 64.12,18.782 		"/>
	</g>
	<path fill="#2D2D2D" d="M40.946,14.837c-0.326-0.279-0.754-0.483-1.284-0.61c0.453-0.152,0.793-0.308,1.02-0.466
		c0.695-0.461,1.044-1.245,1.044-2.351c0-1.051-0.291-1.844-0.872-2.379c-0.55-0.498-1.282-0.747-2.196-0.747H34.07v10.885
		c0.012,0.843,0.682,1.523,1.519,1.556h3.205c0.728,0,1.359-0.203,1.896-0.61c0.813-0.62,1.221-1.574,1.221-2.862
		C41.91,16.201,41.589,15.396,40.946,14.837z M36.815,9.63h0.731c1.008,0,1.513,0.646,1.513,1.937c0,0.394-0.051,0.761-0.15,1.1
		c-0.101,0.34-0.229,0.588-0.386,0.746c-0.238,0.229-0.623,0.345-1.153,0.345h-0.555V9.63z M37.684,19.379h-0.868v-4.307h0.619
		c1.136,0,1.703,0.764,1.703,2.29C39.138,18.707,38.653,19.379,37.684,19.379z"/>
</g>
</svg>
