<?xml version="1.0" encoding="utf-8"?>
<!-- Generator: Adobe Illustrator 15.0.0, SVG Export Plug-In . SVG Version: 6.00 Build 0)  -->
<!DOCTYPE svg PUBLIC "-//W3C//DTD SVG 1.1//EN" "http://www.w3.org/Graphics/SVG/1.1/DTD/svg11.dtd">
<svg version="1.1" id="Calque_1" xmlns="http://www.w3.org/2000/svg" xmlns:xlink="http://www.w3.org/1999/xlink" x="0px" y="0px"
	 width="32px" height="32px" viewBox="0 0 32 32" enable-background="new 0 0 32 32" xml:space="preserve">
<path fill="#2D2D2D" d="M28.445,4.906c0.495,0,0.963,0.195,1.316,0.55c0.355,0.355,0.551,0.823,0.551,1.318v18.453
	c0,0.495-0.195,0.963-0.55,1.317s-0.822,0.55-1.317,0.55H3.555c-0.495,0-0.963-0.195-1.317-0.551
	c-0.355-0.354-0.55-0.821-0.55-1.316V6.774c0-0.495,0.195-0.963,0.55-1.317c0.354-0.355,0.823-0.55,1.317-0.55H28.445z
	 M28.445,3.219H3.555C1.6,3.219,0,4.819,0,6.774v18.453c0,1.955,1.6,3.555,3.555,3.555h24.89c1.955,0,3.555-1.6,3.555-3.555V6.774
	C32,4.819,30.4,3.219,28.445,3.219z"/>
<path fill="#2D2D2D" d="M16.227,17.111L1.503,5.334l1.054-1.317l13.669,10.934L29.669,4.186l1.055,1.317L16.227,17.111z"/>
</svg>
