<?xml version="1.0" encoding="utf-8"?>
<!-- Generator: Adobe Illustrator 15.0.0, SVG Export Plug-In . SVG Version: 6.00 Build 0)  -->
<!DOCTYPE svg PUBLIC "-//W3C//DTD SVG 1.1//EN" "http://www.w3.org/Graphics/SVG/1.1/DTD/svg11.dtd">
<svg version="1.1" id="Calque_1" xmlns="http://www.w3.org/2000/svg" xmlns:xlink="http://www.w3.org/1999/xlink" x="0px" y="0px"
	 width="32px" height="32px" viewBox="0 0 32 32" enable-background="new 0 0 32 32" xml:space="preserve">
<path fill="#2D2D2D" d="M16,1.688c2.567,0,4.963,0.982,6.747,2.766c1.784,1.784,2.767,4.18,2.767,6.747
	c0,3.058-1.829,7.396-5.29,12.544c-1.574,2.342-3.164,4.365-4.224,5.65c-1.052-1.277-2.629-3.284-4.2-5.617
	C8.324,18.615,6.487,14.265,6.487,11.2c0-2.567,0.982-4.963,2.766-6.747C11.037,2.67,13.433,1.688,16,1.688z M16,16.887
	c3.19,0,5.688-2.498,5.688-5.687S19.189,5.512,16,5.512c-3.189,0-5.688,2.498-5.688,5.688S12.81,16.887,16,16.887z M16,0
	C9.76,0,4.8,4.96,4.8,11.2C4.8,19.521,16,32,16,32S27.2,19.521,27.2,11.2C27.2,4.96,22.239,0,16,0z M16,15.2c-2.24,0-4-1.76-4-4
	s1.76-4,4-4c2.239,0,4,1.76,4,4S18.238,15.2,16,15.2z"/>
</svg>
