<?xml version="1.0" encoding="utf-8"?>
<!-- Generator: Adobe Illustrator 15.0.0, SVG Export Plug-In . SVG Version: 6.00 Build 0)  -->
<!DOCTYPE svg PUBLIC "-//W3C//DTD SVG 1.1//EN" "http://www.w3.org/Graphics/SVG/1.1/DTD/svg11.dtd">
<svg version="1.1" id="Calque_1" xmlns="http://www.w3.org/2000/svg" xmlns:xlink="http://www.w3.org/1999/xlink" x="0px" y="0px"
	 width="95px" height="34px" viewBox="0 0 95 34" enable-background="new 0 0 95 34" xml:space="preserve">
<g>
	<path fill="#FFFBFC" d="M0,0c0,0,11.565,8.522,44.277,10.243c32.713,1.721,36.08,12.567,32.973,17.301
		c0,0,2.934-9.124-20.025-11.19C34.266,14.289,5.178,14.977,0,0z"/>
	<path fill="#FFFBFC" d="M11.048,12.825c0,0,10.551,5.251,32.54,5.251c21.988,0,32.367,3.185,32.367,11.104
		c0,0-0.432-5.164-18.039-6.283S20.034,24.426,11.048,12.825z"/>
	<path fill="#FFFBFC" d="M16.054,19.539c0,0,7.164,5.854,21.492,5.854c14.327,0,36.251-1.808,36.251,4.992
		c0,0,0.129,1.594-1.898,3.615c0,0,2.504-5.939-9.147-5.939s-12.688,1.895-25.376,1.895C24.686,29.955,17.409,22.695,16.054,19.539z
		"/>
	<g>
		<path fill="#FFFBFC" d="M94.102,16.742c-0.259-0.538-4.51-1.399-5.136-1.399s-1.215-1.284-1.215-1.284
			c-12.659-2.754-21.724-1.771-21.724-1.771s6.39,1.313,9.689,3.336c3.301,2.022,4.293,5.358,4.293,7.015
			c0,1.657-0.582,3.658-0.582,3.658c2.567-1.376,2.008-3.119,3.561-5.186c1.554-2.065,9.818-2.646,10.291-2.646
			c0.478,0,1.469,0.58,1.685,0.58C95.182,19.044,94.361,17.28,94.102,16.742z M87.154,16.01l-3.647-1.292
			c0,0,3.519,0.237,4.036,0.345C87.542,15.063,87.337,15.827,87.154,16.01z"/>
	</g>
</g>
</svg>
